<svg version="1.1" xmlns="http://www.w3.org/2000/svg" xmlns:xlink="http://www.w3.org/1999/xlink" x="0px" y="0px"
	 viewBox="0 0 381.39 111.55" style="enable-background:new 0 0 381.39 111.55;" xml:space="preserve">
<style type="text/css">
	.st0{fill:#FFFFFF;}
	.st1{fill-rule:evenodd;clip-rule:evenodd;fill:#FFFFFF;}
</style>
<g>
	<path class="st0" d="M112.75,33.03h3.6v12.4h-3.6V33.03z"/>
	<path class="st0" d="M122.59,45.53c-2.32,0-3.22-0.96-3.22-3.38v-2.84h-1.62l0.58-2.26h1.04v-1.86l3.08-0.64v2.5h1.88v2.26h-1.88
		v2.88c0,0.82,0.18,1.08,0.78,1.08c0.66,0,1.1-0.08,1.36-0.12l-0.56,2.28C123.67,45.49,123.21,45.53,122.59,45.53z"/>
	<path class="st0" d="M138.95,45.43l-0.76-1.62h-4.32l-0.7,1.62h-3.96l6.5-12.7h0.66l6.48,12.7H138.95z M134.83,41.37h2.4
		l-1.18-2.72L134.83,41.37z"/>
	<path class="st0" d="M152.67,40.99c0,2.46-1.4,4.54-3.96,4.54c-0.96,0-1.78-0.3-1.78-0.3v2.68l-3.06,0.66c-0.02,0,0-3.08,0-11.54
		h3.04v1.48c0.06-0.2,0.6-1.64,2.34-1.64C151.29,36.87,152.67,38.45,152.67,40.99z M148.31,39.29c-0.86,0-1.4,0.88-1.4,2.84v0.88
		c0.24,0.12,0.6,0.24,1.08,0.24c1.08,0,1.58-0.98,1.58-2.16C149.57,40.13,149.21,39.29,148.31,39.29z"/>
	<path class="st0" d="M163.13,40.99c0,2.46-1.4,4.54-3.96,4.54c-0.96,0-1.78-0.3-1.78-0.3v2.68l-3.06,0.66c-0.02,0,0-3.08,0-11.54
		h3.04v1.48c0.06-0.2,0.6-1.64,2.34-1.64C161.75,36.87,163.13,38.45,163.13,40.99z M158.77,39.29c-0.86,0-1.4,0.88-1.4,2.84v0.88
		c0.24,0.12,0.6,0.24,1.08,0.24c1.08,0,1.58-0.98,1.58-2.16C160.03,40.13,159.67,39.29,158.77,39.29z"/>
	<path class="st0" d="M170.35,39.69c-1.56-0.1-2.54,0.86-2.54,3.22v2.52h-3.04v-8.38h3.04v1.46c0.02-0.08,0.36-1.06,1.48-1.46
		c0.38-0.14,0.84-0.2,1.4-0.16C170.69,36.89,170.31,39.67,170.35,39.69z"/>
	<path class="st0" d="M176.09,43.25c0.82,0,1.4-0.14,2.2-0.72l1.24,2.04c-1.32,0.86-2.62,0.98-3.56,0.98c-2.94,0-4.8-1.68-4.8-4.34
		c0-2.6,1.86-4.34,4.32-4.34c2.28,0,4.1,1.5,4.1,4.06c0,0.58-0.08,1.08-0.08,1.08h-5.36C174.29,42.87,175.13,43.25,176.09,43.25z
		 M174.15,39.97h2.9c-0.16-0.68-0.62-1.18-1.44-1.18C174.81,38.79,174.33,39.31,174.15,39.97z"/>
	<path class="st0" d="M186.53,40.71c0-0.86-0.3-1.38-1.06-1.38c-1.1,0-1.22,1.5-1.22,2.38v3.72h-3.06v-8.38h3.06v1.46
		c0,0,0.68-1.62,2.52-1.62c1.8,0,2.86,1,2.86,3.54v5h-3.1V40.71z"/>
	<path class="st0" d="M195.27,45.53c-2.32,0-3.22-0.96-3.22-3.38v-2.84h-1.62l0.58-2.26h1.04v-1.86l3.08-0.64v2.5h1.88v2.26h-1.88
		v2.88c0,0.82,0.18,1.08,0.78,1.08c0.66,0,1.1-0.08,1.36-0.12l-0.56,2.28C196.35,45.49,195.89,45.53,195.27,45.53z"/>
	<path class="st0" d="M200.16,35.63c-0.94,0-1.7-0.5-1.7-1.36s0.76-1.34,1.7-1.34c0.96,0,1.7,0.48,1.7,1.34
		S201.12,35.63,200.16,35.63z M198.64,37.05h3.08v8.38h-3.08V37.05z"/>
	<path class="st0" d="M203.4,41.21c0-2.68,1.74-4.34,4.54-4.34c0.96,0,2.06,0.16,2.6,0.4l-0.14,2.3c-0.52-0.26-1.32-0.44-1.96-0.44
		c-1.22,0-2.02,0.82-2.02,2.04c0,1.2,0.8,2.02,1.98,2.02c0.62,0,1.36-0.26,1.76-0.6l1.12,2c-0.96,0.66-2.08,1-3.32,1
		C205.11,45.59,203.4,43.97,203.4,41.21z"/>
	<path class="st0" d="M216.65,43.25c0.82,0,1.4-0.14,2.2-0.72l1.24,2.04c-1.32,0.86-2.62,0.98-3.56,0.98c-2.94,0-4.8-1.68-4.8-4.34
		c0-2.6,1.86-4.34,4.32-4.34c2.28,0,4.1,1.5,4.1,4.06c0,0.58-0.08,1.08-0.08,1.08h-5.36C214.85,42.87,215.69,43.25,216.65,43.25z
		 M214.71,39.97h2.9c-0.16-0.68-0.62-1.18-1.44-1.18C215.37,38.79,214.89,39.31,214.71,39.97z"/>
	<path class="st0" d="M225.12,39.03c-0.4,0-0.66,0.16-0.66,0.4c0,0.9,4.16,0.58,4.16,3.36c0,1.82-1.52,2.8-3.6,2.8
		c-1.28,0-2.92-0.56-4-1.28l1.36-1.92c0.76,0.6,1.8,0.94,2.54,0.94c0.44,0,0.7-0.2,0.7-0.48c0-0.98-4.12-0.58-4.12-3.38
		c0-1.62,1.22-2.56,3.44-2.56c1.04,0,2.32,0.26,3.24,0.68l-0.44,2.06C226.87,39.29,225.77,39.03,225.12,39.03z"/>
	<path class="st0" d="M235.41,41.89c0-1.44,0-2.56-1.06-2.56c-1.1,0-1.22,1.5-1.22,2.38v3.72h-3.06V33.47l3.06-0.62v5.66
		c0,0,0.68-1.62,2.52-1.62c2.28,0,2.86,1.32,2.86,4.78v3.76h-3.1V41.89z"/>
	<path class="st0" d="M241.9,35.63c-0.94,0-1.7-0.5-1.7-1.36s0.76-1.34,1.7-1.34c0.96,0,1.7,0.48,1.7,1.34S242.86,35.63,241.9,35.63
		z M240.38,37.05h3.08v8.38h-3.08V37.05z"/>
	<path class="st0" d="M254.33,40.99c0,2.46-1.4,4.54-3.96,4.54c-0.96,0-1.78-0.3-1.78-0.3v2.68l-3.06,0.66c-0.02,0,0-3.08,0-11.54
		h3.04v1.48c0.06-0.2,0.6-1.64,2.34-1.64C252.95,36.87,254.33,38.45,254.33,40.99z M249.96,39.29c-0.86,0-1.4,0.88-1.4,2.84v0.88
		c0.24,0.12,0.6,0.24,1.08,0.24c1.08,0,1.58-0.98,1.58-2.16C251.23,40.13,250.87,39.29,249.96,39.29z"/>
	<path class="st0" d="M264.18,42.19v3.24h-3.6v-12.4h3.26c4.16,0,6.16,1.86,6.16,4.56C270.01,40.39,268.07,42.07,264.18,42.19z
		 M264.28,35.75h-0.08v3.74h0.04h0.04c1.24,0,2.18-0.68,2.18-1.9C266.46,36.47,265.52,35.75,264.28,35.75z"/>
	<path class="st0" d="M277.28,39.69c-1.56-0.1-2.54,0.86-2.54,3.22v2.52h-3.04v-8.38h3.04v1.46c0.02-0.08,0.36-1.06,1.48-1.46
		c0.38-0.14,0.84-0.2,1.4-0.16C277.62,36.89,277.24,39.67,277.28,39.69z"/>
	<path class="st0" d="M282.52,45.55c-2.56,0-4.62-1.56-4.62-4.32s2.06-4.34,4.62-4.34s4.6,1.58,4.6,4.36
		C287.13,43.99,285.08,45.55,282.52,45.55z M282.5,39.21c-0.84,0-1.54,0.74-1.54,2.02c0,1.3,0.7,2,1.54,2c0.86,0,1.54-0.7,1.54-1.98
		C284.04,39.95,283.37,39.21,282.5,39.21z"/>
	<path class="st0" d="M288.82,47.27l1.48-2.02c0,0,1.08,0.98,2.24,0.98c0.72,0,1.62-0.42,1.62-1.64v-1.22
		c-0.02,0.06-0.5,1.46-2.5,1.46c-1.86,0-3.26-1.54-3.26-3.86c0-2.28,1.62-4.08,4.56-4.08c2.46,0,3.94,1.18,4.24,1.4v5.56
		c0,3.68-2.12,4.74-4.66,4.74C290.3,48.59,288.82,47.27,288.82,47.27z M292.76,42.63c0.86,0,1.4-0.86,1.4-2.26v-1
		c-0.24-0.1-0.66-0.22-1.14-0.22c-1,0-1.52,0.84-1.52,1.82C291.5,41.91,291.86,42.63,292.76,42.63z"/>
	<path class="st0" d="M304.78,39.69c-1.56-0.1-2.54,0.86-2.54,3.22v2.52h-3.04v-8.38h3.04v1.46c0.02-0.08,0.36-1.06,1.48-1.46
		c0.38-0.14,0.84-0.2,1.4-0.16C305.12,36.89,304.74,39.67,304.78,39.69z"/>
	<path class="st0" d="M309.96,36.89c2.46,0,3.94,1.28,4.24,1.54v7h-3.04v-1.5c-0.02,0.08-0.5,1.66-2.34,1.66
		c-2.04,0-3.42-1.58-3.42-4.12C305.4,38.83,307.02,36.89,309.96,36.89z M309.76,43.17c0.86,0,1.4-0.88,1.4-2.84v-0.88
		c-0.24-0.12-0.6-0.24-1.08-0.24c-1.08,0-1.58,0.98-1.58,2.16C308.5,42.33,308.86,43.17,309.76,43.17z"/>
	<path class="st0" d="M325.73,40.71c0-0.86-0.08-1.38-0.84-1.38c-0.76,0-0.84,0.78-0.84,2.38v3.72h-3.1v-4.72
		c0-0.86-0.08-1.38-0.84-1.38c-0.76,0-0.84,0.78-0.84,2.38v3.72h-3.06v-8.38h3.06v1.46c0.02-0.1,0.18-0.8,0.8-1.24
		c0.32-0.22,0.76-0.38,1.34-0.38c1.26,0,2.04,0.5,2.4,1.68c0.28-0.62,0.92-1.68,2.38-1.68c1.8,0,2.64,1,2.64,3.54v5h-3.1V40.71z"/>
	<path class="st0" d="M117.77,56.75h0.84l1.7,3.56l1.42-3.56h3.32l-4.34,8.48h-0.82l-1.68-3.88l-1.7,3.88h-0.82l-4.34-8.48h3.3
		l1.42,3.56L117.77,56.75z"/>
	<path class="st0" d="M126.01,64.77v-8.04h3.06v7.88c0,2.54-0.98,3.54-4.14,3.44l-0.56-2.2C125.73,65.81,126.01,65.63,126.01,64.77z
		 M127.53,55.33c-0.94,0-1.7-0.5-1.7-1.36s0.76-1.34,1.7-1.34c0.96,0,1.7,0.48,1.7,1.34S128.49,55.33,127.53,55.33z"/>
	<path class="st0" d="M132.73,55.33c-0.94,0-1.7-0.5-1.7-1.36s0.76-1.34,1.7-1.34c0.96,0,1.7,0.48,1.7,1.34
		S133.69,55.33,132.73,55.33z M131.21,56.75h3.08v8.38h-3.08V56.75z"/>
	<path class="st0" d="M140.27,65.23c-2.32,0-3.22-0.96-3.22-3.38v-2.84h-1.62l0.58-2.26h1.04v-1.86l3.08-0.64v2.5h1.88v2.26h-1.88
		v2.88c0,0.82,0.18,1.08,0.78,1.08c0.66,0,1.1-0.08,1.36-0.12l-0.56,2.28C141.35,65.19,140.89,65.23,140.27,65.23z"/>
	<path class="st0" d="M148.18,52.73h3.6v9.66h4.46l-0.64,2.74h-7.42V52.73z"/>
	<path class="st0" d="M154.84,58.19l1.2-5.46h3.72l-2.72,6.08L154.84,58.19z"/>
	<path class="st0" d="M165.21,60.41c0-0.86-0.3-1.38-1.06-1.38c-1.1,0-1.22,1.5-1.22,2.38v3.72h-3.06v-8.38h3.06v1.46
		c0,0,0.68-1.62,2.52-1.62c1.8,0,2.86,1,2.86,3.54v5h-3.1V60.41z"/>
	<path class="st0" d="M173.21,61.47c0,0.86,0.3,1.38,1.06,1.38c1.1,0,1.22-1.5,1.22-2.38v-3.72h3.06v8.38h-3.06v-1.46
		c0,0-0.68,1.62-2.52,1.62c-2.2,0-2.86-1.4-2.86-3.92v-4.62h3.1V61.47z"/>
	<path class="st0" d="M180.44,58.19l1.2-5.46h3.72l-2.72,6.08L180.44,58.19z"/>
	<path class="st0" d="M186.86,65.13V53.17l3.06-0.62v12.58H186.86z M191.99,56.73h3.52l-2.18,3.58l2.94,4.82h-3.6l-2.58-4.84
		L191.99,56.73z"/>
</g>
<g>
	<g>
		<path class="st0" d="M46.77,18.54c-0.02-0.14,2.06,0.06,2.7-0.39c0.67-0.46,2.6-2.7,2.81-2.7c0.23-0.01-1.15,2.69-0.62,3.35
			c0.49,0.61,1.37,1.05,1.4,1.19c0.04,0.18-1.9,0.12-2.5,0.53c-0.88,0.6-1.89,1.77-2.12,1.75c-0.21-0.02,0.57-1.94,0.04-2.57
			C47.87,18.98,46.79,18.66,46.77,18.54z"/>
		<path class="st0" d="M14.58,45.66c0,0,2.69-12.9,8.67-16.5c1.06-0.64-0.48,5.96,3.83,1.49c3.27-3.39,4.82-6.03,6.1-6.33
			c1.28-0.3-5.27,11.09,2.1,6.6c8.53-5.2,10.35-7.64,12.37-6.91c2.08,0.75-2.05,5.89,3.79,3.68c9.09-3.43,9.63-8.8,11.7-9.52
			c1.33-0.47,2.02,1.02,5.88,0.22c3.86-0.8,4.45-1.5,7.18-0.82c6.29,1.55,4.3,10.36,4.3,10.36s-4.19-9.76-12.8-7.1
			c-12.26,3.78-10.12,11.11-19.73,12.15c-15.61,1.69-21.1,0.69-22.89,0.76C20.37,33.94,19.09,38.27,14.58,45.66z"/>
		<path class="st0" d="M14.79,38.78c0.02-0.05,0.04-0.1,0.07-0.15C18.38,30.7,25.11,22,26.16,23.19c1.5,1.71-2.04,5.95-0.21,5.04
			c1.83-0.91,9.27-15.16,12.86-12.9c1.81,1.13-4.66,7.57-3.04,8.59c1.62,1.02,5.8-1.02,7.78-3.26c5.28-5.96,6.95-8.78,13.75-9.86
			c9.09-1.45-7,10.32-2.48,11.48c4.52,1.16,5.62-9.52,13.52-9.13c2.53,0.13-7.78,6.39,2.69,3.05c3.15-1.01,6.59-0.95,8.25,0.53
			c2.93,2.6,4.52,8.74,2.79,11.83c-0.14,0.25,4.55-1.88,10.38,1.43C86.62,18.36,75.67,10.23,63.15,7.81
			c-4.8-0.77-10.1-0.89-15.83,0.02c-0.54,0.1-1.08,0.22-1.61,0.34C29.95,11.88,18.41,24.08,14.79,38.78z"/>
		<path class="st0" d="M23.59,55.11c-0.74-0.73-0.22-2.62-2.7-2.32c-1.87,0.21-3.61,1.62-4.47,3.37c1.08,0.68,2.21,1.36,3.39,2.02
			c-0.03-0.17-0.07-0.31-0.13-0.35c-0.4-0.3-1.51-1.58-1.43-1.61c0.07-0.03,1.87,1.66,2.84,1.62c0.97-0.04,0.7-0.09,0.77-0.04
			c0.08,0.05-0.09,0.1-0.59,0.25c-0.2,0.06-0.52,0.19-0.84,0.47c0.64,0.35,1.29,0.7,1.95,1.04c0.67-0.76,2.22-2.68,2.22-2.83
			C24.61,56.51,24.75,56.26,23.59,55.11z M20.98,56.65c-0.6,0.14-1.2-0.23-1.34-0.83c-0.14-0.6,0.23-1.2,0.83-1.34
			c0.6-0.14,1.2,0.23,1.34,0.83C21.95,55.91,21.58,56.51,20.98,56.65z"/>
		<path class="st0" d="M21.98,63.45c1.03,0.74,0.85,1.03,1.29,1.34c0.44,0.31,1.27,0.99,1.16,1.37c-0.1,0.34-0.84,0.61-0.59,1.73
			c0.31,1.38-1.14,2.42-2.4,0.84c-0.05-0.33-0.06-1.6,0.23-1.83c0.36-0.3,0.75-0.52,0.68-0.58c-0.07-0.05-0.66,0.49-1.22,0.32
			c-0.56-0.18-0.9-0.44-0.95-0.42c-0.05,0.02,0.54,0.35,0.86,0.72c0.2,0.23-0.18,1.31-0.08,1.65c-0.63-0.69-1.82-0.43-2.16-1.56
			c-0.29-2.02,1.6-3.69,2.05-4.07C20.86,62.96,21.2,62.89,21.98,63.45z M20.58,64.76c-0.26,0.38-0.15,0.92,0.26,1.2
			s0.95,0.19,1.21-0.19c0.26-0.38,0.15-0.92-0.26-1.2C21.39,64.29,20.85,64.37,20.58,64.76z"/>
		<g>
			<path class="st0" d="M92.1,40.55c0,0-1.79-2.46-2.85-3.83c-1.1-1.33-2.15-3.2-2.22-3.17c-0.07,0.02-0.55,1.92,0.3,3.19
				c0.84,1.28,1.5,1.73,1.77,2.04C90.12,39.9,92.1,40.55,92.1,40.55z"/>
			<path class="st0" d="M91.38,43.77c0,0-1.12-1.82-1.46-2.71c-0.44-1.07-0.86-1.43-1.07-1.73c-0.23-0.29-1.54-1.75-1.53-1.77
				c0.01-0.01-0.54,1.34,0.69,3.16C89.3,42.65,91.38,43.77,91.38,43.77z"/>
			<path class="st0" d="M86.69,37.59c-0.1,0.07-1.57-2.72-2.09-5.01c-0.49-2.17-0.13-2.41-0.05-2.44c0.07-0.01,1.66,2.24,1.86,2.8
				c0.16,0.58-0.59,2.14,0.18,3.63C86.94,37.26,86.79,37.52,86.69,37.59z"/>
			<path class="st0" d="M96.82,47.33c-0.91-0.52-1.97-1.57-2.08-1.81c-0.14-0.2-3.2-2.54-3.18-2.57c0.01-0.02,0.77,2.17,2.7,3.72
				c1,0.82,2.09,1.39,2.9,1.76c0-0.29-0.01-0.58-0.02-0.87C97.04,47.47,96.93,47.4,96.82,47.33z"/>
			<path class="st0" d="M94.8,44.98c0-0.01,0.86,1.08,2.32,1.98c-0.02-0.38-0.04-0.77-0.07-1.15C95.99,45.43,94.8,45,94.8,44.98z"/>
			<path class="st0" d="M94.39,42.58c-1.78-0.97-4.03-2.1-4.03-2.1s0.39,1.22,2.63,2.88c1.41,1.06,3,1.52,4,1.71
				c-0.02-0.26-0.05-0.51-0.08-0.77C96.22,43.78,95.3,43.12,94.39,42.58z"/>
		</g>
		<g>
			<path class="st0" d="M83.16,30.37c-2.7,0.07-4.39,2.78-4.45,3.38c-0.07,0.66-0.08,1.36-0.5,2.17c-0.42,0.8,0.1,1.29,0.85,1.66
				c0.97,0.47,0.55,1.14,1.05,1.85c0.25,0.35,6.1,1.67,6.37,1.44C87.27,40.21,83.75,37.7,83.16,30.37z M82.08,35.88
				c-0.61,0.41-1.46,0.23-1.88-0.4c-0.42-0.63-0.27-1.48,0.35-1.89c0.61-0.41,1.46-0.23,1.88,0.4
				C82.85,34.63,82.7,35.47,82.08,35.88z"/>
		</g>
		<path class="st0" d="M78.49,30.26c-0.08-0.21-0.17-0.41-0.26-0.6c-3.13-6.65-11.57-5.12-15.59,2.87c-1.83,3.64-4.4,8.85-4.05,8.71
			c4.72-1.84,12.15-2.01,12.57-2.07c0.2-0.02,2.51-2.81,4.15-2.11c1.38,0.59,2.64-2.74,2.66-4.62c0.02-1.98-1.19-3.1-2.76-3.73
			c-1.13-0.45-3.14-0.79-4.27-0.69c2.47-0.78,4.78-0.48,7.08,1.74C78.18,29.92,78.34,30.08,78.49,30.26z M71.46,36.58
			c-2.63,1.31-5.8,0.89-6.41,0.59c0.75-0.11,5.11-0.04,4.8-1.49c-0.22-1.02-1.09-1.46-0.96-1.61c0.47-0.58,1.47,1.42,3.55,1.23
			C74.52,35.12,72.39,36.12,71.46,36.58z M74.45,31.86c0.25,1.06-0.41,2.12-1.47,2.37c-1.06,0.25-2.12-0.41-2.37-1.47
			c-0.25-1.06,0.41-2.12,1.47-2.37C73.14,30.14,74.2,30.8,74.45,31.86z"/>
		<path class="st0" d="M44.8,42.68c-1.52-0.6-4.34-5.56-10.05-0.73c-5.61,4.74,0.63,19.47,1.62,19.01c0.78-0.36-4.15-9.55-0.83-16.2
			c-1.05,3.36-1.02,7.79,0.59,10.59c0.48,0.83,0.56-2.98,1.78-4.31c1.94-2.11,2.77,0.26,3.88-2.69
			C42.86,45.49,46.64,43.4,44.8,42.68z M40.47,41.96c0.8-0.19,1.59,0.31,1.78,1.1c0.19,0.8-0.31,1.59-1.1,1.78
			c-0.8,0.19-1.59-0.31-1.78-1.1C39.18,42.94,39.68,42.15,40.47,41.96z M40.85,46.53c-1.58,0.24-1.73,2.33-2.29,2.25
			c-0.21-0.03,1.15-2.34,0.34-2.94c-0.82-0.6-1.25-0.97,0.48-0.32c1.73,0.65,2.94,0.05,3.05,0.14
			C42.54,45.76,41.86,46.38,40.85,46.53z"/>
		<path class="st0" d="M76.88,51.2c0,0,0.42,2.73,1.34,3.22c2.5,1.35,2.74,2.67,2.74,2.67s0.25-3.15-0.44-3.86
			C78.8,51.46,76.88,51.2,76.88,51.2z"/>
		<path class="st1" d="M80.72,69.06c0.46,0.15,1.1,0.33,1.47,0.39c-1.68-1.06-2.94-4.44-1.53-5.92c0.17,0.5,1.65,2.19,1.99,2.39
			c0.05-1.8,2.02-2.42,1.02-5.44c4.37,2.76,2.91,7.85,0.8,8.96c0.03-0.02,3.15,0.77,5.05-2.05c1.84-2.73-5.13-12.01-7.38-14.86
			c-0.42-0.53-0.55-0.37-0.4,0.35c0.39,1.92,0.93,5.61-0.4,7c0.29-0.3-1.53-3.29-3.22-4.27c-0.25-0.15-0.5-0.25-0.74-0.29
			c0.11,0.22,0.2,0.44,0.27,0.68c1.27,4.15-3.21,10.14-0.32,11.65C79.13,68.6,79.64,68.7,80.72,69.06z"/>
		<path class="st0" d="M68.32,56.9c0.83-0.59,3.95-1.59,4.72-1.16c3,1.67,1.87,2.62,1.87,2.62c0.18,0.18,1.44-0.37,0.95-2.56
			c-0.29-1.27-0.89-2.67-3.26-3.68c-3.11-1.32-7.71-1.3-9.16-0.62C64.55,52.77,65.68,55.76,68.32,56.9z M71.5,53.54
			c0,0.58-0.47,1.06-1.06,1.06c-0.58,0-1.06-0.47-1.06-1.06c0-0.58,0.47-1.06,1.06-1.06C71.03,52.48,71.5,52.96,71.5,53.54z"/>
		<path class="st0" d="M66.97,57.05c-4.35-2.33-2.06-7.42-9.25-4.04c-7.63,3.59-10.04,13.3-9.91,13.4c0.12,0.1,3.38-3.36,6.46-5.29
			c0.21-0.13,2.74-3.81,2.74-3.81s-0.73,1.95-1.07,2.89c0.64-0.31,1.31-0.6,2.01-0.85c0.17-0.24,0.31-0.45,0.42-0.64
			c0.75-1.29,1.66-3.25,1.66-3.25s-0.97,3.55-0.83,3.49C65.45,56.55,68.95,58.11,66.97,57.05z"/>
		<path class="st0" d="M75.81,82.36"/>
		<path class="st0" d="M74.08,67.53c0,0-0.5,0.88-0.95,0.76c-0.21-0.05,0.28-2.37,0.39-2.43c0.29-0.15,0.91-0.06,0.98,0.4
			S74.08,67.53,74.08,67.53z"/>
		<path class="st0" d="M73.01,65.6c-0.22-0.71-2.52-2.46-4.98-3.61c-2.08-0.97-0.95-3.4-3.12-3.16c-1.2,0.13-3.07,2.5-3.84,4.94
			c-0.68,2.18-2.92,2.01-2.92,2.01s1.53-1.02,2.25-2.01c0.72-1,0.78-2.08-0.68-1.94c-1.46,0.15-4.67,1.2-7.26,2.86
			c-3.87,2.47-5.14,3.21-4.95,3.3c0.2,0.09,7.37-0.01,12.29,0.41c4.96,0.43,6.7,0.59,8.66,0.4c1.02-0.09,3.89-0.3,3.89-0.3
			S73.23,66.31,73.01,65.6z M64.07,61.17c-0.26-0.03,0.24-1.45,0.88-1.56c0.65-0.11,0.91,0.62,1.05,1.14
			C66.13,61.28,64.32,61.2,64.07,61.17z M68.3,64.7c0,0.8-0.65,1.45-1.45,1.45s-1.45-0.65-1.45-1.45c0-0.8,0.65-1.45,1.45-1.45
			S68.3,63.89,68.3,64.7z"/>
		<path class="st0" d="M76.72,76.62c-5.9-0.34-7.15-0.48-10.26-0.65c-3.41-0.19-11.85-1.21-11.97-0.98
			c-0.11,0.23,4.33,1.76,6.79,3.34c2.92,1.88,6.26,4.31,10.5,3.2c0.2-0.05-2.01-3.6,1.36-3.12c0.35,0.05-3.62,4.27,3.74,2.59
			c1.98-0.45,3.6-2.68,4.49-1.84C82.01,78.55,79.9,76.81,76.72,76.62z M76.47,80.09c-0.55,0.1-1.09-0.24-1.2-0.78
			c-0.11-0.53,0.25-1.05,0.81-1.15c0.55-0.1,1.09,0.24,1.2,0.78C77.38,79.46,77.02,79.98,76.47,80.09z"/>
		<path class="st0" d="M79.06,81.44c-0.31,0.01-1.22,0.82-1.73,0.71c-0.69-0.15-0.87-0.54-0.87-0.54c-0.14-0.07-3.99,1.19-3.99,1.19
			s0,0,0,0c-1.05,0.26-2.56,0.49-3.68,0.09c-3.08-1.08-4.86-2-4.88-1.6c-0.01,0.39,4.2,2.04,3.79,3.2c-0.61,1.77-1.54,3.1-0.25,2.72
			c1.01-0.3,4.29-3.08,5.65-4.26c0.88,0.19,2.5,0.47,3.86,0.3C78.37,83.07,79.37,81.43,79.06,81.44z"/>
		<g>
			<g>
				<path class="st0" d="M56.95,85.92c-0.22-0.12-0.64-0.15-1.08,0.01c-0.29,0.11-0.68,0.61-0.13,1.26
					c0.37,0.44,0.32,1.24,0.03,1.59c-0.3,0.35-0.79,0.73-0.54,0.77c0.54,0.1,2.17-0.76,2.4-1.68
					C57.73,87.44,57.58,86.27,56.95,85.92z"/>
				<path class="st0" d="M58.6,85.36c-0.19,0.08-0.61,0.31-0.42,0.62c0.1,0.16,0.61,0.65,0.78,1.15c0.14,0.4,0.31,1.09-0.16,1.72
					c-0.26,0.34-0.6,0.64-0.36,0.63c0.09-0.01,0.44-0.17,0.62-0.29c1.31-0.82,1.87-2.86,0.47-3.78
					C59.17,85.17,58.79,85.28,58.6,85.36z"/>
				<path class="st0" d="M54.43,86.04c-0.31-0.35-0.58-0.34-0.93-0.31c-0.5,0.04-0.65,0.48-0.61,0.55c0.4,0.71,0.19,2-0.56,2.61
					c-0.24,0.19-0.65,0.32-0.69,0.37c0,0.1,0.13,0.11,0.21,0.08c1.4-0.36,1.81-0.91,2.26-1.65C54.57,86.96,54.73,86.39,54.43,86.04z
					"/>
				<path class="st0" d="M62.09,84.68c-0.48-0.31-1-0.26-1.29-0.17c-0.52,0.15-1.01,0.58-0.41,0.82c1.27,0.49,1.47,1.06,1.74,1.82
					c0.19,0.53,0.1,0.88,0.24,0.86c0.09-0.02,0.29-0.27,0.43-0.6C63.35,86.08,62.55,84.97,62.09,84.68z"/>
			</g>
			<path class="st0" d="M53.61,80.52c0.01,0.02,0.02,0.03,0.03,0.05c1.25,1.96-2.54,2.3-2.62,3.2c-0.08,0.9,1.86,1.27,4.81,1.15
				c2.95-0.13,4.7-1.62,4.78-2.53c0.04-0.49-2.52-1.78-4.6-2.43c2.16-0.2,3.31,0.36,3.31,0.36c-3.63-4.01-9.31-6.28-12.41-7.17
				c-0.36,0.13-0.21,3.89-0.13,4.19c0.04-0.05,0.33-0.39,0.69-0.82c0.41-0.49,0.78-0.5,0.34,0.05c-0.87,1.09-0.86,2.45-0.55,1.89
				c0.31-0.56,1.31-1.42,1.31-1.42s-0.16,0.33-0.61,0.99s-0.84,2.46-0.45,1.65c0.39-0.81,1.23-1.8,1.23-1.8s-0.79,1.91-0.82,3.02
				c-0.03,1.63,0.42-1.26,1.45-2.34c0.1,0.1-1.54,3.8-0.14,4.74c0.96,0.48,1.62-0.91,2.4-1.59C52.2,81.22,52.86,80.82,53.61,80.52z"
				/>
		</g>
		<path class="st0" d="M61.66,72.36c0.18-1.99,2.96-1.66,6.34-1.48c3.09,0.16,25.92,0.49,27.3,0.6c1.78,0.13,0.45,4.21-2.3,4.16
			c-7.09-0.13-25.93-1.06-26.65-1.14C63.83,74.24,61.5,74.11,61.66,72.36z"/>
		<path class="st0" d="M15.88,55.81c1.34-2.23,3.32-3.78,6.36-3.19c-0.27-0.22-0.62-0.42-1.1-0.59c-4.42-1-6.98,0.59-5.94,3.33
			C15.43,55.51,15.65,55.66,15.88,55.81z"/>
		<g>
			<path class="st0" d="M27.06,43.28c-7.52-1.86-12.45,8.76-9.78,7.65c1.49-0.61,2.43-0.28,3.26-0.14c1.34,0.12,2.65,0.29,2.8,0.09
				c1.93-2.52,4.06-2.69,4.17-2.9c0.1-0.21,0.25-0.38-0.26-2.04C26.86,44.69,28.15,43.61,27.06,43.28z M23.39,48.65
				c-0.79,0.04-1.16-0.18-1.65-0.77c-0.48-0.59-0.57-1.04-0.46-1.05c0.11-0.01,0.68,0.79,2.11,1.07c1.43,0.28,2.08,0.06,2.18,0.15
				C25.67,48.15,24.18,48.61,23.39,48.65z M24.31,47.41c-0.72,0.09-1.39-0.41-1.48-1.14c-0.09-0.72,0.41-1.39,1.14-1.48
				c0.72-0.09,1.39,0.41,1.48,1.14C25.55,46.65,25.04,47.32,24.31,47.41z"/>
			<path class="st0" d="M21.3,40.92c-4.65,1.56-6.16,5.6-6.61,10.2c-0.46,4.6,0.73,0.36,0.73,0.36s0.98-3.82,3.35-6.51
				c-0.09-0.09-0.16-0.24-0.22-0.47c-0.14-0.59,0.2-1.18,0.77-1.31c0.38-0.09,0.93-0.04,1.28,0.18c0.04-0.02,0.07-0.05,0.11-0.07
				c3.77-2.32,6.6-0.99,6.6-0.99S24.83,39.73,21.3,40.92z"/>
		</g>
		<path class="st0" d="M15.1,59.77c0.33,1.2,0.71,2.38,1.14,3.53c1.48-1.39,2.07-1.68,0.9-2.41C16.79,60.69,16.03,60.27,15.1,59.77z
			"/>
		<path class="st0" d="M16.8,64.18c-0.04,0.08-0.08,0.16-0.12,0.25c0.41,1.02,0.87,2.01,1.35,2.99c-0.25-2.39,0.08-3.4,0.65-3.29
			c0.41,0.08,0.34,0.49,0.37,0.4c0.45-1.14,1.75-1.75,1.75-1.75S17.99,62.07,16.8,64.18z"/>
		<path class="st0" d="M91.4,31.67c-3.63-1.75-4.71-1.78-5.89-1.63c0,0,2.82,3.48,5.85,7.79c1.31,1.86,3.4,3.46,5.05,4.55
			c-0.17-1.07-0.37-2.14-0.63-3.21c-0.33-1.39-0.72-2.74-1.17-4.06C93.6,33.52,92.49,32.2,91.4,31.67z"/>
		<path class="st0" d="M55.61,33.19c-8.09,1.91-17.62,0.42-24.35,8.27c-3.95,4.61-5.37,18.91-5.23,24.17
			c0.09,3.73-0.28,5.2,0.23,5.27c0.46,0.06,0.98-4.66,1.25-4.6c0.41,0.09,0.61,3.21,1.06,4.84c0.28,1.03,0.49,0.69,0.57-2.53
			c0.03-1.21-0.22-2.39,0.06-2.44c0.48-0.09,0.27,0,0.96,1.72c1.11,2.75,2.19,4.3,1.17,0.07c-0.78-3.21-0.63-3.53,0.59-1.4
			c2.7,4.75,2.68,3.23,1.67,0.57c-1.12-2.96-1.32-5.96-0.17-4.61c2.5,2.94,2.21,1.95-0.67-3.75c-2.66-5.25-3.19-17.08,4.6-19.78
			c4.89-1.7,9.79,1.87,12.21,0.7C53.16,37.94,55.86,33.13,55.61,33.19z"/>
		<path class="st0" d="M64.17,24.09c-9.76,6.1-4.78,10.88-13.7,16.82c-8.12,5.4-12.75,18.15-11.75,18.39
			c1,0.23,5.55-13.22,17.97-17.45c0.1-0.03,1.95-5.63,7.07-12.86c5.2-7.34,11.95-2.74,12.91-3.27
			C76.67,25.71,70.63,20.06,64.17,24.09z M53.38,40.74c-0.03,0.07,0.02,0.31-0.54,0.76c-0.56,0.45-1.26,0.66-1.61,0.77
			c-0.6,0.2-1.09,0.26-2.21,0.75C50.14,41.72,53.36,40.74,53.38,40.74z M47.24,45.43c0.95-0.98,2.8-2.26,3.35-2.4
			c0.49-0.12,1.43-0.2,1.48-0.2C52.02,42.92,49.7,44.15,47.24,45.43z M55.32,40.81c-1.09,1.39-2.59,1.75-2.58,1.74
			c0.01-0.06,0.41-0.58,0.61-0.79c0.2-0.21,0.34-0.87,1.22-1.41c0.51-0.31,1.5-1.1,1.5-1.03C56.06,39.44,55.45,40.6,55.32,40.81z
			 M56.39,38.22c-0.04,0.06-0.27,0.36-0.35,0.45c-0.08,0.09-0.37,0.38-0.54,0.5c-0.1,0.07-0.55,0.33-0.66,0.38
			c-0.18,0.09-1.74,0.79-1.77,0.81c0.08-0.14,1.29-1.55,2.09-2.02c0.86-0.51,1.71-2.27,1.85-2.41C57,36.02,56.66,37.84,56.39,38.22z
			"/>
		<path class="st0" d="M34.83,72.32c-0.72,0.05-0.11,3.24-0.49,3.33c-0.63,0.16-0.85-4.69-1.41-4.48c-0.91,0.35,0.59,4.8-0.52,4.97
			c-0.47,0.07-0.75-5.08-1.69-4.61c-0.58,0.29,1,4.96,0.1,5.06c-1.2,0.14-0.55-4.18-1.45-4.01c-0.8,0.15-0.43,4.86-1.23,4.47
			c-0.8-0.39-0.13-5-0.71-4.01c-0.26,0.45-0.7,2.78-0.8,3.15c-1.89-1.53-4.9-4.18-5.99-4.81c0.49,0.13,0.93,0.31,1.28,0.56
			c1.14,0.84,3.63,2.28,3.63,2.28s-2.04-3.43-3.21-4.32c-0.71-0.54-2.44-1.01-3.7-1.3c0.5,0.92,1.03,1.81,1.59,2.68
			c0,0,0.01,0,0.01,0c0,0,0,0.01,0,0.01c0.45,0.69,0.91,1.37,1.4,2.03c1.55,1.86,4.99,5.73,7.86,8.12c0.6,0.47,1.22,0.93,1.85,1.37
			c0.97,0.6,1.77,0.86,2.23,0.56C36.67,81.4,35.75,72.25,34.83,72.32z"/>
		<path class="st0" d="M25.27,62.22c-5.4-2.57-11.98-6.44-15.57-8.68c-2.29-1.43-2.02,0.58-0.76,1.41
			c3.66,2.4,10.45,6.32,16.05,9.03C25.07,63.41,25.18,62.75,25.27,62.22z"/>
		<g>
			<path class="st0" d="M44.09,66.68c1.28-5.11,3.78-8.75,6.1-11.04c3.74-3.68,10.08-7.7,19.44-7.99
				C87.5,47.1,92.47,61.54,91.65,68.95c1.64-2.94,2.92-6.09,3.81-9.37c-3.1-6.8-10.21-15.53-26.5-14.41
				c-9.65,0.66-16.28,5.44-20.36,9.66c-2.61,2.54-5.41,6.42-7.08,11.39C42.36,66.39,43.22,66.54,44.09,66.68z"/>
			<path class="st0" d="M43.43,77.68c-0.24-2.25-0.25-4.34-0.1-6.27c-0.99-0.24-1.97-0.48-2.93-0.72c-0.43,2.58-0.54,5.36-0.2,8.35
				c0.44,3.84,1.72,7.03,3.48,9.69c2.01,0.58,4.07,1.02,6.17,1.29C46.38,86.66,43.94,82.6,43.43,77.68z"/>
		</g>
		<g>
			<path class="st0" d="M69.48,41.15c-10.9,0.6-18.35,6.17-22.95,10.98c-3.01,2.96-6.24,7.54-8.1,13.41
				c0.69,0.17,1.38,0.33,2.09,0.48c1.81-6,5.17-10.32,7.82-12.95c4.21-4.19,11.94-9.7,22.5-9.96c14.6-0.36,21.83,8.65,25.05,14.78
				c0.46-2.05,0.78-4.15,0.93-6.27C93.48,46.01,86.1,40.23,69.48,41.15z"/>
			<path class="st0" d="M39.42,78.49c-0.3-2.89-0.23-5.56,0.12-8.02c-0.74-0.19-1.46-0.38-2.17-0.57c-0.53,3.03-0.67,6.32-0.26,9.85
				c0.32,2.71,0.99,5.15,1.93,7.33c1.07,0.45,2.16,0.86,3.27,1.23C40.85,85.57,39.82,82.33,39.42,78.49z"/>
		</g>
		<g>
			<path class="st0" d="M59.88,71.99c-0.05-0.45,0.14-0.89,0.3-1.19c-5.87-0.39-11.88-1.11-17.68-2.62
				c-2.75-0.71-5.35-1.51-7.8-2.36c0.29,0.71,0.58,1.58,0.78,2.23c2,0.7,4.09,1.36,6.27,1.98c6.06,1.71,12.31,2.72,18.81,3.3
				C60.07,72.96,59.94,72.57,59.88,71.99z"/>
		</g>
		<g>
			<path class="st0" d="M23.02,39.46c1.26-2.77,3.01-4.74,6.6-4.46c-0.34-0.22-0.78-0.4-1.35-0.53c-4.64-0.27-7.84,2.12-8.95,5.94
				C20.24,39.87,22.74,39.32,23.02,39.46z"/>
			<path class="st0" d="M30.79,37.76c-0.65-0.65,0.17-2.35-2.02-2.08c-1.66,0.18-3.82,1.39-4.79,3.79c1.44,0.27,2.5,0.59,3.4,0.85
				c0.18-0.29-0.22-0.64-0.42-0.82c-1.78-1.6-0.4-0.82,0.89-0.07c0.87,0.51,1.97,0.04,2.02,0.1c0.05,0.06-1.06,0.57-1.6,0.53
				c-0.42-0.04-0.57-0.01-0.81,0.27c0.59,0.17,1.13,0.32,2.09,0.52c0.51,0.11,0.73-0.43,1.16-0.85c0.6-0.58,1.1-0.84,1.1-0.92
				C31.79,38.9,31.82,38.78,30.79,37.76z M28.85,39.11c-0.53,0.13-1.06-0.2-1.19-0.73c-0.13-0.53,0.2-1.06,0.73-1.19
				c0.53-0.13,1.06,0.2,1.19,0.73C29.71,38.45,29.38,38.98,28.85,39.11z"/>
		</g>
		<path class="st0" d="M72.04,59.34c0,0,0.07,1.55,0.76,3.42c0.2,0.56,1.84,1.15,2.19,1.16c0.59,0.01,0.86-2.06,0.29-2.53
			C73.13,59.63,72.04,59.34,72.04,59.34z"/>
	</g>
</g>
<g>
	<path class="st0" d="M115.67,83.04c-0.42,0-0.67,0.17-0.67,0.44c0,0.97,2.81,0.57,2.81,2.74c0,1.26-0.97,2.03-2.54,2.03
		c-0.8,0-1.76-0.32-2.42-0.84l0.8-1.28c0.44,0.37,1.06,0.67,1.62,0.67c0.42,0,0.69-0.22,0.69-0.55c0-0.98-2.82-0.66-2.82-2.79
		c0-1.09,0.91-1.82,2.28-1.82c0.76,0,1.57,0.23,1.97,0.48l-0.12,1.43C116.78,83.27,116.19,83.04,115.67,83.04z"/>
	<path class="st0" d="M120.16,86.26c0,0.45,0.16,0.72,0.55,0.72c0.57,0,0.64-0.78,0.64-1.24V83.8h1.59v4.37h-1.59v-0.76
		c0,0-0.35,0.84-1.31,0.84c-1.15,0-1.49-0.73-1.49-2.04V83.8h1.62V86.26z"/>
	<path class="st0" d="M126.76,83.8h0.44l0.89,1.86l0.74-1.86h1.73l-2.26,4.42h-0.43l-0.88-2.02l-0.89,2.02h-0.43l-2.26-4.42h1.72
		l0.74,1.86L126.76,83.8z"/>
	<path class="st0" d="M132.9,83.72c1.28,0,2.05,0.67,2.21,0.8v3.65h-1.58v-0.78c-0.01,0.04-0.26,0.87-1.22,0.87
		c-1.06,0-1.78-0.82-1.78-2.15C130.53,84.73,131.37,83.72,132.9,83.72z M132.8,86.99c0.45,0,0.73-0.46,0.73-1.48v-0.46
		c-0.12-0.06-0.31-0.12-0.56-0.12c-0.56,0-0.82,0.51-0.82,1.12C132.14,86.55,132.33,86.99,132.8,86.99z"/>
	<path class="st0" d="M136.1,84.55l0.63-2.85h1.94l-1.42,3.17L136.1,84.55z"/>
	<path class="st0" d="M141.19,88.22c-1.21,0-1.68-0.5-1.68-1.76v-1.48h-0.84l0.3-1.18h0.54v-0.97l1.6-0.33v1.3h0.98v1.18h-0.98v1.5
		c0,0.43,0.09,0.56,0.41,0.56c0.34,0,0.57-0.04,0.71-0.06l-0.29,1.19C141.75,88.2,141.52,88.22,141.19,88.22z"/>
	<path class="st0" d="M145.08,87.03c0.43,0,0.73-0.07,1.15-0.38l0.65,1.06c-0.69,0.45-1.37,0.51-1.85,0.51
		c-1.53,0-2.5-0.88-2.5-2.26c0-1.35,0.97-2.26,2.25-2.26c1.19,0,2.14,0.78,2.14,2.12c0,0.3-0.04,0.56-0.04,0.56h-2.79
		C144.14,86.83,144.58,87.03,145.08,87.03z M144.07,85.32h1.51c-0.08-0.36-0.32-0.62-0.75-0.62
		C144.41,84.71,144.16,84.98,144.07,85.32z"/>
	<path class="st0" d="M147.48,84.55l0.63-2.85h1.94l-1.42,3.17L147.48,84.55z"/>
	<path class="st0" d="M152.88,85.71c0-0.45-0.16-0.72-0.55-0.72c-0.57,0-0.64,0.78-0.64,1.24v1.94h-1.59V83.8h1.59v0.76
		c0,0,0.35-0.84,1.31-0.84c0.94,0,1.49,0.52,1.49,1.84v2.61h-1.62V85.71z"/>
	<path class="st0" d="M157.74,88.17v-6.23l1.59-0.32v6.55H157.74z M160.41,83.79h1.83l-1.14,1.87l1.53,2.51h-1.88l-1.34-2.52
		L160.41,83.79z"/>
	<path class="st0" d="M163.89,83.06c-0.49,0-0.89-0.26-0.89-0.71c0-0.45,0.4-0.7,0.89-0.7c0.5,0,0.89,0.25,0.89,0.7
		C164.78,82.8,164.39,83.06,163.89,83.06z M163.1,83.8h1.61v4.37h-1.61V83.8z"/>
	<path class="st0" d="M167.53,84.83c-0.21,0-0.34,0.08-0.34,0.21c0,0.47,2.17,0.3,2.17,1.75c0,0.95-0.79,1.46-1.88,1.46
		c-0.67,0-1.52-0.29-2.08-0.67l0.71-1c0.4,0.31,0.94,0.49,1.32,0.49c0.23,0,0.37-0.1,0.37-0.25c0-0.51-2.15-0.3-2.15-1.76
		c0-0.84,0.64-1.33,1.79-1.33c0.54,0,1.21,0.14,1.69,0.36l-0.23,1.07C168.44,84.97,167.87,84.83,167.53,84.83z"/>
	<path class="st0" d="M170.11,88.17v-6.23l1.59-0.32v6.55H170.11z M172.78,83.79h1.83l-1.14,1.87l1.53,2.51h-1.88l-1.34-2.52
		L172.78,83.79z"/>
	<path class="st0" d="M176.89,86.26c0,0.45,0.16,0.72,0.55,0.72c0.57,0,0.64-0.78,0.64-1.24V83.8h1.59v4.37h-1.59v-0.76
		c0,0-0.35,0.84-1.31,0.84c-1.15,0-1.49-0.73-1.49-2.04V83.8h1.62V86.26z"/>
	<path class="st0" d="M180.71,88.17v-6.23l1.59-0.32v6.55H180.71z M183.38,83.79h1.83l-1.14,1.87l1.53,2.51h-1.88l-1.34-2.52
		L183.38,83.79z"/>
	<path class="st0" d="M191.06,83.8h0.44l0.89,1.86l0.74-1.86h1.73l-2.26,4.42h-0.43l-0.88-2.02l-0.89,2.02h-0.43l-2.26-4.42h1.72
		l0.74,1.86L191.06,83.8z"/>
	<path class="st0" d="M195.35,87.98v-4.19h1.59v4.11c0,1.32-0.51,1.84-2.16,1.79l-0.29-1.15C195.21,88.52,195.35,88.43,195.35,87.98
		z M196.15,83.06c-0.49,0-0.89-0.26-0.89-0.71c0-0.45,0.4-0.7,0.89-0.7c0.5,0,0.89,0.25,0.89,0.7
		C197.03,82.8,196.65,83.06,196.15,83.06z"/>
	<path class="st0" d="M198.86,83.06c-0.49,0-0.89-0.26-0.89-0.71c0-0.45,0.4-0.7,0.89-0.7c0.5,0,0.89,0.25,0.89,0.7
		C199.74,82.8,199.36,83.06,198.86,83.06z M198.07,83.8h1.61v4.37h-1.61V83.8z"/>
	<path class="st0" d="M202.79,88.22c-1.21,0-1.68-0.5-1.68-1.76v-1.48h-0.84l0.3-1.18h0.54v-0.97l1.6-0.33v1.3h0.98v1.18h-0.98v1.5
		c0,0.43,0.09,0.56,0.41,0.56c0.34,0,0.57-0.04,0.71-0.06l-0.29,1.19C203.35,88.2,203.11,88.22,202.79,88.22z"/>
	<path class="st0" d="M211.36,85.86c0,1.28-0.73,2.37-2.06,2.37c-0.5,0-0.93-0.16-0.93-0.16v1.4l-1.59,0.34c-0.01,0,0-1.61,0-6.01
		h1.58v0.77c0.03-0.1,0.31-0.86,1.22-0.86C210.64,83.71,211.36,84.53,211.36,85.86z M209.08,84.97c-0.45,0-0.73,0.46-0.73,1.48v0.46
		c0.12,0.06,0.31,0.12,0.56,0.12c0.56,0,0.82-0.51,0.82-1.13C209.74,85.41,209.55,84.97,209.08,84.97z"/>
	<path class="st0" d="M214.44,88.23c-1.33,0-2.41-0.81-2.41-2.25c0-1.44,1.07-2.26,2.41-2.26s2.4,0.82,2.4,2.27
		C216.83,87.42,215.77,88.23,214.44,88.23z M214.42,84.93c-0.44,0-0.8,0.38-0.8,1.05c0,0.68,0.37,1.04,0.8,1.04
		c0.45,0,0.8-0.36,0.8-1.03C215.23,85.31,214.87,84.93,214.42,84.93z"/>
	<path class="st0" d="M219.88,83.73c1.28,0,2.05,0.67,2.21,0.8v4.9l-1.58,0.38v-2.38c-0.01,0.04-0.25,0.83-1.25,0.83
		c-1,0-1.75-0.95-1.75-2.27C217.5,84.73,218.35,83.73,219.88,83.73z M219.77,87.04c0.46,0,0.73-0.52,0.73-1.36v-0.59
		c-0.12-0.07-0.32-0.12-0.59-0.12c-0.52,0-0.78,0.5-0.78,1.07C219.13,86.62,219.32,87.04,219.77,87.04z"/>
	<path class="st0" d="M223.37,87.98v-4.19h1.59v4.11c0,1.32-0.51,1.84-2.16,1.79l-0.29-1.15C223.23,88.52,223.37,88.43,223.37,87.98
		z M224.16,83.06c-0.49,0-0.89-0.26-0.89-0.71c0-0.45,0.4-0.7,0.89-0.7c0.5,0,0.89,0.25,0.89,0.7
		C225.05,82.8,224.66,83.06,224.16,83.06z"/>
	<path class="st0" d="M226.87,83.06c-0.49,0-0.89-0.26-0.89-0.71c0-0.45,0.4-0.7,0.89-0.7c0.5,0,0.89,0.25,0.89,0.7
		C227.76,82.8,227.38,83.06,226.87,83.06z M226.08,83.8h1.61v4.37h-1.61V83.8z"/>
	<path class="st0" d="M228.75,81.94l1.6-0.32v6.55h-1.6V81.94z"/>
	<path class="st0" d="M232.96,86.26c0,0.45,0.16,0.72,0.55,0.72c0.57,0,0.64-0.78,0.64-1.24V83.8h1.59v4.37h-1.59v-0.76
		c0,0-0.35,0.84-1.31,0.84c-1.15,0-1.49-0.73-1.49-2.04V83.8h1.62V86.26z"/>
	<path class="st0" d="M236.79,88.17v-6.23l1.59-0.32v6.55H236.79z M239.46,83.79h1.83l-1.14,1.87l1.53,2.51h-1.88l-1.34-2.52
		L239.46,83.79z"/>
	<path class="st0" d="M244.88,83.8h0.44l0.89,1.86l0.74-1.86h1.73l-2.26,4.42h-0.43l-0.88-2.02l-0.89,2.02h-0.43l-2.26-4.42h1.72
		l0.74,1.86L244.88,83.8z"/>
	<path class="st0" d="M251.03,83.72c1.28,0,2.05,0.67,2.21,0.8v3.65h-1.58v-0.78c-0.01,0.04-0.26,0.87-1.22,0.87
		c-1.06,0-1.78-0.82-1.78-2.15C248.65,84.73,249.49,83.72,251.03,83.72z M250.92,86.99c0.45,0,0.73-0.46,0.73-1.48v-0.46
		c-0.12-0.06-0.31-0.12-0.56-0.12c-0.56,0-0.82,0.51-0.82,1.12C250.26,86.55,250.45,86.99,250.92,86.99z"/>
	<path class="st0" d="M256.33,88.22c-1.21,0-1.68-0.5-1.68-1.76v-1.48h-0.84l0.3-1.18h0.54v-0.97l1.6-0.33v1.3h0.98v1.18h-0.98v1.5
		c0,0.43,0.09,0.56,0.41,0.56c0.34,0,0.57-0.04,0.71-0.06l-0.29,1.19C256.9,88.2,256.66,88.22,256.33,88.22z"/>
	<path class="st0" d="M260.84,85.71c0-0.45-0.16-0.72-0.55-0.72c-0.57,0-0.64,0.78-0.64,1.24v1.94h-1.59V83.8h1.59v0.76
		c0,0,0.35-0.84,1.31-0.84c0.94,0,1.49,0.52,1.49,1.84v2.61h-1.62V85.71z"/>
	<path class="st0" d="M265.7,88.17v-6.23l1.59-0.32v6.55H265.7z M268.37,83.79h1.83l-1.14,1.87l1.53,2.51h-1.88l-1.34-2.52
		L268.37,83.79z"/>
	<path class="st0" d="M271.85,83.06c-0.49,0-0.89-0.26-0.89-0.71c0-0.45,0.4-0.7,0.89-0.7c0.5,0,0.89,0.25,0.89,0.7
		C272.74,82.8,272.35,83.06,271.85,83.06z M271.06,83.8h1.61v4.37h-1.61V83.8z"/>
	<path class="st0" d="M273.67,84.55l0.63-2.85h1.94l-1.42,3.17L273.67,84.55z"/>
	<path class="st0" d="M277.02,81.94l1.6-0.32v6.55h-1.6V81.94z"/>
	<path class="st0" d="M282.08,81.71h1.88v6.46h-1.88V81.71z"/>
	<path class="st0" d="M288.05,88.17h-1.85v-5.04h-1.52l0.33-1.42h4.39v1.42h-1.34V88.17z"/>
	<path class="st0" d="M292.14,85.97c0-1.4,0.91-2.26,2.37-2.26c0.5,0,1.07,0.08,1.35,0.21l-0.07,1.2c-0.27-0.14-0.69-0.23-1.02-0.23
		c-0.64,0-1.05,0.43-1.05,1.06c0,0.62,0.42,1.05,1.03,1.05c0.32,0,0.71-0.14,0.92-0.31l0.58,1.04c-0.5,0.34-1.08,0.52-1.73,0.52
		C293.03,88.25,292.14,87.41,292.14,85.97z"/>
	<path class="st0" d="M298.96,83.72c1.28,0,2.05,0.67,2.21,0.8v3.65h-1.58v-0.78c-0.01,0.04-0.26,0.87-1.22,0.87
		c-1.06,0-1.78-0.82-1.78-2.15C296.58,84.73,297.43,83.72,298.96,83.72z M298.86,86.99c0.45,0,0.73-0.46,0.73-1.48v-0.46
		c-0.12-0.06-0.31-0.12-0.56-0.12c-0.56,0-0.82,0.51-0.82,1.12C298.2,86.55,298.39,86.99,298.86,86.99z"/>
	<path class="st0" d="M305.12,85.18c-0.81-0.05-1.32,0.45-1.32,1.68v1.31h-1.58V83.8h1.58v0.76c0.01-0.04,0.19-0.55,0.77-0.76
		c0.2-0.07,0.44-0.1,0.73-0.08C305.3,83.72,305.1,85.17,305.12,85.18z"/>
	<path class="st0" d="M308.12,87.03c0.43,0,0.73-0.07,1.15-0.38l0.65,1.06c-0.69,0.45-1.37,0.51-1.85,0.51
		c-1.53,0-2.5-0.88-2.5-2.26c0-1.35,0.97-2.26,2.25-2.26c1.19,0,2.14,0.78,2.14,2.12c0,0.3-0.04,0.56-0.04,0.56h-2.79
		C307.18,86.83,307.62,87.03,308.12,87.03z M307.1,85.32h1.51c-0.08-0.36-0.32-0.62-0.75-0.62C307.45,84.71,307.2,84.98,307.1,85.32
		z"/>
	<path class="st0" d="M313.15,87.03c0.43,0,0.73-0.07,1.15-0.38l0.65,1.06c-0.69,0.45-1.37,0.51-1.85,0.51
		c-1.53,0-2.5-0.88-2.5-2.26c0-1.35,0.97-2.26,2.25-2.26c1.19,0,2.14,0.78,2.14,2.12c0,0.3-0.04,0.56-0.04,0.56h-2.79
		C312.21,86.83,312.65,87.03,313.15,87.03z M312.14,85.32h1.51c-0.08-0.36-0.32-0.62-0.75-0.62
		C312.49,84.71,312.24,84.98,312.14,85.32z"/>
	<path class="st0" d="M318.72,85.18c-0.81-0.05-1.32,0.45-1.32,1.68v1.31h-1.58V83.8h1.58v0.76c0.01-0.04,0.19-0.55,0.77-0.76
		c0.2-0.07,0.44-0.1,0.73-0.08C318.9,83.72,318.7,85.17,318.72,85.18z"/>
	<path class="st0" d="M324.5,83.8h0.44l0.89,1.86l0.74-1.86h1.73l-2.26,4.42h-0.43l-0.88-2.02l-0.89,2.02h-0.43l-2.26-4.42h1.72
		l0.74,1.86L324.5,83.8z"/>
	<path class="st0" d="M330.33,86.26c0,0.45,0.16,0.72,0.55,0.72c0.57,0,0.64-0.78,0.64-1.24V83.8h1.59v4.37h-1.59v-0.76
		c0,0-0.35,0.84-1.31,0.84c-1.15,0-1.49-0.73-1.49-2.04V83.8h1.62V86.26z"/>
	<path class="st0" d="M336.21,88.22c-1.21,0-1.68-0.5-1.68-1.76v-1.48h-0.84l0.3-1.18h0.54v-0.97l1.6-0.33v1.3h0.98v1.18h-0.98v1.5
		c0,0.43,0.09,0.56,0.41,0.56c0.34,0,0.57-0.04,0.71-0.06l-0.29,1.19C336.77,88.2,336.53,88.22,336.21,88.22z"/>
	<path class="st0" d="M339.91,83.72c1.28,0,2.05,0.67,2.21,0.8v3.65h-1.58v-0.78c-0.01,0.04-0.26,0.87-1.22,0.87
		c-1.06,0-1.78-0.82-1.78-2.15C337.53,84.73,338.38,83.72,339.91,83.72z M339.8,86.99c0.45,0,0.73-0.46,0.73-1.48v-0.46
		c-0.12-0.06-0.31-0.12-0.56-0.12c-0.56,0-0.82,0.51-0.82,1.12C339.15,86.55,339.34,86.99,339.8,86.99z"/>
	<path class="st0" d="M345.83,83.8h0.44l0.89,1.86l0.74-1.86h1.73l-2.26,4.42h-0.43l-0.88-2.02l-0.89,2.02h-0.43l-2.26-4.42h1.72
		l0.74,1.86L345.83,83.8z"/>
	<path class="st0" d="M352.15,88.22c-1.21,0-1.68-0.5-1.68-1.76v-1.48h-0.84l0.3-1.18h0.54v-0.97l1.6-0.33v1.3h0.98v1.18h-0.98v1.5
		c0,0.43,0.09,0.56,0.41,0.56c0.34,0,0.57-0.04,0.71-0.06l-0.29,1.19C352.71,88.2,352.47,88.22,352.15,88.22z"/>
	<path class="st0" d="M354.71,83.06c-0.49,0-0.89-0.26-0.89-0.71c0-0.45,0.4-0.7,0.89-0.7c0.5,0,0.89,0.25,0.89,0.7
		C355.59,82.8,355.21,83.06,354.71,83.06z M353.91,83.8h1.61v4.37h-1.61V83.8z"/>
</g>
</svg>
