<svg fill="none" xmlns="http://www.w3.org/2000/svg" viewBox="0 0 94 88"><g clip-path="url(#a)" fill="#fff"><path d="M40.93 12.59c-.02-.14 2.16.06 2.83-.4.67-.46 2.71-2.82 2.94-2.83.24 0-1.2 2.81-.65 3.51.51.64 1.43 1.1 1.46 1.24.05.19-1.98.13-2.61.56-.92.63-1.98 1.85-2.22 1.83-.22-.02.6-2.03.04-2.69-.64-.75-1.77-1.08-1.78-1.21l-.01-.01Z"/><path d="M7.29 40.93s2.81-13.48 9.06-17.24c1.11-.67-.5 6.23 4.01 1.56 3.41-3.54 5.03-6.3 6.37-6.62 1.34-.32-5.5 11.59 2.19 6.89 8.91-5.44 10.81-7.99 12.93-7.22 2.12.77-2.14 6.15 3.96 3.85 9.5-3.58 10.06-9.19 12.23-9.95 1.39-.49 2.12 1.07 6.15.23 4.03-.83 4.65-1.56 7.5-.86 6.57 1.62 4.49 10.82 4.49 10.82s-4.38-10.2-13.38-7.42c-12.81 3.96-10.57 11.61-20.62 12.7-16.31 1.77-22.05.72-23.92.8-4.91.21-6.25 4.73-10.96 12.46h-.01Z"/><path d="m7.51 33.74.07-.16c3.68-8.29 10.72-17.39 11.82-16.13 1.57 1.79-2.13 6.22-.21 5.27 1.91-.95 9.68-15.84 13.44-13.48 1.89 1.19-4.87 7.91-3.18 8.98 1.69 1.07 6.06-1.07 8.13-3.4 5.52-6.23 7.27-9.17 14.37-10.31 9.5-1.51-7.32 10.78-2.59 11.99 4.72 1.21 5.87-9.95 14.12-9.54 2.65.13-8.13 6.68 2.82 3.18 3.3-1.05 6.89-.99 8.62.55 3.06 2.72 4.72 9.13 2.91 12.36-.15.26 4.76-1.96 10.85 1.5C82.58 12.4 71.14 3.91 58.05 1.37 53.04.56 47.5.44 41.51 1.39c-.56.11-1.12.23-1.69.36C23.36 5.63 11.3 18.37 7.52 33.74h-.01ZM16.71 50.8c-.77-.77-.23-2.74-2.82-2.42-1.95.21-3.77 1.7-4.67 3.52 1.13.71 2.31 1.42 3.54 2.11-.03-.18-.08-.33-.13-.37-.42-.32-1.57-1.65-1.5-1.68.08-.03 1.95 1.74 2.96 1.69 1.01-.05.73-.09.81-.04.08.05-.09.11-.62.26-.21.06-.54.2-.88.5.67.37 1.35.73 2.04 1.09.7-.79 2.32-2.8 2.32-2.96 0-.22.15-.49-1.06-1.69l.01-.01Zm-2.73 1.61a1.16 1.16 0 0 1-1.4-.87c-.15-.63.24-1.25.87-1.4.63-.15 1.25.24 1.4.87.15.63-.24 1.25-.87 1.4ZM15.03 59.52c1.08.77.88 1.08 1.35 1.4.47.32 1.33 1.03 1.21 1.43-.11.36-.88.63-.61 1.81.33 1.44-1.19 2.53-2.51.88-.06-.35-.06-1.67.24-1.92.38-.31.78-.55.71-.6-.07-.05-.69.52-1.27.33-.58-.19-.94-.46-.99-.44-.05.02.56.37.9.75.21.24-.19 1.36-.08 1.73-.66-.72-1.9-.45-2.26-1.63-.3-2.11 1.67-3.86 2.14-4.25 0 0 .36-.08 1.18.51h-.01Zm-1.46 1.36c-.28.4-.15.96.27 1.26.42.3.99.2 1.27-.2s.15-.96-.27-1.26c-.42-.3-.99-.2-1.27.2ZM88.31 35.59s-1.87-2.57-2.98-4c-1.15-1.39-2.25-3.34-2.32-3.31-.07.03-.57 2 .31 3.34.88 1.34 1.57 1.81 1.85 2.13 1.06 1.18 3.13 1.85 3.13 1.85l.01-.01ZM87.55 38.95s-1.17-1.9-1.53-2.84c-.46-1.12-.9-1.49-1.12-1.81-.24-.3-1.61-1.83-1.6-1.84.01-.01-.56 1.4.72 3.3 1.36 2.02 3.53 3.19 3.53 3.19Z"/><path d="M82.65 32.49c-.1.07-1.64-2.85-2.18-5.24-.52-2.27-.14-2.52-.06-2.55.07 0 1.74 2.34 1.95 2.93.17.61-.61 2.24.18 3.79.37.72.21 1 .11 1.06v.01ZM93.24 42.67c-.95-.54-2.05-1.64-2.17-1.9-.14-.21-3.34-2.65-3.32-2.69.01-.02.81 2.26 2.82 3.89 1.05.85 2.18 1.45 3.03 1.83 0-.3-.01-.61-.02-.91-.11-.08-.22-.16-.34-.23v.01ZM91.13 40.22s.9 1.13 2.42 2.07c-.02-.4-.04-.8-.08-1.21-1.1-.4-2.35-.84-2.35-.86h.01ZM90.69 37.71c-1.86-1.02-4.21-2.19-4.21-2.19s.41 1.28 2.74 3.01c1.47 1.11 3.13 1.59 4.18 1.79-.03-.27-.05-.54-.08-.8-.71-.55-1.67-1.23-2.63-1.81ZM78.96 24.95c-2.82.07-4.59 2.9-4.65 3.53-.07.69-.09 1.42-.52 2.27-.44.84.11 1.35.89 1.73 1.01.5.57 1.19 1.09 1.94.26.37 6.37 1.74 6.66 1.5.83-.69-2.85-3.31-3.47-10.97Zm-1.12 5.76c-.64.43-1.52.24-1.96-.42-.44-.66-.28-1.54.37-1.97.65-.43 1.52-.24 1.96.42.44.66.28 1.54-.37 1.97ZM74.09 24.83c-.09-.22-.18-.43-.27-.63-3.27-6.94-12.09-5.35-16.29 3-1.91 3.81-4.6 9.25-4.23 9.1 4.93-1.93 12.7-2.11 13.13-2.16.21-.03 2.62-2.94 4.34-2.2 1.44.62 2.76-2.87 2.78-4.82.02-2.07-1.24-3.24-2.88-3.9-1.18-.47-3.28-.83-4.47-.72 2.58-.81 5-.5 7.39 1.81.17.16.33.33.5.51v.01Zm-7.35 6.61c-2.74 1.36-6.07.93-6.7.62.79-.11 5.34-.04 5.02-1.56-.23-1.07-1.14-1.52-1.01-1.68.5-.61 1.53 1.48 3.71 1.29 2.18-.19-.05.85-1.02 1.33Zm3.13-4.94c.26 1.11-.43 2.22-1.53 2.48a2.07 2.07 0 0 1-2.48-1.53 2.07 2.07 0 0 1 1.53-2.48c1.1-.26 2.22.43 2.48 1.53ZM38.88 37.82c-1.59-.62-4.54-5.81-10.5-.76-5.87 4.96.66 20.34 1.69 19.87.81-.37-4.34-9.98-.87-16.93-1.1 3.51-1.07 8.14.61 11.07.5.87.59-3.12 1.86-4.5 2.03-2.21 2.89.28 4.05-2.81 1.13-3 5.07-5.18 3.16-5.93v-.01Zm-4.53-.76c.83-.2 1.67.32 1.86 1.15.2.83-.32 1.67-1.15 1.86-.83.2-1.67-.32-1.86-1.15-.2-.83.32-1.67 1.15-1.86Zm.4 4.78c-1.66.25-1.81 2.43-2.39 2.35-.22-.03 1.2-2.45.35-3.07-.85-.63-1.31-1.02.5-.33 1.81.68 3.07.05 3.19.15.12.1-.59.75-1.64.91l-.01-.01ZM72.4 46.72s.44 2.85 1.4 3.37c2.61 1.41 2.86 2.79 2.86 2.79s.26-3.29-.46-4.04c-1.79-1.85-3.8-2.12-3.8-2.12Z"/><path fill-rule="evenodd" clip-rule="evenodd" d="M76.41 65.38c.48.16 1.15.34 1.54.41-1.75-1.11-3.07-4.64-1.6-6.18.17.52 1.72 2.29 2.08 2.5.05-1.88 2.11-2.53 1.07-5.68 4.57 2.89 3.04 8.21.83 9.37.03-.02 3.29.81 5.28-2.14 1.92-2.85-5.36-12.55-7.71-15.53-.44-.56-.57-.39-.42.37.41 2 .97 5.86-.41 7.31.3-.31-1.59-3.44-3.37-4.46-.26-.15-.53-.26-.78-.3.11.23.21.46.28.71 1.33 4.33-3.35 10.6-.33 12.18 1.88.99 2.42 1.09 3.54 1.46v-.02Z"/><path d="M63.45 52.67c.86-.61 4.13-1.66 4.94-1.21 3.14 1.75 1.95 2.74 1.95 2.74.19.19 1.51-.39.99-2.68-.3-1.33-.93-2.79-3.41-3.84-3.25-1.38-8.05-1.36-9.57-.65 1.17 1.33 2.36 4.46 5.11 5.64h-.01Zm3.33-3.51c0 .61-.5 1.11-1.11 1.11-.61 0-1.11-.5-1.11-1.11 0-.61.5-1.11 1.11-1.11.61 0 1.11.5 1.11 1.11Z"/><path d="M62.04 52.83c-4.54-2.43-2.15-7.75-9.67-4.22-7.98 3.75-10.5 13.9-10.36 14.01.13.1 3.54-3.51 6.75-5.52.21-.13 2.87-3.98 2.87-3.98s-.76 2.04-1.11 3.02c.67-.32 1.37-.62 2.11-.88.17-.25.33-.47.44-.67.79-1.35 1.73-3.4 1.73-3.4s-1.01 3.71-.86 3.65c6.52-2.51 10.18-.89 8.11-2l-.01-.01ZM69.47 63.78s-.52.92-.99.79c-.22-.06.29-2.48.41-2.54.3-.15.95-.07 1.02.41.07.48-.44 1.33-.44 1.33v.01Z"/><path d="M68.35 61.77c-.23-.75-2.63-2.57-5.21-3.77-2.18-1.01-1-3.55-3.26-3.31-1.26.14-3.21 2.61-4.01 5.16-.71 2.27-3.05 2.1-3.05 2.1s1.6-1.06 2.35-2.11c.76-1.04.81-2.18-.71-2.02-1.52.15-4.88 1.26-7.59 2.98-4.05 2.58-5.38 3.35-5.17 3.44.21.09 7.7-.01 12.85.43 5.19.45 7 .61 9.05.42 1.07-.1 4.07-.32 4.07-.32s.91-2.27.68-3.01v.01ZM59 57.13c-.27-.03.26-1.52.91-1.63.67-.11.95.65 1.1 1.2.15.55-1.74.47-2.01.43Zm4.42 3.69a1.52 1.52 0 1 1-3.039.001 1.52 1.52 0 0 1 3.039-.001ZM72.24 73.28c-6.16-.36-7.47-.5-10.72-.68-3.57-.2-12.39-1.26-12.51-1.02-.12.24 4.53 1.84 7.1 3.49 3.05 1.97 6.54 4.5 10.98 3.34.21-.06-2.1-3.76 1.42-3.26.37.05-3.78 4.46 3.91 2.71 2.07-.47 3.76-2.8 4.7-1.93.66-.63-1.54-2.46-4.87-2.65h-.01Zm-.27 3.62c-.58.11-1.14-.25-1.25-.81-.11-.56.26-1.1.84-1.21.58-.11 1.14.25 1.25.81.11.56-.26 1.1-.84 1.21Z"/><path d="M74.68 78.32c-.32 0-1.27.86-1.81.75-.73-.15-.91-.57-.91-.57-.15-.07-4.16 1.24-4.16 1.24-1.1.27-2.67.51-3.84.1-3.22-1.13-5.08-2.09-5.1-1.67-.02.41 4.39 2.13 3.96 3.35-.64 1.85-1.61 3.24-.26 2.84 1.06-.31 4.48-3.22 5.91-4.45.92.2 2.62.49 4.03.31 1.46-.19 2.5-1.9 2.18-1.89v-.01ZM51.57 83c-.23-.12-.67-.16-1.12 0-.31.11-.71.63-.14 1.31.39.46.34 1.29.03 1.66-.31.37-.83.77-.57.81.56.1 2.27-.8 2.51-1.76.11-.45-.05-1.67-.71-2.03V83ZM53.29 82.41c-.2.09-.63.33-.44.65.1.17.64.68.82 1.2.15.42.32 1.14-.16 1.79-.27.35-.62.66-.38.66.1-.01.46-.18.65-.3 1.36-.85 1.95-2.98.49-3.95-.38-.25-.78-.14-.98-.05ZM48.93 83.12c-.32-.36-.61-.35-.97-.32-.52.04-.68.5-.64.58.42.74.2 2.09-.58 2.72-.25.2-.68.33-.72.39 0 .1.13.11.22.09 1.47-.38 1.89-.95 2.37-1.72.48-.77.65-1.37.32-1.74ZM56.94 81.7c-.5-.32-1.04-.27-1.35-.18-.54.16-1.06.61-.43.85 1.33.51 1.54 1.11 1.81 1.9.2.56.11.92.25.9.1-.02.3-.29.44-.63.58-1.39-.25-2.54-.73-2.86l.01.02ZM48.08 77.36s.02.03.03.05c1.3 2.05-2.65 2.4-2.74 3.34-.08.94 1.94 1.33 5.02 1.2 3.08-.13 4.91-1.7 4.99-2.64.05-.51-2.64-1.86-4.81-2.54 2.26-.21 3.46.37 3.46.37-3.79-4.19-9.72-6.57-12.96-7.49-.38.14-.22 4.07-.13 4.38.04-.05.34-.41.72-.86.42-.51.81-.52.36.05-.91 1.14-.89 2.56-.57 1.98.32-.59 1.37-1.48 1.37-1.48s-.16.34-.64 1.04-.88 2.57-.47 1.73c.41-.84 1.28-1.88 1.28-1.88s-.83 1.99-.85 3.16c-.03 1.71.44-1.32 1.51-2.45.1.1-1.61 3.98-.14 4.95 1.01.5 1.69-.95 2.51-1.66.58-.5 1.27-.93 2.06-1.24v-.01ZM56.49 68.83c.19-2.08 3.1-1.73 6.63-1.55 3.23.17 27.08.52 28.53.62 1.86.14.47 4.4-2.4 4.35-7.41-.13-27.1-1.11-27.85-1.19-2.64-.27-5.06-.41-4.9-2.24l-.01.01ZM8.65 51.53c1.4-2.33 3.47-3.95 6.65-3.33-.28-.23-.65-.44-1.15-.61-4.61-1.04-7.29.62-6.21 3.48.23.15.47.31.71.46ZM20.33 38.44c-7.86-1.94-13.01 9.15-10.22 8 1.56-.64 2.54-.29 3.41-.15 1.4.13 2.77.3 2.93.1 2.02-2.63 4.25-2.81 4.35-3.03.11-.22.26-.39-.27-2.13-.4-1.31.94-2.45-.2-2.78v-.01Zm-3.83 5.61c-.83.04-1.21-.19-1.72-.8-.51-.61-.6-1.09-.48-1.1.12-.01.71.83 2.2 1.12 1.5.29 2.17.06 2.27.16.1.1-1.45.58-2.28.62h.01Zm.97-1.3c-.76.1-1.45-.43-1.55-1.19-.1-.76.43-1.45 1.19-1.55.76-.1 1.45.43 1.55 1.19.1.76-.43 1.45-1.19 1.55Z"/><path d="M14.31 35.98c-4.86 1.63-6.43 5.85-6.91 10.66-.48 4.8.77.37.77.37s1.03-3.99 3.5-6.8c-.1-.09-.17-.25-.23-.5-.15-.62.21-1.23.8-1.37.4-.09.97-.05 1.34.19.04-.02.08-.05.11-.08 3.94-2.43 6.9-1.04 6.9-1.04s-2.58-2.68-6.27-1.44l-.01.01ZM7.84 55.68c.35 1.26.74 2.49 1.19 3.69 1.54-1.45 2.16-1.76.94-2.51-.36-.22-1.15-.66-2.13-1.18ZM9.61 60.28c-.05.08-.09.17-.13.26.43 1.06.9 2.1 1.41 3.12-.27-2.49.09-3.55.68-3.44.42.08.35.51.39.42.47-1.19 1.83-1.82 1.83-1.82s-2.94-.75-4.19 1.46h.01ZM87.57 26.31c-3.79-1.83-4.93-1.86-6.15-1.71 0 0 2.94 3.64 6.11 8.14 1.37 1.94 3.56 3.61 5.28 4.75a43.95 43.95 0 0 0-.65-3.35c-.34-1.45-.75-2.86-1.23-4.24-1.06-1.66-2.22-3.04-3.36-3.59ZM50.17 27.9c-8.45 1.99-18.41.43-25.44 8.64-4.13 4.82-5.61 19.76-5.47 25.25.1 3.9-.29 5.44.24 5.51.48.07 1.02-4.87 1.31-4.81.43.09.64 3.36 1.1 5.06.29 1.07.52.73.59-2.64.03-1.26-.23-2.5.06-2.55.5-.09.28 0 1.01 1.79 1.16 2.87 2.29 4.5 1.22.08-.81-3.35-.65-3.69.61-1.46 2.82 4.96 2.8 3.38 1.75.6-1.17-3.09-1.38-6.23-.18-4.81 2.61 3.08 2.31 2.04-.7-3.92-2.78-5.49-3.34-17.84 4.81-20.67 5.11-1.77 10.23 1.95 12.76.73 3.78-1.83 6.6-6.85 6.34-6.79l-.01-.01Z"/><path d="M59.12 18.39c-10.2 6.38-5 11.37-14.31 17.58-8.48 5.65-13.32 18.97-12.28 19.22 1.04.24 5.8-13.81 18.78-18.24.11-.04 2.03-5.88 7.38-13.44 5.43-7.67 12.49-2.86 13.49-3.42 0 0-6.31-5.91-13.06-1.69v-.01ZM47.85 35.78c-.03.07.02.33-.56.8-.58.47-1.32.69-1.68.81-.62.21-1.14.27-2.31.79 1.17-1.36 4.53-2.39 4.55-2.39v-.01Zm-6.42 4.91c.99-1.02 2.92-2.36 3.5-2.51.52-.13 1.5-.21 1.55-.21-.06.09-2.48 1.37-5.05 2.72Zm8.44-4.83c-1.14 1.45-2.7 1.83-2.7 1.82.01-.06.43-.61.64-.83.21-.22.35-.91 1.28-1.48.53-.33 1.57-1.15 1.57-1.07 0 .13-.65 1.35-.79 1.56Zm1.12-2.7c-.04.06-.28.37-.37.47-.09.1-.39.4-.57.52-.1.07-.57.34-.69.4-.19.1-1.82.83-1.85.84.09-.15 1.35-1.62 2.19-2.12.9-.54 1.78-2.37 1.94-2.52 0 .1-.37 2-.65 2.4v.01ZM28.45 68.78c-.76.05-.12 3.38-.51 3.48-.65.16-.88-4.91-1.48-4.68-.95.36.61 5.01-.54 5.19-.49.08-.78-5.31-1.76-4.82-.61.3 1.05 5.18.1 5.29-1.25.15-.58-4.37-1.51-4.19-.84.16-.45 5.07-1.29 4.67-.84-.41-.14-5.23-.74-4.19-.28.48-.73 2.9-.83 3.29-1.97-1.6-5.12-4.36-6.25-5.03.51.14.98.32 1.34.59 1.19.88 3.8 2.39 3.8 2.39s-2.13-3.59-3.35-4.51c-.74-.56-2.55-1.06-3.87-1.36.52.96 1.07 1.89 1.66 2.8.47.74.95 1.45 1.46 2.14 1.62 1.95 5.22 5.98 8.22 8.49.63.5 1.28.97 1.93 1.43 1.01.63 1.84.9 2.34.58 3.22-2.07 2.26-11.62 1.29-11.56h-.01ZM18.47 58.23C12.83 55.54 5.95 51.5 2.2 49.16c-2.39-1.49-2.11.61-.79 1.47 3.83 2.51 10.92 6.6 16.78 9.43.08-.59.19-1.28.29-1.83h-.01ZM38.13 62.9c1.34-5.34 3.95-9.14 6.38-11.53 3.91-3.84 10.53-8.05 20.31-8.35 18.67-.58 23.86 14.51 23.01 22.25 1.71-3.08 3.05-6.36 3.98-9.79-3.24-7.11-10.67-16.22-27.69-15.05-10.08.69-17.01 5.68-21.28 10.09-2.72 2.65-5.65 6.71-7.4 11.9.88.17 1.78.34 2.69.48ZM37.44 74.39a35.35 35.35 0 0 1-.1-6.55c-1.04-.25-2.06-.5-3.06-.76a31.05 31.05 0 0 0-.21 8.72c.46 4.01 1.8 7.35 3.63 10.12 2.1.61 4.25 1.06 6.44 1.35-3.62-3.5-6.17-7.75-6.71-12.89l.01.01Z"/><path d="M64.67 36.21c-11.39.63-19.18 6.45-23.98 11.48-3.14 3.1-6.52 7.88-8.47 14.01.72.17 1.44.34 2.18.5 1.89-6.27 5.4-10.79 8.17-13.53 4.4-4.38 12.47-10.13 23.51-10.4 15.25-.37 22.81 9.04 26.18 15.44.49-2.14.81-4.33.97-6.56-3.48-5.86-11.18-11.9-28.55-10.94h-.01ZM33.25 75.23c-.32-3.02-.24-5.81.13-8.38-.77-.2-1.52-.4-2.27-.6-.55 3.16-.7 6.6-.27 10.29.33 2.84 1.04 5.38 2.02 7.66 1.12.47 2.26.9 3.41 1.28-1.52-2.85-2.6-6.24-3.02-10.25ZM54.63 68.44c-.05-.47.15-.93.31-1.24-6.13-.41-12.41-1.16-18.48-2.73-2.88-.75-5.59-1.58-8.15-2.47.3.74.6 1.65.81 2.33 2.09.73 4.27 1.42 6.56 2.07 6.34 1.79 12.87 2.85 19.66 3.45-.51-.39-.65-.79-.71-1.4v-.01ZM16.11 34.45c1.31-2.89 3.14-4.95 6.9-4.66-.35-.23-.81-.42-1.41-.56-4.84-.28-8.19 2.22-9.36 6.2.97-.57 3.57-1.14 3.87-.99v.01Z"/><path d="M24.23 32.67c-.68-.68.18-2.45-2.11-2.17-1.73.19-3.99 1.45-5.01 3.96 1.51.28 2.61.62 3.55.89.19-.31-.23-.67-.44-.85-1.86-1.67-.42-.86.93-.07.91.53 2.06.04 2.11.1.05.07-1.11.6-1.67.55-.44-.04-.59-.01-.85.28.62.18 1.18.33 2.18.55.53.11.76-.45 1.21-.89.62-.61 1.15-.88 1.15-.96 0-.2.03-.32-1.04-1.39h-.01Zm-2.03 1.4a1.03 1.03 0 0 1-1.24-.77c-.13-.55.21-1.11.77-1.24.55-.13 1.11.21 1.24.77.13.55-.21 1.11-.77 1.24ZM67.34 55.23s.08 1.62.79 3.57c.21.58 1.92 1.2 2.29 1.21.62.02.9-2.16.31-2.64-2.25-1.84-3.39-2.14-3.39-2.14Z"/></g><defs><clipPath id="a"><path fill="#fff" d="M0 0h94v88H0z"/></clipPath></defs></svg>
