<svg xmlns="http://www.w3.org/2000/svg" fill="none" viewBox="0 0 512 512"><path fill="#B36CEB" d="M183.424 358.4a15.371 15.371 0 0 0-2.176-2.688s0-.768-.896-1.024l-43.264-43.136V179.2l24.32-25.6a37.504 37.504 0 1 0-38.4-37.504 32.116 32.116 0 0 0 .768 7.04L95.36 151.552c-.768.768-1.408 1.664-2.048 2.432l-.896 1.152a22.128 22.128 0 0 0-1.92 3.456 18.815 18.815 0 0 0-1.024 3.584v1.024a29.831 29.831 0 0 0 0 4.864v54.912l-14.08-14.08v-40.192a24.317 24.317 0 0 0-24.256-26.083 24.318 24.318 0 0 0-22.942 16.249 24.319 24.319 0 0 0-1.314 9.834v51.2a23.807 23.807 0 0 0 6.656 16.512l51.2 51.2a25.625 25.625 0 0 0 4.736 3.584v31.104a24.32 24.32 0 0 0 6.912 16.128l43.904 43.776V422.4a24.327 24.327 0 0 0 6.447 18.325 24.314 24.314 0 0 0 17.809 7.758A24.319 24.319 0 0 0 188.8 422.4v-51.2a24.322 24.322 0 0 0-3.84-12.8h-1.536Zm-37.632-241.92a14.462 14.462 0 0 1 21.439-12.574 14.461 14.461 0 0 1 6.465 7.326c.7 1.665 1.09 3.443 1.152 5.248a14.578 14.578 0 0 1-4.274 10.318 14.58 14.58 0 0 1-10.318 4.274 14.717 14.717 0 0 1-6.656-1.792 10.601 10.601 0 0 1-1.92-1.408 13.955 13.955 0 0 1-5.76-10.624s-.128-.384-.128-.768Z"/><path fill="#FF5958" d="M486.4 165.248a24.327 24.327 0 0 0-6.447-18.325 24.314 24.314 0 0 0-17.809-7.758 24.319 24.319 0 0 0-24.256 26.083v40.704l-53.12 53.248v-93.952c.07-1.236.07-2.476 0-3.712a51.202 51.202 0 0 0 25.757-57.591 51.202 51.202 0 0 0-81.237-27.998 51.202 51.202 0 0 0 7.608 85.589 32.833 32.833 0 0 0 0 3.712v254.208a24.32 24.32 0 1 0 48.64 0v-91.648l94.72-94.72 1.152-1.408 1.792-2.304v-1.024a15.25 15.25 0 0 0 1.664-3.2 25.595 25.595 0 0 0 1.408-6.272v-1.92l.128-51.712Zm-97.536-49.024a28.42 28.42 0 0 1-17.542 26.253 28.417 28.417 0 0 1-37.127-37.127 28.415 28.415 0 0 1 54.669 10.874Z"/><path fill="#00C3B7" d="M264.32 93.568a24.45 24.45 0 0 0-24.32 24.32v157.44l-14.848-14.848v-36.224a31.994 31.994 0 0 0-.617-42.295 32 32 0 0 0-55.703 21.559 30.973 30.973 0 0 0 7.808 20.608v48a24.99 24.99 0 0 0 0 3.072v.64a17.657 17.657 0 0 0 2.56 5.76c.245.664.545 1.306.896 1.92l2.816 3.84.64.768 51.2 51.2a24.838 24.838 0 0 0 5.632 3.968v80.64a24.32 24.32 0 0 0 48.512 0V117.888a24.324 24.324 0 0 0-7.213-17.288 24.32 24.32 0 0 0-17.363-7.032Zm-56.704 115.2a8.447 8.447 0 0 1-6.784 3.456 9.601 9.601 0 0 1-8.96-8.96 9.082 9.082 0 0 1 4.736-7.808h8.448a8.446 8.446 0 0 1 4.218 9.493 8.456 8.456 0 0 1-1.658 3.307v.512Z"/></svg>
