<?xml version="1.0" encoding="utf-8"?>
<!-- Generator: Adobe Illustrator 25.3.1, SVG Export Plug-In . SVG Version: 6.00 Build 0)  -->
<svg version="1.1" id="Layer_1" focusable="false" xmlns="http://www.w3.org/2000/svg" xmlns:xlink="http://www.w3.org/1999/xlink"
	 x="0px" y="0px" viewBox="0 0 512 512" style="enable-background:new 0 0 512 512;" xml:space="preserve">
<style type="text/css">
	.st0{fill:#FFFFFF;}
</style>
<path class="st0" d="M256,48c115,0,208,93,208,208s-93,208-208,208S48,371,48,256S141,48,256,48 M256,8C119,8,8,119,8,256
	s111,248,248,248s248-111,248-248S393,8,256,8z M256,64C150,64,64,150,64,256s86,192,192,192s192-86,192-192S362,64,256,64z
	 M256,108c19.9,0,36,16.1,36,36s-16.1,36-36,36s-36-16.1-36-36S236.1,108,256,108z M373.7,206c-28.7,6.8-55.5,12.7-82.1,15.8
	c0.9,101,12.3,123.1,25,155.6c3.6,9.3-1,19.7-10.2,23.3c-9.3,3.6-19.7-1-23.3-10.2c-8.7-22.3-17.1-40.6-22.3-78.5h-9.7
	c-5.2,37.9-13.5,56.2-22.3,78.5c-3.6,9.3-14.1,13.8-23.3,10.2c-9.3-3.6-13.8-14.1-10.2-23.3c12.7-32.5,24.2-54.5,25-155.6
	c-26.6-3.1-53.4-9-82.1-15.8c-8.6-2-13.9-10.6-11.9-19.2c2-8.6,10.6-13.9,19.2-11.9c96.7,22.8,124.3,22.8,220.8,0
	c8.6-2,17.2,3.3,19.2,11.9C387.7,195.4,382.3,204,373.7,206z"/>
</svg>
