<?xml version="1.0" encoding="utf-8"?>
<!-- Generator: Adobe Illustrator 25.0.1, SVG Export Plug-In . SVG Version: 6.00 Build 0)  -->
<svg version="1.1" xmlns="http://www.w3.org/2000/svg" xmlns:xlink="http://www.w3.org/1999/xlink" x="0px" y="0px"
	 viewBox="0 0 376.7 376.7" style="enable-background:new 0 0 376.7 376.7;" xml:space="preserve">
<style type="text/css">
	.st0{fill:#C92038;}
	.st1{display:none;}
	.st2{display:inline;fill:#FFFFFF;}
	.st3{fill:#FFFFFF;}
</style>
<g id="Background">
	<circle class="st0" cx="188.3" cy="188.3" r="184.2"/>
</g>
<g id="Icons">
	<g id="Ethics" class="st1">
		<path class="st2" d="M274.8,102.1c-2-4.4-7.7-4.6-10-0.4c-11,19.1-30.6,31-53.1,31h-28.3c-37.5,0-68,30.5-68,68
			c0,2.5,0.3,4.9,0.5,7.3c22.6-16.2,55.2-29.9,101.5-29.9c3.1,0,5.7,2.6,5.7,5.7s-2.6,5.7-5.7,5.7c-89,0-126.8,54.6-135.2,75.1
			c-2.3,5.8,0.4,12.4,6.2,14.7c5.8,2.4,12.4-0.4,14.8-6.1c0.5-1.3,7.4-17,25.5-32.1c11.5,15.5,33.3,30.4,62,27.3
			c55.6-4,94.8-53.9,94.8-115C285.3,135.5,281.5,117.1,274.8,102.1z"/>
	</g>
	<g id="Open_Standards" class="st1">
		<path class="st2" d="M222.4,196.5c-5.4,0-10.6-2.9-13.3-7.5l-20.7-34.3L167.7,189c-2.8,4.7-7.9,7.6-13.4,7.6
			c-1.4,0-2.9-0.2-4.3-0.6l-44.1-12.6v57.3c0,4.7,3.2,8.9,7.8,10l69.6,17.4c3.3,0.8,6.7,0.8,10,0l69.7-17.4c4.6-1.2,7.8-5.3,7.8-10
			v-57.3l-44.1,12.6C225.3,196.3,223.8,196.5,222.4,196.5z M290.9,160.4l-16.6-33.1c-1-2-3.2-3.2-5.4-2.9l-80.6,10.3l29.5,49
			c1.2,2,3.7,3,6,2.4l63.7-18.2C290.8,166.9,292.3,163.4,290.9,160.4L290.9,160.4z M102.4,127.3l-16.6,33.1c-1.5,3,0.1,6.5,3.3,7.4
			l63.7,18.2c2.3,0.6,4.7-0.3,6-2.4l29.6-49l-80.6-10.3C105.5,124.2,103.4,125.3,102.4,127.3z"/>
	</g>
	<g id="Collaboration" class="st1">
		<path class="st2" d="M131.1,213.4h51.8v-19.1c0-13.5,11-24.5,24.5-24.5c13.5,0,24.5,11,24.5,24.5v41.4l22.1-13.3
			c6.6-3.9,10.6-11,10.6-18.7v-16.1l27.2-15.7c5.2-3,7-9.7,4-14.9l-27.2-47.2c-3-5.2-9.7-7-14.9-4l-35.2,20.3H172
			c-12,0-21.8,9.8-21.8,21.8h-5.4c-6,0-10.9,4.9-10.9,10.9v21.8h-2.7c-4.5,0-8.2,3.6-8.2,8.2v16.3
			C122.9,209.7,126.6,213.4,131.1,213.4z M80.8,226.1l27.2,47.2c3,5.2,9.7,7,14.9,4l35.2-20.3H193c4.1,0,8.1-1.2,11.5-3.3l11.4-7.1
			c3.2-2,5.1-5.5,5.1-9.2v-43c0-7.5-6.1-13.6-13.6-13.6s-13.6,6.1-13.6,13.6v30h-62.7c-10.5,0-19.1-8.5-19.1-19.1v-9.7l-27.2,15.7
			C79.6,214.2,77.8,220.9,80.8,226.1z"/>
	</g>
	<g id="Data" class="st1">
		<path class="st2" d="M260.7,162.7H117.9c-5.6,0-10.2-4.6-10.2-10.2v-20.4c0-5.6,4.6-10.2,10.2-10.2h142.8
			c5.6,0,10.2,4.6,10.2,10.2v20.4C270.9,158.2,266.4,162.7,260.7,162.7z M245.4,134.7c-4.2,0-7.6,3.4-7.6,7.6s3.4,7.6,7.6,7.6
			s7.6-3.4,7.6-7.6S249.7,134.7,245.4,134.7z M225,134.7c-4.2,0-7.6,3.4-7.6,7.6s3.4,7.6,7.6,7.6s7.6-3.4,7.6-7.6
			S229.3,134.7,225,134.7z M260.7,213.7H117.9c-5.6,0-10.2-4.6-10.2-10.2v-20.4c0-5.6,4.6-10.2,10.2-10.2h142.8
			c5.6,0,10.2,4.6,10.2,10.2v20.4C270.9,209.2,266.4,213.7,260.7,213.7z M245.4,185.7c-4.2,0-7.6,3.4-7.6,7.6s3.4,7.6,7.6,7.6
			s7.6-3.4,7.6-7.6S249.7,185.7,245.4,185.7z M225,185.7c-4.2,0-7.6,3.4-7.6,7.6s3.4,7.6,7.6,7.6s7.6-3.4,7.6-7.6
			S229.3,185.7,225,185.7z M260.7,264.7H117.9c-5.6,0-10.2-4.6-10.2-10.2v-20.4c0-5.6,4.6-10.2,10.2-10.2h142.8
			c5.6,0,10.2,4.6,10.2,10.2v20.4C270.9,260.2,266.4,264.7,260.7,264.7z M245.4,236.7c-4.2,0-7.6,3.4-7.6,7.6s3.4,7.6,7.6,7.6
			s7.6-3.4,7.6-7.6S249.7,236.7,245.4,236.7z M225,236.7c-4.2,0-7.6,3.4-7.6,7.6s3.4,7.6,7.6,7.6s7.6-3.4,7.6-7.6
			S229.3,236.7,225,236.7z"/>
	</g>
	<g id="Privacy">
		<path class="st3" d="M189.4,191.2c-5.1,0-9.2,4.1-9.2,9.2c0.4,27.8-3.1,54.6-10.7,81.4c-1,3.7,0.8,11.7,8.9,11.7
			c4,0,7.7-2.7,8.9-6.7c5.2-18.4,11.9-48.3,11.4-86.4C198.6,195.3,194.5,191.2,189.4,191.2L189.4,191.2z M189.1,159.7
			c-23.6,0-40,18.1-39.7,38.9c0.3,18.4-1.5,36.9-5.2,54.8c-1,5,2.2,9.9,7.2,10.9c5,1,9.9-2.2,10.9-7.2c4-19.3,5.8-39.1,5.5-58.9
			c-0.2-10,7.7-20.2,20.9-20.1c12,0.2,22,9.7,22.2,21.4c0.3,18.5-1.1,37.1-4.1,55.2c-0.8,5,2.6,9.8,7.6,10.6
			c7.7,1.3,10.3-5.8,10.6-7.6c3.2-19.2,4.7-38.9,4.3-58.5C229.1,177.7,211,160,189.1,159.7L189.1,159.7z M146.5,152.1
			c-4-3.2-9.8-2.6-13,1.3c-9.9,12.1-15.2,27.4-14.9,43.1c0.2,14.5-1,29-3.5,43.1c-0.9,5,2.4,9.8,7.5,10.7c7.7,1.3,10.4-5.7,10.7-7.5
			c2.8-15.3,4-31.1,3.8-46.7c-0.2-11.5,3.5-22.3,10.8-31.2C151,161.1,150.4,155.3,146.5,152.1L146.5,152.1z M188.6,128.1
			c-5.9-0.2-11.9,0.5-17.6,1.9c-5,1.2-8,6.2-6.8,11.1s6.2,8,11.1,6.8c4.3-1,8.7-1.5,13.1-1.4c29,0.4,53,23.7,53.4,51.8
			c0.2,14.6-0.5,29.3-2.2,43.7c-0.6,5.1,3.1,9.7,8.1,10.2c6.4,0.8,9.8-4.6,10.2-8.1c1.7-15.3,2.5-30.7,2.3-46.1
			C259.6,160.1,227.5,128.7,188.6,128.1L188.6,128.1z M285.6,174.8c-1.1-5-6-8.2-11-7c-5,1.1-8.1,6-7,11c1.8,8.2,1.9,14.4,1.8,23.7
			c0,5.1,4,9.3,9.2,9.3h0.1c5.1,0,9.2-4.1,9.2-9.2C287.9,194.1,288,185.7,285.6,174.8L285.6,174.8z M270.2,139.9
			c-18.7-26.7-49.4-42.9-82-43.4c-26.9-0.3-51.7,9.6-70.2,28.1c-17.9,17.9-27.5,41.6-27.1,66.8l0,8.3c-0.2,5.1,3.8,9.4,9,9.5
			c0.1,0,0.2,0,0.3,0c5,0,9.1-4,9.2-9l0.1-9.1c-0.3-20.2,7.4-39.2,21.7-53.5c14.9-14.9,35.1-23,56.8-22.7
			c26.7,0.4,51.8,13.7,67.2,35.6c2.9,4.2,8.7,5.2,12.9,2.3C272.1,149.9,273.1,144.1,270.2,139.9L270.2,139.9z"/>
	</g>
	<g id="Accessible" class="st1">
		<path class="st2" d="M188.3,97.9c50.4,0,91.2,40.8,91.2,91.2s-40.8,91.2-91.2,91.2s-91.2-40.8-91.2-91.2S137.9,97.9,188.3,97.9
			 M188.3,80.4c-60.1,0-108.7,48.7-108.7,108.7s48.7,108.7,108.7,108.7s108.7-48.7,108.7-108.7S248.4,80.4,188.3,80.4z M188.3,104.9
			c-46.5,0-84.2,37.7-84.2,84.2s37.7,84.2,84.2,84.2s84.2-37.7,84.2-84.2S234.8,104.9,188.3,104.9z M188.3,124.2
			c8.7,0,15.8,7.1,15.8,15.8c0,8.7-7.1,15.8-15.8,15.8s-15.8-7.1-15.8-15.8S179.6,124.2,188.3,124.2z M239.9,167.2
			c-12.6,3-24.3,5.6-36,6.9c0.4,44.3,5.4,54,11,68.2c1.6,4.1-0.4,8.6-4.5,10.2c-4.1,1.6-8.6-0.4-10.2-4.5
			c-3.8-9.8-7.5-17.8-9.8-34.4h-4.3c-2.3,16.6-5.9,24.6-9.8,34.4c-1.6,4.1-6.2,6.1-10.2,4.5c-4.1-1.6-6.1-6.2-4.5-10.2
			c5.6-14.3,10.6-23.9,11-68.2c-11.7-1.4-23.4-3.9-36-6.9c-3.8-0.9-6.1-4.6-5.2-8.4c0.9-3.8,4.6-6.1,8.4-5.2c42.4,10,54.5,10,96.8,0
			c3.8-0.9,7.5,1.4,8.4,5.2C246.1,162.5,243.7,166.3,239.9,167.2z"/>
	</g>
	<g id="Open_Work" class="st1">
		<path class="st2" d="M277.3,116.9c-19.2,1.1-57.3,5-80.9,19.5c-1.6,1-2.6,2.8-2.6,4.6v127.4c0,4,4.4,6.6,8.2,4.7
			c24.2-12.2,59.2-15.5,76.6-16.4c5.9-0.3,10.5-5,10.5-10.7V127.7C289.2,121.4,283.8,116.5,277.3,116.9z M180.2,136.3
			c-23.5-14.4-61.7-18.3-80.8-19.5c-6.4-0.4-11.8,4.6-11.8,10.8V246c0,5.7,4.6,10.4,10.5,10.7c17.3,0.9,52.4,4.2,76.6,16.5
			c3.7,1.9,8.1-0.7,8.1-4.7V140.9C182.7,139,181.8,137.4,180.2,136.3z"/>
	</g>
	<g id="Services" class="st1">
		<path class="st2" d="M290.1,222.5h-5.2v-35.1c0-4.1-1.7-8.1-4.6-11l-32.5-32.5c-2.9-2.9-6.9-4.6-11-4.6h-14.3v-15.6
			c0-8.6-7-15.6-15.6-15.6h-83.2c-8.6,0-15.6,7-15.6,15.6v15.6H89.9c-1.4,0-2.6,1.2-2.6,2.6v5.2c0,1.4,1.2,2.6,2.6,2.6h88.4
			c1.4,0,2.6,1.2,2.6,2.6v5.2c0,1.4-1.2,2.6-2.6,2.6h-78c-1.4,0-2.6,1.2-2.6,2.6v5.2c0,1.4,1.2,2.6,2.6,2.6h67.6
			c1.4,0,2.6,1.2,2.6,2.6v5.2c0,1.4-1.2,2.6-2.6,2.6h-78c-1.4,0-2.6,1.2-2.6,2.6v5.2c0,1.4,1.2,2.6,2.6,2.6h67.6
			c1.4,0,2.6,1.2,2.6,2.6v5.2c0,1.4-1.2,2.6-2.6,2.6h-49.4v41.6c0,17.2,14,31.2,31.2,31.2s31.2-14,31.2-31.2h41.6
			c0,17.2,14,31.2,31.2,31.2s31.2-14,31.2-31.2h15.6c2.9,0,5.2-2.3,5.2-5.2v-10.4C295.3,224.9,293,222.5,290.1,222.5z M139.3,258.9
			c-8.6,0-15.6-7-15.6-15.6c0-8.6,7-15.6,15.6-15.6c8.6,0,15.6,7,15.6,15.6C154.9,251.9,147.9,258.9,139.3,258.9z M243.3,258.9
			c-8.6,0-15.6-7-15.6-15.6c0-8.6,7-15.6,15.6-15.6c8.6,0,15.6,7,15.6,15.6C258.9,251.9,251.9,258.9,243.3,258.9z M269.3,191.3
			h-46.8v-36.4h14.3l32.5,32.5V191.3z"/>
	</g>
	<g id="Iterate" class="st1">
		<path class="st2" d="M229.5,146.3c-11-10.3-25.2-15.9-40.3-15.9c-27.2,0-50.6,18.6-57,44.4c-0.5,1.9-2.1,3.2-4.1,3.2h-20.1
			c-2.6,0-4.6-2.4-4.1-5c7.6-40.3,42.9-70.7,85.4-70.7c23.3,0,44.4,9.2,60,24.1l12.5-12.5c5.3-5.3,14.4-1.6,14.4,5.9v47
			c0,4.7-3.8,8.4-8.4,8.4h-47c-7.5,0-11.2-9.1-5.9-14.4L229.5,146.3z M110.8,203.4h47c7.5,0,11.2,9.1,5.9,14.4l-14.6,14.6
			c11,10.3,25.2,15.9,40.3,15.9c27.1,0,50.6-18.6,57-44.4c0.5-1.9,2.1-3.2,4.1-3.2h20.1c2.6,0,4.6,2.4,4.1,5
			c-7.6,40.3-42.9,70.7-85.4,70.7c-23.3,0-44.4-9.2-60-24.1l-12.5,12.5c-5.3,5.3-14.4,1.5-14.4-6v-46.9
			C102.4,207.1,106.2,203.4,110.8,203.4z"/>
	</g>
	<g id="Users" class="st1">
		<path class="st2" d="M169.1,188.3c24.5,0,44.3-19.8,44.3-44.3s-19.8-44.3-44.3-44.3s-44.3,19.8-44.3,44.3S144.6,188.3,169.1,188.3
			z M200.1,199.4h-5.8c-7.7,3.5-16.2,5.5-25.2,5.5c-9,0-17.5-2-25.2-5.5h-5.8c-25.7,0-46.5,20.8-46.5,46.5v14.4
			c0,9.2,7.4,16.6,16.6,16.6H230c9.2,0,16.6-7.4,16.6-16.6v-14.4C246.6,220.2,225.8,199.4,200.1,199.4z M311.9,155l-9.6-9.7
			c-1.6-1.6-4.2-1.6-5.8,0l-36.3,36l-15.7-15.9c-1.6-1.6-4.2-1.6-5.8,0l-9.7,9.7c-1.6,1.6-1.6,4.2,0,5.8l28.3,28.5
			c1.6,1.6,4.2,1.6,5.8,0l48.9-48.5C313.5,159.2,313.5,156.6,311.9,155z"/>
	</g>
</g>
</svg>
