<?xml version="1.0" encoding="utf-8"?>
<!-- Generator: Adobe Illustrator 25.3.1, SVG Export Plug-In . SVG Version: 6.00 Build 0)  -->
<svg version="1.1" id="Layer_1" focusable="false" xmlns="http://www.w3.org/2000/svg" xmlns:xlink="http://www.w3.org/1999/xlink"
	 x="0px" y="0px" viewBox="0 0 512 512" style="enable-background:new 0 0 512 512;" xml:space="preserve">
<style type="text/css">
	.st0{fill:#FFFFFF;}
</style>
<path class="st0" d="M480,160H32c-17.7,0-32-14.3-32-32V64c0-17.7,14.3-32,32-32h448c17.7,0,32,14.3,32,32v64
	C512,145.7,497.7,160,480,160z M432,72c-13.3,0-24,10.7-24,24s10.7,24,24,24s24-10.7,24-24S445.3,72,432,72z M368,72
	c-13.3,0-24,10.7-24,24s10.7,24,24,24s24-10.7,24-24S381.3,72,368,72z M480,320H32c-17.7,0-32-14.3-32-32v-64c0-17.7,14.3-32,32-32
	h448c17.7,0,32,14.3,32,32v64C512,305.7,497.7,320,480,320z M432,232c-13.3,0-24,10.7-24,24c0,13.3,10.7,24,24,24s24-10.7,24-24
	S445.3,232,432,232z M368,232c-13.3,0-24,10.7-24,24c0,13.3,10.7,24,24,24s24-10.7,24-24S381.3,232,368,232z M480,480H32
	c-17.7,0-32-14.3-32-32v-64c0-17.7,14.3-32,32-32h448c17.7,0,32,14.3,32,32v64C512,465.7,497.7,480,480,480z M432,392
	c-13.3,0-24,10.7-24,24s10.7,24,24,24s24-10.7,24-24S445.3,392,432,392z M368,392c-13.3,0-24,10.7-24,24s10.7,24,24,24
	s24-10.7,24-24S381.3,392,368,392z"/>
</svg>
