<?xml version="1.0" encoding="utf-8"?>
<!-- Generator: Adobe Illustrator 25.3.1, SVG Export Plug-In . SVG Version: 6.00 Build 0)  -->
<svg version="1.1" id="Layer_1" focusable="false" xmlns="http://www.w3.org/2000/svg" xmlns:xlink="http://www.w3.org/1999/xlink"
	 x="0px" y="0px" viewBox="0 0 576 512" style="enable-background:new 0 0 576 512;" xml:space="preserve">
<style type="text/css">
	.st0{fill:#FFFFFF;}
</style>
<path class="st0" d="M542.2,32c-54.8,3.1-163.7,14.4-231,55.6c-4.6,2.8-7.3,7.9-7.3,13.2v363.9c0,11.5,12.6,18.9,23.3,13.5
	c69.2-34.8,169.2-44.3,218.7-46.9c16.9-0.9,30-14.4,30-30.7V62.8C576,45,560.6,31,542.2,32z M264.7,87.6
	C197.5,46.5,88.6,35.2,33.8,32C15.4,31,0,45,0,62.8v337.9c0,16.2,13.1,29.8,30,30.7c49.5,2.6,149.6,12.1,218.8,47
	c10.6,5.4,23.2-1.9,23.2-13.5V100.6C272,95.3,269.4,90.5,264.7,87.6z"/>
</svg>
