<?xml version="1.0" encoding="utf-8"?>
<!-- Generator: Adobe Illustrator 25.3.1, SVG Export Plug-In . SVG Version: 6.00 Build 0)  -->
<svg version="1.1" id="Layer_1" focusable="false" xmlns="http://www.w3.org/2000/svg" xmlns:xlink="http://www.w3.org/1999/xlink"
	 x="0px" y="0px" viewBox="0 0 640 512" style="enable-background:new 0 0 640 512;" xml:space="preserve">
<style type="text/css">
	.st0{fill:#FFFFFF;}
</style>
<path class="st0" d="M425.7,256c-16.9,0-32.8-9-41.4-23.4L320,126l-64.2,106.6c-8.7,14.5-24.6,23.5-41.5,23.5c-4.5,0-9-0.6-13.3-1.9
	L64,215v178c0,14.7,10,27.5,24.2,31l216.2,54.1c10.2,2.5,20.9,2.5,31,0L551.8,424c14.2-3.6,24.2-16.4,24.2-31V215l-137,39.1
	C434.7,255.4,430.2,256,425.7,256z M638.3,143.8L586.8,41c-3.1-6.2-9.8-9.8-16.7-8.9L320,64l91.7,152.1c3.8,6.3,11.4,9.3,18.5,7.3
	l197.9-56.5C638,164,642.8,153,638.3,143.8L638.3,143.8z M53.2,41L1.7,143.8c-4.6,9.2,0.3,20.2,10.1,23l197.9,56.5
	c7.1,2,14.7-1,18.5-7.3L320,64L69.8,32.1C62.9,31.3,56.3,34.8,53.2,41z"/>
</svg>
