<?xml version="1.0" encoding="utf-8"?>
<!-- Generator: Adobe Illustrator 25.3.1, SVG Export Plug-In . SVG Version: 6.00 Build 0)  -->
<svg version="1.1" id="Layer_1" focusable="false" xmlns="http://www.w3.org/2000/svg" xmlns:xlink="http://www.w3.org/1999/xlink"
	 x="0px" y="0px" viewBox="0 0 512 512" style="enable-background:new 0 0 512 512;" xml:space="preserve">
<style type="text/css">
	.st0{fill:#FFFFFF;}
</style>
<path class="st0" d="M256.1,246c-13.2,0-24,10.7-24,24c1.1,72.2-8.1,141.9-27.7,211.5c-2.7,9.7,2.1,30.5,23.1,30.5
	c10.5,0,20.1-6.9,23.1-17.5c13.5-47.9,31-125.4,29.5-224.5C280.1,256.7,269.4,246,256.1,246L256.1,246z M255.3,164.2
	c-61.3-0.1-104,47.1-103.2,101.1c0.8,47.9-3.8,95.9-13.4,142.5c-2.7,13,5.7,25.7,18.6,28.4c13.1,2.7,25.7-5.7,28.4-18.6
	c10.3-50.1,15.2-101.6,14.4-153c-0.4-25.9,19.9-52.5,54.4-52.3c31.3,0.5,57.2,25.3,57.6,55.5c0.8,48-2.8,96.3-10.6,143.5
	c-2.2,13.1,6.7,25.4,19.8,27.6c20,3.3,26.8-15.1,27.6-19.8c8.3-50,12.1-101.2,11.3-152.1C359.3,211.1,312.2,165.1,255.3,164.2
	L255.3,164.2z M144.6,144.5c-10.3-8.3-25.4-6.8-33.8,3.5C85.2,179.5,71.4,219.3,72,260c0.6,37.6-2.5,75.3-9.1,112
	c-2.3,13,6.3,25.5,19.4,27.9c20.1,3.5,27.1-14.8,27.9-19.4c7.2-39.8,10.5-80.7,9.9-121.3c-0.5-29.9,9.2-57.9,28-81
	C156.4,167.9,154.8,152.8,144.6,144.5L144.6,144.5z M254,82.1c-15.4-0.4-30.9,1.4-45.8,5c-12.9,3.1-20.9,16-17.8,28.9
	c3.1,12.9,16,20.8,28.9,17.8c11.1-2.6,22.5-3.8,34-3.7c75.4,1.1,137.7,61.5,138.9,134.6c0.6,37.9-1.3,76.1-5.6,113.6
	c-1.5,13.2,8,25.1,21.1,26.6c16.7,2,25.5-11.9,26.6-21.1c4.5-39.8,6.5-79.8,5.9-119.9C438.6,165.2,355.1,83.6,254,82.1L254,82.1z
	 M506.1,203.6c-2.9-12.9-15.5-21.2-28.6-18.3c-12.9,2.9-21.1,15.7-18.3,28.6c4.7,21.4,4.9,37.4,4.7,61.6
	c-0.1,13.3,10.5,24.1,23.8,24.2h0.2c13.2,0,23.9-10.6,24-23.8C512.1,253.7,512.3,231.8,506.1,203.6L506.1,203.6z M466,112.9
	C417.3,43.5,337.6,1.3,252.8,0C183-0.8,118.5,24.9,70.5,72.9C24.1,119.4-0.9,181,0.1,246.6L0,268.1c-0.4,13.2,10,24.3,23.3,24.7
	c0.2,0,0.5,0,0.7,0c12.9,0,23.6-10.3,24-23.3l0.2-23.6c-0.8-52.5,19.2-101.9,56.3-139c38.8-38.8,91.3-59.7,147.7-58.9
	c69.5,1,134.7,35.6,174.6,92.4c7.6,10.9,22.6,13.4,33.4,5.9C471,138.7,473.6,123.7,466,112.9L466,112.9z"/>
</svg>
