<svg width="1661" height="576" viewBox="0 0 1661 576" fill="none" xmlns="http://www.w3.org/2000/svg">
<g clip-path="url(#clip0)">
<rect width="1661" height="576" fill="white"/>
<rect x="1669.5" y="441.02" width="1678" height="558" transform="rotate(-180 1669.5 441.02)" fill="white"/>
<path d="M1383.95 317.543L1453.28 197.455L1591.95 197.455L1661.28 317.543L1591.95 437.632L1453.28 437.632L1383.95 317.543Z" fill="#141423"/>
<path d="M922.536 317.543L991.87 197.455L1130.54 197.455L1199.87 317.543L1130.54 437.632L991.87 437.632L922.536 317.543Z" fill="#141423"/>
<path d="M1153.54 162.02L1222.87 41.9316L1361.54 41.9316L1430.87 162.02L1361.54 282.109L1222.87 282.109L1153.54 162.02Z" fill="#1D2C4C"/>
<path d="M1614.95 162.02L1684.29 41.9316L1822.95 41.9317L1892.29 162.02L1822.95 282.109L1684.29 282.109L1614.95 162.02Z" fill="#1D2C4C"/>
<path d="M1428.8 81.1462L1475.71 -0.101862L1569.53 -0.101849L1616.44 81.1462L1569.53 162.394L1475.71 162.394L1428.8 81.1462Z" fill="#674C90"/>
<path d="M969.455 81.1461L1016.36 -0.101923L1110.18 -0.10191L1157.09 81.1462L1110.18 162.394L1016.36 162.394L969.455 81.1461Z" fill="#674C90"/>
<path d="M505.97 81.1461L552.879 -0.101953L646.696 -0.101941L693.605 81.1461L646.696 162.394L552.879 162.394L505.97 81.1461Z" fill="#674C90"/>
<path d="M44.5557 81.1461L91.4643 -0.101984L185.281 -0.101971L232.19 81.1461L185.281 162.394L91.4643 162.394L44.5557 81.1461Z" fill="#674C90"/>
<path d="M461.121 317.543L530.454 197.455L669.121 197.455L738.454 317.543L669.121 437.632L530.454 437.632L461.121 317.543Z" fill="#141423"/>
<path d="M692.123 162.02L761.456 41.9316L900.122 41.9316L969.455 162.02L900.122 282.109L761.456 282.109L692.123 162.02Z" fill="#1D2C4C"/>
<path d="M-0.293439 317.543L69.0398 197.455L207.706 197.455L277.039 317.543L207.706 437.632L69.0398 437.632L-0.293439 317.543Z" fill="#141423"/>
<path d="M230.708 162.02L300.041 41.9315L438.707 41.9315L508.04 162.02L438.707 282.109L300.041 282.109L230.708 162.02Z" fill="#1D2C4C"/>
<path d="M-230.708 162.02L-161.374 41.9315L-22.7079 41.9315L46.6253 162.02L-22.7079 282.109L-161.374 282.109L-230.708 162.02Z" fill="#1D2C4C"/>
<path d="M1153.54 456.21L1222.87 336.121L1361.54 336.121L1430.87 456.21L1361.54 576.298L1222.87 576.298L1153.54 456.21Z" fill="#1D2C4C"/>
<path d="M1614.95 456.21L1684.29 336.121L1822.95 336.121L1892.29 456.21L1822.95 576.298L1684.29 576.298L1614.95 456.21Z" fill="#1D2C4C"/>
<path d="M692.123 456.21L761.456 336.121L900.122 336.121L969.455 456.21L900.122 576.298L761.456 576.298L692.123 456.21Z" fill="#1D2C4C"/>
<path d="M230.708 456.21L300.041 336.121L438.707 336.121L508.04 456.21L438.707 576.298L300.041 576.298L230.708 456.21Z" fill="#1D2C4C"/>
<path d="M-230.708 456.21L-161.374 336.121L-22.7079 336.121L46.6253 456.21L-22.7079 576.298L-161.374 576.298L-230.708 456.21Z" fill="#1D2C4C"/>
</g>
<defs>
<clipPath id="clip0">
<rect width="1661" height="576" fill="white"/>
</clipPath>
</defs>
</svg>
