<svg width="1661" height="576" viewBox="0 0 1661 576" fill="none" xmlns="http://www.w3.org/2000/svg">
<g clip-path="url(#clip0)">
<rect width="1661" height="576" fill="white"/>
<rect x="-8.58856" y="74.6122" width="1678" height="558" fill="white"/>
<rect x="-7.90759" width="1691.85" height="198.089" fill="#141423"/>
<path d="M276.955 198.089L207.622 318.178L68.9557 318.178L-0.377509 198.089L68.9557 78.0005L207.622 78.0005L276.955 198.089Z" fill="#141423"/>
<path d="M738.37 198.089L669.037 318.178L530.371 318.178L461.038 198.089L530.371 78.0005L669.037 78.0005L738.37 198.089Z" fill="#141423"/>
<path d="M507.369 353.612L438.036 473.701L299.37 473.701L230.036 353.612L299.37 233.524L438.036 233.524L507.369 353.612Z" fill="#1D2C4C"/>
<path d="M45.9545 353.612L-23.3787 473.701L-162.045 473.701L-231.378 353.612L-162.045 233.524L-23.3787 233.524L45.9545 353.612Z" fill="#1D2C4C"/>
<path d="M232.106 434.486L185.197 515.734L91.3803 515.734L44.4717 434.486L91.3803 353.238L185.197 353.238L232.106 434.486Z" fill="#674C90"/>
<path d="M691.452 434.486L644.543 515.734L550.726 515.734L503.817 434.486L550.726 353.238L644.543 353.238L691.452 434.486Z" fill="#674C90"/>
<path d="M1154.94 434.486L1108.03 515.734L1014.21 515.734L967.302 434.486L1014.21 353.238L1108.03 353.238L1154.94 434.486Z" fill="#674C90"/>
<path d="M1616.35 434.486L1569.44 515.734L1475.63 515.734L1428.72 434.486L1475.63 353.238L1569.44 353.238L1616.35 434.486Z" fill="#674C90"/>
<path d="M1199.79 198.089L1130.45 318.178L991.786 318.178L922.453 198.089L991.786 78.0005L1130.45 78.0005L1199.79 198.089Z" fill="#141423"/>
<path d="M968.784 353.612L899.451 473.701L760.785 473.701L691.452 353.612L760.785 233.524L899.451 233.524L968.784 353.612Z" fill="#1D2C4C"/>
<path d="M1661.2 198.089L1591.87 318.178L1453.2 318.178L1383.87 198.089L1453.2 78.0005L1591.87 78.0005L1661.2 198.089Z" fill="#141423"/>
<path d="M1430.2 353.612L1360.87 473.701L1222.2 473.701L1152.87 353.612L1222.2 233.524L1360.87 233.524L1430.2 353.612Z" fill="#1D2C4C"/>
<path d="M1891.61 353.612L1822.28 473.701L1683.61 473.701L1614.28 353.612L1683.61 233.524L1822.28 233.524L1891.61 353.612Z" fill="#1D2C4C"/>
</g>
<defs>
<clipPath id="clip0">
<rect width="1661" height="576" fill="white"/>
</clipPath>
</defs>
</svg>
