<svg width="100" height="100" viewBox="0 0 100 100" fill="none" xmlns="http://www.w3.org/2000/svg">
<g clip-path="url(#clip0)">
<path d="M0 50.0031C0 63.2631 5.26752 75.98 14.6438 85.3562C24.02 94.7325 36.7369 100 49.9969 100V50.0031H0Z" fill="#221F1F"/>
<path d="M49.9969 0C36.7364 0.00162447 24.0195 5.27051 14.6434 14.6477C5.26732 24.0249 -9.95022e-08 36.7425 0 50.0031H49.9969V0Z" fill="#DABA27"/>
<path d="M49.9971 100C63.2571 100 75.974 94.7325 85.3502 85.3562C94.7265 75.98 99.994 63.2631 99.994 50.0031H49.9971V100Z" fill="#BABABA"/>
<path d="M49.9971 0V50.0031H99.994C99.994 36.7425 94.7267 24.0249 85.3506 14.6477C75.9745 5.27051 63.2576 0.00162447 49.9971 0V0Z" fill="#BF372D"/>
<path d="M82.0644 52.9801C82.4687 52.9984 82.8726 52.9346 83.2516 52.7925C83.6306 52.6503 83.9769 52.4329 84.2695 52.1532C84.5621 51.8735 84.795 51.5375 84.9541 51.1653C85.1132 50.7931 85.1952 50.3925 85.1952 49.9878C85.1952 49.583 85.1132 49.1825 84.9541 48.8103C84.795 48.4381 84.5621 48.102 84.2695 47.8224C83.9769 47.5427 83.6306 47.3252 83.2516 47.1831C82.8726 47.041 82.4687 46.9771 82.0644 46.9954H73.5621V42.8301H82.0644C82.4687 42.8484 82.8726 42.7845 83.2516 42.6424C83.6306 42.5003 83.9769 42.2828 84.2695 42.0031C84.5621 41.7235 84.795 41.3874 84.9541 41.0152C85.1132 40.643 85.1952 40.2425 85.1952 39.8377C85.1952 39.4329 85.1132 39.0324 84.9541 38.6602C84.795 38.288 84.5621 37.952 84.2695 37.6723C83.9769 37.3926 83.6306 37.1752 83.2516 37.033C82.8726 36.8909 82.4687 36.8271 82.0644 36.8454H73.5621V29.5314C73.5605 28.7391 73.245 27.9797 72.6848 27.4195C72.1245 26.8592 71.3651 26.5438 70.5728 26.5422H63.118V17.9112C63.1363 17.5069 63.0725 17.103 62.9303 16.724C62.7882 16.345 62.5707 15.9988 62.2911 15.7062C62.0114 15.4136 61.6753 15.1807 61.3032 15.0215C60.931 14.8624 60.5304 14.7804 60.1257 14.7804C59.7209 14.7804 59.3203 14.8624 58.9481 15.0215C58.576 15.1807 58.2399 15.4136 57.9602 15.7062C57.6806 15.9988 57.4631 16.345 57.321 16.724C57.1788 17.103 57.115 17.5069 57.1333 17.9112V26.5667H52.974V17.9112C52.974 17.1184 52.6591 16.3581 52.0985 15.7975C51.5379 15.2369 50.7776 14.9219 49.9848 14.9219C49.192 14.9219 48.4316 15.2369 47.871 15.7975C47.3104 16.3581 46.9955 17.1184 46.9955 17.9112V26.5667H42.8546V17.9112C42.8546 17.1184 42.5397 16.3581 41.9791 15.7975C41.4185 15.2369 40.6581 14.9219 39.8653 14.9219C39.0725 14.9219 38.3122 15.2369 37.7516 15.7975C37.191 16.3581 36.876 17.1184 36.876 17.9112V26.5667H29.8377C29.0438 26.5683 28.2829 26.8844 27.7215 27.4458C27.1601 28.0072 26.844 28.7681 26.8423 29.5621V36.876H17.9113C17.1411 36.9109 16.414 37.2413 15.8813 37.7987C15.3486 38.3561 15.0513 39.0974 15.0513 39.8683C15.0513 40.6393 15.3486 41.3806 15.8813 41.938C16.414 42.4953 17.1411 42.8258 17.9113 42.8607H26.873V47.0383H17.9113C17.1411 47.0732 16.414 47.4037 15.8813 47.961C15.3486 48.5184 15.0513 49.2597 15.0513 50.0307C15.0513 50.8016 15.3486 51.5429 15.8813 52.1003C16.414 52.6577 17.1411 52.9882 17.9113 53.023H26.873V56.9985H17.9113C17.1411 57.0334 16.414 57.3638 15.8813 57.9212C15.3486 58.4786 15.0513 59.2199 15.0513 59.9908C15.0513 60.7618 15.3486 61.5031 15.8813 62.0605C16.414 62.6178 17.1411 62.9483 17.9113 62.9832H26.873V70.2971C26.8746 71.0894 27.19 71.8488 27.7503 72.4091C28.3105 72.9693 29.0699 73.2848 29.8622 73.2864H36.876V82.0888C36.8577 82.4932 36.9216 82.8971 37.0637 83.2761C37.2058 83.655 37.4233 84.0013 37.703 84.2939C37.9826 84.5865 38.3187 84.8194 38.6909 84.9785C39.063 85.1376 39.4636 85.2197 39.8684 85.2197C40.2731 85.2197 40.6737 85.1376 41.0459 84.9785C41.4181 84.8194 41.7541 84.5865 42.0338 84.2939C42.3135 84.0013 42.5309 83.655 42.673 83.2761C42.8152 82.8971 42.879 82.4932 42.8607 82.0888V73.2864H47.0384V82.0888C47.0201 82.4932 47.0839 82.8971 47.226 83.2761C47.3682 83.655 47.5856 84.0013 47.8653 84.2939C48.1449 84.5865 48.481 84.8194 48.8532 84.9785C49.2254 85.1376 49.6259 85.2197 50.0307 85.2197C50.4355 85.2197 50.836 85.1376 51.2082 84.9785C51.5804 84.8194 51.9165 84.5865 52.1961 84.2939C52.4758 84.0013 52.6933 83.655 52.8354 83.2761C52.9775 82.8971 53.0413 82.4932 53.023 82.0888V73.2864H57.1456V82.0888C57.1472 82.8817 57.4624 83.6418 58.0225 84.203C58.5826 84.7642 59.342 85.081 60.1348 85.0843C60.9114 85.03 61.6421 84.697 62.1926 84.1466C62.743 83.5962 63.076 82.8654 63.1302 82.0888V73.2864H70.5851C70.9814 73.2991 71.376 73.2306 71.7448 73.0849C72.1136 72.9393 72.4486 72.7196 72.7293 72.4396C73.0099 72.1595 73.2302 71.8249 73.3766 71.4565C73.523 71.088 73.5924 70.6934 73.5805 70.2971V62.9832H82.0828C82.853 62.9483 83.5801 62.6178 84.1128 62.0605C84.6455 61.5031 84.9428 60.7618 84.9428 59.9908C84.9428 59.2199 84.6455 58.4786 84.1128 57.9212C83.5801 57.3638 82.853 57.0334 82.0828 56.9985H73.5805V52.9801H82.0644ZM67.5958 67.4487H32.68V32.533H67.5958V67.4487Z" fill="white"/>
<rect x="40" y="40" width="20" height="20" fill="white"/>
</g>
<defs>
<clipPath id="clip0">
<rect width="100" height="100" fill="white"/>
</clipPath>
</defs>
</svg>
