<?xml version="1.0" ?><svg style="enable-background:new 0 0 50 50;" version="1.1" viewBox="0 0 50 50" xml:space="preserve" xmlns="http://www.w3.org/2000/svg" xmlns:xlink="http://www.w3.org/1999/xlink"><g id="Layer_1"><polygon points="3,3 6,3 6,1 1,1 1,6 3,6  "/><polygon points="44,3 47,3 47,6 49,6 49,1 44,1  "/><rect height="2" width="4" x="9" y="1"/><rect height="2" width="4" x="16" y="1"/><rect height="2" width="4" x="23" y="1"/><rect height="2" width="4" x="30" y="1"/><rect height="2" width="4" x="37" y="1"/><rect height="2" width="4" x="9" y="47"/><rect height="2" width="4" x="16" y="47"/><rect height="2" width="4" x="23" y="47"/><rect height="2" width="4" x="30" y="47"/><rect height="2" width="4" x="37" y="47"/><polygon points="47,47 44,47 44,49 49,49 49,44 47,44  "/><rect height="4" width="2" x="47" y="9"/><rect height="4" width="2" x="47" y="16"/><rect height="4" width="2" x="47" y="23"/><rect height="4" width="2" x="47" y="30"/><rect height="4" width="2" x="47" y="37"/><polygon points="6,47 3,47 3,44 1,44 1,49 6,49  "/><rect height="4" width="2" x="1" y="9"/><rect height="4" width="2" x="1" y="16"/><rect height="4" width="2" x="1" y="23"/><rect height="4" width="2" x="1" y="30"/><rect height="4" width="2" x="1" y="37"/></g><g/></svg>