<?xml version="1.0" encoding="utf-8"?>
<!-- Generator: Adobe Illustrator 25.4.1, SVG Export Plug-In . SVG Version: 6.00 Build 0)  -->
<svg version="1.1" id="Layer_1" xmlns="http://www.w3.org/2000/svg" xmlns:xlink="http://www.w3.org/1999/xlink" x="0px" y="0px"
	 viewBox="0 0 1678 558" style="enable-background:new 0 0 1678 558;" xml:space="preserve">
<style type="text/css">
	.st0{fill:#DABA27;}
	.st1{fill:#BF372D;}
	.st2{fill:#FAFAFA;}
	.st3{fill:#221F1F;}
</style>
<path class="st0" d="M1679.1,437.6c0,0-95.3,113.4-343.3,114.1c-248,0.7-391.7-112.1-675.5-111.4C376.6,441,0.5,557.7,0.5,557.7
	L0.2,443.3c0,0,328.3-116.6,659.9-117.5c331.6-0.9,433.5,112,675.5,111.4c242-0.6,343.3-114.1,343.3-114.1L1679.1,437.6z"/>
<path class="st1" d="M1678.8,323.1c0,0-95.3,113.4-343.3,114.1c-248,0.7-391.7-112.1-675.5-111.4C376.3,326.6,0.2,443.3,0.2,443.3
	l-0.3-114.4c0,0,328.3-116.6,659.9-117.5c331.6-0.9,433.5,112,675.5,111.4c242-0.6,343.3-114.1,343.3-114.1L1678.8,323.1z"/>
<path class="st2" d="M1678.5,215c0,0-95.3,113.4-343.3,114.1S943.6,216.9,659.8,217.7C376,218.4-0.1,335.2-0.1,335.2l-0.3-114.4
	c0,0,328.3-116.6,659.9-117.5c331.6-0.9,433.5,112,675.5,111.4c242-0.6,343.3-114.1,343.3-114.1L1678.5,215z"/>
<path class="st3" d="M1678.3,114.4c0,0-95.3,113.4-343.3,114.1c-248,0.7-391.7-112.1-675.5-111.4C375.7,117.8-0.4,224.6-0.4,224.6
	l-0.3-114.4c0,0,328.3-106.6,659.9-107.5c331.6-0.9,433.5,112,675.5,111.4S1678,0,1678,0L1678.3,114.4z"/>
<polygon class="st3" points="1684,96 1332,142.7 840,69.3 -6.7,177.3 -4,96 -4,-5.3 1684,-5.3 "/>
</svg>
