<svg width="31" height="31" viewBox="0 0 31 31" fill="none" xmlns="http://www.w3.org/2000/svg">
<path d="M25.4999 7.5293H21.1799V6.6293C21.1747 5.89892 20.8822 5.19994 20.3657 4.68348C19.8493 4.16701 19.1503 3.87454 18.4199 3.8693H12.3699C12.004 3.86535 11.6409 3.93367 11.3014 4.07035C10.962 4.20704 10.6529 4.4094 10.3918 4.66582C10.1307 4.92224 9.92286 5.22768 9.7801 5.56462C9.63734 5.90157 9.56251 6.26338 9.5599 6.6293V7.5293H5.2399C4.3557 7.53455 3.5092 7.88813 2.88396 8.51337C2.25873 9.1386 1.90515 9.9851 1.8999 10.8693V23.4693C1.90515 24.3535 2.25873 25.2 2.88396 25.8252C3.5092 26.4505 4.3557 26.8041 5.2399 26.8093H25.4999C26.3841 26.8041 27.2306 26.4505 27.8558 25.8252C28.4811 25.2 28.8347 24.3535 28.8399 23.4693V10.8693C28.8347 9.9851 28.4811 9.1386 27.8558 8.51337C27.2306 7.88813 26.3841 7.53455 25.4999 7.5293V7.5293ZM11.5999 6.6293C11.5997 6.53039 11.6198 6.43249 11.6591 6.34171C11.6983 6.25093 11.7559 6.16921 11.8281 6.10166C11.9004 6.0341 11.9858 5.98216 12.079 5.94906C12.1722 5.91597 12.2712 5.90243 12.3699 5.9093H18.4699C18.6609 5.9093 18.844 5.98516 18.979 6.12019C19.114 6.25521 19.1899 6.43835 19.1899 6.6293V7.5293H11.5999V6.6293ZM18.6999 18.2093C17.8032 19.3298 17.1033 20.5945 16.6299 21.9493C16.4499 22.4193 16.2899 22.8793 16.1499 23.2993C16.0942 23.4605 15.9896 23.6003 15.8507 23.6993C15.7118 23.7982 15.5455 23.8514 15.3749 23.8514C15.2044 23.8514 15.038 23.7982 14.8991 23.6993C14.7602 23.6003 14.6556 23.4605 14.5999 23.2993C14.4499 22.8793 14.2899 22.4193 14.1099 21.9493C13.6143 20.5841 12.9018 19.3077 11.9999 18.1693C11.503 17.549 11.1872 16.8034 11.0876 16.0148C10.9879 15.2263 11.1082 14.4256 11.4353 13.7012C11.7623 12.9767 12.2833 12.3569 12.9406 11.91C13.5979 11.4632 14.366 11.2069 15.1599 11.1693C15.995 11.1271 16.8244 11.3287 17.5469 11.7496C18.2695 12.1705 18.854 12.7925 19.2292 13.5398C19.6044 14.287 19.7542 15.1273 19.6602 15.9582C19.5662 16.7891 19.2326 17.5747 18.6999 18.2193V18.2093Z" fill="#1E1E23"/>
<path d="M25.4999 7.5293H21.1799V6.6293C21.1747 5.89892 20.8822 5.19994 20.3657 4.68348C19.8493 4.16701 19.1503 3.87454 18.4199 3.8693H12.3699C12.004 3.86535 11.6409 3.93367 11.3014 4.07035C10.962 4.20704 10.6529 4.4094 10.3918 4.66582C10.1307 4.92224 9.92286 5.22768 9.7801 5.56462C9.63734 5.90157 9.56251 6.26338 9.5599 6.6293V7.5293H5.2399C4.3557 7.53455 3.5092 7.88813 2.88396 8.51337C2.25873 9.1386 1.90515 9.9851 1.8999 10.8693V23.4693C1.90515 24.3535 2.25873 25.2 2.88396 25.8252C3.5092 26.4505 4.3557 26.8041 5.2399 26.8093H25.4999C26.3841 26.8041 27.2306 26.4505 27.8558 25.8252C28.4811 25.2 28.8347 24.3535 28.8399 23.4693V10.8693C28.8347 9.9851 28.4811 9.1386 27.8558 8.51337C27.2306 7.88813 26.3841 7.53455 25.4999 7.5293V7.5293ZM11.5999 6.6293C11.5997 6.53039 11.6198 6.43249 11.6591 6.34171C11.6983 6.25093 11.7559 6.16921 11.8281 6.10166C11.9004 6.0341 11.9858 5.98216 12.079 5.94906C12.1722 5.91597 12.2712 5.90243 12.3699 5.9093H18.4699C18.6609 5.9093 18.844 5.98516 18.979 6.12019C19.114 6.25521 19.1899 6.43835 19.1899 6.6293V7.5293H11.5999V6.6293ZM18.6999 18.2093C17.8032 19.3298 17.1033 20.5945 16.6299 21.9493C16.4499 22.4193 16.2899 22.8793 16.1499 23.2993C16.0942 23.4605 15.9896 23.6003 15.8507 23.6993C15.7118 23.7982 15.5455 23.8514 15.3749 23.8514C15.2044 23.8514 15.038 23.7982 14.8991 23.6993C14.7602 23.6003 14.6556 23.4605 14.5999 23.2993C14.4499 22.8793 14.2899 22.4193 14.1099 21.9493C13.6143 20.5841 12.9018 19.3077 11.9999 18.1693C11.503 17.549 11.1872 16.8034 11.0876 16.0148C10.9879 15.2263 11.1082 14.4256 11.4353 13.7012C11.7623 12.9767 12.2833 12.3569 12.9406 11.91C13.5979 11.4632 14.366 11.2069 15.1599 11.1693C15.995 11.1271 16.8244 11.3287 17.5469 11.7496C18.2695 12.1705 18.854 12.7925 19.2292 13.5398C19.6044 14.287 19.7542 15.1273 19.6602 15.9582C19.5662 16.7891 19.2326 17.5747 18.6999 18.2193V18.2093Z" fill="#1E1E23"/>
<path d="M15.3702 13.1504C14.937 13.1504 14.5136 13.2788 14.1535 13.5195C13.7933 13.7601 13.5126 14.1021 13.3469 14.5023C13.1811 14.9025 13.1378 15.3428 13.2223 15.7676C13.3068 16.1925 13.5153 16.5827 13.8216 16.889C14.1279 17.1952 14.5181 17.4038 14.9429 17.4883C15.3677 17.5728 15.8081 17.5294 16.2083 17.3637C16.6084 17.1979 16.9505 16.9172 17.1911 16.5571C17.4317 16.1969 17.5602 15.7735 17.5602 15.3404C17.5602 14.7596 17.3294 14.2025 16.9187 13.7918C16.508 13.3811 15.951 13.1504 15.3702 13.1504Z" fill="#1E1E23"/>
</svg>
