<?xml version="1.0" standalone="no"?>
<!DOCTYPE svg PUBLIC "-//W3C//DTD SVG 20010904//EN"
 "http://www.w3.org/TR/2001/REC-SVG-20010904/DTD/svg10.dtd">
<svg version="1.0" xmlns="http://www.w3.org/2000/svg"
 width="700.000000pt" height="700.000000pt" viewBox="0 0 700.000000 700.000000"
 preserveAspectRatio="xMidYMid meet">
<metadata>
Created by potrace 1.14, written by Peter Selinger 2001-2017
</metadata>
<g transform="translate(0.000000,700.000000) scale(0.100000,-0.100000)"
fill="#000000" stroke="none">
<path d="M4775 6091 c-131 -31 -260 -105 -351 -202 -291 -310 -240 -805 110
-1050 l71 -50 1 -1792 1 -1792 22 -57 c80 -208 337 -279 515 -143 46 35 100
119 114 177 9 33 12 238 12 690 l0 643 668 670 669 670 21 68 c21 65 22 84 22
479 0 441 -1 456 -53 540 -83 137 -265 191 -414 124 -96 -44 -171 -135 -189
-231 -4 -22 -8 -178 -8 -347 l-1 -308 -362 -362 -363 -363 0 667 0 667 53 34
c348 227 424 693 166 1022 -56 72 -83 96 -169 152 -153 102 -353 137 -535 94z
m298 -321 c170 -65 274 -264 232 -445 -68 -294 -432 -402 -646 -191 -213 211
-124 562 165 651 61 18 180 11 249 -15z"/>
<path d="M2120 5919 c-161 -21 -308 -129 -383 -280 -42 -86 -55 -151 -52 -253
l2 -74 -204 -203 c-112 -112 -216 -224 -231 -249 l-27 -45 -2 -420 c0 -231 -2
-424 -2 -430 -1 -5 -44 33 -96 85 l-95 95 0 317 c0 364 -4 386 -86 477 -141
157 -396 142 -514 -30 -61 -90 -62 -94 -62 -544 0 -442 2 -466 52 -545 30 -47
765 -784 789 -792 10 -3 14 -53 16 -248 2 -256 6 -279 51 -351 12 -19 161
-174 332 -345 l310 -309 0 -292 c0 -160 3 -313 7 -339 15 -103 83 -192 183
-241 50 -24 68 -28 147 -28 80 1 96 4 141 29 67 36 113 82 149 148 l30 53 2
440 c2 424 1 442 -19 494 -12 33 -28 55 -39 58 -11 3 -19 8 -19 12 0 4 -141
147 -313 319 l-313 312 1 905 0 905 110 116 c238 252 214 231 275 239 111 15
234 78 312 161 41 45 96 141 113 201 104 357 -194 701 -565 652z m165 -341
c92 -48 129 -157 85 -252 -73 -162 -304 -149 -363 19 -29 82 -1 168 70 219 66
46 137 51 208 14z"/>
<path d="M3535 5711 c-100 -28 -179 -95 -223 -189 l-27 -57 -2 -1080 c-1 -594
-2 -1095 -3 -1114 l0 -34 -95 94 c-52 52 -98 103 -101 114 -4 10 -6 125 -6
253 0 216 2 237 20 261 138 187 98 470 -87 605 -84 62 -156 87 -261 91 -141 4
-296 -80 -375 -204 -88 -141 -85 -336 8 -471 l31 -45 1 -365 1 -365 37 -62
c27 -44 136 -161 394 -419 196 -196 375 -371 398 -388 l41 -31 1 -570 c1 -484
3 -576 16 -611 51 -139 174 -227 316 -226 131 0 240 70 299 192 l27 55 0 2165
0 2165 -24 49 c-38 80 -137 166 -211 184 -37 8 -148 10 -175 3z m-701 -1412
c26 -31 30 -44 26 -89 -8 -89 -99 -137 -174 -90 -70 42 -80 127 -24 188 18 18
32 22 84 22 57 0 64 -2 88 -31z"/>
</g>
</svg>
