<?xml version="1.0" standalone="no"?>
<!DOCTYPE svg PUBLIC "-//W3C//DTD SVG 20010904//EN"
 "http://www.w3.org/TR/2001/REC-SVG-20010904/DTD/svg10.dtd">
<svg version="1.0" xmlns="http://www.w3.org/2000/svg"
 width="512.000000pt" height="512.000000pt" viewBox="0 0 512.000000 512.000000"
 preserveAspectRatio="xMidYMid meet">
<metadata>
Created by potrace 1.14, written by Peter Selinger 2001-2017
</metadata>
<g transform="translate(0.000000,512.000000) scale(0.100000,-0.100000)"
fill="#000000" stroke="none">
<path d="M2355 4538 c-329 -33 -679 -173 -964 -386 -94 -70 -264 -234 -342
-328 -124 -152 -250 -367 -317 -541 -30 -78 -85 -249 -77 -242 2 3 24 45 49
94 147 293 415 652 479 643 40 -6 43 -54 8 -154 -16 -48 -28 -90 -26 -93 15
-15 61 31 134 135 217 308 333 444 412 484 47 25 71 25 99 2 20 -16 21 -20 8
-57 -8 -22 -46 -93 -85 -158 -82 -134 -95 -173 -67 -195 45 -33 200 15 305 95
27 20 83 77 126 127 246 286 345 359 545 400 130 27 198 18 198 -25 0 -40 -25
-78 -192 -291 -42 -53 -84 -117 -93 -142 -17 -44 -17 -47 0 -66 13 -14 31 -20
60 -20 61 0 107 38 207 171 144 193 231 258 359 267 87 6 89 -5 20 -82 -109
-120 -85 -132 130 -70 105 31 140 37 229 38 91 1 111 -2 152 -22 84 -42 158
-151 197 -292 25 -89 28 -209 6 -270 -15 -42 -15 -42 8 -36 12 4 63 10 113 13
108 7 207 -12 303 -57 l63 -30 -38 68 c-309 558 -878 945 -1493 1017 -137 16
-373 18 -516 3z"/>
<path d="M2387 4082 c-66 -66 -68 -67 -130 -72 l-62 -5 38 -23 c50 -32 59 -50
48 -106 -5 -25 -6 -46 -2 -46 3 0 30 20 60 44 43 35 64 45 107 51 l53 6 -39
38 c-37 35 -38 38 -30 78 5 22 14 53 20 68 6 15 9 29 7 31 -1 2 -33 -27 -70
-64z"/>
<path d="M3365 4035 c-122 -34 -224 -41 -298 -21 -84 22 -104 12 -179 -92
-121 -167 -243 -265 -431 -343 -98 -41 -166 -50 -187 -24 -9 10 -10 34 -5 79
8 75 -2 101 -41 109 -49 9 -93 -13 -336 -175 -252 -166 -325 -208 -369 -208
-62 0 -64 52 -9 226 22 70 39 129 36 131 -13 13 -53 -16 -110 -80 -35 -40
-101 -114 -147 -166 -46 -52 -102 -103 -123 -114 l-39 -21 -18 23 c-10 12 -21
46 -24 76 -5 34 -12 55 -20 55 -22 0 -104 -73 -150 -135 -56 -74 -142 -242
-183 -355 -40 -109 -83 -261 -79 -274 2 -5 47 67 101 160 111 193 168 274 227
321 72 57 105 62 395 56 261 -6 486 4 774 33 292 29 322 43 535 258 172 174
246 229 395 292 124 52 192 67 290 62 71 -4 97 -10 155 -38 85 -41 203 -155
255 -247 19 -34 38 -63 41 -63 12 0 18 153 9 222 -18 125 -65 199 -154 245
-74 38 -189 41 -311 8z"/>
<path d="M3209 3800 c-106 -13 -246 -95 -361 -211 -68 -69 -63 -60 -213 -373
-38 -80 -61 -112 -119 -170 -39 -40 -107 -97 -151 -128 -209 -145 -434 -457
-534 -741 -33 -94 -39 -141 -18 -135 6 3 47 62 90 133 150 246 291 411 457
535 80 59 267 160 297 160 8 0 24 24 36 53 87 212 267 518 374 637 117 131
265 167 468 116 50 -13 92 -21 95 -19 8 7 -37 40 -104 78 -101 55 -210 78
-317 65z m-538 -707 c-6 -21 -23 -51 -38 -65 -30 -28 -112 -72 -119 -65 -3 3
26 32 64 66 38 33 75 72 82 86 18 35 23 25 11 -22z m-46 -130 c-35 -55 -101
-113 -129 -113 -15 0 49 79 87 107 52 40 65 42 42 6z m-115 -42 c0 -15 -67
-52 -130 -71 -33 -10 -60 -17 -60 -15 0 8 77 50 129 71 66 27 61 26 61 15z
m-94 -106 c-10 -8 -55 -33 -100 -55 -79 -40 -80 -41 -46 -11 39 35 126 81 149
81 13 -1 12 -3 -3 -15z"/>
<path d="M3325 3657 c-108 -28 -222 -112 -299 -220 -56 -80 -273 -513 -262
-524 2 -2 41 7 87 21 101 29 252 53 406 65 84 7 118 14 136 27 14 11 41 32 62
49 31 24 49 30 101 33 58 4 67 7 85 34 29 40 59 140 59 191 -1 61 -32 121 -78
151 -46 29 -132 56 -178 56 -18 0 -36 5 -39 10 -10 16 117 12 166 -5 24 -9 62
-30 84 -47 22 -17 46 -36 54 -42 24 -19 -28 73 -65 114 -73 81 -203 116 -319
87z m176 -256 c86 -86 -38 -210 -128 -128 -30 27 -38 69 -19 106 31 60 99 70
147 22z m-156 -187 c16 -9 52 -20 80 -23 l50 -7 -35 -22 c-64 -41 -142 -64
-231 -69 -48 -3 -94 -1 -104 4 -13 7 3 11 62 15 86 6 143 28 143 56 0 9 -9 32
-20 50 -26 42 -25 48 3 28 12 -9 35 -23 52 -32z"/>
<path d="M4072 3442 c15 -34 337 -449 375 -482 59 -52 133 -104 139 -97 7 6
-34 189 -62 277 -28 89 -92 177 -161 220 -62 39 -205 90 -254 90 -23 0 -39 -3
-37 -8z"/>
<path d="M4010 3396 c0 -73 83 -306 110 -306 13 0 13 2 -6 50 -13 31 -15 57
-10 106 7 64 6 66 -36 129 -23 36 -46 65 -50 65 -4 0 -8 -20 -8 -44z"/>
<path d="M3865 3411 c-55 -25 -123 -103 -130 -150 -3 -20 -12 -56 -19 -80 -17
-52 -10 -72 33 -97 18 -11 33 -31 40 -55 11 -35 17 -40 64 -54 94 -28 250 -56
259 -47 5 5 -14 54 -47 118 -53 105 -97 238 -110 337 -7 55 -22 59 -90 28z
m26 -131 c4 0 15 -14 24 -30 16 -31 8 -64 -19 -82 -19 -13 -59 -9 -78 9 -42
38 -2 124 50 107 8 -2 18 -4 23 -4z"/>
<path d="M2555 3284 c-33 -7 -154 -25 -270 -39 -438 -54 -606 -117 -785 -295
-95 -94 -135 -164 -184 -319 -36 -113 -81 -345 -101 -511 -20 -171 -33 -640
-17 -640 16 0 20 11 37 91 23 116 26 122 34 113 5 -5 16 -54 25 -109 20 -121
25 -137 37 -130 5 4 9 63 9 131 0 82 4 124 10 122 6 -2 26 -38 44 -81 19 -43
42 -90 52 -105 16 -24 19 -25 22 -8 2 10 -6 61 -18 112 -33 144 -25 152 43 41
98 -161 116 -158 64 11 -43 137 -54 206 -37 217 7 4 31 -12 61 -41 36 -36 49
-43 49 -30 0 10 -34 88 -75 174 -108 228 -141 394 -116 585 23 174 91 307 193
383 121 89 246 101 474 46 72 -18 146 -32 164 -32 54 0 121 41 205 126 69 69
156 189 144 197 -2 2 -31 -3 -64 -9z"/>
<path d="M4130 3228 c0 -76 10 -99 77 -169 58 -61 96 -89 146 -108 35 -13 40
-23 -90 154 -57 77 -109 149 -117 160 -14 18 -15 16 -16 -37z"/>
<path d="M1199 3229 c-130 -14 -248 -96 -303 -213 -15 -32 -26 -59 -24 -61 2
-2 28 5 58 15 30 11 69 20 85 20 25 0 34 8 54 43 62 109 136 164 236 174 31 3
53 8 50 11 -11 11 -94 17 -156 11z"/>
<path d="M1295 3171 c-68 -17 -136 -67 -176 -129 l-29 -46 122 -33 c68 -18
134 -33 148 -33 23 0 110 70 110 88 0 4 -13 23 -30 42 -16 19 -29 45 -30 58 0
49 -45 70 -115 53z m51 -79 c19 -13 23 -39 8 -61 -19 -26 -46 -27 -69 -1 -35
39 17 92 61 62z m-21 -112 c30 -7 30 -7 -11 -14 -37 -7 -44 -4 -73 24 -17 17
-31 34 -31 36 0 2 19 -5 43 -17 23 -12 56 -25 72 -29z"/>
<path d="M4150 3041 c0 -62 31 -121 97 -181 53 -49 99 -81 92 -63 -35 78 -107
199 -143 238 l-45 50 -1 -44z"/>
<path d="M1712 2939 c-196 -97 -250 -282 -180 -609 34 -160 122 -370 154 -370
19 0 19 -1 -21 134 -19 65 -41 154 -50 198 -18 94 -18 262 -1 333 11 46 12 39
8 -72 -5 -131 6 -213 39 -289 21 -50 34 -50 44 -1 15 76 47 156 73 180 17 16
47 30 75 36 60 11 73 22 108 96 16 33 58 94 94 135 70 80 80 111 43 131 -13 7
-43 29 -68 50 -108 89 -207 104 -318 48z m248 -96 c50 -64 -29 -143 -93 -93
-52 41 -27 120 39 120 23 0 38 -7 54 -27z m-50 -152 l75 -7 -37 -17 c-21 -9
-43 -17 -51 -17 -15 0 -59 -45 -77 -78 -18 -36 -21 -21 -5 23 20 55 18 71 -7
96 l-23 22 25 -8 c14 -4 59 -10 100 -14z"/>
<path d="M975 2927 c-188 -63 -283 -193 -320 -437 -26 -168 -14 -209 24 -86
31 100 70 186 116 256 31 46 42 72 39 90 -8 41 16 62 72 65 27 1 78 15 113 30
56 24 74 27 148 23 72 -3 81 -1 66 11 -65 49 -185 72 -258 48z"/>
<path d="M4315 2913 c29 -49 108 -113 180 -148 85 -40 125 -51 125 -32 0 20
-20 41 -70 75 -51 34 -232 132 -244 132 -5 0 -1 -12 9 -27z"/>
<path d="M3259 2910 c-359 -28 -684 -170 -969 -423 -209 -185 -361 -396 -454
-629 -53 -133 -53 -125 -4 -134 24 -5 47 -8 51 -9 5 0 25 43 46 96 123 312
322 552 626 752 167 110 362 188 570 229 154 31 396 30 542 -1 110 -23 250
-69 324 -106 204 -104 402 -294 534 -514 l39 -65 8 30 c4 16 15 84 24 151 l17
121 -45 64 c-161 225 -438 374 -788 422 -135 19 -385 27 -521 16z"/>
<path d="M1073 2810 c-66 -15 -148 -65 -207 -124 -68 -68 -126 -167 -126 -216
l0 -33 43 8 c50 10 76 10 188 0 l85 -8 48 47 c26 25 75 58 108 73 l60 28 -8
45 c-4 25 -7 75 -6 111 l2 66 -31 7 c-40 8 -115 6 -156 -4z m76 -95 c19 -18
17 -62 -4 -85 -23 -26 -60 -25 -85 0 -58 58 29 141 89 85z m-47 -134 l63 -7
-40 -12 c-64 -19 -93 -15 -126 17 -39 40 -37 55 5 30 19 -11 63 -23 98 -28z"/>
<path d="M4360 2813 c0 -13 39 -74 76 -120 29 -35 166 -133 187 -133 4 0 7 8
7 19 0 11 -23 36 -55 61 -30 23 -55 46 -55 50 0 4 -28 29 -62 56 -85 68 -98
76 -98 67z"/>
<path d="M3205 2713 c-375 -49 -658 -194 -935 -479 -142 -147 -241 -299 -306
-470 l-23 -62 61 -11 c33 -7 61 -11 62 -9 1 2 14 41 29 88 145 457 575 772
1123 822 359 32 652 -60 864 -271 177 -176 279 -414 281 -658 l1 -88 54 110
c30 61 71 160 91 222 l37 112 -25 53 c-34 73 -105 181 -172 260 -164 192 -426
330 -709 372 -96 15 -350 20 -433 9z"/>
<path d="M4559 2680 c51 -46 61 -49 61 -16 0 19 -9 27 -40 40 -63 25 -69 18
-21 -24z"/>
<path d="M3023 2423 c-13 -2 -23 -6 -23 -8 0 -6 82 -129 113 -168 16 -20 48
-51 72 -67 l42 -29 62 25 c82 33 149 41 187 21 47 -24 87 -73 81 -96 -6 -26 5
-27 26 -3 11 12 17 36 17 68 -1 169 -165 265 -445 262 -60 0 -120 -3 -132 -5z
m357 -83 c15 -28 4 -59 -26 -72 -19 -9 -28 -8 -44 7 -22 20 -26 55 -8 73 20
20 66 15 78 -8z"/>
<path d="M3655 2392 c13 -68 32 -100 88 -140 30 -23 64 -52 75 -66 11 -15 23
-26 27 -26 10 0 -4 139 -16 162 -13 24 -91 76 -140 93 l-41 15 7 -38z"/>
<path d="M734 2382 c-52 -25 -74 -56 -74 -104 0 -31 20 -68 37 -68 3 0 25 22
49 49 65 72 105 94 188 101 69 6 70 7 41 19 -16 7 -68 15 -115 18 -70 3 -92 0
-126 -15z"/>
<path d="M2792 2370 c-189 -68 -356 -228 -466 -447 -35 -71 -91 -222 -84 -229
2 -1 42 31 88 73 47 41 120 102 163 135 51 39 94 83 127 130 52 74 61 77 34
13 -8 -20 -13 -39 -10 -42 3 -3 25 3 50 12 40 16 49 25 85 94 44 83 48 83 26
1 -8 -30 -13 -55 -12 -56 1 -2 29 7 62 18 84 28 196 48 271 48 35 0 64 3 63 8
0 4 -21 21 -47 38 -30 19 -62 54 -88 95 -23 35 -55 79 -72 97 -27 28 -36 32
-84 32 -29 -1 -77 -9 -106 -20z"/>
<path d="M3887 2328 c14 -88 10 -272 -6 -292 -13 -15 -17 -12 -44 36 -33 58
-115 142 -146 151 -18 4 -19 2 -9 -22 20 -51 11 -154 -27 -307 -42 -168 -42
-215 -1 -251 24 -20 151 -73 209 -87 l29 -7 -31 38 c-54 68 -76 169 -48 220
12 22 14 21 56 -32 44 -55 61 -67 61 -41 0 8 14 44 31 81 26 55 31 74 25 112
-6 45 -6 45 17 31 36 -24 86 -95 98 -141 23 -85 -1 -188 -59 -249 l-26 -28 35
0 c111 0 219 79 219 160 0 87 -64 227 -193 420 -76 114 -185 260 -193 260 -3
0 -2 -24 3 -52z"/>
<path d="M875 2331 c-22 -10 -54 -30 -72 -45 -31 -26 -79 -93 -72 -101 14 -12
159 -93 159 -88 0 4 -15 22 -32 41 l-33 34 49 -31 c28 -17 64 -31 80 -31 l31
0 -33 -17 c-18 -8 -31 -17 -30 -18 2 -1 24 -14 50 -29 l46 -27 56 71 c60 77
61 84 15 137 -15 17 -32 47 -39 67 -6 20 -20 41 -30 46 -29 16 -101 11 -145
-9z m97 -78 c26 -23 23 -59 -7 -79 -23 -15 -27 -15 -50 0 -25 16 -29 26 -25
56 2 18 28 40 49 40 8 0 23 -7 33 -17z"/>
<path d="M327 2333 c-13 -12 -7 -31 18 -62 39 -45 457 -291 723 -425 77 -39
76 -39 85 20 6 30 4 31 -91 78 -130 64 -352 188 -543 302 -149 90 -177 102
-192 87z"/>
<path d="M3001 2015 c-44 -41 -87 -112 -125 -207 -15 -38 -65 -78 -98 -78 -12
0 -3 13 28 42 25 23 52 55 60 70 17 33 10 67 -14 70 -104 9 -276 -62 -495
-205 l-129 -84 84 -6 c45 -4 142 -7 214 -7 73 0 217 -7 320 -15 241 -20 343
-22 477 -11 123 9 123 9 134 112 l6 52 -58 45 c-31 24 -95 66 -142 92 -80 45
-87 52 -110 104 -28 63 -36 71 -76 71 -19 0 -42 -14 -76 -45z m105 -21 c19
-28 11 -41 -26 -44 -55 -5 -63 7 -34 48 20 29 40 28 60 -4z m107 -172 c21 -19
22 -60 1 -90 -23 -33 -79 -27 -108 11 -19 26 -19 30 -5 55 27 49 71 59 112 24z"/>
<path d="M3422 1979 c19 -103 29 -122 81 -148 43 -21 50 -22 63 -9 18 18 21
92 5 112 -16 19 -135 96 -148 96 -7 0 -7 -16 -1 -51z"/>
<path d="M670 2004 c0 -21 42 -144 51 -150 16 -9 69 46 69 71 0 17 -15 30 -60
54 -33 18 -60 29 -60 25z"/>
<path d="M803 1854 c-18 -9 -39 -27 -48 -41 -16 -23 -15 -28 18 -96 33 -68 34
-70 30 -32 -7 60 9 110 35 110 12 0 36 15 55 33 49 48 55 39 8 -14 -46 -52
-68 -115 -55 -154 6 -16 26 -33 54 -47 l45 -21 7 31 c4 18 5 38 3 45 -3 7 4
12 17 12 17 0 19 -3 10 -12 -7 -7 -12 -31 -12 -54 0 -33 5 -45 25 -58 54 -35
95 -7 95 65 0 25 7 55 16 67 15 22 14 25 -33 76 -75 82 -106 100 -177 103 -42
3 -71 -1 -93 -13z m191 -83 c25 -27 5 -63 -31 -59 -33 4 -49 41 -27 63 21 20
37 19 58 -4z"/>
<path d="M1630 1668 c21 -61 18 -59 197 -113 275 -84 535 -138 832 -175 206
-25 194 -25 180 1 -6 12 -9 38 -7 60 l3 38 -65 6 c-320 30 -523 61 -725 110
-118 28 -359 98 -417 120 -16 6 -15 2 2 -47z"/>
<path d="M3476 1690 c-3 -16 -9 -43 -12 -60 -3 -16 -2 -30 3 -30 26 1 63 55
63 92 0 23 -4 28 -24 28 -19 0 -26 -7 -30 -30z"/>
<path d="M843 1576 c16 -41 124 -201 181 -268 216 -253 431 -438 509 -438 52
0 97 75 118 194 13 80 7 264 -11 314 -20 53 -35 33 -38 -51 -2 -42 -7 -77 -12
-77 -8 0 -12 16 -40 153 -7 36 -16 57 -23 54 -9 -3 -11 -35 -9 -109 3 -73 0
-108 -8 -113 -6 -4 -13 -5 -15 -3 -2 2 -13 46 -24 97 -11 51 -26 100 -32 108
-25 30 -29 -6 -13 -111 13 -84 14 -110 5 -119 -20 -20 -39 17 -47 91 -14 137
-39 131 -59 -12 -7 -54 -16 -100 -19 -104 -15 -15 -26 21 -33 107 -7 100 -15
101 -34 4 -7 -35 -15 -63 -18 -63 -3 0 -64 47 -134 105 -70 58 -124 105 -119
105 5 0 20 -8 33 -19 28 -22 157 -101 165 -101 6 0 -67 109 -110 164 -31 40
-73 63 -164 90 -44 13 -53 13 -49 2z"/>
<path d="M1735 1503 c-14 -33 -18 -375 -6 -465 13 -100 39 -207 70 -289 22
-57 22 -57 92 -83 39 -14 74 -26 79 -26 5 0 -6 33 -25 73 -87 190 -135 502
-108 714 l9 72 -42 10 c-56 14 -61 14 -69 -6z"/>
<path d="M1883 1464 c-13 -32 -9 -393 5 -459 29 -134 91 -292 143 -367 16 -22
35 -30 112 -47 50 -11 115 -24 144 -29 l52 -9 -50 56 c-77 86 -164 221 -197
307 -47 123 -64 221 -65 387 l-2 148 -36 9 c-84 23 -98 23 -106 4z"/>
<path d="M2954 1469 c-23 -12 -44 -49 -44 -78 0 -28 41 -59 92 -70 95 -22 893
-62 1266 -65 l223 -1 34 37 c52 57 67 140 26 152 -14 5 -233 10 -1306 31 -188
4 -276 2 -291 -6z"/>
<path d="M2197 1363 c-4 -3 -7 -49 -7 -102 l0 -95 31 30 31 29 -21 -42 c-11
-23 -21 -50 -21 -59 0 -14 6 -12 29 10 l29 28 -26 -51 c-29 -60 -24 -78 8 -27
12 20 23 36 25 36 1 0 -4 -22 -12 -50 -8 -27 -13 -62 -11 -77 3 -25 5 -22 21
24 10 29 23 56 29 60 8 4 9 0 4 -13 -5 -10 -11 -51 -13 -90 -4 -57 -2 -73 12
-87 26 -27 42 -21 98 37 62 64 115 95 128 74 21 -33 -2 -63 -81 -103 -57 -29
-65 -55 -22 -75 37 -18 213 -25 277 -11 70 16 142 62 151 97 9 34 -12 51 -121
98 -79 35 -79 35 -40 36 22 0 56 -4 74 -10 l35 -10 -39 40 c-89 92 -276 205
-444 269 -101 38 -116 42 -124 34z"/>
<path d="M2573 1274 c3 -3 64 -32 134 -63 70 -31 171 -84 223 -118 171 -109
260 -143 370 -143 86 0 103 7 94 39 -4 14 -8 44 -8 66 -1 34 3 41 27 53 40 19
54 4 33 -36 -21 -40 -20 -66 1 -88 14 -14 30 -16 99 -11 91 7 128 19 225 78
40 24 72 37 83 33 24 -9 20 19 -7 44 -30 29 -102 59 -157 66 -25 4 -184 15
-355 26 -170 11 -399 29 -509 40 -209 21 -263 24 -253 14z m1077 -164 c11 -11
20 -24 20 -30 0 -12 -37 -50 -48 -50 -18 0 -52 33 -52 50 0 17 34 50 52 50 5
0 17 -9 28 -20z"/>
<path d="M3024 971 c4 -5 34 -25 69 -44 34 -20 75 -49 90 -65 l28 -29 -25 -61
c-32 -76 -32 -82 -2 -82 23 0 122 68 229 157 l49 41 109 -6 109 -5 41 42 c23
23 39 44 37 47 -3 3 -24 -5 -47 -17 -39 -20 -43 -20 -66 -5 -24 16 -31 15
-141 -19 -157 -47 -193 -46 -344 10 -124 46 -145 52 -136 36z"/>
<path d="M2853 813 c-23 -9 -13 -28 25 -48 29 -16 40 -30 53 -68 14 -43 17
-46 30 -31 8 9 14 36 14 60 0 70 -59 113 -122 87z"/>
<path d="M2751 766 c-8 -10 -6 -19 9 -39 32 -41 36 -83 11 -118 -24 -33 -22
-35 18 -14 30 15 61 69 61 105 0 24 -17 61 -34 72 -18 12 -53 9 -65 -6z"/>
<path d="M2497 753 c-4 -3 -4 -23 -1 -43 7 -41 -14 -92 -43 -109 -29 -17 4
-13 37 4 60 31 104 134 64 149 -21 8 -49 8 -57 -1z"/>
<path d="M2638 753 c-25 -6 -30 -31 -13 -63 20 -38 19 -52 -6 -84 -20 -25 -20
-26 -1 -26 29 0 86 42 96 71 11 31 2 71 -20 93 -15 16 -25 17 -56 9z"/>
</g>
</svg>
