<?xml version="1.0" standalone="no"?>
<!DOCTYPE svg PUBLIC "-//W3C//DTD SVG 20010904//EN"
 "http://www.w3.org/TR/2001/REC-SVG-20010904/DTD/svg10.dtd">
<svg version="1.0" xmlns="http://www.w3.org/2000/svg"
 width="700.000000pt" height="700.000000pt" viewBox="0 0 700.000000 700.000000"
 preserveAspectRatio="xMidYMid meet">
<metadata>
Created by potrace 1.14, written by Peter Selinger 2001-2017
</metadata>
<g transform="translate(0.000000,700.000000) scale(0.100000,-0.100000)"
fill="#000000" stroke="none">
<path d="M3459 6306 c-2 -2 -65 -6 -139 -10 -75 -4 -147 -8 -160 -10 -14 -2
-52 -7 -85 -10 -469 -48 -1071 -330 -1454 -680 -379 -346 -636 -742 -796
-1224 -65 -193 -61 -194 40 -7 160 298 361 596 500 744 79 83 122 113 153 104
42 -11 41 -84 -3 -225 -28 -87 -31 -118 -13 -118 22 0 103 96 228 270 68 96
128 180 132 185 5 6 34 44 65 85 168 222 303 345 391 354 31 4 77 -17 85 -38
12 -31 -24 -111 -137 -305 -129 -220 -129 -264 -1 -262 63 0 124 19 234 74 99
48 158 101 314 276 145 165 298 317 368 369 108 79 219 125 402 166 143 33
252 10 241 -50 -11 -59 -108 -203 -270 -398 -31 -37 -114 -165 -124 -191 -17
-46 -12 -92 12 -109 31 -22 111 -20 156 3 48 24 119 100 212 226 112 152 240
274 331 318 106 51 250 70 257 34 3 -16 -42 -80 -88 -125 -39 -39 -72 -93 -66
-108 9 -24 90 -14 276 34 294 76 457 73 577 -9 82 -57 170 -193 217 -335 26
-80 28 -92 33 -224 4 -106 1 -135 -15 -187 -11 -35 -16 -63 -12 -63 4 0 32 5
61 10 146 28 373 1 535 -65 54 -21 84 -29 84 -21 0 35 -198 342 -313 486 -57
70 -279 298 -357 365 -169 147 -422 310 -636 411 -193 91 -507 192 -684 219
-25 4 -53 9 -62 10 -9 2 -48 6 -85 10 -37 3 -93 8 -123 11 -70 7 -277 14 -281
10z"/>
<path d="M3215 5668 c-98 -94 -138 -117 -217 -126 l-63 -8 47 -33 c26 -19 52
-47 59 -62 11 -27 7 -129 -7 -150 -11 -18 4 -8 67 42 82 66 102 75 182 90 l67
12 -51 54 c-56 59 -56 60 -18 187 10 33 17 62 14 64 -2 2 -38 -29 -80 -70z"/>
<path d="M4757 5614 c-1 -1 -27 -4 -57 -7 -30 -3 -91 -14 -135 -25 -182 -47
-308 -55 -419 -28 -112 27 -144 7 -296 -189 -134 -172 -245 -263 -444 -365
-182 -93 -305 -132 -346 -110 -31 17 -38 44 -36 153 1 60 -2 101 -9 107 -6 5
-31 14 -55 19 -41 10 -51 8 -115 -23 -38 -18 -178 -105 -310 -193 -351 -233
-474 -304 -550 -317 -86 -15 -93 75 -22 301 54 171 61 199 49 207 -12 7 -88
-48 -123 -88 -15 -17 -61 -71 -104 -121 -104 -122 -264 -284 -297 -301 -38
-20 -75 -18 -87 5 -10 18 -24 73 -36 141 -8 44 -10 46 -40 32 -56 -26 -191
-174 -262 -287 -60 -96 -169 -335 -218 -480 -31 -92 -66 -210 -71 -244 -3 -19
-10 -45 -15 -58 -27 -72 6 -23 146 217 146 251 208 343 285 420 69 70 110 95
175 104 22 4 243 9 490 12 248 3 479 7 515 8 109 5 283 17 325 21 22 3 87 9
145 15 201 21 285 35 376 66 119 40 175 82 401 303 295 291 417 370 703 457
120 37 220 46 319 29 111 -19 283 -116 364 -205 79 -88 91 -105 148 -198 l56
-92 7 42 c9 57 6 284 -5 342 -11 60 -54 149 -92 193 -41 47 -110 93 -166 110
-37 12 -187 33 -194 27z"/>
<path d="M4335 5248 c-32 -4 -75 -13 -95 -19 -91 -29 -259 -141 -375 -250 -88
-84 -157 -188 -230 -348 -152 -335 -221 -432 -399 -559 -280 -201 -470 -413
-643 -717 -118 -208 -237 -513 -219 -562 9 -24 27 -4 102 115 203 321 321 479
469 627 149 150 290 251 495 355 136 69 180 97 180 115 0 55 320 636 444 805
89 123 212 225 316 263 119 43 259 43 442 -3 123 -30 133 -24 57 32 -80 59
-188 113 -265 132 -71 18 -197 24 -279 14z m-731 -950 c-28 -94 -70 -142 -174
-197 l-63 -33 97 98 c53 54 105 111 114 126 20 34 36 37 26 6z m-84 -229 c-31
-58 -141 -152 -157 -135 -12 11 49 87 105 131 57 45 74 46 52 4z m-160 -47 c0
-29 -90 -77 -203 -107 -85 -23 -39 9 118 82 74 35 85 38 85 25z m-115 -146
c-38 -26 -212 -116 -225 -116 -21 0 71 68 132 98 32 15 70 29 85 30 26 2 27 1
8 -12z"/>
<path d="M4598 5064 c-2 -1 -19 -4 -38 -7 -85 -11 -198 -57 -259 -104 -62 -48
-178 -164 -216 -218 -66 -92 -355 -670 -355 -709 0 -21 -3 -21 151 18 197 51
296 66 509 81 164 11 187 18 265 80 72 57 95 66 176 75 90 9 109 20 144 90 57
114 73 253 37 332 -41 92 -142 155 -284 179 -122 20 -90 41 42 27 80 -8 132
-31 233 -104 l77 -56 -42 69 c-77 123 -149 187 -251 223 -47 17 -180 34 -189
24z m132 -351 c38 -22 69 -80 63 -118 -6 -38 -45 -91 -84 -110 -57 -30 -149
18 -162 84 -12 61 8 112 56 141 39 24 90 25 127 3z m-215 -269 c44 -20 101
-38 132 -41 32 -4 52 -10 50 -17 -5 -16 -112 -72 -186 -96 -75 -25 -281 -40
-281 -21 0 6 10 11 23 12 82 3 184 29 211 54 30 28 28 51 -9 107 -14 21 -24
38 -22 38 3 0 39 -16 82 -36z"/>
<path d="M5550 4759 c0 -20 427 -576 491 -640 70 -68 215 -189 228 -189 16 0
-3 111 -54 310 -42 164 -81 236 -178 333 -75 74 -258 161 -383 182 -77 12
-104 13 -104 4z"/>
<path d="M5475 4740 c-9 -14 -9 -93 0 -120 3 -10 7 -27 9 -37 15 -77 113 -314
136 -328 14 -8 12 13 -9 90 -6 22 -11 83 -11 136 0 93 -1 97 -37 156 -59 95
-79 118 -88 103z"/>
<path d="M5335 4733 c-88 -17 -182 -92 -226 -181 -21 -42 -58 -173 -64 -223
-3 -29 8 -46 50 -76 16 -11 43 -47 60 -79 l30 -59 80 -23 c179 -51 331 -80
347 -64 8 8 -10 54 -65 169 -82 172 -116 270 -142 408 -17 97 -38 134 -70 128z
m-27 -220 c10 -10 25 -32 32 -50 11 -28 10 -37 -7 -65 -38 -65 -102 -60 -140
11 -24 44 -20 74 14 101 32 25 74 26 101 3z"/>
<path d="M3425 4528 c-77 -14 -170 -27 -380 -53 -22 -3 -57 -8 -78 -11 -20 -3
-47 -7 -60 -8 -26 -4 -130 -19 -137 -21 -3 -1 -23 -5 -45 -9 -268 -50 -501
-140 -650 -252 -77 -57 -179 -157 -217 -212 -123 -178 -237 -541 -283 -897 -3
-27 -10 -79 -15 -115 -5 -36 -12 -99 -15 -140 -4 -41 -9 -88 -11 -105 -2 -16
-6 -180 -10 -362 -6 -299 -5 -333 9 -333 18 0 50 91 61 170 3 25 10 59 15 77
5 17 6 35 3 39 -4 4 -1 4 5 0 7 -4 18 -26 24 -49 12 -46 13 -51 24 -117 8 -49
15 -89 19 -105 2 -5 6 -27 10 -47 18 -86 34 -8 37 178 3 171 7 176 58 69 76
-161 95 -195 108 -195 15 0 16 29 3 85 -11 47 -18 87 -26 135 -3 19 -9 51 -15
70 -21 80 -4 64 97 -92 77 -118 105 -150 121 -135 3 3 -7 48 -22 99 -47 161
-66 232 -71 273 -3 22 -6 49 -8 60 -2 11 -1 29 3 40 7 18 15 13 78 -48 38 -37
72 -64 75 -61 11 10 -10 65 -81 217 -150 319 -184 447 -185 682 -1 233 16 320
95 484 85 174 213 282 391 327 86 23 225 14 403 -24 212 -46 226 -48 281 -46
100 3 201 70 330 219 79 90 156 201 152 218 -2 10 -21 9 -93 -5z"/>
<path d="M5635 4436 c1 -61 7 -82 30 -122 36 -62 156 -182 216 -216 51 -30
104 -46 98 -31 -10 25 -325 442 -335 442 -6 1 -10 -26 -9 -73z"/>
<path d="M1470 4444 c-149 -39 -285 -139 -344 -254 -29 -55 -58 -130 -51 -130
2 0 39 11 82 24 43 13 97 29 121 35 37 11 48 21 86 79 49 76 93 123 151 160
54 34 142 64 188 64 20 -1 37 3 37 8 0 30 -174 39 -270 14z"/>
<path d="M1646 4359 c-58 -20 -115 -54 -168 -100 -25 -23 -101 -130 -95 -135
6 -6 358 -94 375 -94 24 0 104 60 132 100 l22 30 -40 60 c-22 33 -43 73 -47
90 -8 38 -49 70 -89 70 -17 -1 -58 -10 -90 -21z m107 -127 c19 -33 19 -33 -3
-57 -32 -35 -56 -37 -90 -8 -36 30 -36 35 -8 74 31 41 74 37 101 -9z m-138
-92 c37 -16 76 -30 87 -30 17 0 18 -3 8 -15 -13 -16 -100 -22 -100 -6 0 5 -17
25 -37 45 -21 20 -35 36 -31 36 3 0 36 -13 73 -30z"/>
<path d="M5657 4234 c-13 -13 5 -91 35 -151 17 -35 55 -89 83 -121 55 -60 131
-119 141 -109 8 7 -68 155 -121 238 -36 56 -116 149 -128 149 -2 0 -6 -3 -10
-6z"/>
<path d="M2375 4089 c-73 -12 -201 -79 -263 -140 -87 -84 -128 -165 -140 -273
-12 -113 -6 -346 12 -436 47 -232 205 -604 242 -567 3 3 -21 115 -55 249 -66
262 -79 348 -75 497 3 109 22 231 35 231 5 0 5 -15 1 -32 -15 -67 -7 -350 12
-413 30 -104 56 -161 71 -158 6 1 24 48 41 105 33 111 61 174 90 199 30 26 80
49 120 54 56 7 75 25 134 130 30 53 86 134 123 179 59 70 107 142 107 161 0 3
-46 40 -102 82 -160 119 -240 149 -353 132z m211 -173 c54 -54 41 -113 -31
-149 -82 -41 -164 73 -102 144 43 50 87 51 133 5z m-91 -221 c28 -2 68 -5 90
-5 38 -1 39 -2 15 -12 -124 -55 -146 -70 -184 -120 -21 -29 -36 -44 -32 -34
29 83 29 153 0 177 -27 22 -14 29 24 13 20 -8 60 -17 87 -19z"/>
<path d="M1295 4042 c-96 -10 -234 -72 -306 -139 -72 -66 -143 -189 -181 -308
-27 -87 -49 -208 -55 -305 -5 -87 -4 -94 11 -80 8 8 29 53 45 100 56 164 122
298 190 389 20 26 25 44 23 81 -3 65 18 83 101 85 43 2 73 9 97 23 19 11 71
31 115 43 68 18 94 21 175 15 l95 -7 -33 25 c-18 13 -48 30 -65 36 -18 7 -41
16 -52 20 -29 13 -125 26 -160 22z"/>
<path d="M5880 4037 c0 -33 81 -116 174 -180 112 -76 266 -133 266 -97 0 21
-66 82 -143 131 -69 44 -280 159 -293 159 -2 0 -4 -6 -4 -13z"/>
<path d="M4487 4014 c-1 -1 -38 -5 -82 -8 -71 -6 -147 -16 -240 -32 -106 -18
-263 -64 -389 -114 -517 -205 -1022 -661 -1268 -1145 -63 -124 -151 -342 -144
-354 9 -13 126 -35 136 -25 4 5 25 50 44 101 160 405 417 739 768 995 319 234
653 371 1023 422 116 15 431 19 523 5 100 -14 115 -17 260 -55 340 -88 634
-277 874 -563 69 -82 226 -306 241 -344 11 -27 24 18 47 161 35 215 33 239
-26 326 -64 94 -210 240 -306 304 -193 130 -456 236 -688 277 -19 4 -71 13
-115 21 -44 8 -145 17 -225 20 -172 6 -429 11 -433 8z"/>
<path d="M5965 3854 c45 -81 80 -126 150 -196 64 -63 164 -128 199 -128 25 0
19 36 -11 63 -106 95 -334 291 -355 303 -6 4 2 -15 17 -42z"/>
<path d="M1350 3861 c-79 -21 -126 -45 -205 -104 -133 -100 -244 -255 -258
-358 -7 -55 1 -61 67 -51 61 10 164 9 293 -2 l81 -8 56 53 c69 65 125 102 194
130 l54 22 -6 46 c-15 103 -17 168 -8 209 9 40 8 44 -15 59 -35 23 -170 25
-253 4z m106 -121 c8 0 21 -61 18 -85 -10 -99 -166 -78 -159 21 4 61 47 89
110 72 16 -4 31 -8 31 -8z m-164 -171 c40 -16 115 -31 156 -32 8 0 9 -4 3 -10
-5 -5 -38 -11 -73 -14 -75 -6 -114 9 -149 59 -21 29 -21 31 -3 24 10 -5 40
-17 66 -27z"/>
<path d="M4529 3746 c-2 -2 -47 -7 -99 -10 -299 -20 -516 -78 -779 -211 -355
-178 -706 -497 -893 -810 -86 -144 -159 -301 -172 -366 -6 -36 -6 -37 36 -47
24 -6 61 -13 83 -16 l40 -7 34 103 c34 106 122 299 169 372 281 436 734 710
1307 790 100 14 480 15 555 2 257 -46 394 -97 569 -213 103 -68 266 -229 337
-333 88 -128 184 -342 208 -460 29 -148 33 -186 35 -313 1 -51 5 -76 11 -72
26 16 164 338 225 522 l27 83 -50 93 c-40 77 -94 166 -134 222 -4 6 -37 46
-75 90 -292 346 -676 533 -1168 570 -116 9 -262 15 -266 11z"/>
<path d="M6190 3732 c0 -6 27 -34 61 -62 62 -55 84 -57 77 -9 -2 17 -16 30
-48 46 -59 28 -90 37 -90 25z"/>
<path d="M4110 3326 c-35 -10 -44 -16 -42 -31 11 -61 235 -328 287 -341 12 -3
62 9 111 26 117 41 198 49 249 24 56 -26 115 -86 115 -116 0 -14 6 -31 14 -37
25 -21 50 42 49 119 -1 184 -152 308 -433 357 -66 11 -308 10 -350 -1z m464
-118 c31 -43 13 -86 -41 -102 -28 -9 -73 32 -73 65 0 56 83 82 114 37z"/>
<path d="M4960 3322 c0 -20 41 -147 55 -168 8 -13 47 -49 87 -80 40 -32 88
-73 105 -93 18 -20 33 -31 34 -26 2 18 -2 101 -6 121 -2 10 -4 35 -4 55 -1 49
-63 109 -164 159 -77 39 -107 48 -107 32z"/>
<path d="M920 3282 c-61 -7 -133 -79 -144 -144 -5 -29 19 -86 45 -111 11 -11
21 -17 23 -16 61 99 125 161 201 195 90 42 100 24 15 -26 -75 -43 -180 -139
-180 -163 0 -22 15 -35 78 -76 114 -74 173 -96 130 -49 -67 73 -67 72 7 29 38
-23 79 -41 90 -41 18 0 17 -2 -8 -24 l-27 -24 22 -14 c13 -8 42 -25 64 -36
l41 -21 26 27 c14 15 48 60 76 101 54 79 56 96 19 135 -11 12 -37 53 -59 91
-45 82 -90 132 -137 152 -33 14 -211 23 -282 15z m270 -50 c0 -13 -12 -22 -22
-16 -10 6 -1 24 13 24 5 0 9 -4 9 -8z m25 -159 c42 -46 17 -103 -45 -105 -47
-2 -84 41 -69 80 21 57 73 69 114 25z"/>
<path d="M3855 3278 c-169 -52 -230 -82 -350 -172 -164 -124 -284 -273 -388
-481 -93 -186 -135 -305 -108 -305 10 0 51 32 111 87 19 17 49 42 65 54 17 13
35 28 40 35 6 6 42 35 80 64 102 78 149 125 222 223 36 48 66 87 68 87 2 0 -7
-26 -20 -57 -36 -89 -20 -100 72 -47 47 27 67 52 112 142 17 34 33 62 36 62 5
0 -4 -71 -11 -81 -2 -3 -6 -20 -9 -38 -6 -33 -5 -33 27 -29 18 3 78 17 133 31
117 30 199 42 323 48 60 2 73 12 40 30 -43 23 -131 114 -180 188 -79 116 -112
148 -161 156 -23 4 -49 8 -57 10 -8 1 -28 -2 -45 -7z"/>
<path d="M5294 3195 c3 -38 8 -81 11 -95 12 -57 7 -229 -10 -285 l-16 -57 -55
80 c-82 120 -177 211 -208 199 -11 -5 -12 -14 -4 -49 5 -24 7 -79 4 -123 -5
-69 -18 -138 -77 -415 -23 -107 -13 -184 29 -216 46 -37 283 -134 324 -134 5
0 -6 22 -26 49 -73 99 -98 198 -76 291 12 48 13 50 29 32 87 -101 141 -147
141 -122 0 7 16 53 36 102 23 59 37 110 39 150 2 33 6 62 9 65 9 9 48 -25 86
-76 50 -66 73 -137 73 -227 1 -64 -4 -81 -36 -148 -21 -41 -49 -84 -62 -94
-30 -24 -17 -32 50 -32 94 0 195 52 248 129 24 36 30 55 30 96 -1 120 -88 311
-261 568 -59 88 -111 167 -117 176 -5 9 -12 18 -15 21 -3 3 -29 37 -57 75 -29
39 -62 80 -74 90 l-22 20 7 -70z"/>
<path d="M316 3203 c-10 -10 -7 -50 5 -77 15 -31 81 -78 284 -198 446 -265
830 -467 848 -449 6 6 12 32 14 58 l5 49 -108 54 c-174 87 -381 201 -644 355
-343 199 -389 223 -404 208z"/>
<path d="M4105 2791 c-74 -47 -116 -103 -194 -259 -55 -112 -68 -129 -121
-161 -71 -43 -67 -25 15 64 35 39 67 82 70 97 8 35 -10 68 -38 69 -154 10
-353 -70 -664 -266 -163 -104 -190 -125 -169 -137 7 -4 142 -10 298 -13 157
-3 318 -7 359 -10 100 -6 208 -16 244 -22 17 -2 161 -6 320 -8 289 -3 409 4
431 28 18 19 44 107 44 149 0 29 -8 47 -35 77 -39 42 -154 125 -225 161 -93
47 -129 79 -161 143 -17 34 -40 72 -52 85 -26 28 -80 29 -122 3z m89 -53 c33
-46 12 -87 -41 -82 -13 1 -30 2 -38 3 -25 2 -17 41 14 72 35 35 45 36 65 7z
m147 -257 c49 -49 33 -124 -31 -151 -35 -14 -60 -7 -94 27 -30 30 -33 68 -9
103 41 59 88 66 134 21z"/>
<path d="M4644 2708 c6 -60 25 -129 47 -170 12 -22 73 -54 121 -63 31 -6 38
-4 48 14 14 28 15 102 1 128 -13 25 -122 113 -168 137 -53 27 -56 23 -49 -46z"/>
<path d="M795 2709 c10 -53 60 -182 73 -186 16 -7 54 28 78 72 15 29 16 36 4
50 -24 28 -98 75 -129 81 -28 6 -30 4 -26 -17z"/>
<path d="M1049 2549 c-54 -10 -81 -24 -126 -67 l-41 -40 43 -92 c24 -51 47
-96 52 -101 4 -4 8 30 9 76 0 94 5 104 68 134 23 12 57 36 75 55 l33 34 -39 3
c-22 2 -55 1 -74 -2z"/>
<path d="M1127 2481 c-29 -32 -61 -74 -70 -93 -20 -42 -26 -104 -15 -138 15
-45 121 -97 139 -68 5 7 9 33 9 56 0 31 4 42 13 39 8 -2 11 -22 10 -58 -4 -77
2 -95 41 -113 80 -38 111 -13 125 103 5 39 15 78 21 86 21 25 3 58 -72 133
-127 125 -132 127 -201 53z m124 -82 c9 -17 -6 -68 -20 -70 -3 0 -14 -2 -23
-4 -24 -4 -46 15 -53 47 -6 23 -2 30 26 47 35 21 50 17 70 -20z"/>
<path d="M4748 2333 c-16 -18 -49 -149 -40 -157 18 -19 92 79 92 121 0 11 -8
27 -18 37 -18 15 -20 15 -34 -1z"/>
<path d="M2113 2326 c3 -8 11 -33 18 -56 21 -70 53 -92 196 -138 113 -36 248
-76 293 -87 8 -1 44 -11 80 -20 36 -9 72 -18 80 -20 8 -2 33 -8 55 -13 22 -6
51 -13 65 -16 14 -3 68 -14 120 -26 113 -24 119 -25 235 -45 107 -17 150 -23
213 -30 26 -3 62 -8 80 -10 148 -22 302 -38 302 -32 0 3 -7 18 -15 33 -8 16
-15 52 -15 81 0 28 -4 54 -8 57 -4 2 -46 7 -93 11 -46 3 -100 8 -119 10 -19 2
-64 7 -100 10 -36 4 -76 8 -90 10 -14 2 -50 6 -80 9 -30 4 -64 8 -75 10 -11 2
-42 7 -70 10 -47 6 -189 30 -245 41 -133 26 -199 40 -280 62 -109 28 -434 125
-499 148 -53 18 -54 18 -48 1z"/>
<path d="M1037 2133 c4 -10 14 -30 22 -45 9 -14 30 -50 47 -80 84 -142 237
-324 452 -536 233 -229 359 -322 439 -322 65 0 127 85 160 217 22 93 22 373 0
457 -16 58 -31 85 -42 74 -8 -7 -16 -74 -24 -180 -4 -62 -45 45 -66 172 -7 44
-25 90 -35 90 -15 0 -20 -52 -16 -168 6 -219 -15 -218 -65 1 -20 92 -50 154
-69 142 -8 -5 -6 -78 5 -155 3 -19 8 -68 11 -107 6 -63 5 -73 -9 -73 -24 0
-35 27 -53 132 -8 51 -23 104 -32 118 l-16 25 -12 -30 c-12 -30 -17 -55 -34
-176 -11 -74 -18 -99 -30 -99 -12 0 -19 26 -25 100 -4 36 -8 85 -10 109 -8 81
-18 72 -46 -40 -11 -46 -24 -89 -27 -96 -8 -13 -66 33 -277 216 -27 24 -52 45
-54 47 -2 2 0 4 5 4 5 0 39 -21 76 -47 61 -44 151 -103 171 -112 13 -5 -39 86
-88 154 -90 126 -147 167 -285 206 -80 23 -81 23 -73 2z"/>
<path d="M2279 2029 c0 -19 -3 -43 -6 -54 -12 -45 -11 -521 2 -600 7 -44 16
-99 19 -123 8 -49 67 -251 88 -302 20 -47 32 -56 127 -90 110 -40 116 -40 95
7 -86 197 -130 345 -158 523 -33 208 -37 439 -10 607 4 30 2 33 -33 43 -21 6
-57 13 -80 17 l-43 6 -1 -34z"/>
<path d="M2489 1992 c-1 -9 -3 -28 -5 -42 -7 -48 -7 -475 0 -540 16 -144 82
-347 169 -513 28 -54 58 -102 67 -106 20 -11 113 -34 185 -46 17 -3 37 -8 45
-10 8 -2 29 -7 45 -9 46 -8 88 -17 108 -23 17 -4 17 -2 6 19 -6 12 -15 25 -19
28 -22 17 -131 156 -175 224 -97 149 -182 346 -199 461 -3 22 -8 60 -12 85 -3
25 -8 128 -10 230 -1 102 -3 193 -3 202 -1 12 -19 20 -73 32 -121 26 -128 27
-129 8z"/>
<path d="M4075 2005 c-5 -2 -26 -6 -46 -9 -21 -4 -50 -20 -69 -37 -29 -28 -32
-36 -27 -71 16 -122 90 -134 1057 -173 80 -3 179 -8 220 -10 41 -2 154 -7 250
-11 96 -3 209 -8 250 -9 41 -2 143 -4 225 -5 201 -3 247 16 301 122 41 81 29
142 -31 152 -34 6 -308 14 -675 21 -457 8 -795 16 -925 20 -242 9 -520 14
-530 10z"/>
<path d="M2933 1837 c-11 -18 -12 -32 -14 -137 -2 -144 -4 -136 33 -105 35 29
53 18 23 -15 -9 -10 -19 -38 -22 -62 l-5 -43 37 40 36 40 -25 -55 c-14 -30
-26 -64 -26 -75 0 -16 7 -13 36 20 20 22 33 32 30 23 -22 -72 -38 -158 -28
-158 4 0 20 23 35 50 16 28 30 50 32 50 2 0 -1 -15 -6 -32 -6 -18 -10 -64 -11
-101 0 -54 4 -75 19 -95 33 -45 52 -39 143 41 133 119 190 139 176 61 -6 -33
-31 -56 -97 -90 -52 -26 -91 -68 -83 -89 3 -8 27 -22 52 -32 72 -28 332 -25
420 4 81 27 136 65 157 110 17 35 17 35 -12 65 -15 16 -41 36 -58 43 -16 7
-66 30 -110 50 l-80 36 93 -6 c50 -4 92 -4 92 -1 0 12 -165 145 -258 207 -96
64 -282 162 -369 193 -21 8 -75 28 -120 45 -61 22 -84 27 -90 18z"/>
<path d="M3460 1713 c87 -35 420 -207 510 -263 192 -120 298 -167 415 -185 63
-9 178 -7 207 4 l27 10 -15 53 c-19 61 -13 127 12 145 25 18 84 17 84 -1 0 -8
-4 -18 -10 -21 -19 -11 -38 -98 -27 -122 31 -69 265 -52 407 30 107 62 137 77
155 77 37 1 47 14 34 43 -16 35 -69 69 -149 95 -92 30 -92 30 -363 47 -119 8
-236 15 -297 20 -30 2 -102 6 -160 10 -58 3 -121 8 -140 10 -19 3 -66 7 -105
10 -38 3 -86 7 -105 10 -31 3 -117 11 -230 21 -95 7 -263 13 -250 7z m1501
-229 c36 -32 22 -79 -28 -93 -63 -18 -100 53 -52 98 24 22 53 20 80 -5z"/>
<path d="M4125 1265 c22 -19 43 -35 47 -35 14 0 130 -84 144 -104 19 -28 18
-66 -5 -119 -22 -51 -29 -96 -18 -114 6 -10 17 -8 45 6 48 25 182 121 252 181
67 58 130 101 139 96 4 -3 34 -8 66 -12 142 -18 225 -1 284 60 42 43 34 62
-17 40 -27 -11 -55 -14 -107 -9 -59 5 -86 2 -175 -24 -143 -40 -231 -54 -298
-48 -31 3 -128 31 -215 61 -87 31 -164 56 -170 56 -7 -1 6 -16 28 -35z"/>
<path d="M3862 1073 c-40 -20 -42 -48 -3 -61 51 -18 111 -100 111 -153 0 -33
18 -20 35 26 44 115 -47 234 -143 188z"/>
<path d="M3703 1003 c-4 -9 5 -37 22 -66 31 -56 34 -100 10 -148 -9 -17 -14
-33 -12 -36 7 -6 48 16 68 37 64 66 68 184 9 215 -39 20 -89 19 -97 -2z"/>
<path d="M3345 971 c-3 -10 -3 -26 1 -35 3 -9 3 -37 -1 -62 -5 -34 -16 -55
-46 -85 -49 -49 -25 -54 44 -8 66 43 114 119 107 169 -4 39 -93 58 -105 21z"/>
<path d="M3533 973 c-28 -19 -28 -29 -4 -87 l20 -45 -25 -46 c-13 -25 -24 -50
-24 -55 0 -18 88 22 119 54 54 56 58 121 10 172 -26 28 -64 30 -96 7z"/>
</g>
</svg>
