<svg
  width="741"
  height="186"
  fill="none"
  xmlns="http://www.w3.org/2000/svg"
><path
    d="M13.584 80.42s5.545-26.632 17.851-34.064c2.206-1.321-.99 12.387 7.915 3.076 6.72-6.977 9.915-12.387 12.554-13.068 2.638-.681-10.863 22.895 4.329 13.626C73.816 39.254 77.547 34.217 81.73 35.724c4.185 1.507-4.122 12.14 7.813 7.598 18.716-7.082 19.829-18.147 24.117-19.654 2.721-.97 4.123 2.064 12.121.454s9.172-3.076 14.8-1.693c12.966 3.2 8.864 21.388 8.864 21.388s-8.637-20.15-26.385-14.658c-25.272 7.804-20.861 22.937-40.67 25.125-32.177 3.489-43.494 1.404-47.184 1.569-9.688.37-12.244 9.31-21.623 24.567h.001Z"
    fill="#fff"
  /><path
    d="m14.017 66.216.144-.31c7.256-16.37 21.17-34.331 23.231-31.875 3.113 3.551-4.122 12.284-.412 10.323 3.71-1.962 19.088-31.277 26.509-26.632 3.73 2.354-9.606 15.628-6.184 17.734 3.422 2.106 11.955-2.065 16.037-6.71C84.226 16.36 87.772 10.62 101.685 8.391c18.758-2.994-14.43 21.284-5.112 23.68 9.317 2.394 11.585-19.655 27.869-18.829 5.215.248-16.037 13.171 5.545 6.194 6.514-2.065 13.584-1.962 17.006 1.094 6.039 5.367 9.317 18.043 5.751 24.422a28.286 28.286 0 0 1 21.376 3.138 86.11 86.11 0 0 0-24.917-29.937A85.938 85.938 0 0 0 113.661 2.28a103.424 103.424 0 0 0-32.63 0 85.818 85.818 0 0 0-44.07 23.344 86.018 86.018 0 0 0-22.944 40.593v-.001Zm18.14 33.714c-1.505-1.508-.454-5.41-5.566-4.79a12.38 12.38 0 0 0-9.193 6.957 129.682 129.682 0 0 0 6.987 4.129 1.362 1.362 0 0 0-.268-.743 18.801 18.801 0 0 1-2.947-3.303c.144 0 3.854 3.427 5.833 3.323 1.98-.103 1.443-.165 1.608 0 .165.166-.186.207-1.237.517a4.658 4.658 0 0 0-1.731.99 73.208 73.208 0 0 0 4.02 2.065 59.024 59.024 0 0 0 4.596-5.822c0-.433.289-.95-2.102-3.324v.001Zm-5.38 3.179a2.286 2.286 0 0 1-2.16-.64 2.293 2.293 0 0 1 .01-3.193 2.29 2.29 0 0 1 3.191-.08 2.293 2.293 0 0 1-1.042 3.913h.001Zm2.061 14.038c2.061 1.528 1.752 2.064 2.659 2.787.907.722 2.618 2.064 2.391 2.828-.227.764-1.731 1.239-1.216 3.572.66 2.849-2.35 4.996-4.947 1.734 0-.681 0-3.303.474-3.778.474-.475 1.546-1.094 1.402-1.197-.145-.104-1.36 1.032-2.515.66a17.683 17.683 0 0 1-1.938-.888s1.113.723 1.773 1.487c.66.764-.371 2.704-.165 3.406-1.299-1.404-3.752-.888-4.453-3.22-.597-4.129 3.278-7.618 4.226-8.403 0 .083.701-.144 2.309 1.012Zm-2.886 2.704a1.861 1.861 0 0 0 .672 2.82 1.85 1.85 0 0 0 2.06-.323 1.853 1.853 0 0 0 .46-2.034 1.86 1.86 0 0 0-.677-.855 1.815 1.815 0 0 0-2.515.392ZM173.44 69.87s-3.69-5.078-5.875-7.906c-2.185-2.829-4.432-6.607-4.638-6.545a8.458 8.458 0 0 0 .618 6.586 22.063 22.063 0 0 0 3.669 4.129 16.88 16.88 0 0 0 6.226 3.737v-.001Zm-1.547 6.648a53.473 53.473 0 0 1-3.03-5.595 12.127 12.127 0 0 0-2.205-3.571c-.474-.599-3.175-3.634-3.154-3.654a7.44 7.44 0 0 0 1.422 6.524 22.128 22.128 0 0 0 6.967 6.296Z"
    fill="#fff"
  /><path
    d="M162.226 63.76a35.142 35.142 0 0 1-4.308-10.322c-1.01-4.5-.268-4.996 0-5.038a38.583 38.583 0 0 1 3.834 5.78c.33 1.219-1.216 4.44.35 7.495.639 1.404.33 1.94.124 2.085Zm20.881 20.108a16.378 16.378 0 0 1-4.288-3.737c-.268-.413-6.575-5.244-6.534-5.326a19.816 19.816 0 0 0 5.565 7.7 26.806 26.806 0 0 0 5.896 3.613v-1.796l-.639-.454Zm-4.164-4.81a20.804 20.804 0 0 0 4.803 4.129c0-.785 0-1.59-.144-2.375-2.206-.867-4.659-1.754-4.659-1.754Zm-.845-4.997c-3.669-2.064-8.245-4.335-8.245-4.335s.803 2.519 5.4 5.946a20.299 20.299 0 0 0 8.245 3.53c0-.516 0-1.053-.164-1.59a55.916 55.916 0 0 0-5.236-3.55v-.001Zm-23.211-25.206a10.918 10.918 0 0 0-9.193 6.977 11.11 11.11 0 0 1-1.01 4.48c-.866 1.652.206 2.663 1.752 3.427 2.061.97 1.134 2.354 2.061 3.82.495.743 12.554 3.447 13.131 2.972 1.793-1.362-5.463-6.544-6.741-21.677v.001Zm-2.061 11.375a2.839 2.839 0 0 1-4.302-1.06 2.847 2.847 0 0 1 .815-3.438 2.838 2.838 0 0 1 4.106.617c.419.601.589 1.341.474 2.065a2.835 2.835 0 0 1-1.093 1.815v.001Zm-7.503-11.603c-.157-.429-.336-.85-.536-1.26-6.39-13.728-23.849-10.549-32.115 5.947-3.772 7.514-9.07 18.27-8.349 17.981 9.73-3.799 25.045-4.129 25.891-4.253.412 0 5.173-5.8 8.575-4.356 2.824 1.218 5.421-5.677 5.462-9.538a7.92 7.92 0 0 0-1.539-4.806 7.894 7.894 0 0 0-4.129-2.894 24.028 24.028 0 0 0-8.823-1.486 13.44 13.44 0 0 1 14.594 3.592c.346.337.669.695.969 1.073Zm-14.429 13.048a19.534 19.534 0 0 1-13.213 1.218c1.546-.207 10.533 0 9.894-3.076-.453-2.065-2.247-3.014-2.061-3.324.969-1.198 3.009 2.931 7.317 2.56 4.309-.372-.082 1.672-1.999 2.622h.062Zm6.184-9.745a4.127 4.127 0 0 1-6.18 4.507 4.137 4.137 0 0 1-.791-6.367 4.124 4.124 0 0 1 2.106-1.174 4.12 4.12 0 0 1 4.782 3.034h.083ZM75.877 74.268C72.744 73.05 66.93 62.81 55.16 72.761c-11.77 9.95 1.298 40.195 3.339 39.225 1.608-.743-8.554-19.716-1.71-33.444-2.062 6.915-2.062 16.061 1.215 21.862.99 1.714 1.155-6.193 3.67-8.898 3.998-4.376 5.71.537 7.997-5.553 2.288-6.09 9.998-10.199 6.205-11.685h.001Zm-8.926-1.404a3.047 3.047 0 0 1 3.702 2.418 3.058 3.058 0 0 1-1.733 3.335 3.047 3.047 0 0 1-3.855-4.381 3.071 3.071 0 0 1 1.886-1.372Zm.784 9.435c-3.257.495-3.566 4.81-4.72 4.645-.434 0 2.37-4.83.7-6.07-1.67-1.238-2.597-2.064.969-.66a11.28 11.28 0 0 0 6.184.289c.35.124-1.051 1.404-3.133 1.713v.083Zm74.269 9.558s.866 5.636 2.763 6.648c5.153 2.787 5.648 5.512 5.648 5.512s.515-6.503-.907-7.969a14.205 14.205 0 0 0-7.504-4.19v-.001Z"
    fill="#fff"
  /><path
    fill-rule="evenodd"
    clip-rule="evenodd"
    d="M149.92 128.729c.991.334 2.003.603 3.03.805-3.463-2.188-6.061-9.166-3.175-12.201a20.69 20.69 0 0 0 4.123 4.934c0-3.737 4.123-5.017 2.061-11.231 9.008 5.698 5.999 16.206 1.629 18.581a10.16 10.16 0 0 0 10.306-4.129c3.793-5.636-10.574-24.774-15.212-30.699-.845-1.094-1.113-.764-.804.723.804 3.963 1.917 11.581-.825 14.451.598-.619-3.133-6.792-6.637-8.815a4.78 4.78 0 0 0-1.526-.578c.216.448.402.91.557 1.383 2.597 8.567-6.617 20.933-.66 24.071a34.273 34.273 0 0 0 7.133 2.705Z"
    fill="#fff"
  /><path
    d="M124.359 103.625c1.69-1.218 8.245-3.283 9.73-2.395 6.184 3.448 3.854 5.409 3.854 5.409.371.371 2.969-.764 1.938-5.285a9.951 9.951 0 0 0-6.72-7.597c-6.411-2.726-15.893-2.684-18.882-1.28 2.309 2.621 4.659 8.794 10.08 11.148Zm6.555-6.937a2.19 2.19 0 0 1-1.349 2.022 2.18 2.18 0 0 1-2.893-1.285 2.182 2.182 0 0 1 .183-1.862 2.186 2.186 0 0 1 1.874-1.063 2.171 2.171 0 0 1 1.551.636 2.16 2.16 0 0 1 .634 1.552Z"
    fill="#fff"
  /><path
    d="M121.577 103.934c-8.967-4.81-4.247-15.318-19.067-8.257-15.646 7.308-20.717 27.354-20.428 27.581.289.227 6.967-6.937 13.316-10.921.412-.269 5.648-7.866 5.648-7.866s-1.505 4.026-2.185 5.966a41.633 41.633 0 0 1 4.123-1.754c.35-.475.639-.929.865-1.301 1.546-2.663 3.422-6.709 3.422-6.709a71.048 71.048 0 0 0-1.69 7.287c12.863-5.058 20.077-1.837 15.996-4.026Zm14.758 21.636s-1.03 1.796-2.061 1.569a13.292 13.292 0 0 1 .804-5.016c.598-.31 1.876-.145 2.061.805a5.636 5.636 0 0 1-.804 2.642Z"
    fill="#fff"
  /><path
    d="M134.027 121.586c-.454-1.466-5.195-5.079-10.307-7.453-4.308-2.064-2.061-7.019-6.431-6.524-2.494.269-6.349 5.141-7.915 10.178a5.953 5.953 0 0 1-6.019 4.129 21.894 21.894 0 0 0 4.638-4.129c1.504-2.064 1.607-4.294-1.402-3.984a41.99 41.99 0 0 0-14.965 5.883c-7.978 5.12-10.596 6.627-10.183 6.813.412.186 15.192 0 25.333.847 10.142.846 13.811 1.218 17.851.846 2.062-.206 8.019-.619 8.019-.619s1.834-4.521 1.381-5.987Zm-18.428-9.146c-.536 0 .495-3.014 1.793-3.22 1.299-.207 1.876 1.28 2.061 2.353.186 1.074-3.339.929-3.854.867Zm8.719 7.288a3.013 3.013 0 0 1-3.596 2.956 3.01 3.01 0 0 1-1.832-1.161 3.01 3.01 0 0 1 .396-4.028 3.013 3.013 0 0 1 2.023-.781 2.989 2.989 0 0 1 3.009 3.014Zm17.356 24.608c-12.141-.723-14.738-.991-21.149-1.342-7.029-.392-24.427-2.498-24.736-2.064-.309.433 8.926 3.633 13.997 6.916 6.019 3.881 12.904 8.897 21.644 6.585.432 0-4.123-7.411 2.803-6.441.721 0-7.462 8.815 7.709 5.347 4.123-.929 7.421-5.533 9.256-3.799 1.381-1.218-2.969-4.81-9.524-5.202Zm-.515 7.164a2.068 2.068 0 0 1-2.474-1.611 2.064 2.064 0 0 1 1.649-2.394 2.044 2.044 0 0 1 1.576.283 2.066 2.066 0 0 1 .898 1.327 2.065 2.065 0 0 1-1.649 2.395Z"
    fill="#fff"
  /><path
    d="M146.498 154.287c-.618 0-2.494 1.693-3.566 1.466a2.42 2.42 0 0 1-1.793-1.115c-.289-.145-8.246 2.457-8.246 2.457a14.216 14.216 0 0 1-7.565.185c-6.348-2.229-10.018-4.129-10.059-3.303-.041.826 8.658 4.129 7.813 6.607-1.258 3.654-3.175 6.399-.516 5.615 2.062-.619 8.843-6.359 11.647-8.795 2.601.637 5.288.846 7.956.62 2.907-.372 4.968-3.758 4.329-3.737Zm-45.576 9.249a2.92 2.92 0 0 0-2.226 0c-.598.227-1.402 1.259-.268 2.58a2.895 2.895 0 0 1 0 3.303c-.598.723-1.629 1.507-1.113 1.59a6.176 6.176 0 0 0 4.947-3.468 4.29 4.29 0 0 0-1.34-4.005Zm3.402-1.157c-.392.166-1.258.64-.866 1.28a10.322 10.322 0 0 1 1.628 2.375 3.671 3.671 0 0 1-.33 3.55c-.536.682-1.236 1.301-.742 1.301a6.03 6.03 0 0 0 1.278-.599c2.701-1.692 3.855-5.904.969-7.803a2.062 2.062 0 0 0-1.937-.104Zm-8.596 1.322a1.913 1.913 0 0 0-1.917-.64c-1.031 0-1.34.97-1.258 1.135a4.736 4.736 0 0 1-1.154 5.389c-.459.282-.934.537-1.422.763 0 .207.267.228.432.166a6.503 6.503 0 0 0 4.7-3.304c.907-1.445 1.258-2.704.619-3.509Zm15.872-2.725a3.314 3.314 0 0 0-2.659-.372c-1.072.33-2.062 1.197-.846 1.693a5.05 5.05 0 0 1 3.505 3.757c.371 1.115.206 1.817.494 1.796.402-.32.703-.75.866-1.238a4.715 4.715 0 0 0-1.36-5.636Zm-17.563-8.589c2.577 4.129-5.236 4.749-5.4 6.607-.165 1.858 3.895 2.642 9.976 2.457 6.081-.186 9.689-3.345 9.853-5.203 0-1.012-5.215-3.695-9.502-5.017a13.837 13.837 0 0 1 6.823.744c-7.483-8.258-19.17-12.986-25.56-14.803-.763.269-.434 8.031-.269 8.65l1.423-1.692c.845-1.012 1.608-1.033.7 0-1.772 2.25-1.752 5.078-1.113 3.901a16.008 16.008 0 0 1 2.7-2.91 18.704 18.704 0 0 1-1.257 2.064c-.948 1.383-1.731 5.079-.927 3.427a22.389 22.389 0 0 1 2.515-3.716 23.56 23.56 0 0 0-1.67 6.193c0 3.366.866-2.601 2.968-4.83.206.185-3.154 7.845-.268 9.785 2.062.991 3.34-1.879 4.947-3.282a14.058 14.058 0 0 1 4.061-2.375Zm16.594-16.846c.371-4.128 6.184-3.427 13.069-3.055 6.369.33 53.429 1.012 56.274 1.218 3.669.289.927 8.691-4.741 8.609-14.615-.268-53.45-2.209-54.935-2.354-5.194-.536-9.997-.805-9.667-4.418Zm-94.367-34.167c2.783-4.603 6.864-7.803 13.11-6.585a7.213 7.213 0 0 0-2.288-1.28c-9.09-2.065-14.43 1.218-12.244 6.875l1.422.99ZM39.31 75.507c-15.522-3.82-25.664 18.002-20.16 15.814 2.138-.871 4.51-.98 6.72-.31 2.762.269 5.462.62 5.771.207a17.71 17.71 0 0 1 8.596-5.967c.206-.413.495-.764-.536-4.129-.783-2.704 1.814-4.934-.392-5.615h.001Zm-7.566 11.086a3.5 3.5 0 0 1-3.38-1.569c-1.01-1.218-1.175-2.064-.948-2.188a9.497 9.497 0 0 0 4.349 2.23c1.489.205 2.99.308 4.494.31a11.88 11.88 0 0 1-4.515 1.217Zm1.917-2.56a2.723 2.723 0 0 1-3.06-2.343 2.73 2.73 0 0 1 2.339-3.066 2.738 2.738 0 0 1 3.05 2.354 2.71 2.71 0 0 1-1.324 2.715c-.31.179-.65.294-1.005.34Z"
    fill="#fff"
  /><path
    d="M27.436 70.635c-9.585 3.22-12.697 11.56-13.625 21.057-.928 9.497 1.505.744 1.505.744A37.367 37.367 0 0 1 22.2 79.058a1.942 1.942 0 0 1-.433-.991 2.233 2.233 0 0 1 1.566-2.705 3.789 3.789 0 0 1 2.639.372l.227-.145c7.77-4.79 13.604-2.064 13.604-2.064a12.364 12.364 0 0 0-12.368-2.89h.001ZM14.718 109.55a80.798 80.798 0 0 0 2.35 7.308c3.05-2.87 4.267-3.468 1.855-4.975-.783-.434-2.35-1.301-4.205-2.333Zm3.442 9.104a3.703 3.703 0 0 0-.268.496 117.243 117.243 0 0 0 2.803 6.193c-.535-4.934.165-7.019 1.34-6.792.846.165.701 1.012.763.846a7.857 7.857 0 0 1 3.607-3.612s-5.792-1.487-8.245 2.869Zm153.775-67.116c-7.483-3.612-9.709-3.674-12.121-3.365 0 0 5.792 7.185 12.038 16.062a40.325 40.325 0 0 0 10.307 9.393 83.785 83.785 0 0 0-1.278-6.627c-.681-2.849-1.484-5.656-2.412-8.258a19.742 19.742 0 0 0-6.534-7.205ZM98.16 54.676c-16.676 3.943-36.32.867-50.193 17.073-8.142 9.517-11.049 39.019-10.78 49.878.185 7.721-.599 10.756.453 10.9 1.05.145 2.06-9.62 2.597-9.496.536.123 1.257 6.626 2.164 9.971.577 2.064 1.03 1.445 1.175-5.203 0-2.498-.453-4.954.124-5.057.99-.166.556 0 2.061 3.55 2.288 5.678 4.514 8.878 2.412.145-1.608-6.627-1.278-7.288 1.216-2.89 5.545 9.827 5.524 6.689 3.442 1.197-2.308-6.193-2.72-12.387-.35-9.517 5.153 6.09 4.556 4.026-1.381-7.742-5.462-10.838-6.679-35.24 9.4-40.814 10.08-3.51 20.16 3.86 25.148 1.445 7.4-3.634 13.027-13.564 12.512-13.44Z"
    fill="#fff"
  /><path
    d="M115.723 35.89c-20.036 12.613-9.771 22.523-28.137 34.724-16.738 11.169-26.282 37.491-24.242 37.965 2.041.475 11.44-27.292 37.104-36.025a128.071 128.071 0 0 1 14.512-26.528c10.719-15.153 24.633-5.636 26.612-6.75 0-.042-12.451-11.706-25.849-3.387v.001ZM93.584 70.262c0 .144 0 .64-1.113 1.569a10.65 10.65 0 0 1-3.319 1.59 33.585 33.585 0 0 0-4.555 1.507c2.267-2.643 8.925-4.666 8.987-4.666Zm-12.677 9.682a24.944 24.944 0 0 1 6.905-5.016 22.64 22.64 0 0 1 3.051-.434c-.103.268-4.885 2.808-9.956 5.45Zm16.655-9.538A10.616 10.616 0 0 1 92.244 74c.372-.585.793-1.138 1.258-1.652a7.532 7.532 0 0 1 2.514-2.91c1.052-.64 3.113-2.293 3.092-2.065a27.017 27.017 0 0 1-1.546 3.034v-.001Zm2.206-5.347a7.673 7.673 0 0 1-.722.93 8 8 0 0 1-1.113 1.032c-.206.144-1.133.68-1.36.805l-3.649 1.651a21.947 21.947 0 0 1 4.309-4.129c1.772-1.073 3.504-4.686 3.813-4.975a21.932 21.932 0 0 1-1.278 4.686Zm-44.442 70.4c-1.505 0-.248 6.689-1.031 6.875-1.278.309-1.732-9.703-2.907-9.249-1.875.722 1.217 9.909-1.071 10.322-.949.145-1.526-10.487-3.463-9.517-1.217.599 2.06 10.322.206 10.446-2.474.31-1.155-8.629-2.99-8.258-1.834.372-.886 9.93-2.555 9.043-1.67-.888-.268-10.323-1.464-8.258a59.072 59.072 0 0 0-1.649 6.503c-3.875-3.159-10.1-8.609-12.368-9.909.945.215 1.84.608 2.639 1.156 2.329 1.734 7.482 4.707 7.482 4.707s-4.122-7.082-6.617-8.919a25.785 25.785 0 0 0-7.626-2.684c1.03 1.9 2.06 3.737 3.277 5.533.928 1.425 1.876 2.828 2.886 4.129a150.43 150.43 0 0 0 16.202 16.784c1.249.972 2.52 1.915 3.813 2.828 2.062 1.239 3.649 1.776 4.618 1.157 6.41-3.944 4.514-22.833 2.618-22.689ZM35.62 114.608c-11.11-5.306-24.736-13.295-32.095-17.92-4.7-2.952-4.123 1.198-1.546 2.911a340.695 340.695 0 0 0 33.084 18.58 99.89 99.89 0 0 1 .557-3.571Zm38.876 9.207a48.065 48.065 0 0 1 12.595-22.709 58.477 58.477 0 0 1 40.051-16.515c36.836-1.157 47.081 28.654 45.349 43.952a86.343 86.343 0 0 0 7.854-19.344c-6.39-14.038-21.046-32.04-54.625-29.728a63.635 63.635 0 0 0-41.969 19.922 60.227 60.227 0 0 0-14.594 23.514c1.711.31 3.463.619 5.339.908Zm-1.443 22.709a70.303 70.303 0 0 1-.206-12.923l-6.04-1.507a61.898 61.898 0 0 0-.412 17.238 45.461 45.461 0 0 0 7.174 19.984 82.32 82.32 0 0 0 12.718 2.643 41 41 0 0 1-13.234-25.435Z"
    fill="#fff"
  /><path
    d="M126.751 71.11a70.044 70.044 0 0 0-47.308 22.709 68.435 68.435 0 0 0-16.696 27.684c1.401.351 2.844.681 4.287.991a64.122 64.122 0 0 1 16.12-26.776 68.84 68.84 0 0 1 46.379-20.645c30.096-.722 44.999 17.858 51.533 30.513a84.65 84.65 0 0 0 1.917-12.944c-6.761-11.52-21.911-23.432-56.232-21.532Zm-61.964 77.087a66.687 66.687 0 0 1 .247-16.516l-4.493-1.177a71.27 71.27 0 0 0-.474 20.294 53.26 53.26 0 0 0 3.978 15.112c2.212.95 4.46 1.796 6.74 2.539a54.499 54.499 0 0 1-5.998-20.252Zm42.175-13.399a4.276 4.276 0 0 1 .618-2.436 200.462 200.462 0 0 1-36.465-5.409 205.603 205.603 0 0 1-16.057-4.872c.597 1.445 1.195 3.262 1.587 4.583a527.954 527.954 0 0 0 12.945 4.129 209.157 209.157 0 0 0 38.773 6.813 3.49 3.49 0 0 1-1.401-2.808ZM30.982 67.62c2.597-5.698 6.184-9.785 13.605-9.187a8.654 8.654 0 0 0-2.783-1.114c-9.544-.537-16.161 4.397-18.449 12.263a19.766 19.766 0 0 1 7.627-1.962Z"
    fill="#fff"
  /><path
    d="M46.998 64.11c-1.34-1.341.371-4.85-4.122-4.293a12.564 12.564 0 0 0-5.99 2.594 12.59 12.59 0 0 0-3.884 5.25 66.7 66.7 0 0 1 6.988 1.756c.37-.62-.454-1.322-.866-1.693-3.67-3.303-.825-1.693 1.835-.145a6.381 6.381 0 0 0 4.122.207 6.776 6.776 0 0 1-3.298 1.094c-.866 0-1.175 0-1.67.557 1.217.33 2.31.64 4.288 1.074 1.051.227 1.505-.888 2.391-1.755 1.237-1.197 2.268-1.734 2.268-1.9 0-.164.061-.641-2.062-2.746ZM43 66.899a2.06 2.06 0 0 1-2.2-1.587 2.067 2.067 0 0 1 1.273-2.398 2.06 2.06 0 0 1 2.012 3.024c-.234.44-.62.782-1.085.961Zm89.027 41.763a26.386 26.386 0 0 0 1.546 7.061c.433 1.156 3.793 2.374 4.535 2.394 1.216 0 1.773-4.252.598-5.223a21.422 21.422 0 0 0-6.679-4.232ZM231.394 111.302c0 4.804-2.8 8.729-7.746 8.729a11.3 11.3 0 0 1-4.088-.818v5.724L214.573 126v-22.63h4.946v2.882a5.236 5.236 0 0 1 4.803-3.148c4.477 0 7.072 3.291 7.072 8.198Zm-8.298-4.089c-2.044 0-3.495 2.044-3.495 5.969v2.045c.919.538 1.96.833 3.025.858 2.473 0 3.699-2.167 3.699-4.722 0-2.556-.899-4.13-3.229-4.13v-.02Zm19.601 12.859a8.487 8.487 0 0 1-7.621-5.464 8.49 8.49 0 0 1 2.067-9.148 8.49 8.49 0 0 1 9.231-1.653 8.484 8.484 0 0 1 5.112 7.863 8.178 8.178 0 0 1-8.789 8.402Zm0-13.002a4.096 4.096 0 0 0-2.854 1.475 4.084 4.084 0 0 0-.906 3.084c0 2.903 1.716 4.477 3.76 4.477a3.928 3.928 0 0 0 3.823-4.436c-.041-2.903-1.738-4.641-3.864-4.641l.041.041Zm16.883 5.295c0 2.412.634 3.7 2.596 3.7 1.962 0 3.107-1.84 3.107-4.947v-7.748h5.028v16.456h-5.028v-2.576a5.58 5.58 0 0 1-4.946 2.862c-4.477 0-5.928-2.637-5.928-8.565v-8.177h5.09l.081 8.995Zm19.602 2.207v5.254h-4.988V103.37h4.988v2.719a5.06 5.06 0 0 1 2.217-2.428 5.062 5.062 0 0 1 3.24-.557c0 .47-.572 4.089-.654 4.6-3.659-.123-4.803 2.432-4.803 6.868Zm15.901-18.419 5.029-1.022v24.695h-5.029V96.153Zm17.456 19.994a6.606 6.606 0 0 0 4.272-1.452l2.166 3.455a11.118 11.118 0 0 1-6.602 1.922c-5.621 0-9.116-3.292-9.116-8.484a8.058 8.058 0 0 1 8.176-8.525 7.424 7.424 0 0 1 7.29 4.766c.37.97.532 2.007.477 3.043a17.502 17.502 0 0 1-.123 1.942h-10.976c.266 2.269 2.146 3.333 4.436 3.333Zm-4.293-6.828h6.725a3.13 3.13 0 0 0-3.291-2.842 3.5 3.5 0 0 0-3.434 2.842Zm20.113-2.474c-.859 0-1.676.307-1.676 1.083 0 2.29 8.175 1.35 8.175 6.869 0 3.23-2.82 5.315-6.704 5.315a14.297 14.297 0 0 1-7.194-2.248l2.391-3.332a10.011 10.011 0 0 0 4.762 1.737c1.166 0 1.758-.593 1.758-1.349 0-2.474-8.175-1.37-8.175-6.992 0-3.066 2.411-4.824 6.336-4.824 2.014-.023 4 .477 5.764 1.451l-.736 3.66a10.42 10.42 0 0 0-4.701-1.37Zm34.338 4.457c0 4.804-2.8 8.729-7.747 8.729a11.308 11.308 0 0 1-4.088-.818v5.724L345.875 126v-22.63h4.947v2.882a5.233 5.233 0 0 1 4.803-3.148c4.476 0 7.072 3.291 7.072 8.198Zm-8.299-4.089c-2.043 0-3.495 2.044-3.495 5.969v2.045c.92.538 1.961.833 3.025.858 2.474 0 3.7-2.167 3.7-4.722 0-2.556-.899-4.13-3.27-4.13l.04-.02Zm20.031 8.934a6.662 6.662 0 0 0 4.292-1.452l2.208 3.455a11.057 11.057 0 0 1-6.582 1.922c-5.62 0-9.116-3.292-9.116-8.484a8.066 8.066 0 0 1 4.944-7.907 8.052 8.052 0 0 1 3.232-.618 7.421 7.421 0 0 1 7.788 7.809 17.502 17.502 0 0 1-.123 1.942h-10.996a3.826 3.826 0 0 0 1.478 2.58 3.84 3.84 0 0 0 2.875.753Zm-4.272-6.828h6.684a3.13 3.13 0 0 0-3.291-2.842 3.477 3.477 0 0 0-3.393 2.842Zm19.05 3.046c0 2.412.633 3.7 2.596 3.7 1.962 0 3.086-1.84 3.086-4.947v-7.748h5.028v16.456h-5.028v-2.576a5.58 5.58 0 0 1-4.865 2.944c-4.476 0-5.927-2.637-5.927-8.565v-8.178h5.11v8.914Zm31.374-1.063c0 4.804-2.78 8.729-7.726 8.729a11.304 11.304 0 0 1-4.088-.818v5.724L403.78 126v-22.63h4.946v2.882a5.192 5.192 0 0 1 4.906-3.148c4.353 0 6.949 3.291 6.949 8.198Zm-8.278-4.089c-2.044 0-3.495 2.044-3.495 5.969v2.045c.919.538 1.96.833 3.025.858 2.473 0 3.679-2.167 3.679-4.722 0-2.556-.899-4.13-3.209-4.13v-.02Zm11.548-11.06 5.029-1.022v24.695h-5.029V96.153Zm17.394 19.994a6.602 6.602 0 0 0 4.272-1.452l2.167 3.455a11.122 11.122 0 0 1-6.602 1.922c-5.601 0-9.096-3.292-9.096-8.484a8.041 8.041 0 0 1 2.221-6.054 8.026 8.026 0 0 1 5.955-2.471 7.42 7.42 0 0 1 7.767 7.809c0 .982-.102 1.942-.102 1.942H436.83c.246 2.269 2.126 3.333 4.415 3.333Zm-4.292-6.828h6.725a3.13 3.13 0 0 0-3.291-2.842 3.5 3.5 0 0 0-2.229.802 3.5 3.5 0 0 0-1.205 2.04Zm20.112-2.474c-.858 0-1.676.307-1.676 1.083 0 2.29 8.176 1.35 8.176 6.869 0 3.23-2.82 5.315-6.704 5.315a14.303 14.303 0 0 1-7.195-2.248l2.392-3.332a10.011 10.011 0 0 0 4.762 1.737c1.165 0 1.758-.593 1.758-1.349 0-2.474-8.176-1.37-8.176-6.992 0-3.066 2.392-4.824 6.316-4.824 2.014-.023 4 .477 5.764 1.451l-.736 3.66a10.415 10.415 0 0 0-4.681-1.37Zm25.57-3.741a12.08 12.08 0 0 1 8.176 2.903v13.819h-4.987v-2.903a5.276 5.276 0 0 1-4.783 3.189c-4.374 0-7.031-3.311-7.031-8.177a8.17 8.17 0 0 1 2.3-6.382 8.179 8.179 0 0 1 6.325-2.449Zm-.388 12.879c2.044 0 3.495-2.044 3.495-6.01v-2.167a5.394 5.394 0 0 0-2.903-.736c-2.554 0-3.801 2.208-3.801 4.743s.899 4.17 3.209 4.17Zm17.23-3.618c0 2.412.613 3.7 2.575 3.7 1.963 0 3.107-1.84 3.107-4.947v-7.748h5.028v16.456h-5.028v-2.576a5.573 5.573 0 0 1-4.864 2.944c-4.477 0-5.928-2.637-5.928-8.565v-8.178h5.11v8.914Zm21.932 7.666c-4.477 0-5.969-2.045-5.969-6.522v-6.276h-3.066l.981-3.863h2.044v-3.476l5.069-1.063v4.539h3.843v3.863h-3.843v6.358c0 1.717.307 2.351 1.411 2.515.952.083 1.909.083 2.861 0l-.94 3.884c-.184-.082-.858.041-2.391.041Zm13.244.041a8.487 8.487 0 0 1-7.621-5.464 8.483 8.483 0 1 1 16.41-2.938 8.178 8.178 0 0 1-8.789 8.402Zm0-13.002a4.083 4.083 0 0 0-2.868 1.468 4.107 4.107 0 0 0-.913 3.091 3.847 3.847 0 0 0 2.177 4.112 3.847 3.847 0 0 0 3.229 0 3.841 3.841 0 0 0 2.177-4.112c-.041-2.862-1.737-4.6-3.843-4.6l.041.041Zm11.262 4.518c0-5.581 3.782-8.525 8.81-8.525 1.83-.04 3.644.352 5.294 1.145l-.43 3.966a8.515 8.515 0 0 0-4.251-1.186 4.538 4.538 0 1 0 0 9.077 6.418 6.418 0 0 0 3.904-1.37l2.044 3.496a11.14 11.14 0 0 1-6.377 2.044c-5.335-.082-8.994-3.107-8.994-8.647Zm28.432.633c0-3.107-.225-5.028-2.658-5.028-2.432 0-3.147 2.35-3.147 5.764v6.869h-5.028V96.153l5.028-1.022v10.958a5.94 5.94 0 0 1 4.987-2.985c4.865 0 5.927 3.025 5.927 9.71v7.012h-5.109v-7.605Zm15.166 7.81c-4.477 0-5.969-2.045-5.969-6.522v-6.276h-3.066l.981-3.863h2.044v-3.476l5.069-1.063v4.539h3.843v3.863h-3.843v6.358c0 1.717.307 2.351 1.411 2.515.952.083 1.909.083 2.861 0l-.94 3.884c-.184-.082-.859.041-2.391.041Zm13.244.041a8.487 8.487 0 0 1-7.622-5.464 8.487 8.487 0 0 1 6.434-11.366 8.484 8.484 0 0 1 9.977 8.428 8.178 8.178 0 0 1-8.789 8.402Zm0-13.002a4.083 4.083 0 0 0-2.868 1.468 4.09 4.09 0 0 0-.913 3.091 3.946 3.946 0 0 0 3.781 4.477 3.919 3.919 0 0 0 2.899-1.363 3.918 3.918 0 0 0 .903-3.073c-.041-2.903-1.717-4.641-3.843-4.641l.041.041Zm22.811 3.802c0-2.392-.736-3.679-2.657-3.679-1.922 0-3.148 1.88-3.148 4.947v7.686h-5.028V103.37h5.028v2.719a5.76 5.76 0 0 1 4.905-2.985c4.088 0 6.009 2.351 6.009 7.421v9.301h-5.109v-8.954Zm17.373 5.275a6.642 6.642 0 0 0 4.272-1.452l2.166 3.455a11.161 11.161 0 0 1-6.601 1.922c-5.621 0-9.116-3.292-9.116-8.484a8.057 8.057 0 0 1 2.227-6.047 8.04 8.04 0 0 1 5.948-2.478 7.428 7.428 0 0 1 5.619 2.179 7.416 7.416 0 0 1 2.148 5.63 17.5 17.5 0 0 1-.122 1.942h-10.997c.286 2.269 2.167 3.333 4.456 3.333Zm-4.292-6.828h6.724a3.15 3.15 0 0 0-3.311-2.842 3.478 3.478 0 0 0-3.413 2.842Zm20.112-2.474c-.858 0-1.696.307-1.696 1.083 0 2.29 8.175 1.35 8.175 6.869 0 3.23-2.82 5.315-6.724 5.315a14.297 14.297 0 0 1-7.174-2.248l2.391-3.332a9.935 9.935 0 0 0 4.742 1.737c1.186 0 1.778-.593 1.778-1.349 0-2.474-8.176-1.37-8.176-6.992 0-3.066 2.392-4.824 6.337-4.824 2.014-.023 4 .477 5.764 1.451l-.757 3.66a10.314 10.314 0 0 0-4.66-1.37ZM220.889 72.889v6.644h-5.805V55.186h5.886c8.013 0 11.855 3.618 11.855 8.79 0 5.663-3.965 8.811-11.936 8.913Zm.551-13.226h-.511v8.77h.941c3.066 0 5.253-1.574 5.253-4.457 0-2.882-2.392-4.313-5.621-4.313h-.062Zm19.867 14.657v5.254h-4.987V63.22h4.987v2.719a5.05 5.05 0 0 1 5.458-2.985c-.123.47-.593 4.089-.654 4.6-3.659-.266-4.804 2.29-4.804 6.766Zm14.942 5.459a8.483 8.483 0 1 1 8.809-8.403 8.177 8.177 0 0 1-8.809 8.402Zm0-13.002c-2.044 0-3.761 1.676-3.761 4.559 0 2.882 1.717 4.477 3.761 4.477a3.921 3.921 0 0 0 3.691-2.801 3.93 3.93 0 0 0 .131-1.636c.02-2.923-1.676-4.6-3.822-4.6Zm12.263 16.579 2.555-3.475a8.626 8.626 0 0 0 4.517 1.778 3.436 3.436 0 0 0 3.802-3.884v-2.044a5.473 5.473 0 0 1-4.742 2.555c-4.088 0-6.806-3.107-6.806-7.584 0-4.477 3.107-7.891 8.646-7.891 2.874-.032 5.672.92 7.93 2.698v11.162c0 7.217-4.088 9.077-8.625 9.077a13.019 13.019 0 0 1-7.277-2.392Zm7.502-8.933c2.043 0 3.372-1.84 3.372-4.907v-2.044a5.946 5.946 0 0 0-2.861-.634 3.639 3.639 0 0 0-3.659 4.089c.02 1.942.92 3.495 3.168 3.495h-.02Zm17.414-.103v5.254h-4.987V63.22h4.987v2.719a5.048 5.048 0 0 1 5.457-2.985c-.122.47-.593 4.089-.654 4.6-3.659-.266-4.803 2.29-4.803 6.766Zm14.88-11.51c2.99-.077 5.904.957 8.175 2.904v13.82h-5.048V76.63a5.272 5.272 0 0 1-4.783 3.19c-4.353 0-7.031-3.312-7.031-8.178a8.178 8.178 0 0 1 8.687-8.831Zm-.389 12.88c2.044 0 3.496-2.044 3.496-6.01v-2.167a5.397 5.397 0 0 0-2.903-.736c-2.555 0-3.802 2.187-3.802 4.743 0 2.555.9 4.17 3.209 4.17Zm31.62-5.458c0-2.045-.552-3.292-2.207-3.292-2.044 0-2.269 1.881-2.269 5.172v7.462h-5.069v-9.547c0-2.044-.634-3.127-2.228-3.127-1.901 0-2.289 1.533-2.289 5.172v7.461h-4.987V63.18h4.987v2.474a4.738 4.738 0 0 1 3.27-2.658 6.92 6.92 0 0 1 1.594 0 4.232 4.232 0 0 1 3.966 2.944 5.206 5.206 0 0 1 4.721-3.067c3.495 0 5.621 2.044 5.621 7.033v9.73h-5.11v-9.403Zm28.043 0c0-2.045-.552-3.292-2.208-3.292-2.043 0-2.268 1.881-2.268 5.172v7.462h-5.069v-9.547c0-2.044-.634-3.127-2.228-3.127-1.901 0-2.289 1.533-2.289 5.172v7.461h-4.988V63.18h4.988v2.474a4.779 4.779 0 0 1 3.27-2.658 6.92 6.92 0 0 1 1.594 0 4.232 4.232 0 0 1 3.965 2.944 5.215 5.215 0 0 1 4.722-3.067c3.495 0 5.621 2.044 5.621 7.033v9.73h-5.11v-9.403Zm17.557 5.621a6.705 6.705 0 0 0 4.293-1.45l2.146 3.454a11.262 11.262 0 0 1-6.602 1.921c-5.601 0-9.096-3.311-9.096-8.483a8.06 8.06 0 0 1 4.943-7.907 8.055 8.055 0 0 1 3.233-.618 7.44 7.44 0 0 1 7.787 7.81 16.91 16.91 0 0 1-.122 1.92h-10.997c.205 2.29 2.249 3.353 4.415 3.353Zm-4.21-6.848h6.704a3.128 3.128 0 0 0-3.352-2.862 3.474 3.474 0 0 0-3.352 2.862Zm22.054 2.596c0-4.783 2.861-8.75 7.808-8.75 1.352.025 2.686.316 3.924.86v-7.79l5.028-1.062v24.674h-4.987v-2.862a5.314 5.314 0 0 1-4.824 3.148c-4.333 0-6.949-3.311-6.949-8.218Zm8.176 4.089c2.044 0 3.536-2.044 3.536-6.01v-2.045a5.295 5.295 0 0 0-2.944-.899c-2.473 0-3.781 2.187-3.781 4.743 0 2.555 1.022 4.21 3.25 4.21h-.061Zm13.347-9.547-.655-10.957h5.58l-.695 10.957h-4.23Zm16.208-3.332a12.079 12.079 0 0 1 8.176 2.903v13.82h-4.988V76.63a5.268 5.268 0 0 1-4.803 3.19c-4.353 0-7.01-3.312-7.01-8.178a8.169 8.169 0 0 1 2.3-6.382 8.168 8.168 0 0 1 6.325-2.45Zm-.388 12.879c2.044 0 3.495-2.044 3.495-6.01v-2.167a5.397 5.397 0 0 0-2.903-.736c-2.555 0-3.822 2.187-3.822 4.743 0 2.555.92 4.17 3.23 4.17Zm29.33-4.681c0 4.804-2.78 8.729-7.726 8.729a11.078 11.078 0 0 1-4.088-.838v5.744l-4.987 1.063v-22.63h4.946v2.882a5.192 5.192 0 0 1 4.885-3.148c4.374 0 6.97 3.332 6.97 8.197Zm-8.176-4.09c-2.044 0-3.495 2.045-3.495 5.97v2.045a6.01 6.01 0 0 0 3.025.879c2.473 0 3.679-2.167 3.679-4.723 0-2.555-1.001-4.17-3.311-4.17h.102Zm28.329 4.09c0 4.804-2.779 8.729-7.746 8.729a11.037 11.037 0 0 1-3.986-.838v5.744l-4.987 1.063v-22.63h4.946v2.882a5.196 5.196 0 0 1 4.783-3.148c4.395 0 6.99 3.332 6.99 8.197Zm-8.278-4.09c-2.044 0-3.495 2.045-3.495 5.97v2.045a6.01 6.01 0 0 0 3.025.879c2.473 0 3.679-2.167 3.679-4.723 0-2.555-.899-4.17-3.209-4.17Zm16.638 7.401v5.254h-4.987V63.22h4.987v2.719a5.05 5.05 0 0 1 5.396-3.128c-.102.47-.572 4.089-.654 4.6-3.597-.123-4.742 2.432-4.742 6.91Zm15.432 1.534a6.665 6.665 0 0 0 4.272-1.534l2.166 3.455a11.302 11.302 0 0 1-6.602 1.922c-5.621 0-9.116-3.312-9.116-8.484a8.06 8.06 0 0 1 4.943-7.907 8.053 8.053 0 0 1 3.233-.618 7.422 7.422 0 0 1 7.309 4.761c.371.971.534 2.01.478 3.048a16.91 16.91 0 0 1-.122 1.922h-10.997a3.85 3.85 0 0 0 2.876 3.364c.51.13 1.041.154 1.56.07Zm-4.272-6.849h6.724a3.148 3.148 0 0 0-3.311-2.862 3.474 3.474 0 0 0-3.413 2.862Zm25.181 1.574c0-2.392-.756-3.68-2.677-3.68-1.922 0-3.148 1.881-3.148 4.948v7.686h-5.028V63.18h5.028v2.719a5.852 5.852 0 0 1 4.926-2.985c3.986 0 5.989 2.351 5.989 7.42v9.302h-5.09V70.58Zm15.473 9.159c-4.476 0-5.968-2.045-5.968-6.522V66.92h-3.066l.981-3.843h2.044V59.58l5.069-1.063v4.559h3.842v3.843h-3.842v6.378c0 1.717.306 2.351 1.41 2.515a16.35 16.35 0 0 0 2.861 0l-.94 3.884c-.184-.082-.858.04-2.391.04Zm8.768-19.523c-1.614 0-2.882-.9-2.882-2.392s1.268-2.351 2.882-2.351c1.615 0 2.862.858 2.862 2.35a2.538 2.538 0 0 1-1.825 2.313 2.53 2.53 0 0 1-1.037.08Zm-2.514 2.862h5.049V79.43h-5.049V63.077Zm15.228 3.454c-.859 0-1.697.328-1.697 1.104 0 2.27 8.176 1.33 8.176 6.87 0 3.23-2.841 5.314-6.725 5.314a14.305 14.305 0 0 1-7.174-2.248l2.473-3.25a9.953 9.953 0 0 0 4.742 1.716c1.186 0 1.778-.572 1.778-1.328 0-2.474-8.175-1.37-8.175-6.992 0-3.066 2.391-4.824 6.315-4.824 2.021-.021 4.013.479 5.785 1.451l-.756 3.66a10.223 10.223 0 0 0-4.742-1.473Zm15.431 0c-.858 0-1.676.328-1.676 1.104 0 2.27 8.176 1.33 8.176 6.87 0 3.23-2.821 5.314-6.725 5.314a14.305 14.305 0 0 1-7.174-2.248l2.453-3.25c1.415.969 3.054 1.56 4.762 1.716 1.165 0 1.758-.572 1.758-1.328 0-2.474-8.176-1.37-8.176-6.992 0-3.066 2.412-4.824 6.337-4.824 2.014-.023 4 .477 5.763 1.451l-.735 3.66a10.404 10.404 0 0 0-4.763-1.473Zm17.476-3.72a12.079 12.079 0 0 1 8.176 2.903v13.82h-4.987V76.63a5.279 5.279 0 0 1-4.783 3.19c-4.374 0-7.031-3.312-7.031-8.178a8.169 8.169 0 0 1 2.3-6.382 8.168 8.168 0 0 1 6.325-2.45Zm-.388 12.879c2.044 0 3.495-2.044 3.495-6.01v-2.167a5.397 5.397 0 0 0-2.903-.736c-2.555 0-3.822 2.187-3.822 4.743 0 2.555.92 4.17 3.23 4.17Zm12.611 7.666 2.555-3.475a8.623 8.623 0 0 0 4.517 1.778 3.433 3.433 0 0 0 3.801-3.884v-2.044a5.473 5.473 0 0 1-4.823 2.514c-4.088 0-6.807-3.107-6.807-7.584 0-4.477 3.107-7.891 8.646-7.891a12.59 12.59 0 0 1 7.849 2.74V76.67c0 7.217-4.088 9.077-8.625 9.077a13.017 13.017 0 0 1-7.113-2.392Zm7.562-8.933c2.044 0 3.373-1.84 3.373-4.907v-2.044a5.948 5.948 0 0 0-2.862-.634 3.634 3.634 0 0 0-3.521 2.553 3.63 3.63 0 0 0-.137 1.536c-.062 1.942.838 3.495 3.147 3.495Zm20.91 1.43a6.603 6.603 0 0 0 4.272-1.45l2.166 3.454a11.26 11.26 0 0 1-6.602 1.921c-5.6 0-9.095-3.311-9.095-8.483a8.039 8.039 0 0 1 2.22-6.054 8.042 8.042 0 0 1 5.956-2.471 7.42 7.42 0 0 1 7.766 7.81v1.92h-11.037c.184 2.29 2.085 3.353 4.354 3.353Zm-4.272-6.848h6.704a3.13 3.13 0 0 0-3.291-2.862 3.474 3.474 0 0 0-3.413 2.862Zm31.374 6.849a6.6 6.6 0 0 0 4.272-1.452l2.167 3.455a11.262 11.262 0 0 1-6.602 1.921c-5.621 0-9.096-3.311-9.096-8.483a8.04 8.04 0 0 1 4.94-7.913 8.034 8.034 0 0 1 3.236-.612 7.414 7.414 0 0 1 5.618 2.179 7.42 7.42 0 0 1 2.149 5.63c0 .982-.102 1.922-.102 1.922h-10.997c.246 2.29 2.126 3.352 4.415 3.352Zm-4.292-6.849h6.725a3.127 3.127 0 0 0-3.291-2.862 3.493 3.493 0 0 0-3.434 2.862Zm25.181 1.574c0-2.392-.735-3.68-2.657-3.68-1.921 0-3.147 1.881-3.147 4.948v7.686h-5.028V63.18h5.028v2.719a5.764 5.764 0 0 1 4.905-2.985c4.088 0 6.009 2.351 6.009 7.42v9.302h-5.11V70.58Zm27.369 8.954h-5.723v-19.87h-5.928l1.063-4.477h16.065v4.477h-5.477v19.87Zm8.768-24.347H735v24.347h-5.805V55.186ZM80 24.316c0-.285 4.21.123 5.519-.796 1.308-.92 5.314-5.52 5.763-5.52.45 0-2.35 5.5-1.267 6.848 1.084 1.35 2.719 2.147 2.862 2.454.143.306-3.884.245-5.11 1.083-1.82 1.227-3.883 3.618-4.354 3.577-.47-.04 1.165-3.965 0-5.253-1.165-1.288-3.372-2.147-3.413-2.392ZM217.836 142.15c1.629 0 2.848.355 3.656 1.064.815.709 1.222 1.717 1.222 3.023a5.58 5.58 0 0 1-.255 1.688 3.77 3.77 0 0 1-.817 1.441c-.375.422-.876.756-1.503 1.002-.621.246-1.389.369-2.303.369h-.976V155h-3.471v-12.85h4.447Zm-.079 2.804h-.897v2.953h.686c.299 0 .577-.05.835-.149.258-.106.463-.273.615-.501.158-.235.237-.545.237-.932 0-.404-.12-.732-.36-.984-.24-.258-.612-.387-1.116-.387Zm15.772 5.045c0 .832-.114 1.57-.342 2.215a4.353 4.353 0 0 1-.994 1.626 4.268 4.268 0 0 1-1.573 1.002c-.615.222-1.309.334-2.083.334a5.708 5.708 0 0 1-1.986-.334 4.496 4.496 0 0 1-1.565-1.002 4.517 4.517 0 0 1-1.037-1.626c-.24-.645-.36-1.383-.36-2.215 0-1.102.199-2.033.598-2.795a4.107 4.107 0 0 1 1.722-1.74c.75-.399 1.644-.598 2.681-.598.955 0 1.805.199 2.549.598a4.273 4.273 0 0 1 1.749 1.74c.427.762.641 1.693.641 2.795Zm-6.451 0c0 .568.05 1.049.15 1.441.099.387.257.683.474.888.223.199.513.299.87.299.358 0 .642-.1.853-.299.211-.205.363-.501.457-.888.099-.392.149-.873.149-1.441 0-.568-.05-1.043-.149-1.424-.094-.381-.249-.668-.466-.861-.211-.193-.498-.29-.861-.29-.522 0-.9.217-1.134.65-.229.434-.343 1.075-.343 1.925Zm15.28 1.942c0 .633-.14 1.193-.421 1.679-.282.486-.733.867-1.354 1.143-.615.275-1.427.413-2.434.413-.709 0-1.345-.038-1.908-.114a7.833 7.833 0 0 1-1.696-.44v-2.751a8.63 8.63 0 0 0 1.916.624c.65.123 1.163.185 1.538.185.387 0 .668-.041.844-.123.181-.088.272-.217.272-.387a.455.455 0 0 0-.184-.369c-.117-.106-.331-.226-.642-.361a57.504 57.504 0 0 0-1.292-.544 6.683 6.683 0 0 1-1.38-.748 2.62 2.62 0 0 1-.817-.966c-.182-.375-.273-.835-.273-1.38 0-.973.375-1.705 1.125-2.198.75-.492 1.744-.738 2.98-.738.656 0 1.274.073 1.854.22.58.141 1.181.349 1.802.624l-.94 2.215a9.578 9.578 0 0 0-1.494-.536c-.504-.135-.906-.202-1.205-.202-.269 0-.477.035-.624.105-.146.07-.219.173-.219.308 0 .123.05.231.149.325.106.094.302.202.589.325s.706.296 1.257.519c.58.234 1.057.486 1.432.755.381.264.663.586.844.967.188.381.281.864.281 1.45Zm6.254.519c.311 0 .595-.032.853-.097.258-.064.527-.146.809-.246v2.505a7.018 7.018 0 0 1-1.196.396c-.416.105-.949.158-1.599.158-.645 0-1.213-.1-1.705-.299-.493-.205-.876-.557-1.152-1.055-.269-.504-.404-1.204-.404-2.1v-4.105h-1.204v-1.397l1.529-1.081.888-2.092h2.25v1.995h2.443v2.575h-2.443v3.876c0 .322.082.566.246.73.164.158.392.237.685.237Zm12.547-7.418V155h-2.592l-.431-1.239h-.202a2.611 2.611 0 0 1-.782.817 3.287 3.287 0 0 1-1.038.448c-.38.1-.776.15-1.186.15a4.05 4.05 0 0 1-1.767-.378c-.521-.252-.937-.648-1.248-1.187-.304-.539-.457-1.233-.457-2.083v-6.486h3.437v5.44c0 .645.091 1.137.272 1.477.188.334.492.501.914.501.434 0 .768-.117 1.002-.352.24-.234.407-.58.501-1.037.094-.457.141-1.013.141-1.67v-4.359h3.436Zm5.27 9.958h-3.437v-13.676h3.437V155Zm6.324-10.134c.967 0 1.802.17 2.505.51a3.597 3.597 0 0 1 1.626 1.512c.381.674.571 1.517.571 2.531v1.529h-6.143c.029.522.222.949.58 1.283.363.334.896.501 1.599.501.622 0 1.19-.061 1.706-.184a8.363 8.363 0 0 0 1.608-.571v2.469a5.962 5.962 0 0 1-1.573.554c-.569.117-1.286.176-2.154.176-1.002 0-1.898-.179-2.689-.536a4.151 4.151 0 0 1-1.872-1.661c-.451-.75-.677-1.714-.677-2.892 0-1.195.205-2.177.615-2.944.41-.774.985-1.345 1.723-1.714.738-.375 1.597-.563 2.575-.563Zm.123 2.338c-.404 0-.744.129-1.019.387-.27.252-.428.65-.475 1.195h2.953a1.97 1.97 0 0 0-.176-.8 1.334 1.334 0 0 0-.492-.571c-.211-.141-.474-.211-.791-.211Zm13.47 7.796h-8.244v-1.96l4.122-5.37h-3.885v-2.628h7.814v2.127l-3.947 5.203h4.14V155Zm8.324.176c-1.025 0-1.869-.437-2.531-1.31-.662-.873-.993-2.15-.993-3.832 0-1.699.34-2.985 1.019-3.858.68-.873 1.559-1.31 2.637-1.31.445 0 .829.065 1.151.194.323.128.601.304.835.527.241.217.449.463.624.738h.071a13.446 13.446 0 0 1-.114-1.037 16.134 16.134 0 0 1-.053-1.301v-2.663h3.463V155h-2.593l-.738-1.257h-.132a3.158 3.158 0 0 1-.598.721c-.234.217-.521.39-.861.518-.334.129-.73.194-1.187.194Zm1.407-2.716c.55 0 .937-.173 1.16-.519.228-.351.351-.884.369-1.599v-.273c0-.785-.112-1.385-.334-1.801-.217-.422-.627-.633-1.231-.633-.41 0-.75.199-1.019.597-.27.399-.404 1.017-.404 1.855 0 .826.134 1.43.404 1.81.275.375.627.563 1.055.563Zm11.026-7.594c.967 0 1.802.17 2.505.51a3.597 3.597 0 0 1 1.626 1.512c.381.674.571 1.517.571 2.531v1.529h-6.143c.029.522.222.949.58 1.283.363.334.896.501 1.599.501.621 0 1.19-.061 1.705-.184a8.348 8.348 0 0 0 1.609-.571v2.469a5.956 5.956 0 0 1-1.574.554c-.568.117-1.286.176-2.153.176-1.002 0-1.898-.179-2.689-.536a4.151 4.151 0 0 1-1.872-1.661c-.452-.75-.677-1.714-.677-2.892 0-1.195.205-2.177.615-2.944.41-.774.984-1.345 1.723-1.714.738-.375 1.596-.563 2.575-.563Zm.123 2.338c-.404 0-.744.129-1.02.387-.269.252-.427.65-.474 1.195h2.953a1.97 1.97 0 0 0-.176-.8 1.334 1.334 0 0 0-.492-.571c-.211-.141-.475-.211-.791-.211Zm-.246-5.994c.205.269.448.565.729.888.287.322.572.638.853.949.287.305.527.568.721.791v.255h-2.286a22.441 22.441 0 0 1-.878-.58c-.34-.235-.695-.481-1.064-.739-.369-.263-.718-.515-1.046-.755-.322-.247-.592-.455-.808-.624v-.185h3.779Zm13.628 10.731c0 .633-.141 1.193-.422 1.679s-.732.867-1.354 1.143c-.615.275-1.426.413-2.434.413-.709 0-1.345-.038-1.907-.114a7.84 7.84 0 0 1-1.697-.44v-2.751a8.63 8.63 0 0 0 1.916.624c.651.123 1.163.185 1.538.185.387 0 .668-.041.844-.123.182-.088.273-.217.273-.387a.456.456 0 0 0-.185-.369c-.117-.106-.331-.226-.641-.361a59.585 59.585 0 0 0-1.292-.544 6.683 6.683 0 0 1-1.38-.748 2.613 2.613 0 0 1-.818-.966c-.181-.375-.272-.835-.272-1.38 0-.973.375-1.705 1.125-2.198.75-.492 1.743-.738 2.979-.738.657 0 1.275.073 1.855.22.58.141 1.18.349 1.802.624l-.941 2.215a9.578 9.578 0 0 0-1.494-.536c-.504-.135-.905-.202-1.204-.202-.27 0-.478.035-.624.105-.147.07-.22.173-.22.308 0 .123.05.231.15.325.105.094.301.202.588.325.288.123.706.296 1.257.519.58.234 1.058.486 1.433.755.381.264.662.586.844.967.187.381.281.864.281 1.45Zm10.372-7.075c1.26 0 2.244.314 2.953.941.709.621 1.064 1.508 1.064 2.663V155h-2.382l-.659-1.318h-.071a4.827 4.827 0 0 1-.87.861c-.293.217-.63.375-1.011.475-.38.105-.846.158-1.397.158-.574 0-1.09-.117-1.547-.352a2.557 2.557 0 0 1-1.081-1.063c-.264-.475-.395-1.075-.395-1.802 0-1.066.369-1.857 1.107-2.373.738-.516 1.808-.806 3.208-.87l1.661-.053v-.141c0-.445-.111-.761-.334-.949-.217-.187-.51-.281-.879-.281-.392 0-.832.07-1.318.211-.481.135-.964.31-1.45.527l-.994-2.267a7.794 7.794 0 0 1 1.952-.668 11.895 11.895 0 0 1 2.443-.229Zm.598 5.687-.791.035c-.633.023-1.078.135-1.336.334-.252.193-.378.472-.378.835 0 .34.091.592.272.756.182.158.422.237.721.237.416 0 .77-.132 1.063-.396.299-.263.449-.606.449-1.028v-.773Zm14.902-5.511V155h-2.593l-.43-1.239h-.203a2.6 2.6 0 0 1-.782.817c-.31.205-.656.355-1.037.448-.381.1-.776.15-1.186.15-.651 0-1.24-.126-1.767-.378a2.863 2.863 0 0 1-1.248-1.187c-.305-.539-.457-1.233-.457-2.083v-6.486h3.436v5.44c0 .645.091 1.137.273 1.477.187.334.492.501.914.501.434 0 .768-.117 1.002-.352.24-.234.407-.58.501-1.037.094-.457.141-1.013.141-1.67v-4.359h3.436Zm1.578 14.282c-.275 0-.592-.023-.949-.07a7.028 7.028 0 0 1-.897-.15v-2.68a4.11 4.11 0 0 0 1.055.158c.281 0 .525-.1.73-.299.211-.193.316-.592.316-1.195v-10.046h3.437v10.767c0 .597-.118 1.163-.352 1.696-.234.539-.621.975-1.16 1.309-.539.34-1.266.51-2.18.51Zm.167-16.761c0-.609.176-1.016.528-1.221.357-.205.788-.308 1.292-.308.492 0 .919.103 1.283.308.369.205.553.612.553 1.221 0 .592-.184.994-.553 1.205-.364.205-.791.307-1.283.307-.504 0-.935-.102-1.292-.307-.352-.211-.528-.613-.528-1.205Zm14.894 7.436c0 .832-.114 1.57-.343 2.215a4.351 4.351 0 0 1-.993 1.626 4.276 4.276 0 0 1-1.573 1.002c-.616.222-1.31.334-2.083.334a5.718 5.718 0 0 1-1.987-.334 4.492 4.492 0 0 1-1.564-1.002 4.517 4.517 0 0 1-1.037-1.626c-.241-.645-.361-1.383-.361-2.215 0-1.102.2-2.033.598-2.795a4.11 4.11 0 0 1 1.723-1.74c.75-.399 1.643-.598 2.68-.598.955 0 1.805.199 2.549.598a4.273 4.273 0 0 1 1.749 1.74c.428.762.642 1.693.642 2.795Zm-6.451 0c0 .568.049 1.049.149 1.441.1.387.258.683.475.888.222.199.512.299.87.299.357 0 .641-.1.852-.299.211-.205.364-.501.457-.888.1-.392.15-.873.15-1.441 0-.568-.05-1.043-.15-1.424-.093-.381-.249-.668-.465-.861-.211-.193-.499-.29-.862-.29-.521 0-.899.217-1.134.65-.228.434-.342 1.075-.342 1.925Zm17.565-4.957V155h-2.593l-.43-1.239h-.203a2.6 2.6 0 0 1-.782.817c-.31.205-.656.355-1.037.448-.381.1-.776.15-1.186.15-.651 0-1.24-.126-1.767-.378-.521-.252-.937-.648-1.248-1.187-.305-.539-.457-1.233-.457-2.083v-6.486h3.436v5.44c0 .645.091 1.137.273 1.477.187.334.492.501.914.501.434 0 .768-.117 1.002-.352.24-.234.407-.58.501-1.037.094-.457.141-1.013.141-1.67v-4.359h3.436Zm7.845-.176c.187 0 .384.015.589.044.205.024.357.044.457.062l-.308 3.243a2.826 2.826 0 0 0-.431-.07 5.777 5.777 0 0 0-.738-.036c-.217 0-.448.021-.694.062a1.967 1.967 0 0 0-.703.264 1.441 1.441 0 0 0-.536.597c-.141.264-.211.621-.211 1.072V155h-3.437v-9.958h2.558l.536 1.591h.167c.182-.328.413-.624.694-.888.287-.269.607-.483.958-.641a2.68 2.68 0 0 1 1.099-.238Zm4.997 10.31c-1.025 0-1.869-.437-2.531-1.31-.662-.873-.993-2.15-.993-3.832 0-1.699.339-2.985 1.019-3.858.68-.873 1.559-1.31 2.637-1.31.445 0 .829.065 1.151.194.322.128.601.304.835.527.24.217.448.463.624.738h.07a13.446 13.446 0 0 1-.114-1.037 16.608 16.608 0 0 1-.053-1.301v-2.663h3.463V155h-2.592l-.739-1.257h-.132a3.153 3.153 0 0 1-.597.721c-.235.217-.522.39-.862.518-.333.129-.729.194-1.186.194Zm1.406-2.716c.551 0 .938-.173 1.16-.519.229-.351.352-.884.37-1.599v-.273c0-.785-.112-1.385-.334-1.801-.217-.422-.627-.633-1.231-.633-.41 0-.75.199-1.019.597-.27.399-.405 1.017-.405 1.855 0 .826.135 1.43.405 1.81.275.375.626.563 1.054.563Zm9.55-10.31-.36 4.641h-2.409l-.36-4.641h3.129Zm5.147-.826v1.943c0 .738-.018 1.359-.053 1.863-.029.498-.059.879-.088 1.142h.158c.217-.345.463-.621.738-.826.276-.205.581-.351.915-.439a4.002 4.002 0 0 1 1.089-.141c.657 0 1.248.126 1.776.378a2.89 2.89 0 0 1 1.274 1.187c.317.533.475 1.23.475 2.091V155h-3.454v-5.432c0-.662-.097-1.16-.29-1.494-.194-.34-.493-.51-.897-.51-.416 0-.744.121-.984.361-.24.234-.41.58-.51 1.037-.1.451-.149 1.005-.149 1.661V155h-3.437v-13.676h3.437Zm17.767 3.718V155h-2.593l-.43-1.239h-.202a2.603 2.603 0 0 1-.783.817c-.31.205-.656.355-1.037.448-.381.1-.776.15-1.186.15-.651 0-1.24-.126-1.767-.378-.521-.252-.937-.648-1.248-1.187-.305-.539-.457-1.233-.457-2.083v-6.486h3.437v5.44c0 .645.09 1.137.272 1.477.188.334.492.501.914.501.434 0 .768-.117 1.002-.352.24-.234.407-.58.501-1.037.094-.457.141-1.013.141-1.67v-4.359h3.436Zm5.287 0V155h-3.436v-9.958h3.436Zm-1.705-4.008c.492 0 .92.103 1.283.308.37.205.554.612.554 1.221 0 .592-.184.994-.554 1.205-.363.205-.791.307-1.283.307-.504 0-.934-.102-1.292-.307-.351-.211-.527-.613-.527-1.205 0-.609.176-1.016.527-1.221.358-.205.788-.308 1.292-.308Zm13.783 3.832c1.101 0 1.965.443 2.592 1.327.627.879.941 2.148.941 3.806 0 1.131-.158 2.083-.475 2.856-.316.768-.75 1.348-1.301 1.741a3.144 3.144 0 0 1-1.863.58c-.469 0-.867-.059-1.195-.176a2.806 2.806 0 0 1-.809-.439 3.877 3.877 0 0 1-.536-.537h-.105c.029.229.052.475.07.739.023.263.035.571.035.923v3.638h-3.436v-14.282h2.794l.484 1.266h.158c.164-.258.363-.496.598-.712a2.55 2.55 0 0 1 .852-.528c.34-.134.739-.202 1.196-.202Zm-1.292 2.698c-.334 0-.598.08-.791.238-.194.158-.334.398-.422.72a5.373 5.373 0 0 0-.141 1.187v.272c0 .528.041.973.123 1.336.082.358.223.63.422.818.199.181.475.272.826.272.287 0 .527-.082.721-.246.193-.164.34-.425.439-.782.1-.358.15-.829.15-1.415 0-.873-.115-1.491-.343-1.855-.223-.363-.551-.545-.984-.545Zm15.763 2.435c0 .832-.114 1.57-.342 2.215a4.353 4.353 0 0 1-.994 1.626 4.268 4.268 0 0 1-1.573 1.002c-.615.222-1.309.334-2.083.334a5.708 5.708 0 0 1-1.986-.334 4.496 4.496 0 0 1-1.565-1.002 4.517 4.517 0 0 1-1.037-1.626c-.24-.645-.36-1.383-.36-2.215 0-1.102.199-2.033.598-2.795a4.107 4.107 0 0 1 1.722-1.74c.75-.399 1.644-.598 2.681-.598.955 0 1.805.199 2.549.598a4.273 4.273 0 0 1 1.749 1.74c.427.762.641 1.693.641 2.795Zm-6.451 0c0 .568.05 1.049.15 1.441.099.387.257.683.474.888.223.199.513.299.87.299.358 0 .642-.1.853-.299.211-.205.363-.501.457-.888.099-.392.149-.873.149-1.441 0-.568-.05-1.043-.149-1.424-.094-.381-.249-.668-.466-.861-.211-.193-.498-.29-.861-.29-.522 0-.9.217-1.134.65-.229.434-.343 1.075-.343 1.925Zm17.566-4.957V155h-2.593l-.431-1.239h-.202a2.611 2.611 0 0 1-.782.817 3.281 3.281 0 0 1-1.037.448c-.381.1-.777.15-1.187.15-.65 0-1.239-.126-1.766-.378-.522-.252-.938-.648-1.249-1.187-.304-.539-.457-1.233-.457-2.083v-6.486h3.437v5.44c0 .645.091 1.137.272 1.477.188.334.493.501.915.501.433 0 .767-.117 1.001-.352.241-.234.408-.58.501-1.037.094-.457.141-1.013.141-1.67v-4.359h3.437Zm7.844-.176c.188 0 .384.015.589.044.205.024.358.044.457.062l-.307 3.243a2.848 2.848 0 0 0-.431-.07 5.799 5.799 0 0 0-.738-.036c-.217 0-.449.021-.695.062-.246.041-.48.129-.703.264-.217.128-.395.328-.536.597-.141.264-.211.621-.211 1.072V155h-3.436v-9.958h2.557l.536 1.591h.167a3.608 3.608 0 0 1 1.653-1.529 2.672 2.672 0 0 1 1.098-.238Zm10.522 0c.967 0 1.802.17 2.505.51a3.597 3.597 0 0 1 1.626 1.512c.381.674.571 1.517.571 2.531v1.529h-6.144c.03.522.223.949.581 1.283.363.334.896.501 1.599.501.621 0 1.19-.061 1.705-.184a8.348 8.348 0 0 0 1.609-.571v2.469a5.956 5.956 0 0 1-1.574.554c-.568.117-1.286.176-2.153.176-1.002 0-1.898-.179-2.689-.536a4.151 4.151 0 0 1-1.872-1.661c-.452-.75-.677-1.714-.677-2.892 0-1.195.205-2.177.615-2.944.41-.774.984-1.345 1.723-1.714.738-.375 1.596-.563 2.575-.563Zm.123 2.338c-.404 0-.744.129-1.02.387-.269.252-.427.65-.474 1.195h2.953a1.987 1.987 0 0 0-.176-.8 1.334 1.334 0 0 0-.492-.571c-.211-.141-.475-.211-.791-.211Zm12.213-2.338c1.025 0 1.863.29 2.514.87.65.58.975 1.509.975 2.786V155h-3.436v-5.432c0-.662-.097-1.16-.29-1.494-.188-.34-.493-.51-.914-.51-.651 0-1.087.267-1.31.8-.223.528-.334 1.286-.334 2.277V155h-3.437v-9.958h2.593l.466 1.318h.132a3.212 3.212 0 0 1 1.766-1.318 4.333 4.333 0 0 1 1.275-.176Zm10.165 7.594c.311 0 .595-.032.853-.097a8.66 8.66 0 0 0 .808-.246v2.505a7.006 7.006 0 0 1-1.195.396c-.416.105-.949.158-1.6.158-.644 0-1.213-.1-1.705-.299-.492-.205-.876-.557-1.151-1.055-.27-.504-.405-1.204-.405-2.1v-4.105h-1.204v-1.397l1.53-1.081.887-2.092h2.25v1.995h2.444v2.575h-2.444v3.876c0 .322.082.566.246.73.164.158.393.237.686.237Zm7.722-7.594c1.259 0 2.244.314 2.953.941.709.621 1.063 1.508 1.063 2.663V155h-2.382l-.659-1.318h-.07a4.827 4.827 0 0 1-.87.861c-.293.217-.63.375-1.011.475-.381.105-.847.158-1.397.158-.575 0-1.09-.117-1.547-.352a2.552 2.552 0 0 1-1.081-1.063c-.264-.475-.396-1.075-.396-1.802 0-1.066.369-1.857 1.108-2.373.738-.516 1.807-.806 3.208-.87l1.661-.053v-.141c0-.445-.112-.761-.334-.949-.217-.187-.51-.281-.879-.281-.393 0-.832.07-1.318.211a10.6 10.6 0 0 0-1.451.527l-.993-2.267a7.786 7.786 0 0 1 1.951-.668 11.905 11.905 0 0 1 2.444-.229Zm.597 5.687-.791.035c-.632.023-1.078.135-1.336.334-.252.193-.378.472-.378.835 0 .34.091.592.273.756.182.158.422.237.721.237.416 0 .77-.132 1.063-.396.299-.263.448-.606.448-1.028v-.773Zm17.372-5.687c1.137 0 2.004.29 2.602.87.604.58.905 1.509.905 2.786V155h-3.436v-5.414c0-.756-.103-1.28-.308-1.573-.199-.299-.498-.449-.896-.449-.557 0-.944.244-1.161.73-.21.486-.316 1.175-.316 2.065V155h-3.445v-5.414c0-.481-.044-.867-.132-1.16-.082-.299-.208-.516-.378-.651a.977.977 0 0 0-.642-.211c-.392 0-.7.121-.922.361-.217.234-.37.58-.457 1.037-.088.457-.132 1.017-.132 1.679V155h-3.437v-9.958h2.593l.501 1.23h.097c.175-.269.401-.509.676-.72.282-.211.613-.378.994-.501a4.34 4.34 0 0 1 1.318-.185c.732 0 1.336.123 1.81.369.475.246.862.586 1.161 1.02h.105a3.153 3.153 0 0 1 1.222-1.028c.498-.241 1.057-.361 1.678-.361Zm9.788 0c.966 0 1.801.17 2.504.51a3.587 3.587 0 0 1 1.626 1.512c.381.674.572 1.517.572 2.531v1.529H538.8c.029.522.223.949.58 1.283.364.334.897.501 1.6.501.621 0 1.189-.061 1.705-.184a8.34 8.34 0 0 0 1.608-.571v2.469a5.949 5.949 0 0 1-1.573.554c-.568.117-1.286.176-2.153.176-1.002 0-1.899-.179-2.69-.536a4.151 4.151 0 0 1-1.872-1.661c-.451-.75-.676-1.714-.676-2.892 0-1.195.205-2.177.615-2.944.41-.774.984-1.345 1.722-1.714.739-.375 1.597-.563 2.576-.563Zm.123 2.338c-.405 0-.744.129-1.02.387-.269.252-.428.65-.474 1.195h2.953a1.987 1.987 0 0 0-.176-.8 1.34 1.34 0 0 0-.492-.571c-.211-.141-.475-.211-.791-.211Zm11.993-2.338c.187 0 .384.015.589.044.205.024.357.044.457.062l-.308 3.243a2.826 2.826 0 0 0-.431-.07 5.777 5.777 0 0 0-.738-.036c-.217 0-.448.021-.694.062a1.967 1.967 0 0 0-.703.264 1.441 1.441 0 0 0-.536.597c-.141.264-.211.621-.211 1.072V155h-3.437v-9.958h2.558l.536 1.591h.167c.182-.328.413-.624.694-.888.287-.269.607-.483.958-.641a2.68 2.68 0 0 1 1.099-.238ZM561.007 155l-3.797-9.958h3.586l1.688 5.889c.017.052.047.187.088.404.047.217.07.419.07.606h.062c0-.199.02-.389.061-.571l.097-.422 1.766-5.906h3.578L564.409 155h-3.402Zm17.364-5.001c0 .832-.115 1.57-.343 2.215a4.364 4.364 0 0 1-.993 1.626 4.272 4.272 0 0 1-1.574 1.002c-.615.222-1.309.334-2.083.334-.72 0-1.382-.112-1.986-.334a4.483 4.483 0 0 1-1.564-1.002 4.504 4.504 0 0 1-1.037-1.626c-.241-.645-.361-1.383-.361-2.215 0-1.102.199-2.033.598-2.795a4.104 4.104 0 0 1 1.723-1.74c.75-.399 1.643-.598 2.68-.598.955 0 1.805.199 2.549.598a4.273 4.273 0 0 1 1.749 1.74c.428.762.642 1.693.642 2.795Zm-6.452 0c0 .568.05 1.049.15 1.441.1.387.258.683.475.888.222.199.512.299.87.299.357 0 .641-.1.852-.299.211-.205.363-.501.457-.888.1-.392.15-.873.15-1.441 0-.568-.05-1.043-.15-1.424-.094-.381-.249-.668-.466-.861-.211-.193-.498-.29-.861-.29-.521 0-.899.217-1.134.65-.228.434-.343 1.075-.343 1.925Zm12.758 2.461c.311 0 .595-.032.853-.097a8.57 8.57 0 0 0 .808-.246v2.505a7.006 7.006 0 0 1-1.195.396c-.416.105-.949.158-1.599.158-.645 0-1.213-.1-1.706-.299-.492-.205-.876-.557-1.151-1.055-.269-.504-.404-1.204-.404-2.1v-4.105h-1.204v-1.397l1.529-1.081.888-2.092h2.25v1.995h2.443v2.575h-2.443v3.876c0 .322.082.566.246.73.164.158.392.237.685.237Zm8.873-7.594c.188 0 .384.015.589.044.205.024.358.044.457.062l-.307 3.243a2.848 2.848 0 0 0-.431-.07 5.799 5.799 0 0 0-.738-.036c-.217 0-.448.021-.695.062-.246.041-.48.129-.703.264-.217.128-.395.328-.536.597-.14.264-.211.621-.211 1.072V155h-3.436v-9.958h2.557l.536 1.591h.167a3.632 3.632 0 0 1 1.653-1.529 2.672 2.672 0 0 1 1.098-.238Zm6.386 0c.967 0 1.802.17 2.505.51a3.597 3.597 0 0 1 1.626 1.512c.381.674.571 1.517.571 2.531v1.529h-6.143c.029.522.222.949.58 1.283.363.334.896.501 1.599.501.622 0 1.19-.061 1.706-.184a8.363 8.363 0 0 0 1.608-.571v2.469a5.949 5.949 0 0 1-1.573.554c-.569.117-1.286.176-2.154.176-1.002 0-1.898-.179-2.689-.536a4.151 4.151 0 0 1-1.872-1.661c-.451-.75-.677-1.714-.677-2.892 0-1.195.205-2.177.615-2.944.411-.774.985-1.345 1.723-1.714.738-.375 1.597-.563 2.575-.563Zm.123 2.338c-.404 0-.744.129-1.019.387-.27.252-.428.65-.475 1.195h2.953a1.97 1.97 0 0 0-.176-.8 1.334 1.334 0 0 0-.492-.571c-.211-.141-.474-.211-.791-.211Zm16.2-2.338c1.101 0 1.965.443 2.592 1.327.627.879.941 2.148.941 3.806 0 1.131-.158 2.083-.475 2.856-.316.768-.75 1.348-1.301 1.741a3.144 3.144 0 0 1-1.863.58c-.469 0-.867-.059-1.195-.176a2.793 2.793 0 0 1-.809-.439 3.877 3.877 0 0 1-.536-.537h-.105c.029.229.052.475.07.739.023.263.035.571.035.923v3.638h-3.436v-14.282h2.794l.484 1.266h.158c.164-.258.363-.496.598-.712a2.55 2.55 0 0 1 .852-.528c.34-.134.739-.202 1.196-.202Zm-1.292 2.698c-.334 0-.598.08-.791.238-.194.158-.334.398-.422.72a5.373 5.373 0 0 0-.141 1.187v.272c0 .528.041.973.123 1.336.082.358.223.63.422.818.199.181.475.272.826.272.287 0 .527-.082.721-.246.193-.164.34-.425.439-.782.1-.358.15-.829.15-1.415 0-.873-.115-1.491-.343-1.855-.223-.363-.551-.545-.984-.545Zm11.114-2.698c1.26 0 2.244.314 2.953.941.709.621 1.063 1.508 1.063 2.663V155h-2.381l-.66-1.318h-.07a4.827 4.827 0 0 1-.87.861c-.293.217-.63.375-1.011.475-.381.105-.846.158-1.397.158-.574 0-1.09-.117-1.547-.352a2.557 2.557 0 0 1-1.081-1.063c-.264-.475-.396-1.075-.396-1.802 0-1.066.37-1.857 1.108-2.373.738-.516 1.807-.806 3.208-.87l1.661-.053v-.141c0-.445-.111-.761-.334-.949-.217-.187-.51-.281-.879-.281-.393 0-.832.07-1.318.211-.481.135-.964.31-1.45.527l-.994-2.267a7.794 7.794 0 0 1 1.952-.668 11.895 11.895 0 0 1 2.443-.229Zm.598 5.687-.791.035c-.633.023-1.079.135-1.336.334-.252.193-.378.472-.378.835 0 .34.09.592.272.756.182.158.422.237.721.237.416 0 .77-.132 1.063-.396.299-.263.449-.606.449-1.028v-.773Zm11.228-5.687c.188 0 .384.015.589.044.205.024.357.044.457.062l-.308 3.243a2.832 2.832 0 0 0-.43-.07 5.806 5.806 0 0 0-.739-.036c-.216 0-.448.021-.694.062-.246.041-.48.129-.703.264a1.441 1.441 0 0 0-.536.597c-.141.264-.211.621-.211 1.072V155h-3.437v-9.958h2.558l.536 1.591h.167c.182-.328.413-.624.694-.888.288-.269.607-.483.958-.641a2.68 2.68 0 0 1 1.099-.238Zm6.439 10.31c-1.008 0-1.884-.179-2.628-.536a3.881 3.881 0 0 1-1.732-1.67c-.404-.756-.606-1.723-.606-2.901 0-1.207.225-2.194.677-2.962a4.16 4.16 0 0 1 1.872-1.696c.791-.363 1.687-.545 2.689-.545a7.314 7.314 0 0 1 3.261.756l-1.011 2.54a9.564 9.564 0 0 0-1.151-.431 3.631 3.631 0 0 0-1.099-.167c-.346 0-.65.091-.914.273-.264.182-.469.457-.615.826-.147.363-.22.826-.22 1.389 0 .574.073 1.037.22 1.388.152.352.36.607.624.765.269.158.577.237.923.237.498 0 .993-.076 1.485-.228.498-.158.97-.375 1.415-.651v2.734c-.41.269-.873.483-1.389.641-.515.159-1.116.238-1.801.238Zm14.137-5.177c0 .832-.114 1.57-.342 2.215a4.353 4.353 0 0 1-.994 1.626 4.268 4.268 0 0 1-1.573 1.002c-.615.222-1.309.334-2.083.334a5.708 5.708 0 0 1-1.986-.334 4.496 4.496 0 0 1-1.565-1.002 4.517 4.517 0 0 1-1.037-1.626c-.24-.645-.36-1.383-.36-2.215 0-1.102.199-2.033.598-2.795a4.107 4.107 0 0 1 1.722-1.74c.75-.399 1.644-.598 2.681-.598.955 0 1.805.199 2.549.598a4.273 4.273 0 0 1 1.749 1.74c.427.762.641 1.693.641 2.795Zm-6.451 0c0 .568.05 1.049.15 1.441.099.387.257.683.474.888.223.199.513.299.87.299.358 0 .642-.1.853-.299.211-.205.363-.501.457-.888.099-.392.149-.873.149-1.441 0-.568-.05-1.043-.149-1.424-.094-.381-.249-.668-.466-.861-.211-.193-.498-.29-.861-.29-.522 0-.9.217-1.134.65-.229.434-.343 1.075-.343 1.925Zm17.566-4.957V155h-2.593l-.431-1.239h-.202a2.611 2.611 0 0 1-.782.817 3.281 3.281 0 0 1-1.037.448c-.381.1-.777.15-1.187.15-.65 0-1.239-.126-1.766-.378a2.858 2.858 0 0 1-1.248-1.187c-.305-.539-.457-1.233-.457-2.083v-6.486h3.436v5.44c0 .645.091 1.137.272 1.477.188.334.493.501.915.501.433 0 .767-.117 1.002-.352.24-.234.407-.58.5-1.037.094-.457.141-1.013.141-1.67v-4.359h3.437Zm7.844-.176c.188 0 .384.015.589.044.205.024.358.044.457.062l-.307 3.243a2.848 2.848 0 0 0-.431-.07 5.799 5.799 0 0 0-.738-.036c-.217 0-.449.021-.695.062-.246.041-.48.129-.703.264-.217.128-.395.328-.536.597-.14.264-.211.621-.211 1.072V155h-3.436v-9.958h2.557l.536 1.591h.167a3.608 3.608 0 0 1 1.653-1.529 2.672 2.672 0 0 1 1.098-.238Zm9.304 7.075c0 .633-.141 1.193-.422 1.679s-.732.867-1.353 1.143c-.616.275-1.427.413-2.435.413-.709 0-1.345-.038-1.907-.114a7.818 7.818 0 0 1-1.696-.44v-2.751a8.613 8.613 0 0 0 1.916.624c.65.123 1.163.185 1.538.185.386 0 .668-.041.843-.123.182-.088.273-.217.273-.387a.456.456 0 0 0-.185-.369c-.117-.106-.331-.226-.641-.361a59.585 59.585 0 0 0-1.292-.544 6.683 6.683 0 0 1-1.38-.748 2.61 2.61 0 0 1-.817-.966c-.182-.375-.273-.835-.273-1.38 0-.973.375-1.705 1.125-2.198.75-.492 1.743-.738 2.98-.738.656 0 1.274.073 1.854.22.58.141 1.181.349 1.802.624l-.941 2.215a9.578 9.578 0 0 0-1.494-.536c-.504-.135-.905-.202-1.204-.202-.269 0-.477.035-.624.105-.146.07-.22.173-.22.308 0 .123.05.231.15.325.105.094.302.202.589.325s.706.296 1.257.519c.58.234 1.057.486 1.432.755.381.264.662.586.844.967.187.381.281.864.281 1.45Zm8.606 3.235c-1.026 0-1.869-.437-2.532-1.31-.662-.873-.993-2.15-.993-3.832 0-1.699.34-2.985 1.02-3.858.679-.873 1.558-1.31 2.637-1.31.445 0 .829.065 1.151.194.322.128.6.304.835.527.24.217.448.463.624.738h.07a13.446 13.446 0 0 1-.114-1.037 16.608 16.608 0 0 1-.053-1.301v-2.663h3.463V155h-2.593l-.738-1.257h-.132a3.153 3.153 0 0 1-.597.721c-.235.217-.522.39-.862.518-.334.129-.729.194-1.186.194Zm1.406-2.716c.551 0 .937-.173 1.16-.519.229-.351.352-.884.369-1.599v-.273c0-.785-.111-1.385-.334-1.801-.217-.422-.627-.633-1.23-.633-.41 0-.75.199-1.02.597-.269.399-.404 1.017-.404 1.855 0 .826.135 1.43.404 1.81.276.375.627.563 1.055.563Zm11.026-7.594c.967 0 1.802.17 2.505.51a3.597 3.597 0 0 1 1.626 1.512c.381.674.571 1.517.571 2.531v1.529h-6.143c.029.522.223.949.58 1.283.363.334.896.501 1.6.501.621 0 1.189-.061 1.705-.184a8.363 8.363 0 0 0 1.608-.571v2.469a5.949 5.949 0 0 1-1.573.554c-.569.117-1.286.176-2.153.176-1.002 0-1.899-.179-2.69-.536a4.151 4.151 0 0 1-1.872-1.661c-.451-.75-.677-1.714-.677-2.892 0-1.195.205-2.177.615-2.944.411-.774.985-1.345 1.723-1.714.738-.375 1.597-.563 2.575-.563Zm.123 2.338c-.404 0-.744.129-1.019.387-.27.252-.428.65-.475 1.195h2.953a1.97 1.97 0 0 0-.175-.8 1.343 1.343 0 0 0-.493-.571c-.211-.141-.474-.211-.791-.211Zm-490.185 26.972c-1.008 0-1.884-.179-2.628-.536a3.881 3.881 0 0 1-1.732-1.67c-.404-.756-.606-1.723-.606-2.901 0-1.207.225-2.194.677-2.962a4.16 4.16 0 0 1 1.872-1.696c.791-.363 1.687-.545 2.689-.545a7.325 7.325 0 0 1 3.261.756l-1.011 2.54a9.564 9.564 0 0 0-1.151-.431 3.631 3.631 0 0 0-1.099-.167c-.346 0-.65.091-.914.273-.264.182-.469.457-.615.826-.147.363-.22.826-.22 1.389 0 .574.073 1.037.22 1.388.152.352.36.607.624.765.269.158.577.237.923.237.498 0 .993-.076 1.485-.228.498-.158.97-.375 1.415-.651v2.734c-.41.269-.873.483-1.389.641-.515.159-1.116.238-1.801.238Zm9.488-10.31c1.26 0 2.244.314 2.953.941.709.621 1.064 1.508 1.064 2.663V174h-2.382l-.659-1.318h-.071a4.827 4.827 0 0 1-.87.861c-.293.217-.63.375-1.011.475-.38.105-.846.158-1.397.158-.574 0-1.09-.117-1.547-.352a2.557 2.557 0 0 1-1.081-1.063c-.264-.475-.395-1.075-.395-1.802 0-1.066.369-1.857 1.107-2.373.738-.516 1.808-.806 3.208-.87l1.661-.053v-.141c0-.445-.111-.761-.334-.949-.217-.187-.51-.281-.879-.281-.392 0-.832.07-1.318.211-.481.135-.964.31-1.45.527l-.994-2.267a7.794 7.794 0 0 1 1.952-.668 11.895 11.895 0 0 1 2.443-.229Zm.598 5.687-.791.035c-.633.023-1.078.135-1.336.334-.252.193-.378.472-.378.835 0 .34.091.592.272.756.182.158.422.237.721.237.416 0 .77-.132 1.063-.396.299-.263.449-.606.449-1.028v-.773Zm11.228-5.687c.188 0 .384.015.589.044.205.024.358.044.457.062l-.308 3.243a2.81 2.81 0 0 0-.43-.07 5.799 5.799 0 0 0-.738-.036c-.217 0-.449.021-.695.062-.246.041-.48.129-.703.264-.217.128-.395.328-.536.597-.141.264-.211.621-.211 1.072V174h-3.437v-9.958h2.558l.536 1.591h.167a3.608 3.608 0 0 1 1.653-1.529 2.672 2.672 0 0 1 1.098-.238Zm7.915 0c.188 0 .384.015.589.044.205.024.358.044.457.062l-.307 3.243a2.848 2.848 0 0 0-.431-.07 5.799 5.799 0 0 0-.738-.036c-.217 0-.449.021-.695.062-.246.041-.48.129-.703.264-.217.128-.395.328-.536.597-.141.264-.211.621-.211 1.072V174h-3.436v-9.958h2.557l.536 1.591h.167a3.608 3.608 0 0 1 1.653-1.529 2.672 2.672 0 0 1 1.098-.238Zm5.358.176V174h-3.437v-9.958h3.437Zm-1.705-4.008c.492 0 .92.103 1.283.308.369.205.554.612.554 1.221 0 .592-.185.994-.554 1.205-.363.205-.791.307-1.283.307-.504 0-.935-.102-1.292-.307-.352-.211-.528-.613-.528-1.205 0-.609.176-1.016.528-1.221.357-.205.788-.308 1.292-.308Zm8.047 3.832c.966 0 1.801.17 2.504.51a3.587 3.587 0 0 1 1.626 1.512c.381.674.572 1.517.572 2.531v1.529h-6.144c.029.522.223.949.58 1.283.364.334.897.501 1.6.501.621 0 1.189-.061 1.705-.184a8.34 8.34 0 0 0 1.608-.571v2.469a5.949 5.949 0 0 1-1.573.554c-.568.117-1.286.176-2.153.176-1.002 0-1.899-.179-2.69-.536a4.151 4.151 0 0 1-1.872-1.661c-.451-.75-.677-1.714-.677-2.892 0-1.195.206-2.177.616-2.944.41-.774.984-1.345 1.722-1.714.739-.375 1.597-.563 2.576-.563Zm.123 2.338c-.405 0-.745.129-1.02.387-.269.252-.428.65-.475 1.195h2.954a1.987 1.987 0 0 0-.176-.8 1.34 1.34 0 0 0-.492-.571c-.211-.141-.475-.211-.791-.211Zm-.246-5.994c.205.269.448.565.729.888.287.322.571.638.853.949.287.305.527.568.72.791v.255h-2.285a23.165 23.165 0 0 1-.879-.58c-.34-.235-.694-.481-1.063-.739-.369-.263-.718-.515-1.046-.755-.322-.247-.592-.455-.809-.624v-.185h3.78Zm12.239 3.656c.187 0 .384.015.589.044.205.024.357.044.457.062l-.308 3.243a2.826 2.826 0 0 0-.431-.07 5.777 5.777 0 0 0-.738-.036c-.217 0-.448.021-.694.062a1.967 1.967 0 0 0-.703.264 1.441 1.441 0 0 0-.536.597c-.141.264-.211.621-.211 1.072V174h-3.437v-9.958h2.558l.536 1.591h.167a3.604 3.604 0 0 1 1.652-1.529 2.68 2.68 0 0 1 1.099-.238Zm6.386 0c.966 0 1.801.17 2.505.51a3.59 3.59 0 0 1 1.625 1.512c.381.674.572 1.517.572 2.531v1.529h-6.144c.03.522.223.949.58 1.283.364.334.897.501 1.6.501.621 0 1.189-.061 1.705-.184a8.34 8.34 0 0 0 1.608-.571v2.469a5.949 5.949 0 0 1-1.573.554c-.568.117-1.286.176-2.153.176-1.002 0-1.899-.179-2.69-.536a4.151 4.151 0 0 1-1.872-1.661c-.451-.75-.676-1.714-.676-2.892 0-1.195.205-2.177.615-2.944.41-.774.984-1.345 1.722-1.714.739-.375 1.597-.563 2.576-.563Zm.123 2.338c-.405 0-.744.129-1.02.387-.269.252-.428.65-.474 1.195h2.953a1.987 1.987 0 0 0-.176-.8 1.34 1.34 0 0 0-.492-.571c-.211-.141-.475-.211-.791-.211Zm14.599-2.338c.967 0 1.802.17 2.505.51a3.597 3.597 0 0 1 1.626 1.512c.381.674.571 1.517.571 2.531v1.529h-6.143c.029.522.223.949.58 1.283.363.334.897.501 1.6.501.621 0 1.189-.061 1.705-.184a8.363 8.363 0 0 0 1.608-.571v2.469a5.949 5.949 0 0 1-1.573.554c-.568.117-1.286.176-2.153.176-1.002 0-1.899-.179-2.69-.536a4.151 4.151 0 0 1-1.872-1.661c-.451-.75-.677-1.714-.677-2.892 0-1.195.205-2.177.615-2.944.411-.774.985-1.345 1.723-1.714.738-.375 1.597-.563 2.575-.563Zm.123 2.338c-.404 0-.744.129-1.019.387-.27.252-.428.65-.475 1.195h2.953a1.97 1.97 0 0 0-.175-.8 1.343 1.343 0 0 0-.493-.571c-.211-.141-.474-.211-.791-.211Zm12.213-2.338c1.026 0 1.864.29 2.514.87.65.58.976 1.509.976 2.786V174h-3.437v-5.432c0-.662-.097-1.16-.29-1.494-.187-.34-.492-.51-.914-.51-.65 0-1.087.267-1.31.8-.222.528-.334 1.286-.334 2.277V174h-3.436v-9.958h2.593l.465 1.318h.132a3.207 3.207 0 0 1 1.767-1.318 4.33 4.33 0 0 1 1.274-.176ZM319.505 174h-3.471v-10.011h-3.138v-2.839h9.738v2.839h-3.129V174Zm4.426 0v-12.85h3.489V174h-3.489Zm5.103-1.459c0-.621.181-1.058.545-1.31.369-.252.811-.377 1.327-.377.486 0 .908.125 1.265.377.358.252.537.689.537 1.31 0 .592-.179 1.02-.537 1.283-.357.264-.779.396-1.265.396-.516 0-.958-.132-1.327-.396-.364-.263-.545-.691-.545-1.283Z"
    fill="#fff"
  /></svg>
