<svg version="1.1" xmlns="http://www.w3.org/2000/svg" xmlns:xlink="http://www.w3.org/1999/xlink" x="0px" y="0px"
	 viewBox="0 0 381.39 111.55" style="enable-background:new 0 0 381.39 111.55;" xml:space="preserve">
<style type="text/css">
	.st0{fill:#FFFFFF;}
	.st1{fill-rule:evenodd;clip-rule:evenodd;fill:#FFFFFF;}
</style>
<g>
	<path class="st0" d="M120.84,61.09c0,2.34-1.36,4.26-3.79,4.26c-1.04,0-1.96-0.4-1.96-0.4v2.8l-2.44,0.52c-0.02,0,0-2.96,0-11.07
		h2.42v1.4c0.21-0.44,0.86-1.54,2.34-1.54C119.57,57.08,120.84,58.69,120.84,61.09z M116.78,59.1c-1.04,0-1.71,1-1.71,2.92v1
		c0.23,0.12,0.73,0.42,1.48,0.42c1.21,0,1.81-1.06,1.81-2.3C118.36,60,117.92,59.1,116.78,59.1z"/>
	<path class="st0" d="M126.37,65.38c-2.4,0-4.32-1.5-4.32-4.13c0-2.65,1.92-4.17,4.32-4.17s4.3,1.52,4.3,4.19
		C130.67,63.88,128.77,65.38,126.37,65.38z M126.35,59.02c-1,0-1.84,0.83-1.84,2.23c0,1.42,0.84,2.19,1.84,2.19
		c1.04,0,1.86-0.77,1.86-2.17C128.22,59.85,127.39,59.02,126.35,59.02z"/>
	<path class="st0" d="M134.63,61.61c0,1.17,0.31,1.81,1.27,1.81c0.98,0,1.52-0.9,1.52-2.42v-3.79h2.46v8.05h-2.46v-1.31
		c-0.19,0.33-0.88,1.44-2.38,1.44c-2.19,0-2.9-1.29-2.9-4.19v-4h2.5V61.61z"/>
	<path class="st0" d="M144.22,62.69v2.57h-2.44v-8.05h2.44v1.33c0.37-1.09,1.61-1.58,2.67-1.46c-0.06,0.23-0.29,2.04-0.33,2.25
		C144.78,59.27,144.22,60.52,144.22,62.69z"/>
	<path class="st0" d="M151.99,53.68l2.46-0.5v12.08h-2.46V53.68z"/>
	<path class="st0" d="M160.54,63.46c0.9,0,1.5-0.27,2.09-0.71l1.06,1.69c-1.17,0.79-2.25,0.94-3.23,0.94
		c-2.75,0-4.46-1.61-4.46-4.15c0-2.5,1.73-4.17,4.03-4.17c2.11,0,3.8,1.42,3.8,3.82c0,0.48-0.06,0.94-0.06,0.94h-5.38
		C158.5,62.94,159.42,63.46,160.54,63.46z M158.44,60.12h3.29c-0.13-0.86-0.73-1.38-1.61-1.38
		C159.27,58.73,158.67,59.27,158.44,60.12z"/>
	<path class="st0" d="M168.28,58.91c-0.42,0-0.83,0.15-0.83,0.54c0,1.11,4.03,0.65,4.03,3.36c0,1.58-1.38,2.59-3.29,2.59
		c-1.59,0-3.04-0.79-3.52-1.1l1.17-1.63c0.25,0.17,1.34,0.85,2.33,0.85c0.58,0,0.86-0.29,0.86-0.65c0-1.21-3.98-0.67-3.98-3.42
		c0-1.5,1.17-2.36,3.09-2.36c1.44,0,2.59,0.54,2.82,0.71l-0.37,1.79C170.28,59.33,169.17,58.91,168.28,58.91z"/>
	<g>
		<path class="st0" d="M264.83,57.08c2.32,0,3.67,1.17,3.96,1.42v6.76h-2.44v-1.42c-0.19,0.37-0.81,1.56-2.34,1.56
			c-2.13,0-3.44-1.61-3.44-4.02C260.57,58.94,262.09,57.08,264.83,57.08z M264.64,63.38c1.04,0,1.71-1,1.71-2.94v-1.06
			c-0.21-0.13-0.67-0.36-1.42-0.36c-1.25,0-1.86,1.08-1.86,2.32C263.07,62.48,263.51,63.38,264.64,63.38z"/>
		<path class="st0" d="M273.1,61.61c0,1.17,0.31,1.81,1.27,1.81c0.98,0,1.52-0.9,1.52-2.42v-3.79h2.46v8.05h-2.46v-1.31
			c-0.19,0.33-0.88,1.44-2.38,1.44c-2.19,0-2.9-1.29-2.9-4.19v-4h2.5V61.61z"/>
		<path class="st0" d="M283.8,65.36c-2.19,0-2.92-0.98-2.92-3.19V59.1h-1.5l0.48-1.88h1.02v-1.71l2.48-0.52v2.23h1.88v1.88h-1.88
			v3.11c0,0.85,0.15,1.15,0.69,1.23c0.5,0.04,0.98,0,1.4-0.04l-0.46,1.9C284.88,65.3,284.55,65.36,283.8,65.36z"/>
		<path class="st0" d="M290.28,65.38c-2.4,0-4.32-1.5-4.32-4.13c0-2.65,1.92-4.17,4.32-4.17s4.3,1.52,4.3,4.19
			C294.58,63.88,292.68,65.38,290.28,65.38z M290.26,59.02c-1,0-1.84,0.83-1.84,2.23c0,1.42,0.84,2.19,1.84,2.19
			c1.04,0,1.86-0.77,1.86-2.17C292.12,59.85,291.3,59.02,290.26,59.02z"/>
		<path class="st0" d="M295.79,61.23c0-2.73,1.84-4.17,4.3-4.17c1.54,0,2.54,0.52,2.59,0.56l-0.21,1.94c0,0-0.88-0.58-2.08-0.58
			c-1.13,0-2.19,0.69-2.19,2.21c0,1.52,1.04,2.23,2.15,2.23c1.09,0,1.86-0.63,1.9-0.67l0.96,1.71c-1.02,0.69-2.08,0.96-3.11,0.96
			C297.58,65.42,295.79,63.94,295.79,61.23z"/>
		<path class="st0" d="M309.7,61.54c0-1.52-0.12-2.46-1.31-2.46c-1.21,0-1.54,1.15-1.54,2.82v3.36h-2.46V53.68l2.46-0.5v5.36
			c0.19-0.33,0.98-1.46,2.44-1.46c2.38,0,2.9,1.48,2.9,4.75v3.44h-2.5V61.54z"/>
		<path class="st0" d="M317.12,65.36c-2.19,0-2.92-0.98-2.92-3.19V59.1h-1.5l0.48-1.88h1.02v-1.71l2.48-0.52v2.23h1.88v1.88h-1.88
			v3.11c0,0.85,0.15,1.15,0.69,1.23c0.5,0.04,0.98,0,1.4-0.04l-0.46,1.9C318.2,65.3,317.87,65.36,317.12,65.36z"/>
		<path class="st0" d="M323.6,65.38c-2.4,0-4.32-1.5-4.32-4.13c0-2.65,1.92-4.17,4.32-4.17s4.3,1.52,4.3,4.19
			C327.9,63.88,326,65.38,323.6,65.38z M323.58,59.02c-1,0-1.84,0.83-1.84,2.23c0,1.42,0.84,2.19,1.84,2.19
			c1.04,0,1.86-0.77,1.86-2.17C325.44,59.85,324.62,59.02,323.58,59.02z"/>
		<path class="st0" d="M334.76,60.88c0-1.17-0.36-1.81-1.31-1.81c-0.98,0-1.54,0.92-1.54,2.42v3.77h-2.46v-8.05h2.46v1.33
			c0.19-0.33,0.94-1.46,2.4-1.46c1.96,0,2.94,1.15,2.94,3.63v4.55h-2.5V60.88z"/>
		<path class="st0" d="M343.26,63.46c0.9,0,1.5-0.27,2.09-0.71l1.06,1.69c-1.17,0.79-2.25,0.94-3.23,0.94
			c-2.75,0-4.46-1.61-4.46-4.15c0-2.5,1.73-4.17,4.03-4.17c2.11,0,3.8,1.42,3.8,3.82c0,0.48-0.06,0.94-0.06,0.94h-5.38
			C341.22,62.94,342.14,63.46,343.26,63.46z M341.16,60.12h3.29c-0.13-0.86-0.73-1.38-1.61-1.38
			C341.99,58.73,341.39,59.27,341.16,60.12z"/>
		<path class="st0" d="M351,58.91c-0.42,0-0.83,0.15-0.83,0.54c0,1.11,4.03,0.65,4.03,3.36c0,1.58-1.38,2.59-3.29,2.59
			c-1.59,0-3.04-0.79-3.52-1.1l1.17-1.63c0.25,0.17,1.34,0.85,2.33,0.85c0.58,0,0.86-0.29,0.86-0.65c0-1.21-3.98-0.67-3.98-3.42
			c0-1.5,1.17-2.36,3.09-2.36c1.44,0,2.59,0.54,2.82,0.71l-0.37,1.79C353,59.33,351.89,58.91,351,58.91z"/>
	</g>
	<g>
		<path class="st0" d="M115.7,42.3v3.25h-2.84V33.64h2.88c3.92,0,5.8,1.77,5.8,4.3C121.54,40.71,119.6,42.25,115.7,42.3z
			 M115.97,35.83h-0.25v4.28h0.23h0.23c1.5,0,2.57-0.77,2.57-2.17S117.58,35.83,115.97,35.83z"/>
		<path class="st0" d="M125.69,42.98v2.57h-2.44V37.5h2.44v1.33c0.37-1.09,1.61-1.58,2.67-1.46c-0.06,0.23-0.29,2.04-0.33,2.25
			C126.25,39.56,125.69,40.81,125.69,42.98z"/>
		<path class="st0" d="M133.03,45.67c-2.4,0-4.32-1.5-4.32-4.13c0-2.65,1.92-4.17,4.32-4.17s4.3,1.52,4.3,4.19
			C137.34,44.17,135.43,45.67,133.03,45.67z M133.01,39.31c-1,0-1.84,0.83-1.84,2.23c0,1.42,0.84,2.19,1.84,2.19
			c1.04,0,1.86-0.77,1.86-2.17C134.88,40.13,134.05,39.31,133.01,39.31z"/>
		<path class="st0" d="M139.01,47.42l1.25-1.69c0.29,0.21,1.27,0.86,2.21,0.86c0.81,0,1.86-0.29,1.86-1.9v-0.98
			c-0.21,0.23-0.75,1.23-2.36,1.23c-2.02,0-3.32-1.52-3.32-3.71c0-2.15,1.52-3.86,4.23-3.86c2.29,0,3.61,1.13,3.88,1.33v5.46
			c0,3.54-1.96,4.44-4.23,4.44C140.87,48.59,139.51,47.78,139.01,47.42z M142.68,43.05c1,0,1.65-0.9,1.65-2.4V39.6
			c-0.21-0.12-0.69-0.31-1.4-0.31c-1.17,0-1.79,0.9-1.79,1.96C141.14,42.29,141.58,43.05,142.68,43.05z"/>
		<path class="st0" d="M151.19,42.98v2.57h-2.44V37.5h2.44v1.33c0.37-1.09,1.61-1.58,2.67-1.46c-0.06,0.23-0.29,2.04-0.33,2.25
			C151.75,39.56,151.19,40.81,151.19,42.98z"/>
		<path class="st0" d="M158.47,37.37c2.32,0,3.67,1.17,3.96,1.42v6.76h-2.44v-1.42c-0.19,0.37-0.81,1.56-2.34,1.56
			c-2.13,0-3.44-1.61-3.44-4.02C154.21,39.23,155.73,37.37,158.47,37.37z M158.28,43.67c1.04,0,1.71-1,1.71-2.94v-1.06
			c-0.21-0.13-0.67-0.36-1.42-0.36c-1.25,0-1.86,1.08-1.86,2.32C156.71,42.77,157.15,43.67,158.28,43.67z"/>
		<path class="st0" d="M173.75,40.98c0-1.02-0.27-1.61-1.08-1.61c-1,0-1.11,0.92-1.11,2.54v3.65h-2.48V40.9
			c0-1.04-0.31-1.54-1.1-1.54c-0.92,0-1.11,0.75-1.11,2.54v3.65h-2.44V37.5h2.44v1.21c0.21-0.38,0.65-1.13,1.59-1.31
			c0.25-0.02,0.52-0.04,0.79,0c0.94,0.08,1.58,0.52,1.94,1.44c0.33-0.65,1.04-1.5,2.31-1.5c1.71,0,2.75,0.98,2.75,3.44v4.76h-2.5
			V40.98z"/>
		<path class="st0" d="M187.47,40.98c0-1.02-0.27-1.61-1.08-1.61c-1,0-1.11,0.92-1.11,2.54v3.65h-2.48V40.9
			c0-1.04-0.31-1.54-1.1-1.54c-0.92,0-1.11,0.75-1.11,2.54v3.65h-2.44V37.5h2.44v1.21c0.21-0.38,0.65-1.13,1.59-1.31
			c0.25-0.02,0.52-0.04,0.79,0c0.94,0.08,1.58,0.52,1.94,1.44c0.33-0.65,1.04-1.5,2.31-1.5c1.71,0,2.75,0.98,2.75,3.44v4.76h-2.5
			V40.98z"/>
		<path class="st0" d="M196.06,43.75c0.9,0,1.5-0.27,2.09-0.71l1.06,1.69c-1.17,0.79-2.25,0.94-3.23,0.94
			c-2.75,0-4.46-1.61-4.46-4.15c0-2.5,1.73-4.17,4.03-4.17c2.11,0,3.8,1.42,3.8,3.82c0,0.48-0.06,0.94-0.06,0.94h-5.38
			C194.02,43.23,194.95,43.75,196.06,43.75z M193.97,40.4h3.29c-0.13-0.86-0.73-1.38-1.61-1.38
			C194.79,39.02,194.2,39.56,193.97,40.4z"/>
		<path class="st0" d="M204.79,41.67c0-2.34,1.4-4.28,3.82-4.28c1.04,0,1.92,0.42,1.92,0.42v-3.82l2.46-0.52v12.08h-2.44v-1.4
			c-0.21,0.44-0.88,1.54-2.36,1.54C206.07,45.69,204.79,44.07,204.79,41.67z M208.82,43.67c1.04,0,1.73-1,1.73-2.94v-0.98
			c-0.21-0.13-0.69-0.44-1.44-0.44c-1.21,0-1.84,1.08-1.84,2.32C207.26,42.77,207.73,43.67,208.82,43.67z"/>
		<path class="st0" d="M215.32,38.98l-0.33-5.34h2.73l-0.33,5.34H215.32z"/>
		<path class="st0" d="M223.25,37.37c2.32,0,3.67,1.17,3.96,1.42v6.76h-2.44v-1.42c-0.19,0.37-0.81,1.56-2.34,1.56
			c-2.13,0-3.44-1.61-3.44-4.02C218.99,39.23,220.5,37.37,223.25,37.37z M223.06,43.67c1.04,0,1.71-1,1.71-2.94v-1.06
			c-0.21-0.13-0.67-0.36-1.42-0.36c-1.25,0-1.86,1.08-1.86,2.32C221.48,42.77,221.93,43.67,223.06,43.67z"/>
		<path class="st0" d="M237.41,41.38c0,2.34-1.36,4.26-3.79,4.26c-1.04,0-1.96-0.4-1.96-0.4v2.8l-2.44,0.52c-0.02,0,0-2.96,0-11.07
			h2.42v1.4c0.21-0.44,0.86-1.54,2.34-1.54C236.14,37.37,237.41,38.98,237.41,41.38z M233.36,39.38c-1.04,0-1.71,1-1.71,2.92v1
			c0.23,0.12,0.73,0.42,1.48,0.42c1.21,0,1.81-1.06,1.81-2.3C234.93,40.29,234.49,39.38,233.36,39.38z"/>
		<path class="st0" d="M247.27,41.38c0,2.34-1.36,4.26-3.79,4.26c-1.04,0-1.96-0.4-1.96-0.4v2.8l-2.44,0.52c-0.02,0,0-2.96,0-11.07
			h2.42v1.4c0.21-0.44,0.86-1.54,2.34-1.54C246,37.37,247.27,38.98,247.27,41.38z M243.22,39.38c-1.04,0-1.71,1-1.71,2.92v1
			c0.23,0.12,0.73,0.42,1.48,0.42c1.21,0,1.81-1.06,1.81-2.3C244.79,40.29,244.35,39.38,243.22,39.38z"/>
		<path class="st0" d="M251.36,42.98v2.57h-2.44V37.5h2.44v1.33c0.37-1.09,1.61-1.58,2.67-1.46c-0.06,0.23-0.29,2.04-0.33,2.25
			C251.92,39.56,251.36,40.81,251.36,42.98z"/>
		<path class="st0" d="M258.91,43.75c0.9,0,1.5-0.27,2.09-0.71l1.06,1.69c-1.17,0.79-2.25,0.94-3.23,0.94
			c-2.75,0-4.46-1.61-4.46-4.15c0-2.5,1.73-4.17,4.03-4.17c2.11,0,3.8,1.42,3.8,3.82c0,0.48-0.06,0.94-0.06,0.94h-5.38
			C256.88,43.23,257.8,43.75,258.91,43.75z M256.82,40.4h3.29c-0.13-0.86-0.73-1.38-1.61-1.38
			C257.65,39.02,257.05,39.56,256.82,40.4z"/>
		<path class="st0" d="M269.14,41.17c0-1.17-0.36-1.81-1.31-1.81c-0.98,0-1.54,0.92-1.54,2.42v3.77h-2.46V37.5h2.46v1.33
			c0.19-0.33,0.94-1.46,2.4-1.46c1.96,0,2.94,1.15,2.94,3.63v4.55h-2.5V41.17z"/>
		<path class="st0" d="M276.71,45.65c-2.19,0-2.92-0.98-2.92-3.19v-3.07h-1.5l0.48-1.88h1.02v-1.71l2.48-0.52v2.23h1.88v1.88h-1.88
			v3.11c0,0.85,0.15,1.15,0.69,1.23c0.5,0.04,0.98,0,1.4-0.04l-0.46,1.9C277.79,45.59,277.46,45.65,276.71,45.65z"/>
		<path class="st0" d="M281,36.1c-0.79,0-1.4-0.44-1.4-1.17c0-0.73,0.61-1.15,1.4-1.15c0.79,0,1.4,0.42,1.4,1.15
			C282.4,35.66,281.78,36.1,281,36.1z M279.77,37.5h2.48v8.05h-2.48V37.5z"/>
		<path class="st0" d="M287.22,39.19c-0.42,0-0.83,0.15-0.83,0.54c0,1.11,4.03,0.65,4.03,3.36c0,1.58-1.38,2.59-3.29,2.59
			c-1.59,0-3.04-0.79-3.52-1.1l1.17-1.63c0.25,0.17,1.34,0.85,2.33,0.85c0.58,0,0.86-0.29,0.86-0.65c0-1.21-3.98-0.67-3.98-3.42
			c0-1.5,1.17-2.36,3.09-2.36c1.44,0,2.59,0.54,2.82,0.71l-0.37,1.79C289.22,39.62,288.1,39.19,287.22,39.19z"/>
		<path class="st0" d="M294.77,39.19c-0.42,0-0.83,0.15-0.83,0.54c0,1.11,4.03,0.65,4.03,3.36c0,1.58-1.38,2.59-3.29,2.59
			c-1.59,0-3.04-0.79-3.52-1.1l1.17-1.63c0.25,0.17,1.34,0.85,2.33,0.85c0.58,0,0.86-0.29,0.86-0.65c0-1.21-3.98-0.67-3.98-3.42
			c0-1.5,1.17-2.36,3.09-2.36c1.44,0,2.59,0.54,2.82,0.71l-0.37,1.79C296.77,39.62,295.66,39.19,294.77,39.19z"/>
		<path class="st0" d="M303.32,37.37c2.32,0,3.67,1.17,3.96,1.42v6.76h-2.44v-1.42c-0.19,0.37-0.81,1.56-2.34,1.56
			c-2.13,0-3.44-1.61-3.44-4.02C299.06,39.23,300.58,37.37,303.32,37.37z M303.13,43.67c1.04,0,1.71-1,1.71-2.94v-1.06
			c-0.21-0.13-0.67-0.36-1.42-0.36c-1.25,0-1.86,1.08-1.86,2.32C301.55,42.77,302,43.67,303.13,43.67z"/>
		<path class="st0" d="M309.3,47.42l1.25-1.69c0.29,0.21,1.27,0.86,2.21,0.86c0.81,0,1.86-0.29,1.86-1.9v-0.98
			c-0.21,0.23-0.75,1.23-2.36,1.23c-2.02,0-3.32-1.52-3.32-3.71c0-2.15,1.52-3.86,4.23-3.86c2.29,0,3.61,1.13,3.88,1.33v5.46
			c0,3.54-1.96,4.44-4.23,4.44C311.16,48.59,309.8,47.78,309.3,47.42z M312.97,43.05c1,0,1.65-0.9,1.65-2.4V39.6
			c-0.21-0.12-0.69-0.31-1.4-0.31c-1.17,0-1.79,0.9-1.79,1.96C311.43,42.29,311.87,43.05,312.97,43.05z"/>
		<path class="st0" d="M323.23,43.75c0.9,0,1.5-0.27,2.09-0.71l1.06,1.69c-1.17,0.79-2.25,0.94-3.23,0.94
			c-2.75,0-4.46-1.61-4.46-4.15c0-2.5,1.73-4.17,4.03-4.17c2.11,0,3.8,1.42,3.8,3.82c0,0.48-0.06,0.94-0.06,0.94h-5.38
			C321.19,43.23,322.12,43.75,323.23,43.75z M321.14,40.4h3.29c-0.13-0.86-0.73-1.38-1.61-1.38
			C321.96,39.02,321.37,39.56,321.14,40.4z"/>
		<path class="st0" d="M336.49,43.75c0.9,0,1.5-0.27,2.09-0.71l1.06,1.69c-1.17,0.79-2.25,0.94-3.23,0.94
			c-2.75,0-4.46-1.61-4.46-4.15c0-2.5,1.73-4.17,4.03-4.17c2.11,0,3.8,1.42,3.8,3.82c0,0.48-0.06,0.94-0.06,0.94h-5.38
			C334.45,43.23,335.37,43.75,336.49,43.75z M334.39,40.4h3.29c-0.13-0.86-0.73-1.38-1.61-1.38
			C335.22,39.02,334.62,39.56,334.39,40.4z"/>
		<path class="st0" d="M346.71,41.17c0-1.17-0.36-1.81-1.31-1.81c-0.98,0-1.54,0.92-1.54,2.42v3.77h-2.46V37.5h2.46v1.33
			c0.19-0.33,0.94-1.46,2.4-1.46c1.96,0,2.94,1.15,2.94,3.63v4.55h-2.5V41.17z"/>
		<path class="st0" d="M360.1,45.55h-2.8v-9.72h-2.9l0.52-2.19h7.86v2.19h-2.67V45.55z"/>
		<path class="st0" d="M364.39,33.64h2.84v11.91h-2.84V33.64z"/>
	</g>
	<g>
		<path class="st0" d="M46.77,18.54c-0.02-0.14,2.06,0.06,2.7-0.39c0.67-0.46,2.6-2.7,2.81-2.7c0.23-0.01-1.15,2.69-0.62,3.35
			c0.49,0.61,1.37,1.05,1.4,1.19c0.04,0.18-1.9,0.12-2.5,0.53c-0.88,0.6-1.89,1.77-2.12,1.75c-0.21-0.02,0.57-1.94,0.04-2.57
			C47.87,18.98,46.79,18.66,46.77,18.54z"/>
		<path class="st0" d="M14.58,45.66c0,0,2.69-12.9,8.67-16.5c1.06-0.64-0.48,5.96,3.83,1.49c3.27-3.39,4.82-6.03,6.1-6.33
			c1.28-0.3-5.27,11.09,2.1,6.6c8.53-5.2,10.35-7.64,12.37-6.91c2.08,0.75-2.05,5.89,3.79,3.68c9.09-3.43,9.63-8.8,11.7-9.52
			c1.33-0.47,2.02,1.02,5.88,0.22c3.86-0.8,4.45-1.5,7.18-0.82c6.29,1.55,4.3,10.36,4.3,10.36s-4.19-9.76-12.8-7.1
			c-12.26,3.78-10.12,11.11-19.73,12.15c-15.61,1.69-21.1,0.69-22.89,0.76C20.37,33.94,19.09,38.27,14.58,45.66z"/>
		<path class="st0" d="M14.79,38.78c0.02-0.05,0.04-0.1,0.07-0.15C18.38,30.7,25.11,22,26.16,23.19c1.5,1.71-2.04,5.95-0.21,5.04
			c1.83-0.91,9.27-15.16,12.86-12.9c1.81,1.13-4.66,7.57-3.04,8.59c1.62,1.02,5.8-1.02,7.78-3.26c5.28-5.96,6.95-8.78,13.75-9.86
			c9.09-1.45-7,10.32-2.48,11.48c4.52,1.16,5.62-9.52,13.52-9.13c2.53,0.13-7.78,6.39,2.69,3.05c3.15-1.01,6.59-0.95,8.25,0.53
			c2.93,2.6,4.52,8.74,2.79,11.83c-0.14,0.25,4.55-1.88,10.38,1.43C86.62,18.36,75.67,10.23,63.15,7.81
			c-4.8-0.77-10.1-0.89-15.83,0.02c-0.54,0.1-1.08,0.22-1.61,0.34C29.95,11.88,18.41,24.08,14.79,38.78z"/>
		<path class="st0" d="M23.59,55.11c-0.74-0.73-0.22-2.62-2.7-2.32c-1.87,0.21-3.61,1.62-4.47,3.37c1.08,0.68,2.21,1.36,3.39,2.02
			c-0.03-0.17-0.07-0.31-0.13-0.35c-0.4-0.3-1.51-1.58-1.43-1.61c0.07-0.03,1.87,1.66,2.84,1.62c0.97-0.04,0.7-0.09,0.77-0.04
			c0.08,0.05-0.09,0.1-0.59,0.25c-0.2,0.06-0.52,0.19-0.84,0.47c0.64,0.35,1.29,0.7,1.95,1.04c0.67-0.76,2.22-2.68,2.22-2.83
			C24.61,56.51,24.75,56.26,23.59,55.11z M20.98,56.65c-0.6,0.14-1.2-0.23-1.34-0.83c-0.14-0.6,0.23-1.2,0.83-1.34
			c0.6-0.14,1.2,0.23,1.34,0.83C21.95,55.91,21.58,56.51,20.98,56.65z"/>
		<path class="st0" d="M21.98,63.45c1.03,0.74,0.85,1.03,1.29,1.34c0.44,0.31,1.27,0.99,1.16,1.37c-0.1,0.34-0.84,0.61-0.59,1.73
			c0.31,1.38-1.14,2.42-2.4,0.84c-0.05-0.33-0.06-1.6,0.23-1.83c0.36-0.3,0.75-0.52,0.68-0.58c-0.07-0.05-0.66,0.49-1.22,0.32
			c-0.56-0.18-0.9-0.44-0.95-0.42c-0.05,0.02,0.54,0.35,0.86,0.72c0.2,0.23-0.18,1.31-0.08,1.65c-0.63-0.69-1.82-0.43-2.16-1.56
			c-0.29-2.02,1.6-3.69,2.05-4.07C20.86,62.96,21.2,62.89,21.98,63.45z M20.58,64.76c-0.26,0.38-0.15,0.92,0.26,1.2
			s0.95,0.19,1.21-0.19c0.26-0.38,0.15-0.92-0.26-1.2C21.39,64.29,20.85,64.37,20.58,64.76z"/>
		<g>
			<path class="st0" d="M92.1,40.55c0,0-1.79-2.46-2.85-3.83c-1.1-1.33-2.15-3.2-2.22-3.17c-0.07,0.02-0.55,1.92,0.3,3.19
				c0.84,1.28,1.5,1.73,1.77,2.04C90.12,39.9,92.1,40.55,92.1,40.55z"/>
			<path class="st0" d="M91.38,43.77c0,0-1.12-1.82-1.46-2.71c-0.44-1.07-0.86-1.43-1.07-1.73c-0.23-0.29-1.54-1.75-1.53-1.77
				c0.01-0.01-0.54,1.34,0.69,3.16C89.3,42.65,91.38,43.77,91.38,43.77z"/>
			<path class="st0" d="M86.69,37.59c-0.1,0.07-1.57-2.72-2.09-5.01c-0.49-2.17-0.13-2.41-0.05-2.44c0.07-0.01,1.66,2.24,1.86,2.8
				c0.16,0.58-0.59,2.14,0.18,3.63C86.94,37.26,86.79,37.52,86.69,37.59z"/>
			<path class="st0" d="M96.82,47.33c-0.91-0.52-1.97-1.57-2.08-1.81c-0.14-0.2-3.2-2.54-3.18-2.57c0.01-0.02,0.77,2.17,2.7,3.72
				c1,0.82,2.09,1.39,2.9,1.76c0-0.29-0.01-0.58-0.02-0.87C97.04,47.47,96.93,47.4,96.82,47.33z"/>
			<path class="st0" d="M94.8,44.98c0-0.01,0.86,1.08,2.32,1.98c-0.02-0.38-0.04-0.77-0.07-1.15C95.99,45.43,94.8,45,94.8,44.98z"/>
			<path class="st0" d="M94.39,42.58c-1.78-0.97-4.03-2.1-4.03-2.1s0.39,1.22,2.63,2.88c1.41,1.06,3,1.52,4,1.71
				c-0.02-0.26-0.05-0.51-0.08-0.77C96.22,43.78,95.3,43.12,94.39,42.58z"/>
		</g>
		<g>
			<path class="st0" d="M83.16,30.37c-2.7,0.07-4.39,2.78-4.45,3.38c-0.07,0.66-0.08,1.36-0.5,2.17c-0.42,0.8,0.1,1.29,0.85,1.66
				c0.97,0.47,0.55,1.14,1.05,1.85c0.25,0.35,6.1,1.67,6.37,1.44C87.27,40.21,83.75,37.7,83.16,30.37z M82.08,35.88
				c-0.61,0.41-1.46,0.23-1.88-0.4c-0.42-0.63-0.27-1.48,0.35-1.89c0.61-0.41,1.46-0.23,1.88,0.4
				C82.85,34.63,82.7,35.47,82.08,35.88z"/>
		</g>
		<path class="st0" d="M78.49,30.26c-0.08-0.21-0.17-0.41-0.26-0.6c-3.13-6.65-11.57-5.12-15.59,2.87c-1.83,3.64-4.4,8.85-4.05,8.71
			c4.72-1.84,12.15-2.01,12.57-2.07c0.2-0.02,2.51-2.81,4.15-2.11c1.38,0.59,2.64-2.74,2.66-4.62c0.02-1.98-1.19-3.1-2.76-3.73
			c-1.13-0.45-3.14-0.79-4.27-0.69c2.47-0.78,4.78-0.48,7.08,1.74C78.18,29.92,78.34,30.08,78.49,30.26z M71.46,36.58
			c-2.63,1.31-5.8,0.89-6.41,0.59c0.75-0.11,5.11-0.04,4.8-1.49c-0.22-1.02-1.09-1.46-0.96-1.61c0.47-0.58,1.47,1.42,3.55,1.23
			C74.52,35.12,72.39,36.12,71.46,36.58z M74.45,31.86c0.25,1.06-0.41,2.12-1.47,2.37c-1.06,0.25-2.12-0.41-2.37-1.47
			c-0.25-1.06,0.41-2.12,1.47-2.37C73.14,30.14,74.2,30.8,74.45,31.86z"/>
		<path class="st0" d="M44.8,42.68c-1.52-0.6-4.34-5.56-10.05-0.73c-5.61,4.74,0.63,19.47,1.62,19.01c0.78-0.36-4.15-9.55-0.83-16.2
			c-1.05,3.36-1.02,7.79,0.59,10.59c0.48,0.83,0.56-2.98,1.78-4.31c1.94-2.11,2.77,0.26,3.88-2.69
			C42.86,45.49,46.64,43.4,44.8,42.68z M40.47,41.96c0.8-0.19,1.59,0.31,1.78,1.1c0.19,0.8-0.31,1.59-1.1,1.78
			c-0.8,0.19-1.59-0.31-1.78-1.1C39.18,42.94,39.68,42.15,40.47,41.96z M40.85,46.53c-1.58,0.24-1.73,2.33-2.29,2.25
			c-0.21-0.03,1.15-2.34,0.34-2.94c-0.82-0.6-1.25-0.97,0.48-0.32c1.73,0.65,2.94,0.05,3.05,0.14
			C42.54,45.76,41.86,46.38,40.85,46.53z"/>
		<path class="st0" d="M76.88,51.2c0,0,0.42,2.73,1.34,3.22c2.5,1.35,2.74,2.67,2.74,2.67s0.25-3.15-0.44-3.86
			C78.8,51.46,76.88,51.2,76.88,51.2z"/>
		<path class="st1" d="M80.72,69.06c0.46,0.15,1.1,0.33,1.47,0.39c-1.68-1.06-2.94-4.44-1.53-5.92c0.17,0.5,1.65,2.19,1.99,2.39
			c0.05-1.8,2.02-2.42,1.02-5.44c4.37,2.76,2.91,7.85,0.8,8.96c0.03-0.02,3.15,0.77,5.05-2.05c1.84-2.73-5.13-12.01-7.38-14.86
			c-0.42-0.53-0.55-0.37-0.4,0.35c0.39,1.92,0.93,5.61-0.4,7c0.29-0.3-1.53-3.29-3.22-4.27c-0.25-0.15-0.5-0.25-0.74-0.29
			c0.11,0.22,0.2,0.44,0.27,0.68c1.27,4.15-3.21,10.14-0.32,11.65C79.13,68.6,79.64,68.7,80.72,69.06z"/>
		<path class="st0" d="M68.32,56.9c0.83-0.59,3.95-1.59,4.72-1.16c3,1.67,1.87,2.62,1.87,2.62c0.18,0.18,1.44-0.37,0.95-2.56
			c-0.29-1.27-0.89-2.67-3.26-3.68c-3.11-1.32-7.71-1.3-9.16-0.62C64.55,52.77,65.68,55.76,68.32,56.9z M71.5,53.54
			c0,0.58-0.47,1.06-1.06,1.06c-0.58,0-1.06-0.47-1.06-1.06c0-0.58,0.47-1.06,1.06-1.06C71.03,52.48,71.5,52.96,71.5,53.54z"/>
		<path class="st0" d="M66.97,57.05c-4.35-2.33-2.06-7.42-9.25-4.04c-7.63,3.59-10.04,13.3-9.91,13.4c0.12,0.1,3.38-3.36,6.46-5.29
			c0.21-0.13,2.74-3.81,2.74-3.81s-0.73,1.95-1.07,2.89c0.64-0.31,1.31-0.6,2.01-0.85c0.17-0.24,0.31-0.45,0.42-0.64
			c0.75-1.29,1.66-3.25,1.66-3.25s-0.97,3.55-0.83,3.49C65.45,56.55,68.95,58.11,66.97,57.05z"/>
		<path class="st0" d="M74.08,67.53c0,0-0.5,0.88-0.95,0.76c-0.21-0.05,0.28-2.37,0.39-2.43c0.29-0.15,0.91-0.06,0.98,0.4
			S74.08,67.53,74.08,67.53z"/>
		<path class="st0" d="M73.01,65.6c-0.22-0.71-2.52-2.46-4.98-3.61c-2.08-0.97-0.95-3.4-3.12-3.16c-1.2,0.13-3.07,2.5-3.84,4.94
			c-0.68,2.18-2.92,2.01-2.92,2.01s1.53-1.02,2.25-2.01c0.72-1,0.78-2.08-0.68-1.94c-1.46,0.15-4.67,1.2-7.26,2.86
			c-3.87,2.47-5.14,3.21-4.95,3.3c0.2,0.09,7.37-0.01,12.29,0.41c4.96,0.43,6.7,0.59,8.66,0.4c1.02-0.09,3.89-0.3,3.89-0.3
			S73.23,66.31,73.01,65.6z M64.07,61.17c-0.26-0.03,0.24-1.45,0.88-1.56c0.65-0.11,0.91,0.62,1.05,1.14
			C66.13,61.28,64.32,61.2,64.07,61.17z M68.3,64.7c0,0.8-0.65,1.45-1.45,1.45s-1.45-0.65-1.45-1.45c0-0.8,0.65-1.45,1.45-1.45
			S68.3,63.89,68.3,64.7z"/>
		<path class="st0" d="M76.72,76.62c-5.9-0.34-7.15-0.48-10.26-0.65c-3.41-0.19-11.85-1.21-11.97-0.98
			c-0.11,0.23,4.33,1.76,6.79,3.34c2.92,1.88,6.26,4.31,10.5,3.2c0.2-0.05-2.01-3.6,1.36-3.12c0.35,0.05-3.62,4.27,3.74,2.59
			c1.98-0.45,3.6-2.68,4.49-1.84C82.01,78.55,79.9,76.81,76.72,76.62z M76.47,80.09c-0.55,0.1-1.09-0.24-1.2-0.78
			c-0.11-0.53,0.25-1.05,0.81-1.15c0.55-0.1,1.09,0.24,1.2,0.78C77.38,79.46,77.02,79.98,76.47,80.09z"/>
		<path class="st0" d="M79.06,81.44c-0.31,0.01-1.22,0.82-1.73,0.71c-0.69-0.15-0.87-0.54-0.87-0.54c-0.14-0.07-3.99,1.19-3.99,1.19
			s0,0,0,0c-1.05,0.26-2.56,0.49-3.68,0.09c-3.08-1.08-4.86-2-4.88-1.6c-0.01,0.39,4.2,2.04,3.79,3.2c-0.61,1.77-1.54,3.1-0.25,2.72
			c1.01-0.3,4.29-3.08,5.65-4.26c0.88,0.19,2.5,0.47,3.86,0.3C78.37,83.07,79.37,81.43,79.06,81.44z"/>
		<g>
			<g>
				<path class="st0" d="M56.95,85.92c-0.22-0.12-0.64-0.15-1.08,0.01c-0.29,0.11-0.68,0.61-0.13,1.26
					c0.37,0.44,0.32,1.24,0.03,1.59c-0.3,0.35-0.79,0.73-0.54,0.77c0.54,0.1,2.17-0.76,2.4-1.68
					C57.73,87.44,57.58,86.27,56.95,85.92z"/>
				<path class="st0" d="M58.6,85.36c-0.19,0.08-0.61,0.31-0.42,0.62c0.1,0.16,0.61,0.65,0.78,1.15c0.14,0.4,0.31,1.09-0.16,1.72
					c-0.26,0.34-0.6,0.64-0.36,0.63c0.09-0.01,0.44-0.17,0.62-0.29c1.31-0.82,1.87-2.86,0.47-3.78
					C59.17,85.17,58.79,85.28,58.6,85.36z"/>
				<path class="st0" d="M54.43,86.04c-0.31-0.35-0.58-0.34-0.93-0.31c-0.5,0.04-0.65,0.48-0.61,0.55c0.4,0.71,0.19,2-0.56,2.61
					c-0.24,0.19-0.65,0.32-0.69,0.37c0,0.1,0.13,0.11,0.21,0.08c1.4-0.36,1.81-0.91,2.26-1.65C54.57,86.96,54.73,86.39,54.43,86.04z
					"/>
				<path class="st0" d="M62.09,84.68c-0.48-0.31-1-0.26-1.29-0.17c-0.52,0.15-1.01,0.58-0.41,0.82c1.27,0.49,1.47,1.06,1.74,1.82
					c0.19,0.53,0.1,0.88,0.24,0.86c0.09-0.02,0.29-0.27,0.43-0.6C63.35,86.08,62.55,84.97,62.09,84.68z"/>
			</g>
			<path class="st0" d="M53.61,80.52c0.01,0.02,0.02,0.03,0.03,0.05c1.25,1.96-2.54,2.3-2.62,3.2c-0.08,0.9,1.86,1.27,4.81,1.15
				c2.95-0.13,4.7-1.62,4.78-2.53c0.04-0.49-2.52-1.78-4.6-2.43c2.16-0.2,3.31,0.36,3.31,0.36c-3.63-4.01-9.31-6.28-12.41-7.17
				c-0.36,0.13-0.21,3.89-0.13,4.19c0.04-0.05,0.33-0.39,0.69-0.82c0.41-0.49,0.78-0.5,0.34,0.05c-0.87,1.09-0.86,2.45-0.55,1.89
				c0.31-0.56,1.31-1.42,1.31-1.42s-0.16,0.33-0.61,0.99s-0.84,2.46-0.45,1.65c0.39-0.81,1.23-1.8,1.23-1.8s-0.79,1.91-0.82,3.02
				c-0.03,1.63,0.42-1.26,1.45-2.34c0.1,0.1-1.54,3.8-0.14,4.74c0.96,0.48,1.62-0.91,2.4-1.59C52.2,81.22,52.86,80.82,53.61,80.52z"
				/>
		</g>
		<path class="st0" d="M61.66,72.36c0.18-1.99,2.96-1.66,6.34-1.48c3.09,0.16,25.92,0.49,27.3,0.6c1.78,0.13,0.45,4.21-2.3,4.16
			c-7.09-0.13-25.93-1.06-26.65-1.14C63.83,74.24,61.5,74.11,61.66,72.36z"/>
		<path class="st0" d="M15.88,55.81c1.34-2.23,3.32-3.78,6.36-3.19c-0.27-0.22-0.62-0.42-1.1-0.59c-4.42-1-6.98,0.59-5.94,3.33
			C15.43,55.51,15.65,55.66,15.88,55.81z"/>
		<g>
			<path class="st0" d="M27.06,43.28c-7.52-1.86-12.45,8.76-9.78,7.65c1.49-0.61,2.43-0.28,3.26-0.14c1.34,0.12,2.65,0.29,2.8,0.09
				c1.93-2.52,4.06-2.69,4.17-2.9c0.1-0.21,0.25-0.38-0.26-2.04C26.86,44.69,28.15,43.61,27.06,43.28z M23.39,48.65
				c-0.79,0.04-1.16-0.18-1.65-0.77c-0.48-0.59-0.57-1.04-0.46-1.05c0.11-0.01,0.68,0.79,2.11,1.07c1.43,0.28,2.08,0.06,2.18,0.15
				C25.67,48.15,24.18,48.61,23.39,48.65z M24.31,47.41c-0.72,0.09-1.39-0.41-1.48-1.14c-0.09-0.72,0.41-1.39,1.14-1.48
				c0.72-0.09,1.39,0.41,1.48,1.14C25.55,46.65,25.04,47.32,24.31,47.41z"/>
			<path class="st0" d="M21.3,40.92c-4.65,1.56-6.16,5.6-6.61,10.2c-0.46,4.6,0.73,0.36,0.73,0.36s0.98-3.82,3.35-6.51
				c-0.09-0.09-0.16-0.24-0.22-0.47c-0.14-0.59,0.2-1.18,0.77-1.31c0.38-0.09,0.93-0.04,1.28,0.18c0.04-0.02,0.07-0.05,0.11-0.07
				c3.77-2.32,6.6-0.99,6.6-0.99S24.83,39.73,21.3,40.92z"/>
		</g>
		<path class="st0" d="M15.1,59.77c0.33,1.2,0.71,2.38,1.14,3.53c1.48-1.39,2.07-1.68,0.9-2.41C16.79,60.69,16.03,60.27,15.1,59.77z
			"/>
		<path class="st0" d="M16.8,64.18c-0.04,0.08-0.08,0.16-0.12,0.25c0.41,1.02,0.87,2.01,1.35,2.99c-0.25-2.39,0.08-3.4,0.65-3.29
			c0.41,0.08,0.34,0.49,0.37,0.4c0.45-1.14,1.75-1.75,1.75-1.75S17.99,62.07,16.8,64.18z"/>
		<path class="st0" d="M91.4,31.67c-3.63-1.75-4.71-1.78-5.89-1.63c0,0,2.82,3.48,5.85,7.79c1.31,1.86,3.4,3.46,5.05,4.55
			c-0.17-1.07-0.37-2.14-0.63-3.21c-0.33-1.39-0.72-2.74-1.17-4.06C93.6,33.52,92.49,32.2,91.4,31.67z"/>
		<path class="st0" d="M55.61,33.19c-8.09,1.91-17.62,0.42-24.35,8.27c-3.95,4.61-5.37,18.91-5.23,24.17
			c0.09,3.73-0.28,5.2,0.23,5.27c0.46,0.06,0.98-4.66,1.25-4.6c0.41,0.09,0.61,3.21,1.06,4.84c0.28,1.03,0.49,0.69,0.57-2.53
			c0.03-1.21-0.22-2.39,0.06-2.44c0.48-0.09,0.27,0,0.96,1.72c1.11,2.75,2.19,4.3,1.17,0.07c-0.78-3.21-0.63-3.53,0.59-1.4
			c2.7,4.75,2.68,3.23,1.67,0.57c-1.12-2.96-1.32-5.96-0.17-4.61c2.5,2.94,2.21,1.95-0.67-3.75c-2.66-5.25-3.19-17.08,4.6-19.78
			c4.89-1.7,9.79,1.87,12.21,0.7C53.16,37.94,55.86,33.13,55.61,33.19z"/>
		<path class="st0" d="M64.17,24.09c-9.76,6.1-4.78,10.88-13.7,16.82c-8.12,5.4-12.75,18.15-11.75,18.39
			c1,0.23,5.55-13.22,17.97-17.45c0.1-0.03,1.95-5.63,7.07-12.86c5.2-7.34,11.95-2.74,12.91-3.27
			C76.67,25.71,70.63,20.06,64.17,24.09z M53.38,40.74c-0.03,0.07,0.02,0.31-0.54,0.76c-0.56,0.45-1.26,0.66-1.61,0.77
			c-0.6,0.2-1.09,0.26-2.21,0.75C50.14,41.72,53.36,40.74,53.38,40.74z M47.24,45.43c0.95-0.98,2.8-2.26,3.35-2.4
			c0.49-0.12,1.43-0.2,1.48-0.2C52.02,42.92,49.7,44.15,47.24,45.43z M55.32,40.81c-1.09,1.39-2.59,1.75-2.58,1.74
			c0.01-0.06,0.41-0.58,0.61-0.79c0.2-0.21,0.34-0.87,1.22-1.41c0.51-0.31,1.5-1.1,1.5-1.03C56.06,39.44,55.45,40.6,55.32,40.81z
			 M56.39,38.22c-0.04,0.06-0.27,0.36-0.35,0.45c-0.08,0.09-0.37,0.38-0.54,0.5c-0.1,0.07-0.55,0.33-0.66,0.38
			c-0.18,0.09-1.74,0.79-1.77,0.81c0.08-0.14,1.29-1.55,2.09-2.02c0.86-0.51,1.71-2.27,1.85-2.41C57,36.02,56.66,37.84,56.39,38.22z
			"/>
		<path class="st0" d="M34.83,72.32c-0.72,0.05-0.11,3.24-0.49,3.33c-0.63,0.16-0.85-4.69-1.41-4.48c-0.91,0.35,0.59,4.8-0.52,4.97
			c-0.47,0.07-0.75-5.08-1.69-4.61c-0.58,0.29,1,4.96,0.1,5.06c-1.2,0.14-0.55-4.18-1.45-4.01c-0.8,0.15-0.43,4.86-1.23,4.47
			c-0.8-0.39-0.13-5-0.71-4.01c-0.26,0.45-0.7,2.78-0.8,3.15c-1.89-1.53-4.9-4.18-5.99-4.81c0.49,0.13,0.93,0.31,1.28,0.56
			c1.14,0.84,3.63,2.28,3.63,2.28s-2.04-3.43-3.21-4.32c-0.71-0.54-2.44-1.01-3.7-1.3c0.5,0.92,1.03,1.81,1.59,2.68
			c0,0,0.01,0,0.01,0c0,0,0,0.01,0,0.01c0.45,0.69,0.91,1.37,1.4,2.03c1.55,1.86,4.99,5.73,7.86,8.12c0.6,0.47,1.22,0.93,1.85,1.37
			c0.97,0.6,1.77,0.86,2.23,0.56C36.67,81.4,35.75,72.25,34.83,72.32z"/>
		<path class="st0" d="M25.27,62.22c-5.4-2.57-11.98-6.44-15.57-8.68c-2.29-1.43-2.02,0.58-0.76,1.41
			c3.66,2.4,10.45,6.32,16.05,9.03C25.07,63.41,25.18,62.75,25.27,62.22z"/>
		<g>
			<path class="st0" d="M44.09,66.68c1.28-5.11,3.78-8.75,6.1-11.04c3.74-3.68,10.08-7.7,19.44-7.99
				C87.5,47.1,92.47,61.54,91.65,68.95c1.64-2.94,2.92-6.09,3.81-9.37c-3.1-6.8-10.21-15.53-26.5-14.41
				c-9.65,0.66-16.28,5.44-20.36,9.66c-2.61,2.54-5.41,6.42-7.08,11.39C42.36,66.39,43.22,66.54,44.09,66.68z"/>
			<path class="st0" d="M43.43,77.68c-0.24-2.25-0.25-4.34-0.1-6.27c-0.99-0.24-1.97-0.48-2.93-0.72c-0.43,2.58-0.54,5.36-0.2,8.35
				c0.44,3.84,1.72,7.03,3.48,9.69c2.01,0.58,4.07,1.02,6.17,1.29C46.38,86.66,43.94,82.6,43.43,77.68z"/>
		</g>
		<g>
			<path class="st0" d="M69.48,41.15c-10.9,0.6-18.35,6.17-22.95,10.98c-3.01,2.96-6.24,7.54-8.1,13.41
				c0.69,0.17,1.38,0.33,2.09,0.48c1.81-6,5.17-10.32,7.82-12.95c4.21-4.19,11.94-9.7,22.5-9.96c14.6-0.36,21.83,8.65,25.05,14.78
				c0.46-2.05,0.78-4.15,0.93-6.27C93.48,46.01,86.1,40.23,69.48,41.15z"/>
			<path class="st0" d="M39.42,78.49c-0.3-2.89-0.23-5.56,0.12-8.02c-0.74-0.19-1.46-0.38-2.17-0.57c-0.53,3.03-0.67,6.32-0.26,9.85
				c0.32,2.71,0.99,5.15,1.93,7.33c1.07,0.45,2.16,0.86,3.27,1.23C40.85,85.57,39.82,82.33,39.42,78.49z"/>
		</g>
		<g>
			<path class="st0" d="M59.88,71.99c-0.05-0.45,0.14-0.89,0.3-1.19c-5.87-0.39-11.88-1.11-17.68-2.62
				c-2.75-0.71-5.35-1.51-7.8-2.36c0.29,0.71,0.58,1.58,0.78,2.23c2,0.7,4.09,1.36,6.27,1.98c6.06,1.71,12.31,2.72,18.81,3.3
				C60.07,72.96,59.94,72.57,59.88,71.99z"/>
		</g>
		<g>
			<path class="st0" d="M23.02,39.46c1.26-2.77,3.01-4.74,6.6-4.46c-0.34-0.22-0.78-0.4-1.35-0.53c-4.64-0.27-7.84,2.12-8.95,5.94
				C20.24,39.87,22.74,39.32,23.02,39.46z"/>
			<path class="st0" d="M30.79,37.76c-0.65-0.65,0.17-2.35-2.02-2.08c-1.66,0.18-3.82,1.39-4.79,3.79c1.44,0.27,2.5,0.59,3.4,0.85
				c0.18-0.29-0.22-0.64-0.42-0.82c-1.78-1.6-0.4-0.82,0.89-0.07c0.87,0.51,1.97,0.04,2.02,0.1c0.05,0.06-1.06,0.57-1.6,0.53
				c-0.42-0.04-0.57-0.01-0.81,0.27c0.59,0.17,1.13,0.32,2.09,0.52c0.51,0.11,0.73-0.43,1.16-0.85c0.6-0.58,1.1-0.84,1.1-0.92
				C31.79,38.9,31.82,38.78,30.79,37.76z M28.85,39.11c-0.53,0.13-1.06-0.2-1.19-0.73c-0.13-0.53,0.2-1.06,0.73-1.19
				c0.53-0.13,1.06,0.2,1.19,0.73C29.71,38.45,29.38,38.98,28.85,39.11z"/>
		</g>
		<path class="st0" d="M72.04,59.34c0,0,0.07,1.55,0.76,3.42c0.2,0.56,1.84,1.15,2.19,1.16c0.59,0.01,0.86-2.06,0.29-2.53
			C73.13,59.63,72.04,59.34,72.04,59.34z"/>
	</g>
	<g>
		<path class="st0" d="M185.08,61.09c0,2.34-1.36,4.26-3.79,4.26c-1.04,0-1.96-0.4-1.96-0.4v2.8l-2.44,0.52c-0.02,0,0-2.96,0-11.07
			h2.42v1.4c0.21-0.44,0.86-1.54,2.34-1.54C183.81,57.08,185.08,58.69,185.08,61.09z M181.02,59.1c-1.04,0-1.71,1-1.71,2.92v1
			c0.23,0.12,0.73,0.42,1.48,0.42c1.21,0,1.81-1.06,1.81-2.3C182.6,60,182.16,59.1,181.02,59.1z"/>
		<path class="st0" d="M190.82,63.46c0.9,0,1.5-0.27,2.09-0.71l1.06,1.69c-1.17,0.79-2.25,0.94-3.23,0.94
			c-2.75,0-4.46-1.61-4.46-4.15c0-2.5,1.73-4.17,4.03-4.17c2.11,0,3.8,1.42,3.8,3.82c0,0.48-0.06,0.94-0.06,0.94h-5.38
			C188.79,62.94,189.71,63.46,190.82,63.46z M188.73,60.12h3.29c-0.13-0.86-0.73-1.38-1.61-1.38
			C189.55,58.73,188.96,59.27,188.73,60.12z"/>
		<g>
			<path class="st0" d="M185.12,61.04c0,2.36-1.37,4.29-3.8,4.29c-1.04,0-1.97-0.41-1.97-0.41v2.82l-2.45,0.52
				c-0.02,0,0-2.97,0-11.12h2.43v1.41c0.21-0.44,0.87-1.54,2.36-1.54C183.84,57,185.12,58.62,185.12,61.04z M181.04,59.03
				c-1.04,0-1.72,1-1.72,2.94v1c0.23,0.12,0.73,0.43,1.49,0.43c1.22,0,1.82-1.06,1.82-2.32C182.63,59.94,182.18,59.03,181.04,59.03z
				"/>
			<path class="st0" d="M190.85,63.41c0.91,0,1.51-0.27,2.1-0.71l1.06,1.7c-1.18,0.79-2.26,0.95-3.24,0.95
				c-2.76,0-4.48-1.62-4.48-4.17c0-2.51,1.74-4.19,4.05-4.19c2.12,0,3.82,1.43,3.82,3.84c0,0.48-0.06,0.95-0.06,0.95h-5.41
				C188.8,62.89,189.73,63.41,190.85,63.41z M188.74,60.05h3.3c-0.14-0.87-0.73-1.39-1.62-1.39
				C189.57,58.66,188.97,59.2,188.74,60.05z"/>
			<path class="st0" d="M198.28,62.64v2.59h-2.45v-8.09h2.45v1.33c0.37-1.1,1.62-1.58,2.68-1.47c-0.06,0.23-0.29,2.05-0.33,2.26
				C198.84,59.2,198.28,60.46,198.28,62.64z"/>
			<path class="st0" d="M204.89,58.84c-0.43,0-0.83,0.15-0.83,0.54c0,1.12,4.05,0.66,4.05,3.38c0,1.58-1.39,2.61-3.3,2.61
				c-1.6,0-3.05-0.79-3.53-1.1l1.18-1.64c0.25,0.17,1.35,0.85,2.34,0.85c0.58,0,0.87-0.29,0.87-0.66c0-1.22-4-0.68-4-3.44
				c0-1.51,1.18-2.38,3.11-2.38c1.45,0,2.61,0.54,2.84,0.71l-0.37,1.8C206.9,59.26,205.78,58.84,204.89,58.84z"/>
			<path class="st0" d="M213.85,65.34c-2.41,0-4.34-1.51-4.34-4.15c0-2.66,1.93-4.19,4.34-4.19c2.41,0,4.33,1.53,4.33,4.21
				C218.18,63.84,216.27,65.34,213.85,65.34z M213.83,58.95c-1,0-1.85,0.83-1.85,2.24c0,1.43,0.85,2.2,1.85,2.2
				c1.04,0,1.87-0.77,1.87-2.18C215.71,59.78,214.88,58.95,213.83,58.95z"/>
			<path class="st0" d="M224.93,60.82c0-1.18-0.37-1.82-1.31-1.82c-0.98,0-1.54,0.93-1.54,2.43v3.78h-2.47v-8.09h2.47v1.33
				c0.19-0.33,0.95-1.47,2.41-1.47c1.97,0,2.95,1.16,2.95,3.65v4.58h-2.51V60.82z"/>
			<path class="st0" d="M234.73,60.82c0-1.18-0.37-1.82-1.31-1.82c-0.98,0-1.54,0.93-1.54,2.43v3.78h-2.47v-8.09h2.47v1.33
				c0.19-0.33,0.95-1.47,2.41-1.47c1.97,0,2.95,1.16,2.95,3.65v4.58h-2.51V60.82z"/>
			<path class="st0" d="M243.4,63.41c0.91,0,1.51-0.27,2.1-0.71l1.06,1.7c-1.18,0.79-2.26,0.95-3.24,0.95
				c-2.76,0-4.48-1.62-4.48-4.17c0-2.51,1.74-4.19,4.05-4.19c2.12,0,3.82,1.43,3.82,3.84c0,0.48-0.06,0.95-0.06,0.95h-5.41
				C241.35,62.89,242.28,63.41,243.4,63.41z M241.29,60.05h3.3c-0.14-0.87-0.73-1.39-1.62-1.39
				C242.12,58.66,241.52,59.2,241.29,60.05z"/>
			<path class="st0" d="M251.32,58.84c-0.43,0-0.83,0.15-0.83,0.54c0,1.12,4.05,0.66,4.05,3.38c0,1.58-1.39,2.61-3.3,2.61
				c-1.6,0-3.05-0.79-3.53-1.1l1.18-1.64c0.25,0.17,1.35,0.85,2.34,0.85c0.58,0,0.87-0.29,0.87-0.66c0-1.22-4-0.68-4-3.44
				c0-1.51,1.18-2.38,3.11-2.38c1.45,0,2.61,0.54,2.84,0.71l-0.37,1.8C253.32,59.26,252.2,58.84,251.32,58.84z"/>
		</g>
	</g>
</g>
<g>
	<path class="st0" d="M115.2,86.48v1.69h-1.88v-6.46h1.7c2.17,0,3.21,0.97,3.21,2.38C118.23,85.54,117.22,86.42,115.2,86.48z
		 M115.25,83.13h-0.04v1.95h0.02h0.02c0.65,0,1.14-0.35,1.14-0.99C116.38,83.5,115.9,83.13,115.25,83.13z"/>
	<path class="st0" d="M121.03,88.23c-1.33,0-2.41-0.81-2.41-2.25c0-1.44,1.07-2.26,2.41-2.26s2.4,0.82,2.4,2.27
		C123.42,87.42,122.36,88.23,121.03,88.23z M121.02,84.93c-0.44,0-0.8,0.38-0.8,1.05c0,0.68,0.37,1.04,0.8,1.04
		c0.45,0,0.8-0.36,0.8-1.03C121.82,85.31,121.46,84.93,121.02,84.93z"/>
	<path class="st0" d="M126.04,84.83c-0.21,0-0.34,0.08-0.34,0.21c0,0.47,2.17,0.3,2.17,1.75c0,0.95-0.79,1.46-1.88,1.46
		c-0.67,0-1.52-0.29-2.08-0.67l0.71-1c0.4,0.31,0.94,0.49,1.32,0.49c0.23,0,0.37-0.1,0.37-0.25c0-0.51-2.15-0.3-2.15-1.76
		c0-0.84,0.64-1.33,1.79-1.33c0.54,0,1.21,0.14,1.69,0.36l-0.23,1.07C126.95,84.97,126.38,84.83,126.04,84.83z"/>
	<path class="st0" d="M130.46,88.22c-1.21,0-1.68-0.5-1.68-1.76v-1.48h-0.84l0.3-1.18h0.54v-0.97l1.6-0.33v1.3h0.98v1.18h-0.98v1.5
		c0,0.43,0.09,0.56,0.41,0.56c0.34,0,0.57-0.04,0.71-0.06l-0.29,1.19C131.03,88.2,130.79,88.22,130.46,88.22z"/>
	<path class="st0" d="M133.75,86.26c0,0.45,0.16,0.72,0.55,0.72c0.57,0,0.64-0.78,0.64-1.24V83.8h1.59v4.37h-1.59v-0.76
		c0,0-0.35,0.84-1.31,0.84c-1.15,0-1.49-0.73-1.49-2.04V83.8h1.62V86.26z"/>
	<path class="st0" d="M137.58,81.94l1.6-0.32v6.55h-1.6V81.94z"/>
	<path class="st0" d="M142.6,87.03c0.43,0,0.73-0.07,1.15-0.38l0.65,1.06c-0.69,0.45-1.37,0.51-1.85,0.51c-1.53,0-2.5-0.88-2.5-2.26
		c0-1.35,0.97-2.26,2.25-2.26c1.19,0,2.14,0.78,2.14,2.12c0,0.3-0.04,0.56-0.04,0.56h-2.79C141.66,86.83,142.1,87.03,142.6,87.03z
		 M141.59,85.32h1.51c-0.08-0.36-0.32-0.62-0.75-0.62C141.93,84.71,141.68,84.98,141.59,85.32z"/>
	<path class="st0" d="M149.44,86.92l-0.31,1.25h-4.45l2.11-3.13h-1.72l0.32-1.24h3.97l-2.12,3.12H149.44z"/>
	<path class="st0" d="M152.08,86.11c0-1.28,0.73-2.37,2.06-2.37c0.5,0,0.93,0.16,0.93,0.16v-1.94l1.59-0.34c0.01,0,0,2.15,0,6.55
		h-1.58v-0.76c-0.03,0.1-0.31,0.84-1.22,0.84C152.8,88.25,152.08,87.43,152.08,86.11z M154.35,86.99c0.45,0,0.73-0.46,0.73-1.48
		v-0.46c-0.12-0.06-0.31-0.12-0.56-0.12c-0.56,0-0.82,0.51-0.82,1.12C153.69,86.55,153.88,86.99,154.35,86.99z"/>
	<path class="st0" d="M160.1,87.03c0.43,0,0.73-0.07,1.15-0.38l0.65,1.06c-0.69,0.45-1.37,0.51-1.85,0.51c-1.53,0-2.5-0.88-2.5-2.26
		c0-1.35,0.97-2.26,2.25-2.26c1.19,0,2.14,0.78,2.14,2.12c0,0.3-0.04,0.56-0.04,0.56h-2.79C159.16,86.83,159.6,87.03,160.1,87.03z
		 M157.97,81.82l1.82-0.33l0.62,1.64h-1.26L157.97,81.82z M159.08,85.32h1.51c-0.08-0.36-0.32-0.62-0.75-0.62
		C159.43,84.71,159.18,84.98,159.08,85.32z"/>
	<path class="st0" d="M164.52,84.83c-0.21,0-0.34,0.08-0.34,0.21c0,0.47,2.17,0.3,2.17,1.75c0,0.95-0.79,1.46-1.88,1.46
		c-0.67,0-1.52-0.29-2.08-0.67l0.71-1c0.4,0.31,0.94,0.49,1.32,0.49c0.23,0,0.37-0.1,0.37-0.25c0-0.51-2.15-0.3-2.15-1.76
		c0-0.84,0.64-1.33,1.79-1.33c0.54,0,1.21,0.14,1.69,0.36l-0.23,1.07C165.42,84.97,164.85,84.83,164.52,84.83z"/>
	<path class="st0" d="M171.53,83.72c1.28,0,2.05,0.67,2.21,0.8v3.65h-1.58v-0.78c-0.01,0.04-0.26,0.87-1.22,0.87
		c-1.06,0-1.78-0.82-1.78-2.15C169.16,84.73,170,83.72,171.53,83.72z M171.43,86.99c0.45,0,0.73-0.46,0.73-1.48v-0.46
		c-0.12-0.06-0.31-0.12-0.56-0.12c-0.56,0-0.82,0.51-0.82,1.12C170.77,86.55,170.96,86.99,171.43,86.99z"/>
	<path class="st0" d="M176.35,86.26c0,0.45,0.16,0.72,0.55,0.72c0.57,0,0.64-0.78,0.64-1.24V83.8h1.59v4.37h-1.59v-0.76
		c0,0-0.35,0.84-1.31,0.84c-1.15,0-1.49-0.73-1.49-2.04V83.8h1.62V86.26z"/>
	<path class="st0" d="M180.21,87.98v-4.19h1.59v4.11c0,1.32-0.51,1.84-2.16,1.79l-0.29-1.15C180.06,88.52,180.21,88.43,180.21,87.98
		z M181,83.06c-0.49,0-0.89-0.26-0.89-0.71c0-0.45,0.4-0.7,0.89-0.7c0.5,0,0.89,0.25,0.89,0.7C181.89,82.8,181.5,83.06,181,83.06z"
		/>
	<path class="st0" d="M185.1,88.23c-1.33,0-2.41-0.81-2.41-2.25c0-1.44,1.07-2.26,2.41-2.26s2.4,0.82,2.4,2.27
		C187.5,87.42,186.43,88.23,185.1,88.23z M185.09,84.93c-0.44,0-0.8,0.38-0.8,1.05c0,0.68,0.37,1.04,0.8,1.04
		c0.45,0,0.8-0.36,0.8-1.03C185.89,85.31,185.54,84.93,185.09,84.93z"/>
	<path class="st0" d="M189.92,86.26c0,0.45,0.16,0.72,0.55,0.72c0.57,0,0.64-0.78,0.64-1.24V83.8h1.59v4.37h-1.59v-0.76
		c0,0-0.35,0.84-1.31,0.84c-1.15,0-1.49-0.73-1.49-2.04V83.8h1.62V86.26z"/>
	<path class="st0" d="M196.65,85.18c-0.81-0.05-1.32,0.45-1.32,1.68v1.31h-1.58V83.8h1.58v0.76c0.01-0.04,0.19-0.55,0.77-0.76
		c0.2-0.07,0.44-0.1,0.73-0.08C196.83,83.72,196.63,85.17,196.65,85.18z"/>
	<path class="st0" d="M197.08,86.11c0-1.28,0.73-2.37,2.06-2.37c0.5,0,0.93,0.16,0.93,0.16v-1.94l1.59-0.34c0.01,0,0,2.15,0,6.55
		h-1.58v-0.76c-0.03,0.1-0.31,0.84-1.22,0.84C197.8,88.25,197.08,87.43,197.08,86.11z M199.35,86.99c0.45,0,0.73-0.46,0.73-1.48
		v-0.46c-0.12-0.06-0.31-0.12-0.56-0.12c-0.56,0-0.82,0.51-0.82,1.12C198.7,86.55,198.88,86.99,199.35,86.99z"/>
	<path class="st0" d="M202.67,84.55l0.63-2.85h1.94l-1.42,3.17L202.67,84.55z"/>
	<path class="st0" d="M208.8,86.32c0-0.75,0-1.33-0.55-1.33c-0.57,0-0.64,0.78-0.64,1.24v1.94h-1.59v-6.23l1.59-0.32v2.95
		c0,0,0.35-0.84,1.31-0.84c1.19,0,1.49,0.69,1.49,2.49v1.96h-1.62V86.32z"/>
	<path class="st0" d="M212.92,86.26c0,0.45,0.16,0.72,0.55,0.72c0.57,0,0.64-0.78,0.64-1.24V83.8h1.59v4.37h-1.59v-0.76
		c0,0-0.35,0.84-1.31,0.84c-1.15,0-1.49-0.73-1.49-2.04V83.8h1.62V86.26z"/>
	<path class="st0" d="M217.58,83.06c-0.49,0-0.89-0.26-0.89-0.71c0-0.45,0.4-0.7,0.89-0.7c0.5,0,0.89,0.25,0.89,0.7
		C218.47,82.8,218.08,83.06,217.58,83.06z M216.79,83.8h1.61v4.37h-1.61V83.8z"/>
	<path class="st0" d="M226.31,85.86c0,1.28-0.73,2.37-2.06,2.37c-0.5,0-0.93-0.16-0.93-0.16v1.4l-1.59,0.34c-0.01,0,0-1.61,0-6.01
		h1.58v0.77c0.03-0.1,0.31-0.86,1.22-0.86C225.59,83.71,226.31,84.53,226.31,85.86z M224.03,84.97c-0.45,0-0.73,0.46-0.73,1.48v0.46
		c0.12,0.06,0.31,0.12,0.56,0.12c0.56,0,0.82-0.51,0.82-1.13C224.69,85.41,224.5,84.97,224.03,84.97z"/>
	<path class="st0" d="M229.38,88.23c-1.33,0-2.41-0.81-2.41-2.25c0-1.44,1.07-2.26,2.41-2.26s2.4,0.82,2.4,2.27
		C231.78,87.42,230.72,88.23,229.38,88.23z M229.37,84.93c-0.44,0-0.8,0.38-0.8,1.05c0,0.68,0.37,1.04,0.8,1.04
		c0.45,0,0.8-0.36,0.8-1.03C230.17,85.31,229.82,84.93,229.37,84.93z"/>
	<path class="st0" d="M234.2,86.26c0,0.45,0.16,0.72,0.55,0.72c0.57,0,0.64-0.78,0.64-1.24V83.8h1.59v4.37h-1.59v-0.76
		c0,0-0.35,0.84-1.31,0.84c-1.15,0-1.49-0.73-1.49-2.04V83.8h1.62V86.26z"/>
	<path class="st0" d="M240.94,85.18c-0.81-0.05-1.32,0.45-1.32,1.68v1.31h-1.58V83.8h1.58v0.76c0.01-0.04,0.19-0.55,0.77-0.76
		c0.2-0.07,0.44-0.1,0.73-0.08C241.11,83.72,240.91,85.17,240.94,85.18z"/>
	<path class="st0" d="M246.32,87.03c0.43,0,0.73-0.07,1.15-0.38l0.65,1.06c-0.69,0.45-1.37,0.51-1.85,0.51
		c-1.53,0-2.5-0.88-2.5-2.26c0-1.35,0.97-2.26,2.25-2.26c1.19,0,2.14,0.78,2.14,2.12c0,0.3-0.04,0.56-0.04,0.56h-2.79
		C245.38,86.83,245.82,87.03,246.32,87.03z M245.31,85.32h1.51c-0.08-0.36-0.32-0.62-0.75-0.62
		C245.65,84.71,245.4,84.98,245.31,85.32z"/>
	<path class="st0" d="M251.76,85.71c0-0.45-0.16-0.72-0.55-0.72c-0.57,0-0.64,0.78-0.64,1.24v1.94h-1.59V83.8h1.59v0.76
		c0,0,0.35-0.84,1.31-0.84c0.94,0,1.49,0.52,1.49,1.84v2.61h-1.62V85.71z"/>
	<path class="st0" d="M256.32,88.22c-1.21,0-1.68-0.5-1.68-1.76v-1.48h-0.84l0.3-1.18h0.54v-0.97l1.6-0.33v1.3h0.98v1.18h-0.98v1.5
		c0,0.43,0.09,0.56,0.41,0.56c0.34,0,0.57-0.04,0.71-0.06l-0.29,1.19C256.88,88.2,256.64,88.22,256.32,88.22z"/>
	<path class="st0" d="M260.02,83.72c1.28,0,2.05,0.67,2.21,0.8v3.65h-1.58v-0.78c-0.01,0.04-0.26,0.87-1.22,0.87
		c-1.06,0-1.78-0.82-1.78-2.15C257.64,84.73,258.49,83.72,260.02,83.72z M259.91,86.99c0.45,0,0.73-0.46,0.73-1.48v-0.46
		c-0.12-0.06-0.31-0.12-0.56-0.12c-0.56,0-0.82,0.51-0.82,1.12C259.26,86.55,259.44,86.99,259.91,86.99z"/>
	<path class="st0" d="M268.23,85.71c0-0.45-0.04-0.72-0.44-0.72c-0.4,0-0.44,0.41-0.44,1.24v1.94h-1.62v-2.46
		c0-0.45-0.04-0.72-0.44-0.72c-0.4,0-0.44,0.41-0.44,1.24v1.94h-1.59V83.8h1.59v0.76c0.01-0.05,0.09-0.42,0.42-0.65
		c0.17-0.12,0.4-0.2,0.7-0.2c0.66,0,1.06,0.26,1.25,0.88c0.15-0.32,0.48-0.88,1.24-0.88c0.94,0,1.38,0.52,1.38,1.84v2.61h-1.62
		V85.71z"/>
	<path class="st0" d="M273.22,87.03c0.43,0,0.73-0.07,1.15-0.38l0.65,1.06c-0.69,0.45-1.37,0.51-1.85,0.51
		c-1.53,0-2.5-0.88-2.5-2.26c0-1.35,0.97-2.26,2.25-2.26c1.19,0,2.14,0.78,2.14,2.12c0,0.3-0.04,0.56-0.04,0.56h-2.79
		C272.28,86.83,272.72,87.03,273.22,87.03z M272.21,85.32h1.51c-0.08-0.36-0.32-0.62-0.75-0.62
		C272.55,84.71,272.3,84.98,272.21,85.32z"/>
	<path class="st0" d="M278.79,85.18c-0.81-0.05-1.32,0.45-1.32,1.68v1.31h-1.58V83.8h1.58v0.76c0.01-0.04,0.19-0.55,0.77-0.76
		c0.2-0.07,0.44-0.1,0.73-0.08C278.96,83.72,278.77,85.17,278.79,85.18z"/>
	<path class="st0" d="M281.22,83.8h1.73l0.83,2.03l0.83-2.03h1.74L284,88.22h-0.43L281.22,83.8z"/>
	<path class="st0" d="M288.9,88.23c-1.33,0-2.41-0.81-2.41-2.25c0-1.44,1.07-2.26,2.41-2.26s2.4,0.82,2.4,2.27
		C291.3,87.42,290.24,88.23,288.9,88.23z M288.89,84.93c-0.44,0-0.8,0.38-0.8,1.05c0,0.68,0.37,1.04,0.8,1.04
		c0.45,0,0.8-0.36,0.8-1.03C289.69,85.31,289.34,84.93,288.89,84.93z"/>
	<path class="st0" d="M294,88.22c-1.21,0-1.68-0.5-1.68-1.76v-1.48h-0.84l0.3-1.18h0.54v-0.97l1.6-0.33v1.3h0.98v1.18h-0.98v1.5
		c0,0.43,0.09,0.56,0.41,0.56c0.34,0,0.57-0.04,0.71-0.06l-0.29,1.19C294.56,88.2,294.32,88.22,294,88.22z"/>
	<path class="st0" d="M298.63,85.18c-0.81-0.05-1.32,0.45-1.32,1.68v1.31h-1.58V83.8h1.58v0.76c0.01-0.04,0.19-0.55,0.77-0.76
		c0.2-0.07,0.44-0.1,0.73-0.08C298.81,83.72,298.61,85.17,298.63,85.18z"/>
	<path class="st0" d="M301.62,87.03c0.43,0,0.73-0.07,1.15-0.38l0.65,1.06c-0.69,0.45-1.37,0.51-1.85,0.51
		c-1.53,0-2.5-0.88-2.5-2.26c0-1.35,0.97-2.26,2.25-2.26c1.19,0,2.14,0.78,2.14,2.12c0,0.3-0.04,0.56-0.04,0.56h-2.79
		C300.68,86.83,301.12,87.03,301.62,87.03z M300.61,85.32h1.51c-0.08-0.36-0.32-0.62-0.75-0.62
		C300.96,84.71,300.71,84.98,300.61,85.32z"/>
	<path class="st0" d="M311.13,85.86c0,1.28-0.73,2.37-2.06,2.37c-0.5,0-0.93-0.16-0.93-0.16v1.4l-1.59,0.34c-0.01,0,0-1.61,0-6.01
		h1.58v0.77c0.03-0.1,0.31-0.86,1.22-0.86C310.41,83.71,311.13,84.53,311.13,85.86z M308.86,84.97c-0.45,0-0.73,0.46-0.73,1.48v0.46
		c0.12,0.06,0.31,0.12,0.56,0.12c0.56,0,0.82-0.51,0.82-1.13C309.52,85.41,309.33,84.97,308.86,84.97z"/>
	<path class="st0" d="M314.18,83.72c1.28,0,2.05,0.67,2.21,0.8v3.65h-1.58v-0.78c-0.01,0.04-0.26,0.87-1.22,0.87
		c-1.06,0-1.78-0.82-1.78-2.15C311.8,84.73,312.64,83.72,314.18,83.72z M314.07,86.99c0.45,0,0.73-0.46,0.73-1.48v-0.46
		c-0.12-0.06-0.31-0.12-0.56-0.12c-0.56,0-0.82,0.51-0.82,1.12C313.42,86.55,313.6,86.99,314.07,86.99z"/>
	<path class="st0" d="M320.34,85.18c-0.81-0.05-1.32,0.45-1.32,1.68v1.31h-1.58V83.8h1.58v0.76c0.01-0.04,0.19-0.55,0.77-0.76
		c0.2-0.07,0.44-0.1,0.73-0.08C320.52,83.72,320.32,85.17,320.34,85.18z"/>
	<path class="st0" d="M320.77,85.97c0-1.4,0.91-2.26,2.37-2.26c0.5,0,1.07,0.08,1.35,0.21l-0.07,1.2c-0.27-0.14-0.69-0.23-1.02-0.23
		c-0.64,0-1.05,0.43-1.05,1.06c0,0.62,0.42,1.05,1.03,1.05c0.32,0,0.71-0.14,0.92-0.31l0.58,1.04c-0.5,0.34-1.08,0.52-1.73,0.52
		C321.65,88.25,320.77,87.41,320.77,85.97z"/>
	<path class="st0" d="M327.57,88.23c-1.33,0-2.41-0.81-2.41-2.25c0-1.44,1.07-2.26,2.41-2.26s2.4,0.82,2.4,2.27
		C329.96,87.42,328.9,88.23,327.57,88.23z M327.55,84.93c-0.44,0-0.8,0.38-0.8,1.05c0,0.68,0.37,1.04,0.8,1.04
		c0.45,0,0.8-0.36,0.8-1.03C328.36,85.31,328,84.93,327.55,84.93z"/>
	<path class="st0" d="M332.38,86.26c0,0.45,0.16,0.72,0.55,0.72c0.57,0,0.64-0.78,0.64-1.24V83.8h1.59v4.37h-1.59v-0.76
		c0,0-0.35,0.84-1.31,0.84c-1.15,0-1.49-0.73-1.49-2.04V83.8h1.62V86.26z"/>
	<path class="st0" d="M339.12,85.18c-0.81-0.05-1.32,0.45-1.32,1.68v1.31h-1.58V83.8h1.58v0.76c0.01-0.04,0.19-0.55,0.77-0.76
		c0.2-0.07,0.44-0.1,0.73-0.08C339.29,83.72,339.1,85.17,339.12,85.18z"/>
	<path class="st0" d="M341.53,84.83c-0.21,0-0.34,0.08-0.34,0.21c0,0.47,2.17,0.3,2.17,1.75c0,0.95-0.79,1.46-1.88,1.46
		c-0.67,0-1.52-0.29-2.08-0.67l0.71-1c0.4,0.31,0.94,0.49,1.32,0.49c0.23,0,0.37-0.1,0.37-0.25c0-0.51-2.15-0.3-2.15-1.76
		c0-0.84,0.64-1.33,1.79-1.33c0.54,0,1.21,0.14,1.69,0.36l-0.23,1.07C342.43,84.97,341.86,84.83,341.53,84.83z"/>
	<path class="st0" d="M346.17,86.11c0-1.28,0.73-2.37,2.06-2.37c0.5,0,0.93,0.16,0.93,0.16v-1.94l1.59-0.34c0.01,0,0,2.15,0,6.55
		h-1.58v-0.76c-0.03,0.1-0.31,0.84-1.22,0.84C346.89,88.25,346.17,87.43,346.17,86.11z M348.44,86.99c0.45,0,0.73-0.46,0.73-1.48
		v-0.46c-0.12-0.06-0.31-0.12-0.56-0.12c-0.56,0-0.82,0.51-0.82,1.12C347.78,86.55,347.97,86.99,348.44,86.99z"/>
	<path class="st0" d="M354.19,87.03c0.43,0,0.73-0.07,1.15-0.38l0.65,1.06c-0.69,0.45-1.37,0.51-1.85,0.51
		c-1.53,0-2.5-0.88-2.5-2.26c0-1.35,0.97-2.26,2.25-2.26c1.19,0,2.14,0.78,2.14,2.12c0,0.3-0.04,0.56-0.04,0.56h-2.79
		C353.25,86.83,353.69,87.03,354.19,87.03z M353.17,85.32h1.51c-0.08-0.36-0.32-0.62-0.75-0.62
		C353.52,84.71,353.27,84.98,353.17,85.32z"/>
	<path class="st0" d="M112.98,98.48c0-1.4,0.91-2.26,2.37-2.26c0.5,0,1.07,0.08,1.35,0.21l-0.07,1.2c-0.27-0.13-0.69-0.23-1.02-0.23
		c-0.64,0-1.05,0.43-1.05,1.06c0,0.62,0.42,1.05,1.03,1.05c0.32,0,0.71-0.13,0.92-0.31l0.58,1.04c-0.5,0.34-1.08,0.52-1.73,0.52
		C113.86,100.76,112.98,99.92,112.98,98.48z"/>
	<path class="st0" d="M119.79,96.23c1.28,0,2.05,0.67,2.21,0.8v3.65h-1.58V99.9c-0.01,0.04-0.26,0.86-1.22,0.86
		c-1.06,0-1.78-0.82-1.78-2.15C117.42,97.24,118.26,96.23,119.79,96.23z M119.69,99.5c0.45,0,0.73-0.46,0.73-1.48v-0.46
		c-0.12-0.06-0.31-0.12-0.56-0.12c-0.56,0-0.82,0.51-0.82,1.13C119.03,99.07,119.22,99.5,119.69,99.5z"/>
	<path class="st0" d="M125.96,97.69c-0.81-0.05-1.32,0.45-1.32,1.68v1.31h-1.58v-4.37h1.58v0.76c0.01-0.04,0.19-0.55,0.77-0.76
		c0.2-0.07,0.44-0.1,0.73-0.08C126.13,96.23,125.94,97.68,125.96,97.69z"/>
	<path class="st0" d="M129.62,97.69c-0.81-0.05-1.32,0.45-1.32,1.68v1.31h-1.58v-4.37h1.58v0.76c0.01-0.04,0.19-0.55,0.77-0.76
		c0.2-0.07,0.44-0.1,0.73-0.08C129.79,96.23,129.6,97.68,129.62,97.69z"/>
	<path class="st0" d="M131.2,95.57c-0.49,0-0.89-0.26-0.89-0.71c0-0.45,0.4-0.7,0.89-0.7c0.5,0,0.89,0.25,0.89,0.7
		C132.09,95.31,131.7,95.57,131.2,95.57z M130.41,96.31h1.61v4.37h-1.61V96.31z"/>
	<path class="st0" d="M135.46,99.55c0.43,0,0.73-0.07,1.15-0.38l0.65,1.06c-0.69,0.45-1.37,0.51-1.85,0.51
		c-1.53,0-2.5-0.88-2.5-2.26c0-1.36,0.97-2.26,2.25-2.26c1.19,0,2.14,0.78,2.14,2.12c0,0.3-0.04,0.56-0.04,0.56h-2.79
		C134.52,99.35,134.96,99.55,135.46,99.55z M133.33,94.33l1.82-0.33l0.62,1.64h-1.26L133.33,94.33z M134.45,97.84h1.51
		c-0.08-0.35-0.32-0.62-0.75-0.62C134.79,97.22,134.54,97.49,134.45,97.84z"/>
	<path class="st0" d="M141.02,97.69c-0.81-0.05-1.32,0.45-1.32,1.68v1.31h-1.58v-4.37h1.58v0.76c0.01-0.04,0.19-0.55,0.77-0.76
		c0.2-0.07,0.44-0.1,0.73-0.08C141.2,96.23,141,97.68,141.02,97.69z"/>
	<path class="st0" d="M144.02,99.55c0.43,0,0.73-0.07,1.15-0.38l0.65,1.06c-0.69,0.45-1.37,0.51-1.85,0.51
		c-1.53,0-2.5-0.88-2.5-2.26c0-1.36,0.97-2.26,2.25-2.26c1.19,0,2.14,0.78,2.14,2.12c0,0.3-0.04,0.56-0.04,0.56h-2.79
		C143.08,99.35,143.52,99.55,144.02,99.55z M143.01,97.84h1.51c-0.08-0.35-0.32-0.62-0.75-0.62
		C143.35,97.22,143.1,97.49,143.01,97.84z"/>
	<path class="st0" d="M151.31,99.55c0.43,0,0.73-0.07,1.15-0.38l0.65,1.06c-0.69,0.45-1.37,0.51-1.85,0.51
		c-1.53,0-2.5-0.88-2.5-2.26c0-1.36,0.97-2.26,2.25-2.26c1.19,0,2.14,0.78,2.14,2.12c0,0.3-0.04,0.56-0.04,0.56h-2.79
		C150.37,99.35,150.81,99.55,151.31,99.55z M150.3,97.84h1.51c-0.08-0.35-0.32-0.62-0.75-0.62
		C150.64,97.22,150.39,97.49,150.3,97.84z"/>
	<path class="st0" d="M156.75,98.22c0-0.45-0.16-0.72-0.55-0.72c-0.57,0-0.64,0.78-0.64,1.24v1.94h-1.59v-4.37h1.59v0.76
		c0,0,0.35-0.85,1.31-0.85c0.94,0,1.49,0.52,1.49,1.85v2.61h-1.62V98.22z"/>
	<path class="st0" d="M164.51,100.68h-1.85v-5.04h-1.52l0.33-1.42h4.39v1.42h-1.34V100.68z"/>
	<path class="st0" d="M166.69,94.22h1.88v6.46h-1.88V94.22z"/>
	<path class="st0" d="M170.57,100.73c-0.59,0-1.06-0.32-1.06-0.88c0-0.57,0.47-0.88,1.06-0.88c0.62,0,1.09,0.3,1.09,0.89
		C171.66,100.41,171.18,100.73,170.57,100.73z"/>
</g>
</svg>
