<?xml version="1.0" standalone="no"?>
<!DOCTYPE svg PUBLIC "-//W3C//DTD SVG 20010904//EN"
 "http://www.w3.org/TR/2001/REC-SVG-20010904/DTD/svg10.dtd">
<svg version="1.0" xmlns="http://www.w3.org/2000/svg"
 width="700.000000pt" height="700.000000pt" viewBox="0 0 700.000000 700.000000"
 preserveAspectRatio="xMidYMid meet">
<metadata>
Created by potrace 1.14, written by Peter Selinger 2001-2017
</metadata>
<g transform="translate(0.000000,700.000000) scale(0.100000,-0.100000)"
fill="#000000" stroke="none">
<path d="M3000 5817 c-3 -3 -39 -8 -82 -11 -158 -12 -316 -47 -453 -99 -70
-27 -221 -110 -307 -169 -117 -79 -293 -254 -378 -376 -75 -106 -160 -268
-192 -362 -11 -36 -28 -70 -37 -76 -8 -7 -40 -17 -71 -24 -412 -91 -720 -395
-804 -794 -20 -95 -21 -325 -1 -398 8 -32 17 -72 20 -89 10 -56 103 -235 165
-317 71 -94 148 -167 239 -226 109 -70 246 -128 334 -142 124 -19 170 -22 372
-23 309 -3 603 -7 649 -9 36 -2 38 -4 33 -29 -44 -237 -54 -293 -53 -294 0 -1
108 -3 238 -5 150 -2 245 -7 258 -14 18 -10 20 -18 15 -58 -3 -26 -7 -54 -9
-62 -3 -8 -7 -37 -11 -65 -3 -27 -8 -57 -10 -65 -2 -8 -6 -37 -10 -65 -3 -27
-10 -75 -15 -105 -5 -30 -12 -75 -15 -100 -3 -25 -8 -56 -10 -70 -3 -14 -7
-38 -9 -55 -21 -144 -25 -172 -36 -235 -5 -30 -11 -75 -14 -100 -4 -25 -11
-72 -16 -105 -5 -33 -10 -66 -10 -73 0 -6 28 18 63 55 34 37 94 101 133 142
38 42 95 103 125 136 29 33 63 69 74 80 11 11 87 94 169 185 83 91 173 190
202 220 28 30 64 69 79 85 15 17 66 72 114 124 47 52 97 106 109 120 13 14 70
76 127 136 56 61 125 134 152 164 l50 53 699 4 c384 1 730 6 767 9 99 9 182
38 280 97 147 91 260 214 330 359 67 143 88 251 81 419 -7 152 -12 175 -65
283 -114 229 -282 374 -510 440 -54 16 -157 33 -172 29 -23 -7 -52 30 -102
129 -30 61 -76 143 -102 182 -49 73 -187 219 -256 272 -116 87 -255 154 -394
190 -129 34 -157 37 -312 39 l-135 2 -44 55 c-92 115 -205 221 -347 327 -28
21 -118 74 -185 109 -133 71 -277 118 -420 139 -19 2 -56 9 -83 14 -59 12
-200 24 -207 17z m906 -1860 c4 -3 -23 -91 -60 -194 -230 -643 -270 -754 -292
-811 -13 -34 -24 -64 -24 -67 0 -6 427 12 494 21 37 5 39 4 26 -13 -34 -44
-161 -184 -299 -332 -18 -20 -68 -74 -110 -120 -42 -46 -89 -98 -106 -115 -16
-18 -70 -77 -120 -131 -49 -55 -117 -128 -151 -164 -136 -147 -154 -166 -154
-173 0 -5 -4 -8 -8 -8 -8 0 -2 56 21 200 3 19 9 58 12 85 3 28 10 75 15 105 6
30 12 75 15 100 3 25 12 87 21 139 8 52 12 96 9 99 -3 3 -112 7 -243 9 -130 2
-242 6 -249 8 -7 2 -10 14 -8 27 3 13 7 34 10 48 2 14 6 36 9 50 9 55 48 259
61 320 18 83 46 226 52 265 2 17 13 73 24 126 11 52 21 106 24 120 3 13 7 35
10 49 2 14 7 41 10 60 3 19 8 42 10 50 2 8 7 29 9 45 3 17 12 62 21 100 8 39
15 73 15 77 0 4 6 13 14 20 11 12 93 14 475 13 253 -1 464 -4 467 -8z"/>
</g>
</svg>
