<svg xmlns="http://www.w3.org/2000/svg" xmlns:xlink="http://www.w3.org/1999/xlink" viewBox="0 0 1454.84 1578.97"><defs><clipPath id="a" transform="translate(340.79 396.35)"><rect x="23.2" y="14.33" width="224" height="401.67" fill="none"/></clipPath><mask id="b" x="0" y="0" width="1454.84" height="1578.97" maskUnits="userSpaceOnUse"><g transform="translate(340.79 396.35)"><rect x="22" y="13" width="225" height="406" fill="#d9d9d9"/></g></mask><mask id="c" x="482.15" y="103.38" width="543.39" height="1468.3" maskUnits="userSpaceOnUse"><g transform="translate(340.79 396.35)"><path d="M313.23-251.06l-17.91-1-3.61.23-5.09-.18-9.1,1.09-7.32,1.64-8,1.9-2.2.83L254.9-244l-7.4,4.27-5.12,6.92-1,2.67-.3,12.1,2.49,6.63c1.12,2.59,2.1,5.24,3,7.74l.68,1.29,7.62,12.84,7.8,12.69,3.54,5.74,4.08,7.42L275-155.3l1.81,7.23,1.72,6.19-.77,4.45-.92,6.38-2.47,4.28-3.57,5-2,1.16-3,1.38-4,2.4-3.17,1.53-4.54.83-3,.49-4.69,1.21-9.09,2-6.64,1.7-8.62,2-6.63,2.6-7.8,2-2.12.32-5.92,1.35-8.15,1.06-6.67.57-1.74.26-1.1.41-6.87,1.39-7.69,2.92-6.59,4.62-3,3.17L155-83.32l-5.29,5.51-.4,1L143.85-68l-.37,3.4-1.11,8.08,2.29,13,1.74,4.64,4.94,10.35,2.37,3.91,5.4,7.32L162-13.18l1.68,2,6.72,9.67L175.85,6l2.25,4.53,5.33,10.85.53,6.56.09,5.27-.59,1.52-3.3,8.59-.58,1.53-4.78,9.07-5.15,7.9-4.85,8.37-1,2.57-4.07,10.6.12,7.61.25,4.55,1.74,6.76,1.61,6.8.93,3.4,3.43,10.59,3.22,5.39,6.7,8.21,1.93,2.61,1.58,1.68,8.08,6.47,3.36,2.56,6.3,5.26,7.46,5.65,2.42,1.93,5.89,4.53,3.68,3.25,2.15,2,7.22,6.55,9.62,9.8.25,1.78,2.18,10.83-3.3,4.92-1.87,4.86-2.78,3.26-3.36,6-1.85,1.77L222,229.5l-.26.66-1.34,1.65L216,236.73l-1.31,1.88-3.65,6.44-1.31,3.43-.85,12,.47,1.2,7.32,14.26,9.14,8.27,4.63,3.21,5.32,4.17,7.23,4.11,3.1,2,10.68,5.48,9.25,4.64,11.43,5.68,5.72,3.13,5.18,3,1.11.48,9.16,6.71,6.48,7.56,2.14,2.37,1.37,1.92-.73,1.91-.6,9.2-2.29,2.9-3.21,6.52-1.53,2.45L296.51,369l-.7,1.81-2.53,9-.1,4.52.43,7.74,1.68,12.73,1.68,6.62,1.64,7,1.28,2.77,7.61,13.49,8.45,11,5.66,6.66,2.91,4,8.57,10.68,3.23,3.5,5,8.05,7.31,9.36,1.11,1.7,2.13,2.7,6.35,8.51,8.94,9.73,2.83,2.1,6.75,6.24,6.66,3.75,3.49,2.83,9.45,5.95,2.95,2.38,10.52,7.74,7,5.57,6.37,4.51,13.23,10.14,9,9.3,6.67,9.21,1.45,2.62L458,594.92l1,6.45.78,6.23-1.05,10.67-1.8,4.67-2.09,5.44L452.67,632l-3.5,6.06-1.1,2.86-3.36,7.23-1,2.57-7,18.23-.22,4.24-.93,7.61,3.29,7.63,4.94,7.91,3.4,3.68,2.42,1.93,7.12,6.51,7.83,6.81,4.18,3.79,6.36,7,7.47,11.1,4.33,13.76-.11,8.84.09,2.82.91,3.73.94,9.18,3.11,4.12,2.21,1,7.58,5.93,4.12.88,6.6,3.61,4.12,1.77,6.65,2.85,4.64,2,12,7.17,4,2.72,9,7,9.59,9.57,8.83,10.91,5.24,14.14,1,11.54-.64,4.72-2.31,6-1.77,4.58-4,4.71-1,2.58-6.43,3.9-4.36.35-3,2.14-3.58-.76-5.12.8-7.36-1.6-1.95.49-3.44.41-3.85,2.69-4.58-.3-3.28,1.82-3.55.69-.42,8.72-2.08,1.77-.26.67,3.77,2.4.71.3,10.29,3.75.7.3L537,909.6l5.24,1,3.85-.23,8,1.53,1.31.56,9.18,4.83,2.43,1.6L580.39,929l3.64,3.34,9.24,8.64,2.87,3.23,10.21,12.5,3.94,5.92,8.78,11.67,4.27,13.62-.44,7.25-.72,4.92-4.57,9.16-3.92,10.21,8.08,11,9.54,8.76,10,7,2.92,1.25,7.29,5.14,5.61,3.74,4.33,3.08,10.06,8.33,6.4,13.86-2.21,11-.55,1.43-4.82,8.27-8.28,8.12-3.65,3.1-7.22,4.12-6.46,3.68-7,2.75-.22.58-6.25,3.43-6.1,1.82-.55,1.44-2.35,1.21-4.11,3.68-2.58,1.23,2.34,7.34,8.46,8.53.95,1.18,6.55,2.82,5.44,2.33,9.14,2.48,1.1.48,8.67,2.17,2.62,1.12,7.71,2.53,3.43,1.48,7.27,2.45L683,1174l.44-1.15-3.62-1.56-7.37-2.5-3.33-1.42-7.84-2.49-2.62-1.12-8.87-2.26-1.21-.51L638,1158l-4.13-1.78-6.44-2.77-.71-.3-8.46-8.53-1.89-6.37,2.34-1.21,4.08-3.59,2.52-1.36.55-1.43,6-1.87,6.11-3.38,1.1-.42.22-.57,6.59-2.51,7.32-4.08,6.63-3.82,3.8-3.15,2.58-2.45,6-6.1,5.67-9.58,2.26-11.37L674,1066.82l-.7-.31-9.7-8-4.63-3.21-5.4-3.66-7.3-5.13-2.92-1.26L633.08,1038l-8.61-8.14-7.69-10.53,3.89-10.11,4.57-9.16.37-1,.59-4,.32-7.87-4.26-13.95-1-1.42-7.94-9.86-4-5.83-10.24-12.73-2.9-3.14L592.8,937,587,931.48l-3.68-3.25L569.72,918,567,916.8l-9.14-4.93-1.51-.65-8.62-1.69-3.85.23-5.37-1-7.16,2.15L520,906.85l-2.9-1.92,1.7-1.38.45-8.48,3.55-.7,3.14-1.76,4.62.2,3.88-2.78,3.13-.21,1.95-.49,7.43,1.74,5-.94,3.25.72,3.18-2.18,4.33-.26,7-4.44.84-2.2,4.22-5.19,1.76-4.58,2.31-6,.72-4.92-.8-12.57-6-15L564.31,823l-8.46-8.52-1.55-1.45-9.08-6.9-3.9-2.68-12.1-7.31-4.73-2-6.63-3.51-4.25-1.16L507,785.86l-4-.84-7.78-6-2.12-.91-2.88-3.79-.94-8.86-.88-3.82-.13-2.72.1-9.41-4.5-13.94-7.47-11.1-6.56-7.05-4.34-4-7.83-6.8-7-6.47-2.33-1.88-3.53-3.63-4.65-7.45L437,679.61l.84-7.09.4-4.39L445,650.38l1-2.48,2.86-7.44,1.1-2.86,3.5-6.06L455.6,628l2.17-5.63,1.83-4.78,1.24-11.47-.74-6.32-1.1-6.59-4.52-12.06-1.42-2.72-6.74-9.34-10.07-8L423,551l-6.3-4.37L409.6,541l-10.48-7.84-2.86-2.33-9.45-6-3.52-2.74-6.72-3.89-6.59-6-2.9-2.25-3.82-4.08-5-5.37L352,492,350,489.48l-1.11-1.7-7.31-9.37-5-8-3.29-3.64-8.57-10.68-2.91-4-5.76-6.7-8.36-10.93-7.47-13.22-1.25-2.86-1.61-6.81-1.65-6.38-.47-4L294,392.53l-.43-7.74v-4.57l3-9.84,3.81-7.48,1-2.58,3.1-6.23,2.44-3.29.56-9.09.84-2.2-1.5-2.2-2.24-2.41-6.65-7.74-9.15-6.72-1.31-.56-5.25-3.14L277,313.83l-10.62-5.34-12.7-6.35-8.4-4.38-3.43-1.47-7.12-4.06-5.26-4-4.56-3.08-9.18-8.49-7.21-14.22-.47-1.2.29-.77.85-10.75,1.21-3.15,3.68-6.53.7-1.82,4.39-5,1.86-2.1,4.68-7,2-2.24,3.19-5.86,3.09-3.45,1.76-4.58,3.41-5.21-2.1-11-.29-2-.8-.34-9.12-9.26-7.55-10.58-3.68-3.25-6-4.48-2.39-2-7.36-5.61L193.43,149l-3.36-2.56L182.2,140l-1.52-1.54-1.94-2.61-6.63-8.07L169,122.47l-3.41-10.36-1-3.31-1.57-6.9-1.78-6.66-.18-4.41,0-7.57,3.67-9.54,1-2.58,4.82-8.27,5.58-8.72,4.34-8.25.63-1.62,3.34-8.69.66-1.72-.23-5.21-.61-7.26L179,10.59l-2.25-4.53L171-1.76l-6.56-9.49-1.68-2.06-2.91-4-5.4-7.32-2.21-3.72-4.94-10.35-1.77-4.55-2.12-12.8,1.34-7.77.46-3,5.15-7.91.44-1.14,5.07-5.27,2.74-3.16,3-2.94,6.59-4.62,7-2.75,6.9-1.48,1.07-.32,1.74-.26,6.67-.58,8.29-1.11,5.82-1.39,2.08-.22,7.9-1.94,6.67-2.69,1.26-.24,7.36-1.73,7.8-2,7.93-1.7,4.65-1.12,3.28-.59,4.58-.92,3.17-1.53,3.88-2.45,3.09-1.34,2.86-2.55,3.43-5,2.74-4.38,1.82-11.45-1.76-6.09-1.86-7.69-4.79-8.29-4.08-7.42-3.64-5.79-6.46-10.67-9.81-16-6.08-14.72.06-2,.23-9.46.88-2.29,5.12-6.92.73-.35,6.32-3.63,4.82-2.48,2.2-.84,7.68-2.26,8.41-1.72,7.6-.85h5.16l3.54,0,8.95.52,17.61.89,8.74-.14,3.85-.24,5.42-1.89,6.92-4.59.26-.66,4.22-8.53.55-1.44,1-14.47L351.8-291l-1.1-.47.15,9.07-.15,2.83-.87,11.41-.44,1.15-4.47,9.19-6.65,4.48-5,1.84-2.15.41-9,.47-5.53-.26Z" fill="#fff"/></g></mask><mask id="d" x="669.83" y="131.1" width="418.57" height="1294.49" maskUnits="userSpaceOnUse"><g transform="translate(340.79 396.35)"><path d="M413.09-252l-1.58,7.78-.19,3.25-2.06,10.23-3,11.83-4,10.3-4.79,9.73-5,7.52-1.58,1.66L387-183.8l-3.18,3.08-1.91,5-2.72,4.94,1.14,10.16.1,2.49.83,1.81,7.21,14.21,6.89,12.63,1.06,2.12L401.36-113l.54,12L399.45-91l-6,9.3L385-74.15,374.8-65.3l-6.69,9.47L363.18-46l-3.92,10.21-4,10.4-1,2.57-2.38,8.32L348.27-3,344,6.3,339,16l-3.67,9.55-.22.57-1.94,5.06-1.63,6.08-1.45,10.49,2.41,13.27,8.83,15.8,8.26,15.44.57,11.36-1.3,7.34-1.43,3.72.49,9.11.29,3.23,1.72,6.19,2,7.55,4.4,13.89,2.71,6.39,3,8.17,4.05,6.85,5.68,9.34,2.44,2.82,9.19,9.06L394.9,207.6l10.72,8.16L422,229l9.24,8.64,8.68,10.4,1.82,2.9,5.66,10.32,2.36,5.46,3.39,13.46-.56,11.55-.21,6-1,5.68,1.88,12.82,1.05,4.9,1.68,8.17.66,6.51.41,5.95,1.24,12.66,1.78,5.76,2.05,7.78,1.42,12.5-4.83,9.82-4.55,4.83-3.63,3.33-2.42,2.63-5,3.1-1.53,1.24-1.07.65-5.43,4.67-5.55,2.84-.74,1.91-2.76,1.7-3.39,3.33-1.83,1.1-3,7.82-.92,2.39-.18.48,2.05,4.43,5.47,6.24,3.41,4.25,7.5,5.22,3.12,1.34,11.23,5.6,10.07,4.33,1.61.69,9,5.21,4,4.18,5,4.8,2.72,4.83,4.8,8.29,2,6.51,3.73,11.05.77,2.89,5.33,14.52,6.89,14.75,6.11,14.63,3.93,13.58,1.25,6.54,1.14,6.5,1.58,12.68.88,4.72,4.43,21.47,1.41,12.5.45,15.64.16,8.74,1.49,8.65.59,4.26.92,3.39,3.14,10.47L539,700l3.44,7.81,2.77,6.86,3.71,9.27,1.63,4.92,4.1,13.77,6.11,14.63.74,1.43,2.57,4,5.45,8.12,3.66,3.9,5.37,5.87,5.53,6.38,3.69,2.92,4,4.93,4.82,5.18,5.3,10.95,1.78,3,5.24,12,1.85,2.8,4.85,7.53,3.24,4.39,8.71,10.63,7.8,10.25.46,11.31-2.46,6.4-.44,7.26-1.08,8.31-.06,3.2.25,5.45.55,7.13,4.57,14.08,9.23,16,6.13,9.08,4.68,7.68,3.08,5.11,4.41,9.9,2,6.41,1.94,7.17,2.34,14.35,4.29,13,2.09,4.34,3.75,3.06,5.7,5.34,6,1.23,6.09,1,3.1-.45,3.44-1.3,4.25-1.29,3.89-1.88,3.25-2,5.95-6L726,1011l2.31-2.67,4.47-6.43.4-1,2.86-3.77,3-4.58,4-8.29.74-1.91,1.34-11.43-.35-2.15-2-11-2.34-6.12-4-8.74-3.25-5.62-8.09-11.92-1-1.19-8.31-8.91-9.69-9.61-13.47-11.34-5.47-3.8-8-6.56-1.72-.74-5-3.81-4.51-3.83-3.29-3.63-6.45-4-8-9.76-.72-1.2-3.88-12.79-2.2-4-5.65-11.55L636,826.14l-3.56-5.09-5.08-5.41-4.27-5.39-4.48-4.82-6.05-8.37-2.8-1.88-1.94-3.5-2.56-10.44L607,779l0-11.1,1.1-2.86,1.14-7.85,2.16-3.18,2.61-6.78,1.8-2.56,3.59-6.9.74-1.91,7.11-12.4,2.77-5.37,4.66-10,2.64-11.43-1.76-12.54-3-8-4.2-7.37-3.69-5.36-8.89-10.16-3.51-3.39L606.7,644,601,637.12,597.88,634l-2.42-3.48L590.83,620l-1.15-3.72.09-3.29-.9-9,1.56-8.34.25-2.78,3.37-8.78.51-1.34,3.87-8.23.66-1.72,3.12-8.11.88-2.29,3.35-10.57,2.49-11.05,2.31-13.34,3.41-20.78,1.44-11.39.36-8,.11-3.95-.47-12.21-1.17-12.84-3.58-12.66L609.19,440l-4.7-9.46-2.69-4.6-9-13.87-7-10.56-6.92-12.53-7.76-12.78-6.21-11-1.25-2.54-5.8-12.39-4.84-14-1.45-7.85-1.2-5.41,0-4.79-.71-7.31.83-12.54,1.25-10.58L552.8,285l1.39-8.19,1.16-5.17,1.19-5.83,1.62-7L561.64,244l3.28-10.38,4.66-10,4-6.73,1.14-3,3.4-5.21,2.57-4.23,2.59-3.67,3.59-5.69,1.58-2,5.14-7.58,5.38-8.81,4.67-10,3.26-8.49L611.59,146l4-10.3,6.65-21.27L629,91.58l2.79-8.8,1-2.58,2.27-8-.4-6.29,1.2-6.49.23-9.46.14-2.5-.33-4-2-8.86-3.55-10.31L628.8,20l-9-16L615.5-3.38l-8.4-11.73-10-7.29-10.33-6.1-9.32-8.12-2-2.42L569-47.35l-4.92-8.57-2.46-4.28-7.32-14.26-15.05-26.48L538-103.48,532-115.19,529.9-119l-5.51-9.49L519-135.68l-11-15.86-.78-1.34-6.63-13.29-.74-1.43L494-183.09l-6.48-16.13-7.31-14.26-3.83-6.2-4-6.29-1.6-2.25L464.28-238l-5.1-7.2-1.07.65,5,7.15,6.49,9.68,1.6,2.25,4,6.29,3.84,6.21,7.21,14.21,7.19,17.32,5,14.25.77,1.67,6.41,13.87.84,1.47,11.14,15.9,5.37,7.09,7.58,13.26,7.21,14.22L553-73l7.39,13.74,2.39,4.47L568-46.14l6.52,8.36,2.11,2.46,9.55,8.44,10.32,6.1,10,7.3,7.51,11L618.39,5l8.8,15.56,1.86,4,3.49,10.16,1.85,8.92.3,3.79-.14,2.5-.16,9.27-1.2,6.49-.54,4.77-2.26,8-1,2.48-3.3,8.59-6.94,23.26L615.85,124l-3.67,9.54-4,10.4L603.53,156l-3.3,8.59-2.06,10.24-5.67,9.57-5,7.19-1.45,1.94-3.77,5.83L579.75,203l-2.57,4.24-3.41,5.2-1.17,3.06-4,6.73-4.76,10-3.29,10.7-5.2,21.78-1.09,5.88-1.3,5.22-1.15,8.18-1.06,2.77-1.28,11.56-.74,11.69.78,7.45v4.89l1.13,5.6,1.52,7.66L557,349.73,563,362.39l1.26,2.54,6.21,11,7.86,12.83,7.77,12.45,8,12.12,7.95,12.3,2.58,4.56,4.63,9.33,2.23,5.51,3.42,13.7,1.27,11.66.4,12.08,0,3.9-.42,7.82-1.48,11.48-1.75,11.26-1.81,11.12-2,11.36-2.47,10.72-3.22,10.52-.84,2.19L599.45,571l-.62,1.63-4,8.42-.51,1.34-3.45,9-.21,2.69L589,602.82l1,8.66-.07,3.86L591.1,619l4.72,10.93,2.61,3.57,3,3.08,5.75,7,5.61,5.85,3.51,3.4,8.76,9.88,3.69,5.36,4,7.19,3.08,7.88,1.71,12.63-2.35,10.1-4.67,10-5.3,9.84-4.4,7.78-1.2,1.6L616.21,742l-2,2.7-2.6,6.78-2.16,3.19-1.21,8-1.1,2.87-.21,12.14,1.15,2.82,2.61,10.91,2.27,3.87,2.87,2,5.75,7.92,4.59,4.86,4.26,5.39,5,5.36,5.17,7.33,5.79,11.5,2.09,4,4,12.83.68,1.29,7.87,10,6.77,4.36,2.77,3.19,4.78,4,5,3.72,1.62.69.8.34,7.51,6.12,5.36,3.75,4.42,3.78,8.86,7.48,9.19,9.06,8.8,9.78,8,11.88,3.17,5.48,4.07,8.64,2.35,6.12,2.11,12.81-1.23,11.15-4.59,9.81-3.15,4.54L735,998.28l-.41,1.05-4.6,6.47-2.18,2.62-3.28,4.26-5.94,6-2.81,1.8-3.85,1.79-4.25,1.28-3.44,1.31-3,.39-5.55-.83-5.87-1.19-5.6-5.29-3.69-2.92-1.73-3.75-4.19-12.91-2.38-14.26-2.07-7.44-1.89-6.38-4.57-10.08-3.12-5.34L656,947.33l-6.13-9.08-9.13-15.93-4.54-13.84-.75-12.11.06-3.2,1.08-8.32.45-7.26,1.5-3.91L638,862.37l-.37-1.5-7.8-10.24L621.26,840l-3.31-4.2-6.48-10-5.4-12.21-1.69-3-5.59-11.41-4.61-5.09-4.2-5.25-3.73-2.83-5.4-6.1-5.47-5.9L572,770.31l-8-11.89-.78-1.33-6.11-14.63L553,728.69l-1.69-5.06-3.58-9.32-2.9-6.8-3.55-7.87L535.21,685l-4.07-13.53-.56-4.36-1.42-8.5-.45-14.42-.19-9.87L527,621.55l-4.77-18.73-.89-4.72-1.68-12.72-1-6.55-1.35-6.58-4-13.82-6.11-14.63-7.15-15-.31-1L495,514.63l-.66-2.85-3.84-11.09-2.12-6.7-7.67-13.63-5-4.61-4.36-4.54-8.73-5.08-1.61-.69-10.07-4.33-1-.43-10.07-4.33-2.84-1.77-7.67-5.08-3-4-5.42-6.34-1.7-3.84.81-2.1,3-7.82,1.69-1.05,3.22-3.18,3.25-2.05.66-1.72,5.51-2.74,5.16-4.57,1.07-.65,1.63-1.19,5.12-3.25,2.42-2.63,3.67-3.43,4.83-5.26L466,383.8l-1.48-12.65-2-7.87-1.71-5.63-1.28-12.55.24-7.35L459,331.2l-1.7-8.4-.95-4.86-1.88-12.82,1-5.25.2-6,.57-11.87.26-.67-3.38-12.57L450.7,263l-5.2-9.69-2.44-3.72-8.64-10.49-9.4-8.82-2.56-2.21L408.54,217,398,208.81l-3.31-3-8.19-7.08-10.37-9.68-2.17-2.59L368,177.05l-3.83-6.53-3-8.31-2.68-6.15-4.36-14-2.06-7.45-1.71-6-.32-3.13-.41-9.3,1.28-3.34,1.29-7.34-.14-9.4L351.75,93l-1-2-7.42-14.3-8.54-15-2.36-12.79L334,38.47l3.22-11.74,3.67-9.54.76-2,3.67-7.1,4.37-9.24,3.52-11.27.25-.67,3.06-10.7,3.66-9.54,3.67-9.54,5-9.87,6.44-9.13,4.14-3.45c1.64-1.52,3.34-2.9,5.18-4.33l1.16-1.17,2.09-1.78,6-5.3,7.09-11.41,2.79-10.92-.64-12.39-5-14.16L397-129.15l-7.51-13.45L381.32-158v-2.12l-1-10.12,2.75-4.71L385-180l3.18-3.08,3.6-5.68,1.71-1.71,5.21-7.77,4.93-9.77,4-10.31,2.75-10.83,2.39-11.09.57-3.31,1.55-8-1.05-8.57.4-3.16-1.21-.52-.47,3.36Z" fill="#fff"/></g></mask></defs><g clip-path="url(#a)"><g mask="url(#b)"><path d="M44.56-254.85l-3.07,1.58-7.3,3.42-2.76,1.7L27-246.71l-7.29,3.09-2.44,1.18-4.91,1.78-10.07,3.9-14,6-5.17,3.68-5.07,4-1.29,1.22-3,3.17-2.93,2.75-5.92,6.24L-38.4-206l-2.39,2.87-4.69,6.1-.48,1.24-5.18,8.89-5.29,9.51-4,7.3-1.7,2.27-3.44,5.31-3.4,3.65-2.22,2.72-6.7,5.23-6.69,3.36L-92-144.73l-8,1.15-5.52.63-11.11,1.12-8.38.73-10.91,1.21-9.85,2.44-8,1.9-3.09,1.34-7.42,2.81-4.26,1.62L-180-122.49l-4.41,4.78-3.88,3.67-1.81,2.89-5.27,6.08-.37.95-1.68,1.94-3.87,4.57-1.69,1-4.71,3.09L-215-91.08l-8.69-.28-2.61-1.13-6.8-1.25-4.73-2-5.09-.52-7-1.66-7.13.83-3.94.19-2.12.32-5.7,2-5.33,2.26-2,1-2.32,1.45-4.32,2.7-3.82,1.7-3.11,2.89L-295.1-80l-1.44.38-9.6-2.79-7.72-10.44-3.24-5.94-5.09-6-5.48-5.91-3.24-4.39-2.94-3-6.53-5.58-.41,1.05,6.34,5.5,2.87,2.9,3.34,4.44,5.44,6,5.14,5.88,3,5.72,8.13,11.83,10.58,3,1.78-.35,5.55-2.84.91.39-.81-.35,3.21-2.85,3.41-1.54,4.36-2.79,2.31-1.45,1.86-.87,5.33-2.27,5.39-1.8,2.05-.45,3.95-.2,4.53-.5,2.79-.24L-243-94l5.39.65,4.43,1.9,6.79,1.25,3.12,1.34,9.11.13,7.74-2.45,4.33-3.93,2-1.34,5.63-6.7.36-1,5.06-5.83,2-3.13,3.66-3.43,4.55-4.83,3.7-2.3,7.38-4.84,4.08-1.46,7.42-2.82,3-1.29,12.82-2.83,5.31-1.28,10.9-1.21,6.34-.61,10.46-1,8.21-.92,8.37-1.3,7.24-2.67,7.17-3.7,6.43-5.13,2.26-2.82,3.69-4.41,3.55-5.59,1.7-2.28,5-9,5.48-10,4.71-8,4.69-6.1,2.39-2.86,3.3-3.7,4.69-4.88,4.22-4,4-4.29,5.21-4.1,4.93-3.67,3.47-1.39,5.4-2.46,7.23-3.24L18.14-242l2.48-1.27,2.92-1.19,4.33-1.81,4.6-1.58,2.83-1.56,7.06-3.42L46-254.24,49-257.93,53.56-263l1-2.67,1.26-8.46-.18-8.09-1.33-4.46-.68-3.74L52-299.66l-3.86-10.11-1.71-4.4L42-327.88l.22-.57,2.05-10.24.63-1.62,5.27-7.3,6.38-5.93,2.38-2.53,3.57-3.47,6-6L80.27-377.7,84-381.32l2.3-2,6.42-4.81,1.25-.8,5.45-3.21,7.4-3.05-.62-1.15L99-393.45l-7,4.12-6.56,4.85-2.38,2.21c-1.25,1.13-2.54,2.35-3.73,3.62l-5.95,6-5.92,6.24-5.81,6L58-357.35l-2.28,2.58-6,6.43-5.14,7.24-1.3,1.56-2.12,11.32,4.6,14,1.75,4.31,3.7,9.92,1.61,9.25.81,3.69.42,4.4L54.3-275,53-266.45,52.06-264,47.7-259Z" transform="translate(340.79 396.35)" fill="#8733f3" fill-opacity="0.15"/><path d="M577.48-186.92l5.95,8.34,6.13,9.41,7.62,12.83,7.11,14.18,5.92,17.88,1.64,5.49,4.72,11.25,2.57,4,6.06,6.82,9.65,9.38,3.91,4.79,4.75,5.37,8.76,12.32,7.61,10.72,3.94,6.25,3.83,6.21,3.42,8.81,2.76,8.08,1.34,5.68L677.5-9l1.26,4.66c1,3.67,2.24,7.3,3.4,11l.43,1.3,1.88,5.8,3.8,8.75L690.91,30l2.66,6.82.95,9.74.47,2.76-2.47,10.39-.22.57-3.85,10-1.21,3.15-3.37,6.34-4.67,7.55-.8,2.1L672.62,99,667,108.69l-5.6,9.71-4,10.4-4,10.31-3.09,10.79-2.62,10.77-2.34,11-2.3,12.69-1.19,9.83-1,2.57-3,12.39L636,215.66,634.76,221l-2,5.16-3.32,10.47-4,10.3-2.72,5L620.84,257l-2.18,3.84-4.88,9L609.31,279l-3.16,8.21-.8,2.1-2.45,8.51-.55,3.87-.93,7.61.43,12.3.49,2.1,4.58,12.2,1.92,4.16,8.29,12.34,10.07,6.77,2.41,1,10,2.5,9.76.86,2.27.19,6.62.18,5.81.16,2.92,0,9,.75,9.79,2.31,1.92.82L696.8,372l1.71.73,10.33,6.11,10,6.4,2.83,2.1,7.2,4.77,5.75,4.58,4.21,2.8,6,6.46,2.26,4.19,2.41,9.6L749,430.64l-2.94,7.63-1,2.58L741,444.67l-5.84,3.6-1.1.42-8.11.63-5.56-.17L708,448.39l-9-.88-3.37.22-5.61-.07-8,2.13-6.64,5-1.32,3.44-3,5.61-3,12.72-.3,3.21-1.71,11.49L665,502l-1.1,2.86-1.42,7.95-1.68,4.39L659,523.4l-1.94,5.06L655.67,534l-1.56,7.11-.58,4-1.95,11.17-8,32.61-.2,4.47-.55,7.55,2.23,8.85,2.27,5.09,5.4,8.55,5.92,8.43,2.29,2.87,4.92,7.67,3.14,4.35,1,1.89,5.78,13.05.47,1.53.4,2.62,2.63,10.58,1.31,12.46-.1,3.62.21,8.32-1.2,8.61-.28,2.88L676,722.59,672,733l-3.45,9-.51,1.34L665.24,754a2.74,2.74,0,0,0-.33.86l.46,11.32,3.73,11.05,1.85,3.46,6.31,8.61,8.2,11.63,8,13.44,6.41,13.87.76,1.66,6.81,12.82,1.52,2.77,6.67,9.2,6.56,8.6,4.25,4.82,6.55,7.38,5.52,6.7,3.19,3.6,3.94,5,4.71,5.47,3.3,4.53,5.15,6.44,8.07,11.69,2.59,4.56,5,8.61,1.14-.51-5-8.71L768,918.31l-.59-.91-7.58-10.82-5.18-6.67-3.24-4.4-4.7-5.46-3.94-5-3.29-3.64-5.49-6.8-6.59-7.28-4.11-4.88-6.59-8.5-6.5-9-1.62-2.81-6.81-12.82-.71-1.52-7.21-14.22-7.69-13L677.85,789l-6.12-8.52-1.81-3.22-3.7-11.15-.48-10.66.48-1.24,2.66-10,.48-1.24,3.66-9.55,4-10.3,3.3-10.71.25-3.11,1.33-8.33-.38-8.5.21-3.58-1.35-12.69-2.55-10.77-.43-2.52-.43-1.63-5.81-13.61-1.09-2-3.11-4.45L662,635.87l-2.36-3-5.91-8.43-5.31-8.18-2.1-4.9-2.16-9.05.47-7,.06-4.42,8-32.57,1.91-11.07.62-4.07,1.43-7.06,2-5.15,1.94-5.06,1.7-6.27,1.69-4.39,1.35-8.09,1.1-2.87,1.34-11.43,1.51-11.25.36-3.07L672.64,466l3-5.71,1.25-3.24,6.52-4.76,7.46-2,5.19.23,3.24-.17L720.75,452l5.6.08,8.48-.7,1.47-.48,5.71-3.55,4.71-4.31.95-2.48,3-7.83.57-11.87-2.54-9.88-2.42-4.37L740,399.65,735.89,397l-5.65-4.53-7.47-5-2.7-1.83L710,379.09l-1.41-.6-10.39-6.24-9.37-4-2-.86L677,365l-1-.43-8.1-.59-3,.06-5.87-.3-6.62-.17-2.17-.16-9.31-1.11-9.12-2.24-2.11-.91-10.1-7-7.36-11.39-1.85-4-4.66-12-.42-2-.41-12.07.83-7.65.61-3.74.91-9.39.7-1.82,3.12-8.11,4.47-9.2,1.17-3.05,3-5.8,2.29-3.8,2-5.16,2.68-4.85,4-10.4,1.65-4.29,2.31-6,2-5.15,1.28-5.45,2.42-6.3,2.47-13.17,1.1-2.86,1.2-9.83.62-1.62,2-10.94.88-2.29,1.74-8.48,1.57-4.1,1.58-6.55,3.06-10.7,3.92-10.21,3.85-10,4.53-10,5.57-9.62,5.77-9.52.85-2.2L685.63,81l5.27-9.74,3.67-9.55.37-1,2.22-11.28-.5-2.66-1-10.12L693,29.89l-2.64-7.47-3.73-8.61L684.6,8,681-4.7l-1.23-4.75-2.33-10.12-1.27-5.55-2.83-8.22-3.42-8.8L666-48.72l-4-6.16-7.58-10.81L646.2-77.47l-4.85-5.41-6.09-5.51-4-3.94L626-97.17l-5.9-6.64-2.51-3.86-4.47-11.26-1.65-5.49-6-17.6-7-14.78-7.83-12.93-6-9.37-6.05-8.38-3.94-6.25L573.22-196l-1.14.52,1.23,2.3Z" transform="translate(340.79 396.35)" fill="#8733f3" fill-opacity="0.15"/><path d="M563.69-187.06l4.12,8.21,4.31,7.41,3.23,5.95,5.7,9.9,9,15.65,7.12,15.07,6.11,14.63,1,1.75,7.58,13.26,1.25,1.32,8.18,7.73,9.46,7.74L639.41-68,645.54-59,655.7-44.48l3.8,6.3,3.75,6.73,2.86,8.12,3.07,9.43L672.61-.53,674.4,5.8,678.51,18l1.74,5.53,3.13,8.35,2.23,13.75-.4,1,0,9.87-1.51,3.92L682.09,67l-1.65,4.3-2.28,5.92-2.06,3.22-3.41,6.43-.91,2.39-4.46,7.31-3.79,6.82-1.21,3.15-4,10.31-4,10.4-4,10.31-2.64,6.87-1.43,3.72-2.46,10.06-2.45,11-.75,3.8L638,186l-1.27,5.13-1.92,6.84-1.4,3.63-2.6,6.77-1.32,3.44-2.75,7.15-1.25,3.25-2.82,7.35L619,239.06,613,252.12l-2.8,5.47-1.76,4.58-2.48,4.94-4,10.31-2,5.24-2.16,5.63-1.23,5-1.43,8.28-.32,3-.12,6.73.36,5.49,1.53,7,1.52,6.43,1,3,5.51,11.93,1.54,3,6.25,9.69,1.8,2.66,1.82,1.67,7.76,6.67,3.67,2.69,6.94,3,4.72,2.69,6.3,1.93,4.23,1.82,7.7.42,1.51.65,1.78-.35,6.46-.34,3.38-.55,13-.53,4,.84,6.26,2,11.47,5.59,9.58,7.12,9.37,8.59,5.75,7,1.68,5.72.73,6.66-.81,2.09-5,7.2-8,1.47-5.84.83-2.38.09-4,.48-4.61-.53h-1.53l-7.75-1.22-5,.42-4.13-.55-5.35,1.71-2.59.33-1.8,1.34-5,3-1.25,3.24-2.57,6.68-.48,4-2.07,9.34-.59,1.53-.61,5-1,8.45-.65,9.62-.92,6.06-.28,5.32-1.85,8.77-.76,2-3.07,9.81L649,532.66l-1.55,10.45-1,2.68-1.12,8.41-1.23,5-1.22,5.93-5,18.19-1.21,3.15L634.94,598l.15,2.07,2.71,11.28,3.27,6.74,5.72,9.24,6.29,8.37,4.43,5.57,2.34,3.68,5.53,8.82,3,6.62,3.3,9.75,1,4,.44,5,1.34,7.81.24,11.88-.62,1.63-1,9.81-1.54,4-2.34,6.11-8,20.71-1.91,5-2,5.34-.87,8.08-.47,3.35-.93.27.71.31.75,6L659,777l4.57,7.63,6.44,9.22,1.8,2.33,3.82,5.64,4.38,6,7.66,12.74,2.86,6,4.45,8.25,3.67,7.25,3.84,6.21,8.3,11.68,1,1.19,8.28,9,6.77,8,2.08,2.23,2,2.42,6.76,7.46,5.51,7,3,3.65,4.85,6.64L754.5,912l8.07,11.69,4.17,7.47,3.25,6.51,1.1-.42L768,930.64l-4.18-7.47-8.22-11.87L752,906.87l-4.81-6.73-3.12-3.79-5.45-6.89L731.77,882l-2.11-2.46-2-2.18-6.68-8-8.92-10.06L704,847.77l-3.83-6.21-3.67-7.24-4.36-8.21-2.89-5.91-7.73-12.88-4.48-6-3.82-5.64-1.73-2.53L665.07,784l-4.61-7.54-2.21-7.07-.82-6.13.5-3.12.8-7.88,2-5.34,1.31-5.23L670,721.12l3.19-10.75.95-9.81.59-1.53-.23-12.22-1.31-7.9-.44-5-1-4.19-3.49-9.84-3.08-6.66-5.68-9.33-2.11-3.36-4.5-5.71-6.32-8.27-5.56-9.06-3.17-6.7-2.62-10.91L635,597.8l.36-.95,1.56-10.45,1.21-3.15,2.08-7.56L643.18,565,644.4,559l1.87-4.87,1.09-8.64.92-2.39L650,531.87l6.2-21.34.85-2.2,1.8-8.67.36-5.52.92-6.05.61-9.52.73-1.91.63-6.52.71-4.91.52-1.34,2.1-9.44.49-4,2.49-6.49,1.14-3,4.7-2.76,1.7-1.38,2.22-.27,5.48-1.76,3.86.66,5-.43,7.51,1.23h1.53l4.84.52,4.06-.48,2.38-.09,6-.88,8.13-1.62.23-.57,5-7.1.92-2.39-.8-6.79-2-6.74-5.72-6.8-9.4-8.81L705,387l-11.26-5.5-6.43-1.88-4.49-1.15-13,.63-3.35.46-6.46.33-2.15.41-.91-.39-8-.55-3.73-1.6L638.82,376l-4.51-2.61-6.75-2.89L624,367.83l-8.92-6.73-1.66-2.38-6.19-9.55-1.41-3.05-5.44-11.79-.91-2.83-1.55-6.34-1.69-6.62-.35-5.49,0-6.53.32-3,1.42-8.28,1.76-4.58,1.66-5.85,2-5.25L607,269.47l2-5.25,1.76-4.58,2.2-5.73,6.18-13L623,230.77l2.82-7.34,1.1-2.87,2.64-6.87,1.36-3.53,2.64-6.87,1.46-3.82,1.86-6.65,1.3-5.22,2.68-13.08.7-4.59,1.82-9,3.1-12.35,1.32-3.43,2.79-7.25,3.66-9.55,4.26-11.07L663,107.19l1.21-3.15,3.29-5.81,5.74-10.65,3.37-6.34L678.68,78,681,71.91l2.12-4,1.75-6.7,1.58-4.1L687,46.9l.55-1.43-2.48-13.08L682,23.72,680,18,676,6.16,674.26-.26,670.8-13.54l-3-9.62-2.9-8L661-38.09l-4.3-6.52-8.16-11.74-8.2-12-8.7-10.64-9.73-8-7.81-7.46-1-1.33-8.42-14.73-6.4-13.87-7.54-15.8-6.92-12.54-7.62-13.16-2.71-6.06-4.21-7.37L565-187.49l-3.1-5.67-4.76-9.6-1.1.41,4.62,9.66Z" transform="translate(340.79 396.35)" fill="#8733f3" fill-opacity="0.15"/><path d="M554.14-179.6l7.09,14.83,7.43,13.64,7.58,13.26,3.91,7.24,3.53,6.07,5.06,9.74,2.41,3.81,6.05,11.72,1.36,2.58,8.11,12.16,3.45,3.26,6.6,5.72,9.57,7.45,8,9.86,16,23.67,4.36,7.88,2.9,5.58,3.08,8.77,2.79,8.65L667.88,13l.55,1.91,4.83,14.3,3.19,12.49-.19,6.59.2,5-2.16,9-.55,1.43-3.41,8.87-.44,1.15-4.09,7.91-.7,1.81-3.83,6.92-1.14,3L656.76,100l-1.5,3.91-2.31,6-5.69,14.8-4,10.3-3.92,10.21-3.16,10.65-3,10.84-2.81,10.68-3,10.61-4,10.4-3.89,10.11-7.85,20.42-9,20.28L599.33,258l-4,10.5-3.84,12.13-2.86,11.11-1.48,11.49-.07,4.75.06,7.47,1.43,9.73.94,4,4.92,14.68L602,358.91l7.36,11.39,6.6,6.95,4.9,4.66,7.92,5.63,5.74,4.91,4.43,1.91,9.41,7.59.7.3,2.3,1.66,5.82,6.83,2.12,6.7L657,420l-.15,7.71-2.12,5.54-.2,5.7-1.1,11.42-.37,12-.57,4.53L652.3,474l-.91,9.39,0,2.21-.6,5.86-.4,5.61-.7,1.81-1.17,9.17-1.54,4-1.48,6.6-2.09,5.44-1.24,5.36-1.65,8-2.25,13.49-2.73,12.61-2.76,9.93-3.26,10.61-.58,3.64-1.48,7.82,1.14,12.93.71,2.42,6.4,13.87,1.24,2,8.42,11.07,8.18,11.07,6,10.12,1.48,2.86L665.14,673l1.46,6.3,1,6.45.14,5.73.44,6.19L667.05,709l-3,9.84-4,10.4-4,10.4-3.26,10.61-1.75,11.59.5.22.86,6.93.52,5.67c.54,1.34,1.12,2.59,1.56,3.89l7,12.25,2.33,3.11,6.81,9.15,7.92,11.74,7.66,13.07,6.38,12.08,1,1.75,7.93,13,1.47,2,7.32,9,9.21,10.85,8.31,8.91,9.67,11.49,8.13,9.38,8.15,11.17L761,929.2l8.1,16.16,4.2-1.76-8.11-16.15-8-12.54-8.37-11.49-7.63-9.17-9.93-11.72-8.87-9.59-8.69-10.07L706.59,854l-1.2-1.74-8.62-14.82-6.36-12.18-7.71-13.21L674.54,800,666,788.57l-7.1-12.06-1.43-3.61-.5-5.11-.76-6.89,1.46-10.49,3.06-9.8,8-20.71L672,709l1.31-11.67-.45-6.75-.14-5.73-1.13-7.16-1.52-6.43-4.39-11.78L664,656.07l-6.09-10.4-8.51-11.44-8.32-11-.82-1.24-5.93-12.67-.53-1.67-1.37-11.71,1.5-7.25.53-3.21,3.26-10.61,2.47-9.5,1.49-6.92,1.2-5.27,2.52-14.48L647,531l1.16-5.17,2.09-5.44,1.34-6.54,1.58-4.1,1.22-9.59.7-1.82.4-5.94.65-5.95,0-2.21.81-9.44.24-7,.6-4.63.47-11.92,1-11.37.18-5,2.05-5.34.35-7.63,2.7-3.07-3.12-9.9-6.71-7.55-3.43-2.7-.6-.25-9-7.1-4.41-2.56-5.38-4.65L624,378.5l-4.77-4.38-5.94-6.23-7.91-12.07-7.22-14.21-4.69-13.14-.85-3.58-1.24-9-.13-7.28.15-4.38,1.25-10.58.3-.77,2.77-10.59,3.87-11.9,4-10.3,3.67-9.55,8.6-19.32,7.81-20.33,3.67-9.54,4.14-10.78,3.35-11.46,3.09-12,2.48-8.61,3.06-10.69,3.06-9.81,3.46-10.52,6.38-16.6,2.23-5.82,1.47-3.82,3.3-6.14,1.06-2.77,3.93-6.87.81-2.1,4-8,.55-1.44,3.67-9.54L678,62.8l2.45-10.06-.29-5.35.34-7-3.11-13.9-4.77-14.16-.49-1.77L667.6-6.13l-2.48-7.29-2.91-8.92-3.09-6-4.39-8.11-16.25-24-8.81-10.67-9.8-7.77-6.44-5.55-3.29-2.41-7.32-11.49-1.23-2.3-6.06-11.72-2.74-4.18-5-9.59-3.63-6.12-3.91-7.24-7.58-13.26-7.33-13.6-7.21-14.21-6.78-15L545-209.45,540.53-208l6.41,13.87Z" transform="translate(340.79 396.35)" fill="#8733f3" fill-opacity="0.15"/><path d="M544.34-184l6.78,16.26,7.61,14.39,8.84,15.8,9.33,16,4.43,6.8L589-102l7.57,13.59,8.29,12,7.57,6.25,2.16,1.71,9.79,7.21,8.51,10.21L641-38.9l7.88,12.17L656-12.56l6,17.69,5.74,20.48.7,3.08,2.63,10.25.82,11.91a14.25,14.25,0,0,0-.7,1.82L670,61.83l-1.43,3.72-1.75,6.7-1.54,4-2.39,6.2L661,85.87l-2.61,6.78-1.06,2.76-4.27,9.29-3.12,8.11-.8,2.1-4,10.49L642,133.52,638.77,144l-3.3,10.7-1.61,4.2L631.52,165l-1.42,5.51L626.65,182l-1.61,4.2-2.38,6.21-1.58,4.1-2.2,5.73-1.72,4.48-2,5.25-2.55,4.8-1.76,4.58-2.2,5.72-1.54,4-3.16,6.09-5.59,12.72-4,10.5-2.26,7.7-1.39,3.63-3.13,12.11-1.22,5.92-1.2,7.71-.45,3.59-.49,9.24,0,2.68.38,2.38,1.6,10.48,1.93,7.49,2.14,6.37,4.16,10.24,2.21,4.62,5.14,9.54,4.2,6.47,3.95,5.59,6,6.79,3.08,3,4.57,4.29,4.63,4.44,4.14,4.78,4.8,4.62,4.5,5.71,3.54,6.64,2.26,7.86.6,9.15.62,3.27.31,2.24.7,10.09-.15,6.49.36,5.49-.57,12.77-.34,11-.62,6.18-.18,5.37-1.33,9.88-.52,1.34-5.44,24.23-1.3,8.89-.93,5.16-.92,6L636,558.74l-.83,4-3,10.6-4,10.3-2.67,11.2-.12,2.17.7,10.08,3.71,11.72,1.22,2.63,6.78,10.14,5.07,7,3.35,4.11L652,651l2.33,3.11,1,1.65L661.55,668l1.08,2.69,1.58,6.57,1.81,6.89.54,3.79.61,8.49-.48,4.91-.53,6.89-3,9.84-4,10.5L656.7,735l-1.46,3.82-2.61,6.78L651.31,749l-1.74,8.81-.84,2.2,0,6.35.5,6.33,5.09,12.41,1.43,2.39,6.72,9.67,8.24,11.55,8.34,12.81,7,12.24,1.8,3.56,5.74,9.8,3.9,6.34,4.14,6,9.73,12,8.42,8.62,17.65,19.7,9,11.42,7.65,10.63,3.46,5.37,4.24,7.27L766,942.8l2.78,6.52L770,949l-2.78-6.53L763.06,934l-4.35-7.31-3.55-5.42-8.27-11.45L738.35,899,729.43,889l-8.9-9.82-7.75-8.22-2.66-3.15L703.06,859l-4-6-3.9-6.34-5.77-9.71-1.84-3.46-7.65-13.06-8.08-12.26-8.2-11.64-6.77-9.57-1.2-2.08-5.11-12.64c-.08-1.93-.3-3.8-.38-5.73l-.06-6.25.73-1.91,1.67-8.62,1.39-3.62,2.61-6.78,1.43-3.72,6.49-16.89L667.66,708l.5-6.79.47-4.91-.63-8.72-.41-3.84-2-7.07L664,670.18l-1-2.88-6.88-12.63-1-1.75-2.45-3.39-5.78-8.15-3.42-4.25-5-6.72-6.55-10.15-1.19-2.4-3.61-11.67-.75-9.66.11-2.4.22-.58,2.46-10.06.77-2,3.22-8.4,3-10.69.83-4,1.76-7,.86-6.19,1-4.93,1.34-9,2.92-13.09,2.48-11.05.52-1.33,1.33-9.88.26-5.56.61-6.18.34-11.87.53-11.77-.42-5.63.25-6.45L650,438.15l-.31-2.25-.7-3.08-.62-9.38-2.25-8.19-3.55-6.64-4.66-5.89-4.9-4.67-4.14-4.78-4.7-4.57-4.57-4.3-3-2.85-5.89-6.65-4-5.58-4.1-6.43-5-9.5L595.44,349l-4.16-10.24-2.13-6.36-1.9-7.27-3.41-11.91.08-2.64.32-9.08.54-3.55,1.21-7.71,1.22-5.93,3.33-12,1.46-3.81,2.15-7.42,1.14-3,2.89-7.54,5.7-12.67,3.09-6.23,1.51-3.92,2.16-5.63,1.76-4.58,2.58-4.89,2-5.15,1.72-4.49,2.23-5.82,1.55-4,2.6-6.77,1.61-4.2,3.52-11.61,1.38-5.41,2.35-6.11,1.61-4.2,3.25-10.61,3.32-10.47,3-7.92,4.76-12.4,3.12-8.11,4.37-9.24,1.1-2.87,2.57-6.68c.48-1.24.92-2.38,1.39-3.62l2.39-6.21,1.54-4,3.19-6.19,1.51-3.91,1.21-9.26.77-2L672.54,39l-3.39-13.46-5.8-20.62-2.52-7.19-3.64-10.68-1.87-3.7L649.84-27.1l-7.69-12.64-8-12.12-9-10.2-12.09-8.86-7.38-6.73-7.4-11.29-7.6-13.49-7.73-12.88-4.43-6.8L575.14-128l-6.48-10-8.83-15.8-7.48-15.34-6.15-14.53-6.11-14.63-6.15-14.54-1.2.37,4.79,12.29Z" transform="translate(340.79 396.35)" fill="#8733f3" fill-opacity="0.15"/><path d="M282.55-272.91l-5.7-.12-8.45.6-8,1.57-8,1.9-5.83,2-1.86.87-1.78.68L237-263.68,232-262l-5.85,1.49-9,4-2.51,1-2.37,1-3.19,5.86-1.57,4.1,2.14,8.48,1.11,5,6,9.79,3.15,6.14,3.86,6.77,5,9.17,8.72,16.08,1.57,3.24L245-168.09l4.27,14-1,10.71-4.45,6.09-2.36,2.77-3.76,2.16-9.46,3.83-10.88,2.67L206-124.12l-8.34.64-7,1-5.57.16-4.84.37-8.62-.15-6.25-.23-2.71-.28-7.83-.69-1.21-.52-8.85-.47-4.09.25-4.68-.35-8.42.84-5.85,6.37-1.06,2.77-3,7.73-1,2.58-4.39,5-2.66,3.86L107-91.73,103-86.08l-1.1,2.86-2.09,7.88.59,7.93.18,4.41,3.46,13.61,3.13,9.57,1.47,4.41,4.39,13,6.75,16,3.64,13.46.84,7.26.37,5.16-.13,3.39-.07,8.42L123,38.45l-.52,4.11-2.82,7.35-1.07,2.77-4,10.4-3.06,10.7-1.89,11.64L109.33,97l2.88,13.58,8,12.21,3.55,4.52,5.27,5.82,4.57,4.3,4.62,4.77,7.46,6.54,1.77,2.42,8.64,10.5,6.44,6.43,2.36,3.35,7,12.34.81,1.24,4.9,13.22.73,4.21.21,8.31-1,2.67-1.62,7.87-1.61,4.2L172.67,232l-.79,7.55-.32,4.2,1.29,4.89,2,8.76,4.76,7.16,7.19,10,2.81,2.76,9.19,9.06,7.11,5.94,2.55,2.21,11,8L232,310.72l6.78,4,5.5,3.7,4.72,2.69,8,6,2.11.9,3.88,3.67,4.38,7.22,1.87,7-1.65,4.29-.66,6.61-1.12,8.41-.29,3.21.84,3.92,1.58,9,2.88,12.35,1.07,12.8,2.61,10.91.91,2.84L282,431.26l3.81,5.64,4.13,6.67,6.58,10.05.82,3.36L300,466.7l1.57,13,4.67,13.79.92,3.73,4,10.38,2.06,7.45,7.06,8.82,1.93,1.38.61.26,9.7,5.28,1.11.48,10.07,4.32,1,.43,10.44,3.38,9.18,2.05,1.81.78,8.17,2,10.37,3.57L390,550l9.3,6.33,10.25,7.51,9,7.19,5.39,5.54,3.7,3.48,3,4.31,4.22,9.48,1.33,4.8-.15,4.05-.05,7.76-2,5.25-1.5,3.91-3,5.47-1.69,4.39L425.26,634l-3.43,5-1.25,3.24-4.16,6.55-.77,2-3.23,8.39-2,11.37,1.25,9.87.06,2.92a9.93,9.93,0,0,1,.93,1.84l3.33,4.77,4.75,7.49,2.64,2.91,6.69,6.1,19.34,15.64,2.74,2.63L458,732.1l4.94,9.13-.6,11.64-4.17,9.33-4.35,8.58-.62,1.62-.84,9.2.9,3.17,8.23,5.76,1.81.77,9,3.85,1.41.61,10.59,3,9,1.08,2.42,1,6.81.6,5.09,1.4,4.6.87,6.84,2,10.68,4.58,4.13,1.78,6.38,3.85,9.6,7.68,4.63,4.77,3.41,6.69,3.24,8.06L560.6,851l-.53,3.22-4,5.74-3.47,2.63-3,1.61-3,.59-4.29,1.71-7.83,1.75-2,.36-14.13,3.49L511,874.73l-7.53,3.11-6.82,3.4-6.26,2.87-1.12,1.08-1.83,1.1L483.08,890l-2.63,1.65-1.55,8L477.31,902l-.22.58,2.39,4.47,3.42,1.47,6.57,5.82,5.86,1.85,4.91,2.78,5.53,1.49,5.54,2.37,4.77,1.05,6.91,1.86,3,.73,8.77,1.32,11,2,9.26,4,3.73,1.6,6.6,4.5,3,2.52,1.79,1.77,7.51,7,8.1,9.48,4.08,12.87-2.45,6.39L586,983.43l-4.23,1.85-5,2.54-2.09.88-1.76.91-5.53,2.18-5.89,2.81-1.25.8-.83.64-5.18,5.23-3.78,2.82L551.9,1015l-.51,1.34,1,.43,10.05,6.21,1.81.78,8.56,4.9,3,1.3,7.86,3.37,2.82,1.21,8.52,2.88,1.81.78,9.29,3L617,1045.9l10.78,4.63,10.51,5.63,2.52,1.08,7.78,4.79,5,4,4.83,3.63,5.32,6.62,1.84,6.8,0,5.45-.51,1.34-4.52,8.4-.4,1-5.79,4.07-2.9,2.65L648,1108l-4.62,2.24-2.51,1-2.27,1-10,3.81-2.54.8-2.61,1-4.7,1.87-7.75,2.45-2.85,1-4.19,2.65-8.37,4.08-3.19,8.3-1.3,1.55,1.77,4.87,5.41,5.77,3.36,4.68,8.76,5.31,1.91.82,10.68,4.59,9.64,2.7,1.61.69,8.38,1.71,3.12,1.34,6.79,1.58,10,3,10.43,3.38,6.94,2.42.44-1.15-6.85-2.94L663,1175.16,652.48,1172l-6.59-1.5-3.12-1.34-8.44-1.85-1.41-.6-9.95-2.83-10.67-4.58-1.51-.65-8.72-5.41-3-4.17-5.53-6-1.32-3.9,1.4-1.51,3.12-8.11,8.2-3.93,4.18-2.65,2.85-1,7.51-2.44,7.32-2.86,2.5-.71,10.17-3.86,2.27-1,2.61-1,4.65-2.33,3.69-2,3-2.61,5.69-4.12,1.32-1.31,4.35-8.26.62-1.62-.1-5.83-2-7.54-5.55-6.61-4.83-3.63-5-4-10.32-6.44-10.51-5.62-11-4.72-10.88-4.67-9.39-3-1.82-.77-8.41-2.84-2.72-1.17-8.16-3.5-2.52-1.08-8.66-4.95-1.81-.78-10.05-6.21-.61-.25.29-.77-1.39-10.72,3.41-2.76,5.17-5.22,1.87-1.2,5.89-2.81L574,988.4l1.8-1,2.16-.74,5-2.63,4.41-2,2-3.27,2.75-7.16-4.23-14-8.13-9.39L572.13,941l-1.68-1.73-3.32-2.65-8.69-.61-1.61-.7-9.47-4.06L535.81,929l-9-1.4-3-.74-7-1.76-4.42-1-5.64-2.42-5.63-1.53-5-2.83-5.86-1.85-6.26-5.69-3.43-1.47-2-3.87,1.48-2,1.56-8,2.35-1.54,4.21-3.64,2.28-1.36,1.16-1.17,5.64-2.47,7.24-3.56,7.21-2.9,7.66-2.83,13.08-3.5,1.88-.3,7.93-1.71,4.43-1.77,3.42-.64,2.9-1.75,4-3,4-5.83.64-3.18.45-8.81-3.41-7.91L555,829.26l-4.56-4.63-3.22-2.6-6.69-5.21-6.44-4L530,811.05l-7.36-3.15L519,806.34l-6.77-2.24-4.73-.81-5-1.37-7.15-.62-2.12-.91-9.11-1-10.55-3.09-1.51-.65-9-3.85-1.71-.74-7.82-5.58-1-3,.88-8.41.55-1.43,4.67-9.11,3.67-9.54.52-12.34-4.95-9.13-6-7.68L449.05,722,433.4,709.32l-3.66-2.68-6.59-6.06-2.47-2.73-4.82-7.63-3.16-4.58-.9-1.94-.07-2.25-1.12-9.93,1.84-10.89,3.88-10.11,4.16-6.56,1.25-3.24,3.34-5,2.57-4.56,1.69-4.39,3-5.47,1.58-4.11,2.53-6.58,0-7.57.1-4.52-1.36-4.7L430.85,584l-3-4.31-3.94-3.8-5.32-5.4L407.89,562l-9.23-6.52-2.92-1.26-7.65-4.51-4-1.73-10.33-3.66-8.07-1.91-1.91-.82L354,539.37l-10.4-3.47-1.11-.48-9.36-4-1.41-.61L322,525.51l-2.11-.91-6.63-8.4-1.91-6.94-3.89-10.34-1-3.87L302,482l-.34-1.26L300.21,469l-2.84-10-1-3.87-6.52-9.91-4.26-6.62L281.89,433l-6.59-10.95-.81-2.46L272,409.06l-1-13.13-3-12.39-1.45-9.07-.8-4,.21-2.69,1.16-8.5.59-6.42,1.19-4.94-2.09-7.68-4.62-7.54-3.91-3.57-2.11-.91L248,322.3l-4.78-2.84-5.5-3.69-6.88-4.07L220,301.48l-10.66-7.69-2.45-2.17-7-5.8-9.19-9.07-1.12-1.36-7.06-10-4.76-7.16L176,250l-1.35-5,.31-3.87.78-7.22,1.41-6.4,1.61-4.2,1.72-7.82,1.2-3.15-.24-8.22-.69-4.31-5.5-13.47-.59-.92-6.95-12.44-2.45-3.72-6.41-6.2-8.71-10.63-1.87-2.47-7.39-6.4-4.59-4.86-4.6-4.21-5.42-6.66-3.38-4.34L114.71,111l-.17-1.07L111.86,97.7l.4-11.72,1.55-10.45.77-2,2.49-8.6,4-10.5,1.1-2.86,2.86-7.45.56-4.2L127,32.85l.08-8.75.19-3.26-.39-5.39-.75-7.21L122.28-5.44,115.19-21.5l-4.49-13-1.51-4.32-3-9.53L102.8-61.95l-.29-4.13-.72-8.2,2.82-7.35,1.14-3L109.61-90l2.65-3.54,2.62-3.76,4.46-5.2.45-2.7,2.93-7.63,1-2.67,5.51-6.09,7.84-.86,4.67.35,4.19-.21,8.62.48,9.36.68,2.71.28,6.34.28,8.77.09,4.83-.36,5.54-.07,6.71-.35,8.48-.69,11.4-1.88,4.75-1.07,6.23-1.55,1.65-.63,1.76-.91c1.72-.82,3.2-1.63,4.89-2.35l4-3.39,2.36-2.77L249-142.8l.16-2.26.85-9.54-4.26-13.94-6.09-12L237.81-184l-8.09-15.59-5.08-9.07-4.39-6.89-3.16-6.14-6.14-10,0-4.46-2.08-8.34,4.78-9.07,2.19-.83,2.44-.85,8.81-4,5.3-2.18,5.07-1.6,5.93-1.68,1.68-.72,1.68-.39,5.83-2.05,8.35-1.87,7.41-1.59,8.35-.64,5.7.11,3.16,0,17.82.65,8.78.66,7.7-1.7,7.41-3.71,4.68-8.22.7-1.81,3-9.85.36-.95-1.2-.52-.3.76-3.06,9.8-.59,1.53-4.54,8.17-7.06,3.41-7.7,1.7-8.72-.19-17.83-.65Z" transform="translate(340.79 396.35)" fill="#8733f3" fill-opacity="0.15"/><path d="M534.39-187.75l6.18,14.44,7.09,15.16,7.92,15.41,9,15.89,10.31,16.54,3,4.4L585.09-94l8,14.56,1,1.56L602-67.77l9.85,7.34,10,7.2.88,1,7.6,8.93,4.43,6.79,11.31,18.2L652.5-4.39l6.22,18,2.75,9.63,2.3,10.21.66,2.85.31,3.47.9,9.27-1,9.35-.1,2.08-3,10.5L657.63,81.2l-4.37,9.24-.33.86-3.45,9-3.89,10.12-4,10.49-4.11,10.69-7.11,22.18-6.83,23-4,10.5-4.37,9.24-4.65,8.45-1,2.58-7.66,15.94-.51,1.34-3.76,7.95-.81,2.1-4,10.3-3,7.83-1,2.57-2.52,8.7L583,276.29l-3.62,12.79L578,299.61l-.57,11.87.84,10,.44,2.52,3.49,13.51,1.22,3.86,4.45,10.69,2.31,5,5.52,10.37,1.87,3.36,5.61,8.31,2.59,3.66L622,401.67l1.1.47.86,1.15,7.76,10.33,3,6.1,3.47,9.6.83,4.25.77,5.33,1.75,7.65.64,5.38.48,7-.26,4.34.23,7.66-.73,14.7-.31,8.76-.48,3.68-.66,7.83L639,512.44l-.67,4.49-2,8.26-1,2.58-1.77,11L633,540l-1.65,10.41-.73,1.91-1.77,8.58-3,10.6L624.15,576l-2.28,5.92-1.27,5.46-2,5.15-.37,9.51-.2,2.36.54,3.46,3.18,10.37,3.32,6.32,6.58,10.05,3.94,5,6.17,7.76,3.59,5,4.47,6.7,4.46,9.15,2.32,5.88,2.16,7.82,1.33,10.58.31,2.25-.8,11.55-.84,2.19-2.41,8.09-8,20.71-3.93,10.21-.81,3.65-2,7.27.07,7.47-.31,4.76,1.38,5.27,3.63,8.89L650,791l9.89,14.26,6.48,9.12,7.9,12.4,4.74,8.14,2.95,4.83,7.69,13,8.23,11.87,3.12,3.79,5.63,6.42,9,9.53,3.57,3.87,5.44,5.67,8.83,10L742,914.68l8.16,11.73,3.37,5.9,4.22,7,6.73,15.46,1.2-.37-6.4-13.87-.77-1.67-4.28-7.17-3.37-5.9-.88-1.37-7.65-10.63L733.76,903,724.83,893l-5.44-5.67-3.53-4-9-9.45-5.63-6.42-3-3.74L690,851.91,679.36,834.2l-4.7-8.24-8-12.44L658.42,802l-8.07-11.69L647,784.39l-3.56-8.76L642,770.14l.22-4.24,0-7.44,1.9-7.07,1.21-3.15,4-10.4,2.89-7.54,5-13.08,3.09-10.79.77-11.78-.41-2.29-1.23-10.54-2.19-8.05-2.28-6-4.56-9.19-4.63-6.88-3.56-5.09-10-12.75-6.62-10-3.19-6-3-10.09-.65-3.5.69-1.81.41-9.61,1.91-5a15.06,15.06,0,0,0,1.34-5.32l2.27-5.92,1.72-4.48,3.06-10.7,2.48-11,1.68-11.4,2.46-13.73,2-8.16.74-4.68,1.5-6.36.7-7.93.44-3.59.48-11.91.53-11.78-.12-7.61.25-4.34-.58-7-.56-5.58-1.75-7.65-.73-5.42-.83-4.25-3.53-9.75L632.1,413l-7.68-10.53-1.06-1.23-1.1-.48L606,381.9l-2.48-3.62c-1.85-2.8-3.85-5.55-5.6-8.3l-2-3.18-5.41-10.33-2.31-5-4.35-10.65-1.29-3.67-3.43-13.37-.34-2.48-.88-9.94.4-11.72,1.46-10.5,2.48-12.27,3.41-12.54L589.14,253l2.94-7.64,4-10.3.8-2.1,3.73-7.86.51-1.33,7.79-16,1-2.58,4.66-8.45,4.37-9.24,1.24-3.24,3.27-8.49,6.8-23.21,3.25-10.28.25-.67,3.51-10.94,3.44-9,4.59-11.93,3.66-9.54L653,91.53l.32-.85,4.38-9.24L662,70.27l2.76-9.93V58.22L667,48.78l-1-9.23-.11-3.38-.8-3.12L663,22.78,660.13,13l-1.35-4.13L654.09-4.26l-7.31-14.26-1.13-1.93L635.37-36.76,631-43.51l-8.83-10.91-9.87-7-2.52-2L602.47-69l-7.62-10.72-8-14.56-7.14-12-3-4.41-11-16.52-9-16-8.15-15.73-7.06-14.93-6.4-13.86-5.37-14.43-5.55-14.28-1.3.33L529-201.43Z" transform="translate(340.79 396.35)" fill="#8733f3" fill-opacity="0.15"/><g mask="url(#c)"><path d="M313.23-251.06l-17.91-1-3.61.23-5.09-.18-9.1,1.09-7.32,1.64-8,1.9-2.2.83L254.9-244l-7.4,4.27-5.12,6.92-1,2.67-.3,12.1,2.49,6.63c1.12,2.59,2.1,5.24,3,7.74l.68,1.29,7.62,12.84,7.8,12.69,3.54,5.74,4.08,7.42L275-155.3l1.81,7.23,1.72,6.19-.77,4.45-.92,6.38-2.47,4.28-3.57,5-2,1.16-3,1.38-4,2.4-3.17,1.53-4.54.83-3,.49-4.69,1.21-9.09,2-6.64,1.7-8.62,2-6.63,2.6-7.8,2-2.12.32-5.92,1.35-8.15,1.06-6.67.57-1.74.26-1.1.41-6.87,1.39-7.69,2.92-6.59,4.62-3,3.17L155-83.32l-5.29,5.51-.4,1L143.85-68l-.37,3.4-1.11,8.08,2.29,13,1.74,4.64,4.94,10.35,2.37,3.91,5.4,7.32L162-13.18l1.68,2,6.72,9.67L175.85,6l2.25,4.53,5.33,10.85.53,6.56.09,5.27-.59,1.52-3.3,8.59-.58,1.53-4.78,9.07-5.15,7.9-4.85,8.37-1,2.57-4.07,10.6.12,7.61.25,4.55,1.74,6.76,1.61,6.8.93,3.4,3.43,10.59,3.22,5.39,6.7,8.21,1.93,2.61,1.58,1.68,8.08,6.47,3.36,2.56,6.3,5.26,7.46,5.65,2.42,1.93,5.89,4.53,3.68,3.25,2.15,2,7.22,6.55,9.62,9.8.25,1.78,2.18,10.83-3.3,4.92-1.87,4.86-2.78,3.26-3.36,6-1.85,1.77L222,229.5l-.26.66-1.34,1.65L216,236.73l-1.31,1.88-3.65,6.44-1.31,3.43-.85,12,.47,1.2,7.32,14.26,9.14,8.27,4.63,3.21,5.32,4.17,7.23,4.11,3.1,2,10.68,5.48,9.25,4.64,11.43,5.68,5.72,3.13,5.18,3,1.11.48,9.16,6.71,6.48,7.56,2.14,2.37,1.37,1.92-.73,1.91-.6,9.2-2.29,2.9-3.21,6.52-1.53,2.45L296.51,369l-.7,1.81-2.53,9-.1,4.52.43,7.74,1.68,12.73,1.68,6.62,1.64,7,1.28,2.77,7.61,13.49,8.45,11,5.66,6.66,2.91,4,8.57,10.68,3.23,3.5,5,8.05,7.31,9.36,1.11,1.7,2.13,2.7,6.35,8.51,8.94,9.73,2.83,2.1,6.75,6.24,6.66,3.75,3.49,2.83,9.45,5.95,2.95,2.38,10.52,7.74,7,5.57,6.37,4.51,13.23,10.14,9,9.3,6.67,9.21,1.45,2.62L458,594.92l1,6.45.78,6.23-1.05,10.67-1.8,4.67-2.09,5.44L452.67,632l-3.5,6.06-1.1,2.86-3.36,7.23-1,2.57-7,18.23-.22,4.24-.93,7.61,3.29,7.63,4.94,7.91,3.4,3.68,2.42,1.93,7.12,6.51,7.83,6.81,4.18,3.79,6.36,7,7.47,11.1,4.33,13.76-.11,8.84.09,2.82.91,3.73.94,9.18,3.11,4.12,2.21,1,7.58,5.93,4.12.88,6.6,3.61,4.12,1.77,6.65,2.85,4.64,2,12,7.17,4,2.72,9,7,9.59,9.57,8.83,10.91,5.24,14.14,1,11.54-.64,4.72-2.31,6-1.77,4.58-4,4.71-1,2.58-6.43,3.9-4.36.35-3,2.14-3.58-.76-5.12.8-7.36-1.6-1.95.49-3.44.41-3.85,2.69-4.58-.3-3.28,1.82-3.55.69-.42,8.72-2.08,1.77-.26.67,3.77,2.4.71.3,10.29,3.75.7.3L537,909.6l5.24,1,3.85-.23,8,1.53,1.31.56,9.18,4.83,2.43,1.6L580.39,929l3.64,3.34,9.24,8.64,2.87,3.23,10.21,12.5,3.94,5.92,8.78,11.67,4.27,13.62-.44,7.25-.72,4.92-4.57,9.16-3.92,10.21,8.08,11,9.54,8.76,10,7,2.92,1.25,7.29,5.14,5.61,3.74,4.33,3.08,10.06,8.33,6.4,13.86-2.21,11-.55,1.43-4.82,8.27-8.28,8.12-3.65,3.1-7.22,4.12-6.46,3.68-7,2.75-.22.58-6.25,3.43-6.1,1.82-.55,1.44-2.35,1.21-4.11,3.68-2.58,1.23,2.34,7.34,8.46,8.53.95,1.18,6.55,2.82,5.44,2.33,9.14,2.48,1.1.48,8.67,2.17,2.62,1.12,7.71,2.53,3.43,1.48,7.27,2.45L683,1174l.44-1.15-3.62-1.56-7.37-2.5-3.33-1.42-7.84-2.49-2.62-1.12-8.87-2.26-1.21-.51L638,1158l-4.13-1.78-6.44-2.77-.71-.3-8.46-8.53-1.89-6.37,2.34-1.21,4.08-3.59,2.52-1.36.55-1.43,6-1.87,6.11-3.38,1.1-.42.22-.57,6.59-2.51,7.32-4.08,6.63-3.82,3.8-3.15,2.58-2.45,6-6.1,5.67-9.58,2.26-11.37L674,1066.82l-.7-.31-9.7-8-4.63-3.21-5.4-3.66-7.3-5.13-2.92-1.26L633.08,1038l-8.61-8.14-7.69-10.53,3.89-10.11,4.57-9.16.37-1,.59-4,.32-7.87-4.26-13.95-1-1.42-7.94-9.86-4-5.83-10.24-12.73-2.9-3.14L592.8,937,587,931.48l-3.68-3.25L569.72,918,567,916.8l-9.14-4.93-1.51-.65-8.62-1.69-3.85.23-5.37-1-7.16,2.15L520,906.85l-2.9-1.92,1.7-1.38.45-8.48,3.55-.7,3.14-1.76,4.62.2,3.88-2.78,3.13-.21,1.95-.49,7.43,1.74,5-.94,3.25.72,3.18-2.18,4.33-.26,7-4.44.84-2.2,4.22-5.19,1.76-4.58,2.31-6,.72-4.92-.8-12.57-6-15L564.31,823l-8.46-8.52-1.55-1.45-9.08-6.9-3.9-2.68-12.1-7.31-4.73-2-6.63-3.51-4.25-1.16L507,785.86l-4-.84-7.78-6-2.12-.91-2.88-3.79-.94-8.86-.88-3.82-.13-2.72.1-9.41-4.5-13.94-7.47-11.1-6.56-7.05-4.34-4-7.83-6.8-7-6.47-2.33-1.88-3.53-3.63-4.65-7.45L437,679.61l.84-7.09.4-4.39L445,650.38l1-2.48,2.86-7.44,1.1-2.86,3.5-6.06L455.6,628l2.17-5.63,1.83-4.78,1.24-11.47-.74-6.32-1.1-6.59-4.52-12.06-1.42-2.72-6.74-9.34-10.07-8L423,551l-6.3-4.37L409.6,541l-10.48-7.84-2.86-2.33-9.45-6-3.52-2.74-6.72-3.89-6.59-6-2.9-2.25-3.82-4.08-5-5.37L352,492,350,489.48l-1.11-1.7-7.31-9.37-5-8-3.29-3.64-8.57-10.68-2.91-4-5.76-6.7-8.36-10.93-7.47-13.22-1.25-2.86-1.61-6.81-1.65-6.38-.47-4L294,392.53l-.43-7.74v-4.57l3-9.84,3.81-7.48,1-2.58,3.1-6.23,2.44-3.29.56-9.09.84-2.2-1.5-2.2-2.24-2.41-6.65-7.74-9.15-6.72-1.31-.56-5.25-3.14L277,313.83l-10.62-5.34-12.7-6.35-8.4-4.38-3.43-1.47-7.12-4.06-5.26-4-4.56-3.08-9.18-8.49-7.21-14.22-.47-1.2.29-.77.85-10.75,1.21-3.15,3.68-6.53.7-1.82,4.39-5,1.86-2.1,4.68-7,2-2.24,3.19-5.86,3.09-3.45,1.76-4.58,3.41-5.21-2.1-11-.29-2-.8-.34-9.12-9.26-7.55-10.58-3.68-3.25-6-4.48-2.39-2-7.36-5.61L193.43,149l-3.36-2.56L182.2,140l-1.52-1.54-1.94-2.61-6.63-8.07L169,122.47l-3.41-10.36-1-3.31-1.57-6.9-1.78-6.66-.18-4.41,0-7.57,3.67-9.54,1-2.58,4.82-8.27,5.58-8.72,4.34-8.25.63-1.62,3.34-8.69.66-1.72-.23-5.21-.61-7.26L179,10.59l-2.25-4.53L171-1.76l-6.56-9.49-1.68-2.06-2.91-4-5.4-7.32-2.21-3.72-4.94-10.35-1.77-4.55-2.12-12.8,1.34-7.77.46-3,5.15-7.91.44-1.14,5.07-5.27,2.74-3.16,3-2.94,6.59-4.62,7-2.75,6.9-1.48,1.07-.32,1.74-.26,6.67-.58,8.29-1.11,5.82-1.39,2.08-.22,7.9-1.94,6.67-2.69,1.26-.24,7.36-1.73,7.8-2,7.93-1.7,4.65-1.12,3.28-.59,4.58-.92,3.17-1.53,3.88-2.45,3.09-1.34,2.86-2.55,3.43-5,2.74-4.38,1.82-11.45-1.76-6.09-1.86-7.69-4.79-8.29-4.08-7.42-3.64-5.79-6.46-10.67-9.81-16-6.08-14.72.06-2,.23-9.46.88-2.29,5.12-6.92.73-.35,6.32-3.63,4.82-2.48,2.2-.84,7.68-2.26,8.41-1.72,7.6-.85h5.16l3.54,0,8.95.52,17.61.89,8.74-.14,3.85-.24,5.42-1.89,6.92-4.59.26-.66,4.22-8.53.55-1.44,1-14.47L351.8-291l-1.1-.47.15,9.07-.15,2.83-.87,11.41-.44,1.15-4.47,9.19-6.65,4.48-5,1.84-2.15.41-9,.47-5.53-.26Z" transform="translate(340.79 396.35)" fill="#8733f3" fill-opacity="0.15" stroke="#eb5c5a" stroke-opacity="0.15" stroke-width="2"/></g><path d="M519.92-206l3.58,10.21,7,18.46,7.09,14.83L551-136.27l2.62,4.79,5.06,8.52,4.57,7.63,10.68,16.49,15.68,27.3,3.86,5.21,4.94,5.79,3.73,2.5,17,11.73,7.91,10,7.79,12.68L642.59-11,649.7,3.19l1,3.12L654,16.16l1.38,4L658.62,34l1.57,11.79-.52,1.34-.38,10.17-1.76,4.58-1.09,5.87-2.23,5.83L652.52,78l-2.27,5.91-1.73,4.49-2.09,5.44-4.21,11-4,10.5L633,130.65l-6.81,21.09-6,19-4,10.5-4.27,9.28L611,192.9l-3.38,6.66-1.89,3.08-2.27,5.92-2.49,4-1.84,4.77-2.93,5.19-1.43,3.72-3.44,6.2-4,10.3-1,2.58-3.61,11.23L581,264.18l-1.69,4.39-2.84,12.9-.91,4.5L574,297.32l-.27,4.66-.31,7.21.39,4.5c.3,2.58.43,5.3.59,7.93l1.44,7.84,1.55,5.45,4.19,12.92.64,1.38,7.12,15.07,7.17,11.86,8.16,12.06,8.83,10.91,7.76,10.34,3.9,6.35,3.69,6.58,3.16,8.26,2.89,8.68,1.08,4.81.65,5.95,1.23,6.86.32,6.81.09,5.26-.12,3.06V481l-.52,8.68-.12,3.06-1,11.46L636,505.4l-1.67,9.85-1.28,3.34-1.5,7.58-1,5.91-2.67,16.42-2.26,10.15-3.1,11.12-4,10.4L615.33,591l-.06,2.3-.88,9.3,2.43,13.83,7.11,14.17.75,1.1,16.17,20.84,5.14,8,2.8,4.32.74,1.43L655,680.67l2.12,12.81-.43,9-.07,2.64-2.76,9.93-8.52,20.35-4,10.31-3.06,11-.44,1.14-.84,10.75,3.59,13.56.45,1,7.51,13.12,1.44,2.06,6.86,9.62,5.39,7.65,2.74,4.18,7.71,12.32,9.83,16.23,5.89,9.42,5.26,7.37,3.11,4.12,3.89,4.23,5,5.6,5.28,5.49,3.9,3.9L724,898l8.76,9.88,3.54,4.52,5,6.26,2.94,4.26,5.11,7.76,4.86,8.42,2.55,5,4.3,9.85,2.06,6.56,1.27-.24-2.06-6.55-4.37-10-2.61-5.12L750.39,930l-5.11-7.76L742.34,918l-8.53-10.78-7.76-10.34L717,887.49l-3.84-3.76-5.24-5.59-5.08-5.73-3.76-3.95-3.11-4.12L690.78,857l-5.89-9.42L683,844.32l-8-12.87-7.81-12.36-2.7-4.27-5.39-7.65L651,795.67l-7.81-14.48-.36-1.82-3.14-11.69.91-11.51,2.76-9.93,4.21-11,7.94-18.83,3.17-11-.07-2.58.46-9.14-2.14-13-5.47-14.47-.4-1.73-2.9-4.36-5.1-8.08-17-21.85L618.77,616l.3-.76-2-12,.87-9,.13-2.5,3-9.85,4.25-11.07,3.05-10.69,2.39-11.1,2.73-16.28.91-5.72,1.47-7.49,1.29-3.34,1.94-11.17,1-11.56.16-3.15.41-8.72,0-9,.19-2.93-.16-5.4-.18-6.86-1.23-6.87-.75-6-1-5-3.05-8.87-3.16-8.25-3.66-6.68-4.1-6.44L615,398.21l-8.44-10.41-8.09-11.92-7.21-11.77-7-15-5.87-14.64-1.45-5.4-1.48-7.76-1.18-12.18.26-7.11.24-4.57,1.54-11.35.91-4.5,3-12.95,1.69-4.39,1.8-7.45,3.51-11.27,1-2.48,3.92-10.22,3.44-6.19,1.39-3.63,2.93-5.19,1.87-4.86,2.5-4,2.23-5.82,2-3,3.42-6.76.92-2.39,4.27-9.28,4-10.5,3.15-8.21,1.18-3,2.89-7.54,3.07-9.8,3.88-10.12,5.16-15.24,4-10.49,4.29-11.17L650.86,90l1.72-4.49,2.24-5.82,1.76-4.58,2.2-5.73,1.12-6,1.87-4.87.39-10.17.58-1.53L661.4,34.13,658.11,20.7,652.88,3.78l-7.31-14.26-8.28-13.89L630-36,619.53-47.46,599.4-61.33l-4.51-5.38-3.83-5L575.28-99l-10.55-16.53-4.67-7.68-5-8.47-2.56-4.65-13.43-26.12-7-15-5.4-14.33-5.07-14.3-2.7-6.71-3.25-7.74-1.2.38,3.25,7.73Z" transform="translate(340.79 396.35)" fill="#8733f3" fill-opacity="0.15"/><path d="M356.51-240.92l-3,2.6-6.76,3.55-2.22.6-5.57,1-3.92.43-4.52.17L313-232.71l-3.47.17-5.14.24-8.77,1.13-7.23,2.34-6.91,2.7-1.17.61L272-217.07l-1.11,11.75,6.71,14.89,9.7,16.29,11.55,17,4.3,6.85L308.6-141l1.55,5.45,2.28,8.1-.4,7.16-.19,4.15-5,10.2L297-98.37l-8.15,2-6.68.91-9.88,1-3.24.17-5.24.52-7.87.63-1.64.29-6.24,3.11-7.46,3.24-6.53,3.86-5.88,2.48-9.47,2-9,2.12-6.49,2.22L195-70l-4.44,7-1.84,2.33-1.61,9.09-.74,1.91-1.41,11.62,2.41,13.27L197.46-8.4l8.42,12.29,2.86,4.46,9.47,16,2.61,6.35,3.24,8.06-1.35,10.54-3.47,6L217.78,59l-8.13,13.51L199.9,88.16l-3.36,10.89,1,4.43,1.79,8.78,1.86,4,6,11.48,1.43,2.39,2.85,3.57,5.53,7.6,4.22,4.59,5.1,4.74,2.79,2.2,6.67,5.87,7.26,5.23,2.65,2.25,8.54,5.89,21,16.57,8.22,6.09,5.89,4.53,4.7,5.47,7.4,11.29-3.67,9.54-6.41,3.25-7.48,2.68L276,232.79,270.34,234l-2.26.69-2,.92-5.33,2.27-6,3-1.11.75-.3.76-5.45,5.33-3.14,3-2,5.24-1.9,5,3.66,7.57,9.24,9.53,2.93,1.26,7.69,4.41,10.67,4.59,12.39,5.32,9.47,4.07,1,.43L308,302.47l1.11.47,9.41,6.05,4.43,4.34,4.74,4.15,8.82,10,4.85,6.64,3.5,4.62,1.76,2.75,1.24,6.54,1.39,6.16-4.85,4.36-3,4.07-2.88,2-6.29,6L326.1,380l-4,10.5-2.36,10.1-.41,1.05.16,12.41,4.61,11.54,1.57,3.23,6.62,8.74,9,9.63,9.22,9.3,9.3,8.77,5,4.47L369,474.1l9.27,8.87,9.4,8.82L406,511.42,414,520.9l9.81,10.21,8.86,7.48,4.12,3.32,5.44,4.46,8.72,7.85,9.16,10,6.41,9,1.62,2.81,5.13,12,1.17,4.28,2.26,9.09,1.34,12.69-1.37,11.2L471.92,635l-5.67,9.57-3.39,10.67-.37,1-2.06,10.24-.73,1.9-1.89,9.2,2.4,11.15.52,2.33.7.3,9,10,9.38,11.92,8.35,8.81L496,732.09l.65,1.06L503.05,747l.37,1.16,5.7,18.46,6,9.79,2.34,2.46,1.21.51,8.9,7.38,5.3,3.62,4.48,3.92,10.33,8.22,9,7.09,9.38,8.59,5.93,6.55,2.89,3.46,5,7.25,3.23,4.72,1,1.75,5,13.93-.22.57,1.87,11.92-.13,9.5-.17,2.27-2.05,11.46-2.15,11.08,1.57,6.9.74,6.32,2.1,2.79,3.4,4.58,6.76,9.9,6.39,8.09,8.71,10.63,8.57,10.69,5.21,6.9,2.82,4.55,4.5,10.6,1.32,7.24.27,5.12,0,3.43-.81,8.22-.11,8.51-1.17,3.06,1.11,5,3.58,9.32,4.06,4.41,3.05,2.43,6.5,6,7.72,5.54,2.23,1.85,6.73,4.78,3.15,2.47,1.49,1.63,7.78,7.24,3.77,7.29v10.11l.15,1.73-3.92,10.21-5.8,9.3-4.17,5.66-2.92,3.3-2.68,3.63-5.78,5-.29.76-1,.88-4.92,4.56-3.09,1.34-2,5.15-6.37,2.83,6.85,12.72,9.77,5.09,1.31.56,10.55,5.54,10.69,5.15.48-1.25-10.67-4.58-10.49-5.39-1.09-1.14-9.11-4.69-6.36-11.85,6.09-2.72,1.91-5,3.17-1.53,4.74-4.41,1.61-1.42.29-.77,5.53-4.62,2.69-3.63,3-3.27,3.55-5.25,5.87-9.49,4-10.5-.2-1.63.06-10.54-4.29-8.07-7.51-7-1.65-1.82-3.26-2.51-6.63-4.74-2.26-1.75-7.56-5.36-6.42-6.2-3.19-2.37-3.92-4.47-3.3-8.53L638,1020.1l1-2.58.14-8.61.81-8.21,0-3.43-.32-5.26-1.42-7.61-4.46-10.7L630.84,969l-5.37-7.09-8.86-11.14-7.87-10-6.3-8-6.86-10L592,918.22l-1.89-2.71-.62-5.71-1.6-7.14L590,892.43l2-11.37.24-2.45.13-9.51-1.94-13-.85-2.37-4.22-11.92-1.3-2.12L576,828.05l-2.86-3.56-6-6.59-9.44-8.73-9.93-8-9-7.09-4.48-3.92L529,786.5l-8.36-7.26-1.51-.65-1.91-2.05-5.91-9.65-5.88-19.2L499,733.82l-.71-1.2-7.84-10.15L481,712.76l-8.38-8.71-9.36-10.47L463,691.8l-2.44-11.38.35-9.75.77-2,2.18-11.18,3.67-9.55,5.67-9.57,4.9-10,1.48-11.48-.16-1.41-1.17-11.62-2.22-9.18-1.24-4.42-5.23-12-1.58-2.9-6.54-9.26-9-9.87L443,547.8l-5.52-4.59-4.25-3.28-8.86-7.47-1.16-1.28-8.38-8.71-9.94-11.39-18.09-18.89-8.61-8.14-9.23-9-4.29-4.4-5-4.47-3.08-3-6.22-5.78-9.78-10-8.38-8.72-6.42-8.65-1.65-3-4.56-11.63-.16-11.19.4-1.05,2.46-10.06,4-10.4,6.28-9.64,5.73-5.44,3.36-2.34,2.76-3.81,5.09-4.71L348,350.44l-1.36-7.14L345,340.59l-3.67-4.8-4.78-6.5-10-11.2-4.91-4.33-3.77-3.62L308.46,304l-1.31-.56-10.07-4.33-.9-.39L286.1,294.4l-1.21-.52-9.46-4.07-1.71-.73-10.08-4.33L255.15,280l-2.7-1.83-.91-.39-8.46-8.52-3.2-6.94,1.76-4.58,2.05-5.34,3-2.84,5.45-5.33L253.5,243l6-3,5.33-2.27,1.76-.91,2.22-.6,5.64-1.25,8.44-1.49,7.31-2.53,6.72-3.45,3.67-9.54-7.32-11.48-2.83-8.22-6.05-4.71-8.26-6-21-16.57-8.4-5.94-2.79-2.2-7.06-5.14-6.67-5.87-3.34-2-5-4.8-4.15-4.45-5.53-7.6-2.72-3.61L208,127.31l-5.89-11.54-1.9-3.92-1.66-8.5-1-4.33,3.28-10.38,11.81-18.83,5.67-9.57,1.47-3.82,3.5-6.05,1.55-11.68-3.2-8.15-2.71-6.39L209.8,8l-2.9-4.36L198.56-7.92l-10-17.31L186.4-37.94l.51-3.78.82-7.32.77-2,1.54-8.9,1.66-2.18,4.54-6.94,1.38-.53,6.34-3,6.34-2.17,2-.45,7-1.67,9.34-2,6.15-2.58,7.21-3.8,7.12-2.94,6.41-3.25,13.59-1.17,3.13-.21,8.38-.74,8.19-1.15,8-1.8,1.1-.42,10.16-8.42,4.86-9.92.36-4.29.11-7.63-3.92-13.91-5.38-9.2-4.36-7L288.07-174.6l-9.54-15.77-6.15-14.54,1.05-10.66,8.25-8.35,6.63-2.6,8.61-2.86,7.88-1,5.24-.19,3.27-.27,17.59.33,4.52-.17,4.06-.48,5.74-1.2,2.23-.6,2.13-1,5-2.73,3.1-2.56,3-3.73,3.08-5.9,1.54-4,1.19-7.05-1.39-11.05.77-2-1.25-12.33-1.11-.47,1.43,14.62.23,9.77-1.15,7-1.43,3.72-2.91,5.75Z" transform="translate(340.79 396.35)" fill="#8733f3" fill-opacity="0.15"/><path d="M511.22-209.6l2.47,6.39,2.77,7.76,3.23,9.61,1.74,4.64,4.84,11.53,1.37,3.14,6,10.79,2.48,4.84,4.95,8.8,3.58,6.87,3.74,7.06,7.75,13.11,8.82,14.91,6.67,10.75,10.51,18.75L586.77-63l9,10.43,12.48,8.14,8.26,4.77,7.87,10.05L639.8-3.72l7.11,14.17,2.46,7.06L653,31.62l.26,2.67,1.71,9.3-.17,12L653,66l-.59,1.52-2.63,9-8.73,22.71L637,109.81l-4.1,10.69-14.44,44.28-4,10.49-2.16,5.63-1.73,4.49-3,5.38-1.36,3.53-4,6.17-.77,2-4.6,7.7-5.47,9.66-5.07,9.83-4,10.3-3.4,10.66-2.75,10.83-2.81,11.91-2,10.28L569.85,295l-.67,11.83.31,6.81.36,5.49,1.22,6.3,1.16,6.73,1.24,4.42,3.23,9.61,3,7.18,3.62,7.67,3.66,6.69,7.64,13.07,8.16,12.06,8.42,11.06,5.33,7.52,2.74,4.18L625.18,427l1.32,2.68,4.13,11.55,1.63,6.15,1.19,7,.33,6.48.48,5.76.07,12-.62,1.62-.22,10-.71,7-.29,4.43-1.85,10.32-2.45,13.41-3.53,21.39-2.35,11-3,10.6-3.95,10.31-3,7.73-1,2.57-1.56,11.68-.18.48L611,613l3.37,9.23,3,5.73,4.93,7,17.06,21.55,4.17,6.57,3.42,6.37,3.33,8.43,2.38,9.69.51,3.56-.1,2.4,0,9.22-2.09,5.44-1.76,4.58-6.13,15.94-1.79,4.67-2,5.25-2,5.06-2.12,5.53-1.87,4.87-.88,8.4-1.14,3,.87,5.38,1.78,7.88,4.49,9.38,3.6,6.21,4.24,6.38,7.61,10.72,8.44,12.85,15.77,25.23L686,861.61l8.52,11.11,6.5,6.9,2.65,2.59,9.19,9.06,9.14,9.49,8.7,9.73L739,921.42l8,12.35,1.3,2.12,5.92,11.77,1.54,3.32,4.4,13.9,1,.44-4.33-13.76-1.6-3.47-6-11.91L748,934l-8-12.35-1.53-2.11-6.92-8.86-8.93-10.06-9.08-9.35-11.77-11.5-6.4-6.87-8.46-11-8-12.21-15.73-25.32-6.43-12.88-7.62-10.72-4.27-6.29-3.64-6.11-4.29-9.3-1.75-7.64-.77-5.34.49-2.79.88-8.4,1.8-4.68,2-5.34,1.94-5.06,2.06-5.34,1.83-4.77,6.09-15.85,1.83-4.77,1.66-5.84.1-9.41.17-2.6-.58-3.69-2.37-9.69L649,669.19l-3.49-6.5-4.26-6.61-17-21.66-4.87-6.87-2.93-5.49-3.28-9.19-1.31-12.46.8.35-.8-.35,1.43-11.06.92-2.38,3-7.73,4-10.5,3-10.6,2.48-11,3.21-20.86L632.25,514l1.84-11.21.37-4.63.63-6.84.28-15.67,0-8.33-.61-6-.13-6.39-1.3-7-1.59-6.24-4.25-11.83-1.32-2.68-6-11.58-2.8-4.32-5.5-7.69-8.25-10.88-8.06-12-7.72-12.87-3.55-6.64-3.62-7.68-2.89-7.13-3.27-9.52-1.21-4.19-1.17-6.72L571,319.72l-.38-5.72-.29-6.58.17-3.81.43-7.82,1.54-11.35,2-10.28,1.69-7.16,1.65-4.3,3.14-12.43,3.12-8.12.8-2.09,3.16-8.21.62-1.62,4.78-9.07,1.83-4.77,2.39-4.09,4.89-8.13.76-2,4.06-6.27,1.35-3.53,3-5.38,1.79-4.67,2-5.25,4.07-10.59,1.8-4.68,2.27-5.92,1.58-4.1,3.67-9.54L639.39,111l3.19-8.31,8.51-22.13.81-2.1,2.57-9.13.58-1.53,2-11.26-1-12.43-1.64-12.82-.49-2.1L650.62,17.6l-2.31-7.11-3.86-7.66L641.07-4,625.66-29.81l-8.74-10.87-10.07-6.77L596.71-54l-8-9.77-4.65-7.44L573.5-90.13l-6.66-10.75-1.24-2-7.83-12.59-7.55-13-3.88-7-3.58-6.87-5-8.8L535.33-156l-5.89-10.64L528-169.83l-4.74-11.49-1.67-4.5-3.23-9.61-2.84-7.89-2.43-6.49L509-219.35l-2.57-5.22-1.2.38,2.53,5.31Z" transform="translate(340.79 396.35)" fill="#8733f3" fill-opacity="0.15"/><path d="M677.54,1155.61l-.71-.3-3.29-9.75-1.11-2.92,3.92-7.77.37-.95,4.49-6.19,1.21-3.15,3.71-5.08,2.19-4.17,5.55-9.85,1.61-4.2,3-5.8.68-4.82,2.24-5.82-1.17-11.62.63-1.62-1.31-3-.51-.22-1.81-.78-7.6-7.71-6.42-3.76-3.89-3-9.3-6.33-2.69-2.16-7-6.7-6.86-10.84-.39-.83-1.76-11,.31-8.76-.24-3.33-.21-4.65-.83-7.92-3.85-14.1-8-13.44-2.85-3.89-5.75-7-7.87-10-8-11.78-3.39-5.24-3.28-9.19L606,911.53l-.14-4.51-.85-7.25.64-12.07-.3-12-3-13.62-6-14.82-8.72-14.86-1.34-2L579,821l-9.2-10-9.13-8.93L554.07,796l-7.69-6.86-4-4.37-5.31-7L533.85,774l-2.09-2.79-5.12-10.2-1.87-4.59-5.41-14.33-6.14-12.42L510.78,726l-6.15-8.42L496,707.64l-7.77-12.13-1.91-3.59-.95-7.3-1.11-5-.33-4-.05-7.81,1-2.67,1-7.89,1.47-3.82,2.38-6.2,1.58-4.11,2.46-6.39.92-6.38.36-5.52-.39-10.28-.2-2.53-2.31-15.67-1.62-6.48L488,582.14l-3.9-8.79-3.95-6.82-4.07-6.19-9-10.86L458,540.09l-6-5.8-8.68-7.95-4-4.18-4-4.73-4.68-5.24-3.87-4.89L422,501.08l-8.82-10.34-2.34-2.45-7.3-6.36-20.47-17.58-8.24-6.65-4-3.71-5.41-4.55-8.6-8.14-8.76-11.1-3.48-5.61-.57-11.36,3.41-8.87.3-.76,4-8.29.52-1.34,4.43-5.43,2.83-2.79,2.84-1.89,4.43-1.76,2.7-1.52,2.61-1,4.42-2.66,5.71-2.32,1.66-1,1.72-.82,3.23-8.39,1-2.58-1.41-5.5-4.88-10.21-7-8.34-5-5.7-3.47-4.71-4.53-6.84-5.48-9.24-1.4-4.94-2.55-8.32-.26-11.23,5.54-14.41,1.47-7.49-2.5-14-2.74-3.85-5.92-11.77-1.74-2.2-2.68-4L340,221.6l-2-3.54-15.49-18.33-1-1.09-9-7.09-10.06-7.1-20.25-13.26-9.8-6.88-9.67-7.49-5.71-5-3.72-3.15-6.08-5.84-2.69-3.38L236.32,128l-1.5-2.2-5.19-13.35,2.05-10.24,5.66-10.13,5.07-8.94L254.13,64l2.06-11.46.26-.67-6-15-8.13-15.5-1.47-3.19L233.3,4.89,224.88-9.84l-1.77-11.88,3.06-21.7,5.48-8.77,6.06-1.73,5.72-1.44,5-.75,5.35-.48,2.83-.34,5.48-.53,8.37-1.3,7.43-3.48,14.68-5.82,6.65-2.36,8.46-2.15,7.53-3.1.6.26,6.78-4.21,4.2-3.31,2.28-2.24L334-89.4l1.92-2,4.69-7.32,2.07-2.33,1.66-10.41.77-2-.64-2.61-3.92-11.79-2.27-3.87-18-28.86L315-171.27l-2.49-4.52-3.89-12.79,1.5-9.69.48-1.24,3.9-3.44,2.13-2.2.94-.6,5.52-1.85,5.3-1,2.53-.8,3.12-.78,8-.91,5.23-1.08L355-214.2l7.61-3.63,4.17-3.21,2.55-2.35,5.18-6.78.48-1.24,3.67-9.54.66-1.72,1.13-10-.86-13-2.17-14.5-4.7.32,2.15,14.26.84,12.15-1.14,10.63-3.67,9.54L366.17-227l-2.23,2.15-3.57,2.58-6.73,3.45-7.53,1.88-4.89,1.13-8.52-1.33-3.49.83-2.4.75-5.29,1-7,2.24-1.35,1.08-2.45,2.4-3.9,3.44-1.92,1.95-1.81,12.34a.81.81,0,0,0,.45,1l3.58,12.66,2.65,5L315-161.82,335.45-129l3.76,11.29.33,1.58L338-105.68l-1.43,1.6-4.7,7.33-1.53,1.56L325.4-91l-2.06,2-3.89,3.11-6.74,4.11-6.78,3-8.32,2.1-7.17,2.48-14.84,6-7.13,3.27L261-63.82l-5.49.53-2.73.39-5.31.39-5.36.81L236-60.21l-7.71,2.36-.48,1.24-5.58,8.72-.18.48L218.8-24.24l2,13.75,9,16.08,6.92,12.53,1.54,3,8.23,16.76L252,51.41l-1.75,10.36-11.65,19-5.28,8.85-4.16,7.78-.77,2-2.28,12,6,15,1.82,2.9,8.34,11.59,2.76,3.51,6.64,6.53,3.82,3.19,5.7,5,9.88,7.58L281.34,174l20.05,13.17,9.9,6.92,8.44,6.73.91.39,15,17.55,2.15,3.59,5.49,7.69,2.63,4.14,1.55,1.77,5.66,11.55,2.64,3.81,2.07,12-1.22,6.26-3.89,14.67.18,13,2.81,8.88,1.45,5.4,5.9,10,4.59,7,3.74,4.94,5.1,6,6.5,7.79,4.31,9,1,3.77-.48,1.24-3,7.73-2.17,1.07-5.6,2.37-4.29,2.61-2.75,1-2.93,1.52-4.33,1.81-3.43,2.19-3.52,3.38L351,390.54l-.8,2.1-4.38,9.24-3.66,9.54.56,13.81,4.26,6.61,9.16,11.6,9.1,8.69,5.51,4.59,4.07,3.75,9.63,7.92,19,16.17,7,6.23,2,2.09,8.75,10.21,4.65,6.22,3.93,5,4.85,5.41,4,4.6,4.15,4.45,14.4,13.53,8.92,9.16,8.58,10.36,3.94,5.92,3.66,6.35,3.71,8.37,2.58,7.34,1.49,6.2,2.56,12.88.27,2.34.27,9.68-.31,5.09-.71,5.81-2.35,6.11-1.57,4.1L486,648l-1.57,4.1-1.12,8.09-1.17,3.05,0,8.46.21,4.32,1.11,5.37,1.3,8.23,2.32,4.33,7.91,12.4,8.85,10.25,5.92,8.11,2.19,3.16,5.95,12,5.33,14.52,2,4.63,5.38,10.43,2.31,3.44,3.43,3.92,5.37,7.09,4.22,4.59,8,7.08,6.45,6.11,9.13,8.93,8.8,9.45,7,9.14,1.21,1.74,8.33,14,5.22,13.92,2.8,12.87.44,12-.6,11.64.88,7.49.09,5.26,1.65,5.16,3.47,9.6,3.71,5.93,8.15,12.07,8.67,10.73,5.65,7,2.72,3.61,7,12.34,3.68,12.71.74,7.54.21,4.65.22,3.09-.18,8.71,1.77,11.88.6,1.81,7.14,12,7.84,7.37,3.1,2.33,9.3,6.33,3.89,3,6.42,3.76,7.6,7.71,1.3.56-.44,1.14,1.24,10.54-2.09,5.44-.72,4.92-2.88,5.65-1.58,4.11-5.43,9.56-1.58,4.1-3.82,5.37-1.17,3-4.76,6.29-.23.57-.44,1.15-4.67,9.11,1.75,4.31,3.41,10.36,2.12,1.8.81.34,9.74,7.63.51.22,2.25-2.81-10.64-8.35Z" transform="translate(340.79 396.35)" fill="#8733f3" fill-opacity="0.15"/><path d="M502.09-210l4.43,11.36,7.89,22.84,2.35,5.79,4.73,9.37,3.42,6.36,4.23,6.71,5,9.17,2.5,4.19,7.46,13.87,8,13.77,10.18,16.27,4.89,8.65,7.53,13.69,6.11,9.74,1.86,2.8,9.4,10,8.21,5.2,12.11,8.2,8.11,10,15.13,26,5.7,11.45,1.28,2.77,3.06,10.66,1.67,9.39.46,3.09,0,2.54.22,9.21-1.16,7.28-.41,3.83L644,72.91l-.49,1.9-3.18,8.87-.44,1.47L636.51,94l-3.81,10.82-3.6,10.9L622,137.6l-.07.19L615,158.6l-4.07,11.82-4.08,9.7-4.76,8.41-4.78,8.17-1,1.45-3.89,6.78-1.78,2.79-3.15,5.76-2.32,3.9-2.41,4.74-3,5-4.5,10.19-3.33,10.8-1.4,5.18-3.87,16.79-2.19,11.18L563,292.79l-.84,11.65.26,7.56,0,4.8,1,6.64,1.11,6.59,3.92,13.91,6.69,15.88,8.21,15,7.11,11.73,8.08,12.25,8.14,11.5,4.06,6.53,3.74,5.83L621.37,437l.76,2,1.47,5.64,2.16,7.82.61,3.6.81,8.57,0,6.35.14,5.73-.25,12.57-.67,10.61-.82,4.87-1,6.34-2,11.13L619,544.56l-2.31,10.9-3,10.5-1.39,3.63-2.71,6.73L608.4,580l-2.53,6.59-.77,5.67-1.26,6,.49,12.77,4.76,14.5,2.1,3.68,5,6.82,3.4,4.91,2.17,2.6,6.64,7.74,8.16,10.84,7.26,13.47.39.83,3.43,13.37.28,6.9-.13,4.61-2.7,10.07-4.32,10-4.61,10.14-.51,1.34-3.95,8.75-.2,1.14L628,752.22l-.3,2-2.05,9.9,1.4,8.28.35,4.59,1.38,4,5.32,11.51,2,3.41,4.68,6.46,3.59,5.32,8.06,11.69,4.76,7.16,3.15,5.24,7.87,12.5,2.38,3.58,7.35,11.71,6.33,9.17,7.4,8.85,1.55,1.78,1.29,1.22,8,7.88,7.78,7.23,10.57,10.66,8.7,9.74,8.32,11,5.33,8.41,2.34,4,5.66,11.22,1.27,3.1,3.31,10.32,1.3,9.45-.18.48.2.09.19,1.63,4.66-.22L760.55,964l-3.66-11.24-1.27-3.44-6-11.67-2.36-4.24-5.6-8.63-8.55-11.34-8.93-10.06-10.74-10.84-7.68-7.19-8.06-8-1.16-.94-1.39-1.59-7.1-8.39L682,857.34l-17.64-27.7-3.15-5.24-4.82-7.3-8.16-11.74-3.49-5.27-4.58-6.42-1.72-2.85-5.22-11.14-1.1-3.25-.29-4.13-1.27-8,1.88-8.86.18-1.7,3.39-9.11.23-.91,3.84-8.79.48-1.24,3.73-8.18,5.34-12,0-.1,2.93-11,.05-5.32-.2-7.42-3.59-13.88-.5-1.44-7.59-14.16L632,648.76l-6.6-7.85-1.91-2.37-3.5-4.95-4.61-6.32-1.85-3.13-4.34-13.42L608.61,599l1.28-5.46.63-5.29,2.45-6.39,1.16-3.62,2.6-6.78,1.43-3.72,3.13-10.88,2.35-11,3.51-22.29.18-.14,2-11.27.93-6.38.85-5,.77-11.79.27-12-.2-5.87,0-6.35-.8-8.91-.61-3.92-2.34-8.24L626.71,438l-.89-2.27-7.15-15-4-6.15-4-6.62-8.24-11.55-7.92-12.07-7.14-11.63-8-14.66-6.63-15.74-3.55-12.75L568,322.89l-.82-5.8-.13-4.84-.31-7.14.77-10.56,1.6-12.1,2.15-11.09,3.79-16.6,1.33-5,1.81-6.23.18-.15,1.2-4,4.45-9.76,2.9-5.1,2.33-4.55,2.32-3.9,3.12-5.66,1.74-2.7,3.83-6.92,1-1.35,5-8.42,4.8-8.5,4.32-10,3.77-10.72,7.22-22.14.11-.28,6.91-21,3.42-10.43L641,96l3.44-9,.35-1.52,3.28-8.82.54-2.33L651,65.79l.5-4.35,1.26-7.24-.23-9.77.07-2.64L652.05,38l-1.6-9.58L647.2,17.35l-1.5-3.42L639.88,2.2l-7.69-13-7.62-13.16-9.09-11.47-12.7-8.46L595-48.75l-8.41-9-1.9-2.7-5.84-9.52-7.54-13.69-5.05-8.84-10.07-16.22-8-13.53-7.46-13.88-2.46-4.28-5.14-9.21L529-156.38l-3.33-6-4.57-9.19L518.86-177,511-199.81l-4.5-11.5-1.38-3.14-5.64-11.88-2.75-5.07-4.23,1.85,2.64,5Z" transform="translate(340.79 396.35)" fill="#8733f3" fill-opacity="0.15"/><path d="M388-257.2l.46,6.43L387.61-240,384-228.45l-4.78,9.06-5.5,6.09-3,2.51-3.4,2.43-7.06,3.41-2,.69-5.37,2.36-5.74,2.43-3.36,1.11-5,4.09L334.14-190,333-187l-2.15,7.75,3,13.52,7.31,14.26,1.07,1.8,7.1,9.94,5.46,7.46,2.6,4.23,5.83,11.4.62,4.49.4,7.51-.84,2.19-3,7.83-1.43,1.27-3.47,3.85-2.41,2.3-.27,1-5.25,4.52L343.9-78l-2.18,2.62-5.47,6L330.16-63l-2.51,1.93L324-57.57l-6.52,4.76-6.74,4.11-4.31,2.37-2.56,1.46-3.33,1.35-4,1.51-4.92,1.22-2.82.9-2.53.48L281-37.9l-6.74,1.66-1.17.61-1.35.76L266-31.75,262.39-29,260-25.45l-3,6.27-.91,4.5-1.15,7L256.51,5,257,6.4l4.09,12.88,6.11,14.63,2,3.64,7,12.25.57,1.24,6.41,13.87-.81,2.1-1,8.79-5.78,8.63-5.47,9.66-3.26,8.49-.7,1.81-2.86,11.12.21,2.2,1.9,10.93,3.93,7.47,4.6,8.2,3.48,4.06,9.05,9.44,7.74,7.33,1.92.82,10.09,7,9.9,6.92,9.81,7.44,9.49,8.3,1.62,1.58,7.64,7.29,9.12,9.25,9.05,9.44,9.69,8.06,10.05,7.43,8.83,7.57,5.13,5,4.13,3.89,4.38,5.11-.06,9.31.27,2.34-4.5,6.85-5.62,13.38-1.86,8.2-1.1,2.86.63,6.61.88,6.27,5.22,11.14,1.73,3.74,6.25,8.8,5.6,8.3,2.28,3.87,5.79,11.49-1.66,10.41L413,379.48l-2.22,2.71-4.1,2.13-5.56,3.17-2.35,1.22-6.19,2.68-7.65,3.71-6.11,4.61-3.45,3.18-2.45,3.62-3.6,6-1.21,3.15-2.75,7.16,3.49,12.61.79,1.9,8.31,8.91,6.92,6.42,2.35,2.45,4.24,3.6,5.49,4.36,2.26,1.75,13.31,9.94,4.17,2.9,12,9,7.12,6.83,5.88,7,2.94,3L453,514.74l6.27,9,2.14,2.36,8.72,10.31,4.38,6,4.05,4.74,8.31,11.35,7.4,13.41,1.13,3.16,4.39,15.45,3.45,23.71.93,12.85-.24,8.24-.26,3.44-2.87,14.79-1.3,7.66.32,3.14.45,9.2,2.16,9,1.5,4.65,5,11.62,1.64,3.37,6,9.6,3.69,6.59,3.89,6.67,3.67,8.47,2.78,7.42,2.22,6.74,5.51,14.37,5.65,10.65,3.44,5.38,5,6,5.47,5.91,7,7.68,5.56,5.39,4.87,5.65,3.89,4.23,3,4.07,5.45,6.9,6.7,10.33,9.21,15.74,6.15,14.54,2.82,13.11L613,890.2l0,11.8,2.48,13.08.31,1L622.26,930l.71,1.2,8.27,11.77,3.14,4.35,5.28,6.72,8,11.46,6.41,13.87.37,1.49,1.77,11.88.86,11.49.24,2.43,1.75,11.32,3.28,9.19,4.88,6.54,3.82,4.09,10,7.2,5.12,2.86,5.52,1.82,5.23,2.25,6.83-1,1.51.64.22-.57.6.26.52-1.33,6.32-1.51,3.13-6,2.27-1,3.26-3.6,2.76-2.6.48-1.24,5-5.08,2.11-3.65,3-4.25,2.87-5.33,2-3,3.58-6.57.77-2,5-8.32,3.66-9.54.26-.67,1-10.67L752.52,962l-1.36-3.81-4-10.62-2.61-5.12-6.19-10.77-1.56-2.34L728.47,918l-3.68-4.15L719.55,908l-4.92-4.9-4.27-4.17L701,890.3l-1.78-1.77-7.62-6.72-9.08-9.68-8.29-10.79-4.62-7.21-3.36-5-6.68-11.32-5-8.14-5.11-8.08-15.26-21.35-7.6-12.6-5.14-14.1-.34-4.93-.11-7.05.81-2.1,1.87-8.53,1.21-3.15,2.68-7,1.17-3,2.83-7.35.88-2.29,4.37-9.24,3.33-8.68L643,699.09l-.3-5-.21-7.09-1.88-7L638,672.8l-4.29-8.07-6-8.48-2.37-3-3.22-3.83-10.6-12.12-3.5-4.62-7.14-12-.66-2-2.61-11.23.47-9.14,0-2.68,2.16-10.19,4-10.31L608,565.09l3.26-11.83L613.91,540l3-19.16L619,509.66l1.64-11.3.64-11.74,0-12-.27-9.68-.2-2.53-2.05-13-1.95-6.84L614,435.26l-3.84-8.32L606,419.67l-3.55-5.75-7.5-11-8.6-13-7.8-12.69-4.12-7L571,363.83l-4.61-9.09L564,349.05l-3.2-8.49-3.29-13.42L557,322.6l-1.13-8.05-.11-11.94.4-1.05L557,290.8l.75-5,.89-6.29,2.15-11.08,2.23-9.16,2.87-12.66,3.29-10.38,4-10.31,5.43-9.56,4.38-7.12,1-2.58,3.69-5.64,2.18-3.84,2.87-4.11,4.92-8.22,3.7-6.87.77-2L606,165.76l4-10.5,6.43-19.47c.37-1,.73-1.91,1.1-2.86L621,122.07l2.49-6.49,1.58-4.1,2.38-6.2,5.46-4.44,2.2-5.73,1.91-5,2-5.25,2.09-5.44L643,74.69l1.46-7.15,1.43-3.72,1.34-11.43-.1-2.49-1.65-10.38L642.93,26.3l-.31-1-6.83-15.5-7.69-13-7.58-13.26-3.92-5.36-4.66-5.89-4.57-3.08-5.49-4-10.26-6.3-5.92-5.65-3-3.09-8.09-11.92-9.89-17.93-5.18-9.12-7.77-12.78-7.51-13.12L536.91-129l-7.61-13.16-1.9-1.49L520.83-154l-3.37-5.89-3.92-7.8-2.73-7-4.9-14.11L500.8-203,493.92-218l-6.81-12.82-1.51-2.77-1.14.52,1.52,2.76,6.81,12.82,6.85,14.84,6.45,18.33,3.46,9.94,2.69,7,4,7.94,3.46,5.93,6.58,10.39,1.37,1.92L535.25-128l7.21,14.21,7.65,13.07L558-87.9l5.11,9,9.86,18L581-49l3.2,3.27,6.15,6,10.26,6.29,5.57,3.84,4.53,3.17,8.51,10.21L626.8-2.86l7.69,13,6.78,15-.26.67.29,1.68,3.58,11.77c.17,3.52.42,6.85.5,10l.11,2.16-.44,1.14L643.8,63.14l-1.43,3.72L640.91,74l-1.83,4.77-1.59,5.66-2,5.24-2,5.16-2.12,5.53-1.8,4.68-2.38,6.2-1.62,4.2L623,122.14,618.83,133l-7.29,22-4,10.49-3.67,9.55-.76,2-3.7,6.87-4.92,8.22-2.83,4L589.45,200l-3.69,5.64-1,2.58-4.38,7.12L574.91,225l-4.56,10.05L567.09,246l-3,12.38-2,9.25-2.29,11.14-.89,6.28-.71,4.92-.88,11.74.07,12,1.2,8.19.44,4.64.84,3.91,2.52,9.65,3.22,8.72,2.49,5.73,4.46,9.15,3.53,6.41,4.11,7,7.8,12.69,8,12.35L604,414l3.55,5.75,4.18,7.13,3.88,8.23,2.75,7.18,2,6.65,1.88,12.82.27,2.67.34,9.49-.13,11.95-.54,10.88-1.56,11.68-.91,2.38-1.57,8.67-3,19.06-2.61,13.22-3.28,11.6-8,20.8-2.48,11,.2,2.53-.51,9.57,2.64,11.14.75,2.32,7.18,11.87,3.53,4.85,13.92,16,2.26,3,5.85,8.29,4.13,7.89,2.83,7,1.81,6.89.24,7,.23,5.21-2.56,10-4,10.3-3,7.92-.92,2.39-2.83,7.35-1.13,3-2.72,7.07-1.24,3.24-1.8,8.34-1,2.68.18,6.86.46,5.53,5.17,14.34,7.63,12.5,2.81,4,12.36,17.31,5.1,8.09L668,849l3.43,5.14,4.62,7.21,8.46,11,9.1,9.58,7.59,6.82,1.79,1.77L705.6,893l6.79,6.14,4.27,4.17,4.82,4.85,8.86,9.92,8.32,11.35,1.5,2.2,6.12,10.64,2.54,5,4.12,10.66,1.12,3.49.71,5.19.88,7.17-1.13,11.18-3.67,9.55-4.78,8.17-1.27,1.79-3.69,6.53-2,3-2.86,5.33-3,4.15-2.11,3.65-5.21,5.33-.51,1.33L723,1036l-3.5,3.61-1.89,1-3.09,5.9-6.36,1.6-.34.86-.9-.39-6.82,1-4.94-2.12-5.66-1.76-4.82-2.74-10-7.19-3.53-3.63-4.91-6.78-3.09-8.44-1.79-11.22-.19-2.86-.77-11.45-1.77-11.88-.43-1.63-6.4-13.87-.69-1-7.58-10.82-5.24-6.81-3.18-4.25-8.85-12.7-6.08-14.72-.23-1.22-2-12-.13-12.18.81.35-.81-.35-.38-11.84-2.85-13.34-6.08-14.73-9.43-16.06-6.57-10.38-5.65-7-2.81-4-4.16-4.45-4.8-5.52-5.62-5.52-6.92-7.64L557.08,782l-4.9-5.88-3.39-5.24-5.44-10.56-5.55-14.28-2.22-6.74-2.84-7.55-3.67-8.47-7.64-13.4-5.95-9.56L513.84,697l-5-11.39-1.5-4.64-2.07-8.67-.42-9.3-.42-3.18,1.85-10.32.26-.67,1.86-10.32.34-3.64.23-8.23-.82-13.14-2.07-12c-.68-3.74-1.22-7.53-1.8-11.22l-.49-1.77-6.33-12.84-1.24-3.2-7-12.34-.84-1.47-2.16-2.93L480,547.12l-3.94-4.7-4.59-6.08L462.66,526l-2-2.18-6.23-9.13-8.35-11.25-3-3.18-5.92-6.88-7.12-6.84-2.36-1.79-9.81-7.44-4.27-2.94L398.11,462.8l-5.48-4.35-4.05-3.52-2.44-2.5-6.82-6.37-8.28-9-.51-1.1-3.38-12.58,2.64-6.87,1.21-3.14,3.56-5.92,2.37-3.43,3.15-3,6.69-4.9,6.89-3.27,6.19-2.68L402.2,389l5.59-3.27,4.69-2.43,1.91-2.52,6-5.77.3-.77,1.77-11-5.89-11.54-2.24-4-5.67-8.44-6.28-8.7L400.78,327l-5.25-11.37-.76-5.67-.49-6.65.88-2.3,1.86-8.2,1.25-3.25,4.27-9.28,4.69-7-.28-2.34.1-9.74L402.48,256l-4.2-4-5-4.94L382.77,238l-9.08-6.9L369.93,228l-5.61-4.63-8.42-8.62-10.14-10.25-9.84-8.9-9.55-8.44-9.82-7.44-10-7-11.7-8-7.65-7.28-9-9.54-3.56-3.87-4.43-8-3.93-7.48-1.75-10.42-.11-2.16.26-.67,2.46-10.06.7-1.81,3.22-8.4.52-1.33,5-9,5.78-8.64,1.45-11.39-6.43-15.65-8.83-15.8-6.14-14.54L257.74,4.82,256.09-8l1.17-6.39.76-4.12,2.38-6.21,2.45-3.62L266-30.76l8.56-4.55L281-36.87l5.28-1.51,2.53-.47,2.84-1,4.9-1.13,4.15-1.66,3.3-1.25,2.69-1.51,4.38-2.23,6.82-4.3,6.52-4.76,3.74-3.62,2.56-1.79,6-6.34,5.68-6.23,2.18-2.62,3.6-3.57,5.29-4.62.48-1.24L356.2-89l3.47-3.85,1.78-1.57,3-7.73,1-2.48-.47-7.65-.12-5.17-5.87-11.3-2.63-4.47-5.56-7.5-7-9.9-.8-1.57-7.31-14.25-2.86-13,2.86-9.89,4.28-3.82,5.08-4.05,2.85-1,5.94-2.34,5.23-2.31,2.06-.78,1.85-.54,5.21-2.55,3.53-2.48,3.06-2.47,5.61-7.26,4.77-9.07,3.06-10.69.22-.58.95-10.71-.4-6.61-.34-5.82-2.08-12.9-1.33.09,2.12,12.81Z" transform="translate(340.79 396.35)" fill="#8733f3" fill-opacity="0.15"/><path d="M399.38-251.41l.15,5.4-1.25,10.58-2.89,12.1-3.66,9.54-5.12,8.14-5.75,6.09-4.09,3-2.31,2.35L368-189.95l-1.9,1-4.22,5.19-3.67,3.43-1,5.26-2,5.34,2.79,8.31,2.71,6.06,5.07,7.29L374-136.7l7.73,12.55,1.19,2.4,1.79,6.65,1.74,6.76-1.16,7.61-1.14,3L379-89.86l-.51,1.33-5.29,4.29-3.56,3.47-2.48,2.17-6.89,6-4.94,6.44-2.05,2.57-3,5.14-3.14,4.21-2,3.46L340.49-45l-.63,1.62-5.52,6.75-.29.76-4.87,6.25-2.82,2.46-3.2,3.74-6.32,4.84-.93.6-5.61,3.6-4.92,2.11-2.16,2L299-7.16,296.7-5.57l-1.26,1.13-2.5,12.93,1.48,12.64.63,12.4,4,13.95,2.5,4.19,8,12.35,7.62,12.84,1.59,2.9-.57,11.54-2,5.15-1.9,5-1.46,5.93-1.84,4.77-.66,9.06-1,2.57.62,4.49,1.16,8.28,4.21,11,1.36,3.48,6.32,9.82L328,168l3.77,3.62,9,9.31,6.45,7.33,2.62,2.34,1.68,1.73,17.25,16.19,2.79,2.2,6.91,5.53,29,20.78,3.26,2.51,7.14,5.85,9,9.21,3.95,5.59,3.38,8,1.64,5.81-.69,3.93-1.65,6.74L431.79,289l-3,5.48-.44,5.71-1.11,5.63,1.44,12.74,2.39,13,2,6,2.12,7.92,4.32,8.3,2.64,6.58,3,13.06L441.44,383l-5.83,5.39-2.34,2.44-3.95,2.64-6.8,4-7,3.79L409,404.32l-.26.66-.29.77L402.69,410l-3.33,2.57-2.49,4-3.52,5.5.2,6.2-.31,6,2.56,4.65,8.31,11.36,1.35,1.36,8.52,6.55,3.13,2.23,12.7,8.46,4.48,2.7,7.81,5,2.42,1,10.27,6.86,9.32,8.12,8.42,11.06,7,14.13.57,1.58,7,12.24,1.7,3.51,6.13,9.09,4.31,7.41,3.31,5.42,4.45,9.81,2.08,5.89,1.55,7.56,2,12.86,2.19,13,2.27,12.09,1.27,12.89.13,9.73L517.88,655l.39,4.17,0,8,1.92,9.05,1,4.34L526.67,695l7.42,15.19,6.41,13.87,5.7,15.68,4.1,13.77,2.28,6,4.4,9,3,5,8.45,11.3.95,1.19,8.46,8.53,8.13,9.38.9.39.69,1,7.95,9.86,4,7.28,3.72,5.6,7.36,11.39,1,1.66,4.13,6.66,5.28,7.94,5.55,14.28-.37,1L627.65,882l-.27,12,.58,12.25,3.45,13.6,7.21,14.22.91,1.61,7.72,10.44,8.07,11.68,7.25,11.68.76,1.66L667,983.32l3.16,19.26L671,1009l1.1,5.37,4.63,9.32,2.71,3.94.61.26,3.36,2.56,6.61,5.07,5.34,2.29,6.19,1,3.66.24,3.69-1.64,3.82-.47,3.19-1.3,4.51-2,2.38-2.53-.44-2.52,6-6.2,5.41-7.35.47-1.24,4.44-6.66,1.14-3,3.67-5,2.6-4.33,1.76-4.58,2.24-5.82,1.24-11.47-1.06-8.24-.78-4.67-5.1-13.31-.64-1.39-7-12.24-2.77-4.08-5.4-7.33-8.85-10.25-1.19-1.18-8.65-8-5.4-4.88-13.57-11.39-.91-.39-8.75-7.76-8.24-9.1-1.21-.52-1.38-1.59-7.08-9.38L659.44,850l-3.78-5.74-5.25-10.15-2.28-3.54-7.21-11.77-.65-1-7.84-10.15L627,800l-2.71-3.94L618,784.39l-.78-2.56-2.31-10.78L616,764.2l-.11-4.61,3.34-8.68.92-2.39,3.64-7.33,1-2.48,3.58-6.58,1.32-3.43,3-5.71,4.37-9.24,1.91-5,2.86-11.11-.75-10.88-.23-1.54-6.07-14.73-.49-.88-8.12-11.83-13.93-16-3.86-4-3.45-4.15-4.51-7.49-3.58-8.1L595,605.51l.18-.48.54-10.88,1.36-3.53,1.52-7,1.65-4.29,2.28-5.92,1.61-4.2,2.38-6.2,1.65-4.3,1.71-6.27,1.42-5.84,1.07-5.21,1.42-8.28L618,507.77l1.45-11.72.63-11.4V475.2l0-2.68-.31-2.25-.7-10.08-1.85-10.47-.7-2.75-6-14.82-7.45-13-2-3.08-3.88-8.23-8-12.21-15.45-25.76-1.19-2.07-6.09-11.95-1.57-3.23-4.94-14-.3-1.68-2.79-11.66-1.22-12.41.15-2.83.22-8.8,1-8,.17-3.49,2.16-13,2.29-11.13,2.83-12.57,1.81-7.45,3.18-10.42,1.76-4.58,2.2-5.73,2.1-3.32,3.34-6.24,1.48-2,4.88-8.13,5.15-7.91,5.18-7.67,5-8.18,1.62-4.2,2-5.34,1.91-5,2-5.25L614,146.18l4-10.31,2.42-6.3,1.51-3.91,2.64-6.87,1.17-3.05,6-19,1-2.67,2.84-8.9.62-1.63L639.41,73l1.07-5.54,1-5.68L641,49.47l-.83-9.14L640,37.18l-.68-3.41L636,23.22l-2.81-6.43-5.08-9.07L618-10,609.52-21.4l-10-7.06-10.4-6.24-1.68-1.73-7.39-6.73-6.51-8.69-1.84-2.57L564.2-67.77l-8.63-15.72L549-94.43c-.93-1.85-1.83-3.46-2.84-5.12l-4.63-8.1-3.9-7.57-3.49-6.5-7.61-13.16-9.18-13.06-6.72-11.23-2.18-4.71L504.26-175l-6.1-17.41-6.62-15.74L484-222.51l-7.56-12.69-2.11-3.36-1,.56,2,3.4,7.79,13,7.11,14.17,6.61,15.18,6,17.46,4.4,11.45,2.25,4.53,7.29,11.58,9.18,13.06L533.49-121l3.39,6.46,3.9,7.57,7.61,13.16,6.59,11L563.57-67l7.54,13.35L573-51l6.41,8.65,9.51,8.86,10.32,6.1,9.94,6.83L616.8-9.82,626.94,7.76l4.92,8.89L634.7,23l3.41,10.36.66,3.17L639,40l.77,9-.7,11.59-1,5.78-1.06,5.21-.33.86-3,9.85L633,83.86l-4.14,10.78-12.62,40.17-4,10.4-5.4,15.58-2.2,5.72-1.94,5.06-2,5.16-1.61,4.19-4.89,8.13-4.75,6.86-6.17,9.35-4.39,7.46-.88,2.29-3.47,6.29-2,3.36-4.67,10-3.29,10.7-2.55,10.92-2.59,11-2.14,11.09-1.81,11.12-.24,3.67-.94,7.94,0,9-.18,2.92,1.24,12.65L558.9,340l4.79,13.18,1.64,3.37,5.95,12,1.3,2.11,15.48,25.66,8.05,12.35L604,420.73l7.45,13,6.15,14.54.64,2.61L620,461.18l1,12.43.16,2.63-.06,9.31-.3,4.76-.2,6.92L619,508.67,615.39,531l-1.94,11.17-1,5.11L611,553.13l-1.7,6.27-1.61,4.2-2.39,6.2-1.57,4.11-2.24,5.82-1.72,4.48-1.53,7L596.8,595l-.64,10.84-.37,1,.17,1.4L597.63,620l3.51,8,4.71,7.58,3.58,4.43,3.93,4.13,13.69,15.67,8.07,11.69.48.87L641.71,687l.2,1.31.47,11.32-2.46,10.06-1.91,5-4.37,9.24-3,5.81L629.3,733l-3.58,6.58-1,2.57-3.67,7.43-.88,2.29-3.19,8.3.11,4.28L616,771.86l2.25,10.64.84,2.7,6.43,12,2.67,4,5.49,7.7,8.47,10.31,10.18,16.26,5.29,10.06,3.75,5.83,3.87,7.34,7.14,9.51,1.34,1.69,1.31.56,8.24,9.1,8.75,7.76.93.95,1.12,1,12.45,10.35,5.5,4.92,9.13,8.93L730,923.64l5.4,7.32,2.77,4.08,7.1,12.06.58,1.25,5,13.26.73,4.54,1.09,8.14-1.23,11.14-2.2,5.73-1.69,4.39-2.6,4.33-3.57,5-1.14,3-4.44,6.66-.47,1.24-5.3,7.06-.44,1.15-5.21,5.32-3.87,2.45-2.42,2.63-4.2,1.75-2.75,1.05-4.13.67-3.4,1.54-3-.31-5.89-.86-5.34-2.3L683,1031l-3.36-2.56-2.71-3.94-4.53-9.29-1.11-5-.8-6.46-3.16-19.26-3.59-12.66-.83-1.8-7.18-11.87-8.13-11.83-7.15-10.07-1-1.56-7.11-14.18-3.32-13.32-.67-13.85.25-10.12L627.05,872l0-1.69-.44-1.3-5.2-13.35-1.56-2.34-3.72-5.6-4.23-6.7-.84-1.48-6.59-10.94-3.65-5.46-4.11-7.33-8.49-10.87-1.11-.48L579,795l-8.46-8.52-9.37-12.26-3-5-4.24-8.83-2.31-5.88-4.1-13.77L541.8,725,535,709.8l-6.62-13.29-5.45-14.24-1.13-4.37-1.82-9v-7.67l-.39-4.17.26-6.78.35-7.63-.11-9.5-1.14-12.61-2.38-13L514.82,597,512.4,581.6l-1.49-7.42-2.2-6.17-4.45-9.81-3.48-5.6-4.21-7.37-6-9-1.8-3.55-7.07-12.16-.67-1.62-7.41-14.3-8.32-11-9.95-8.61-9.9-6.59-2.52-1.08-7.71-5-7-3.55-12.61-8.42-3.06-2.09-8.32-6.46-1.29-1.22-1.43-2.07-6.75-9-2.55-4.65.42-5.38-.2-6.2,3.41-5.21,2.49-4,3-2.37,7-5.11,6.48-3.11,8-4.44,6-3.33,3.85-2.68,2.52-2.58,6.29-6,3.95-10.3-.12-1.5-2.78-12.31-2.66-6.82-4.29-8.4-2.09-7.68-2-5.76-2.39-13-1.44-12.73,1.06-5.22.65-5.95,2.93-5.19,1.8-4.67L435.8,278l.78-4.45-1.74-5.86-3.43-8.47-4-5.6-9.18-9.39-7.34-5.93-3.36-2.55-28.84-20.84-9.64-7.59-18.53-17.74-2.52-2.3L341.69,180l-9.18-9.39L328.84,167,324,160l-6.36-9.73L312.25,136l-1.14-8-.41-4.4.8-2.1.7-9.15,1.76-4.58,1.42-5.84L317.25,97l2.09-5.44.41-12.05-1.61-3.14-7.91-13.29-7.76-11.89-2.56-4.33-3.77-13.4L294.93,21,293.39,8.24,295.34-2l7.5-5.78,2.27-1.92,4.54-2,6.78-4.2.25-.67c2.12-1.54,4.06-2.93,5.94-4.46l3.16-3.64,2.82-2.46,4.77-6.29.83-.64,5.66-6.8.63-1.62,4.64-5.68L346.56-52l3.18-4.3,3-5,2.14-2.53,4.9-6.34,10.74-8.4,3.6-3.57,5.67-4.68.48-1.24,5.48-8.76,1.17-3.06,1.29-8.23-1.89-6.7-1.84-6.79-1.16-2.5-7.9-12.73-8.17-11.41-5-7.15-2.55-5.87-2.76-8.08,1.44-5.28,1.06-5.21,3.49-3.28,4.4-5.34,1.31-.66,6.79-4.53,2.23-2.16,4.2-3,4.86-6.25,5.48-8.77,3.67-9.54,2.65-10.87,1.58-11.44-.18-5.63.11-6.41-1.74-12.86-1.33.1,1.86,12.58Z" transform="translate(340.79 396.35)" fill="#8733f3" fill-opacity="0.15"/><g mask="url(#d)"><path d="M413.09-252l-1.58,7.78-.19,3.25-2.06,10.23-3,11.83-4,10.3-4.79,9.73-5,7.52-1.58,1.66L387-183.8l-3.18,3.08-1.91,5-2.72,4.94,1.14,10.16.1,2.49.83,1.81,7.21,14.21,6.89,12.63,1.06,2.12L401.36-113l.54,12L399.45-91l-6,9.3L385-74.15,374.8-65.3l-6.69,9.47L363.18-46l-3.92,10.21-4,10.4-1,2.57-2.38,8.32L348.27-3,344,6.3,339,16l-3.67,9.55-.22.57-1.94,5.06-1.63,6.08-1.45,10.49,2.41,13.27,8.83,15.8,8.26,15.44.57,11.36-1.3,7.34-1.43,3.72.49,9.11.29,3.23,1.72,6.19,2,7.55,4.4,13.89,2.71,6.39,3,8.17,4.05,6.85,5.68,9.34,2.44,2.82,9.19,9.06L394.9,207.6l10.72,8.16L422,229l9.24,8.64,8.68,10.4,1.82,2.9,5.66,10.32,2.36,5.46,3.39,13.46-.56,11.55-.21,6-1,5.68,1.88,12.82,1.05,4.9,1.68,8.17.66,6.51.41,5.95,1.24,12.66,1.78,5.76,2.05,7.78,1.42,12.5-4.83,9.82-4.55,4.83-3.63,3.33-2.42,2.63-5,3.1-1.53,1.24-1.07.65-5.43,4.67-5.55,2.84-.74,1.91-2.76,1.7-3.39,3.33-1.83,1.1-3,7.82-.92,2.39-.18.48,2.05,4.43,5.47,6.24,3.41,4.25,7.5,5.22,3.12,1.34,11.23,5.6,10.07,4.33,1.61.69,9,5.21,4,4.18,5,4.8,2.72,4.83,4.8,8.29,2,6.51,3.73,11.05.77,2.89,5.33,14.52,6.89,14.75,6.11,14.63,3.93,13.58,1.25,6.54,1.14,6.5,1.58,12.68.88,4.72,4.43,21.47,1.41,12.5.45,15.64.16,8.74,1.49,8.65.59,4.26.92,3.39,3.14,10.47L539,700l3.44,7.81,2.77,6.86,3.71,9.27,1.63,4.92,4.1,13.77,6.11,14.63.74,1.43,2.57,4,5.45,8.12,3.66,3.9,5.37,5.87,5.53,6.38,3.69,2.92,4,4.93,4.82,5.18,5.3,10.95,1.78,3,5.24,12,1.85,2.8,4.85,7.53,3.24,4.39,8.71,10.63,7.8,10.25.46,11.31-2.46,6.4-.44,7.26-1.08,8.31-.06,3.2.25,5.45.55,7.13,4.57,14.08,9.23,16,6.13,9.08,4.68,7.68,3.08,5.11,4.41,9.9,2,6.41,1.94,7.17,2.34,14.35,4.29,13,2.09,4.34,3.75,3.06,5.7,5.34,6,1.23,6.09,1,3.1-.45,3.44-1.3,4.25-1.29,3.89-1.88,3.25-2,5.95-6L726,1011l2.31-2.67,4.47-6.43.4-1,2.86-3.77,3-4.58,4-8.29.74-1.91,1.34-11.43-.35-2.15-2-11-2.34-6.12-4-8.74-3.25-5.62-8.09-11.92-1-1.19-8.31-8.91-9.69-9.61-13.47-11.34-5.47-3.8-8-6.56-1.72-.74-5-3.81-4.51-3.83-3.29-3.63-6.45-4-8-9.76-.72-1.2-3.88-12.79-2.2-4-5.65-11.55L636,826.14l-3.56-5.09-5.08-5.41-4.27-5.39-4.48-4.82-6.05-8.37-2.8-1.88-1.94-3.5-2.56-10.44L607,779l0-11.1,1.1-2.86,1.14-7.85,2.16-3.18,2.61-6.78,1.8-2.56,3.59-6.9.74-1.91,7.11-12.4,2.77-5.37,4.66-10,2.64-11.43-1.76-12.54-3-8-4.2-7.37-3.69-5.36-8.89-10.16-3.51-3.39L606.7,644,601,637.12,597.88,634l-2.42-3.48L590.83,620l-1.15-3.72.09-3.29-.9-9,1.56-8.34.25-2.78,3.37-8.78.51-1.34,3.87-8.23.66-1.72,3.12-8.11.88-2.29,3.35-10.57,2.49-11.05,2.31-13.34,3.41-20.78,1.44-11.39.36-8,.11-3.95-.47-12.21-1.17-12.84-3.58-12.66L609.19,440l-4.7-9.46-2.69-4.6-9-13.87-7-10.56-6.92-12.53-7.76-12.78-6.21-11-1.25-2.54-5.8-12.39-4.84-14-1.45-7.85-1.2-5.41,0-4.79-.71-7.31.83-12.54,1.25-10.58L552.8,285l1.39-8.19,1.16-5.17,1.19-5.83,1.62-7L561.64,244l3.28-10.38,4.66-10,4-6.73,1.14-3,3.4-5.21,2.57-4.23,2.59-3.67,3.59-5.69,1.58-2,5.14-7.58,5.38-8.81,4.67-10,3.26-8.49L611.59,146l4-10.3,6.65-21.27L629,91.58l2.79-8.8,1-2.58,2.27-8-.4-6.29,1.2-6.49.23-9.46.14-2.5-.33-4-2-8.86-3.55-10.31L628.8,20l-9-16L615.5-3.38l-8.4-11.73-10-7.29-10.33-6.1-9.32-8.12-2-2.42L569-47.35l-4.92-8.57-2.46-4.28-7.32-14.26-15.05-26.48L538-103.48,532-115.19,529.9-119l-5.51-9.49L519-135.68l-11-15.86-.78-1.34-6.63-13.29-.74-1.43L494-183.09l-6.48-16.13-7.31-14.26-3.83-6.2-4-6.29-1.6-2.25L464.28-238l-5.1-7.2-1.07.65,5,7.15,6.49,9.68,1.6,2.25,4,6.29,3.84,6.21,7.21,14.21,7.19,17.32,5,14.25.77,1.67,6.41,13.87.84,1.47,11.14,15.9,5.37,7.09,7.58,13.26,7.21,14.22L553-73l7.39,13.74,2.39,4.47L568-46.14l6.52,8.36,2.11,2.46,9.55,8.44,10.32,6.1,10,7.3,7.51,11L618.39,5l8.8,15.56,1.86,4,3.49,10.16,1.85,8.92.3,3.79-.14,2.5-.16,9.27-1.2,6.49-.54,4.77-2.26,8-1,2.48-3.3,8.59-6.94,23.26L615.85,124l-3.67,9.54-4,10.4L603.53,156l-3.3,8.59-2.06,10.24-5.67,9.57-5,7.19-1.45,1.94-3.77,5.83L579.75,203l-2.57,4.24-3.41,5.2-1.17,3.06-4,6.73-4.76,10-3.29,10.7-5.2,21.78-1.09,5.88-1.3,5.22-1.15,8.18-1.06,2.77-1.28,11.56-.74,11.69.78,7.45v4.89l1.13,5.6,1.52,7.66L557,349.73,563,362.39l1.26,2.54,6.21,11,7.86,12.83,7.77,12.45,8,12.12,7.95,12.3,2.58,4.56,4.63,9.33,2.23,5.51,3.42,13.7,1.27,11.66.4,12.08,0,3.9-.42,7.82-1.48,11.48-1.75,11.26-1.81,11.12-2,11.36-2.47,10.72-3.22,10.52-.84,2.19L599.45,571l-.62,1.63-4,8.42-.51,1.34-3.45,9-.21,2.69L589,602.82l1,8.66-.07,3.86L591.1,619l4.72,10.93,2.61,3.57,3,3.08,5.75,7,5.61,5.85,3.51,3.4,8.76,9.88,3.69,5.36,4,7.19,3.08,7.88,1.71,12.63-2.35,10.1-4.67,10-5.3,9.84-4.4,7.78-1.2,1.6L616.21,742l-2,2.7-2.6,6.78-2.16,3.19-1.21,8-1.1,2.87-.21,12.14,1.15,2.82,2.61,10.91,2.27,3.87,2.87,2,5.75,7.92,4.59,4.86,4.26,5.39,5,5.36,5.17,7.33,5.79,11.5,2.09,4,4,12.83.68,1.29,7.87,10,6.77,4.36,2.77,3.19,4.78,4,5,3.72,1.62.69.8.34,7.51,6.12,5.36,3.75,4.42,3.78,8.86,7.48,9.19,9.06,8.8,9.78,8,11.88,3.17,5.48,4.07,8.64,2.35,6.12,2.11,12.81-1.23,11.15-4.59,9.81-3.15,4.54L735,998.28l-.41,1.05-4.6,6.47-2.18,2.62-3.28,4.26-5.94,6-2.81,1.8-3.85,1.79-4.25,1.28-3.44,1.31-3,.39-5.55-.83-5.87-1.19-5.6-5.29-3.69-2.92-1.73-3.75-4.19-12.91-2.38-14.26-2.07-7.44-1.89-6.38-4.57-10.08-3.12-5.34L656,947.33l-6.13-9.08-9.13-15.93-4.54-13.84-.75-12.11.06-3.2,1.08-8.32.45-7.26,1.5-3.91L638,862.37l-.37-1.5-7.8-10.24L621.26,840l-3.31-4.2-6.48-10-5.4-12.21-1.69-3-5.59-11.41-4.61-5.09-4.2-5.25-3.73-2.83-5.4-6.1-5.47-5.9L572,770.31l-8-11.89-.78-1.33-6.11-14.63L553,728.69l-1.69-5.06-3.58-9.32-2.9-6.8-3.55-7.87L535.21,685l-4.07-13.53-.56-4.36-1.42-8.5-.45-14.42-.19-9.87L527,621.55l-4.77-18.73-.89-4.72-1.68-12.72-1-6.55-1.35-6.58-4-13.82-6.11-14.63-7.15-15-.31-1L495,514.63l-.66-2.85-3.84-11.09-2.12-6.7-7.67-13.63-5-4.61-4.36-4.54-8.73-5.08-1.61-.69-10.07-4.33-1-.43-10.07-4.33-2.84-1.77-7.67-5.08-3-4-5.42-6.34-1.7-3.84.81-2.1,3-7.82,1.69-1.05,3.22-3.18,3.25-2.05.66-1.72,5.51-2.74,5.16-4.57,1.07-.65,1.63-1.19,5.12-3.25,2.42-2.63,3.67-3.43,4.83-5.26L466,383.8l-1.48-12.65-2-7.87-1.71-5.63-1.28-12.55.24-7.35L459,331.2l-1.7-8.4-.95-4.86-1.88-12.82,1-5.25.2-6,.57-11.87.26-.67-3.38-12.57L450.7,263l-5.2-9.69-2.44-3.72-8.64-10.49-9.4-8.82-2.56-2.21L408.54,217,398,208.81l-3.31-3-8.19-7.08-10.37-9.68-2.17-2.59L368,177.05l-3.83-6.53-3-8.31-2.68-6.15-4.36-14-2.06-7.45-1.71-6-.32-3.13-.41-9.3,1.28-3.34,1.29-7.34-.14-9.4L351.75,93l-1-2-7.42-14.3-8.54-15-2.36-12.79L334,38.47l3.22-11.74,3.67-9.54.76-2,3.67-7.1,4.37-9.24,3.52-11.27.25-.67,3.06-10.7,3.66-9.54,3.67-9.54,5-9.87,6.44-9.13,4.14-3.45c1.64-1.52,3.34-2.9,5.18-4.33l1.16-1.17,2.09-1.78,6-5.3,7.09-11.41,2.79-10.92-.64-12.39-5-14.16L397-129.15l-7.51-13.45L381.32-158v-2.12l-1-10.12,2.75-4.71L385-180l3.18-3.08,3.6-5.68,1.71-1.71,5.21-7.77,4.93-9.77,4-10.31,2.75-10.83,2.39-11.09.57-3.31,1.55-8-1.05-8.57.4-3.16-1.21-.52-.47,3.36Z" transform="translate(340.79 396.35)" fill="#8733f3" fill-opacity="0.15" stroke="#8733f3" stroke-opacity="0.15" stroke-width="2"/></g><path d="M400-173.65l-.28,2.55-.73,9.24,2.55,9.55.88,3.82.77,1.66,5.39,13.44,1.12,2.59L414-119.16l1.46,6,1.3,7L416.59-94,414.13-84l-3.62,6.67-1.81,2.89-3.64,3.66-6.14,5.59-2.75,2.27-5.33,4.71-3.75,5.51-2.66,3.86-2,5.15-2,5.15-1.24,6.59-1.65,4.29-.95,10.71-.51,1.34-.2,3.58,1,14V8.41l-1.61,11.21-3.06,9.8-.26.67L367.1,40.24l-3.92,10.21L361.3,61.76l2.35,13.13,3.16,5.8L371.2,90l2.49,5.74,3.63,8.89,1.58,10.24.54,2.57L380.5,122l1.42,8.5,1.79,5.11,9.13,23.59,3.38,10.13,1.28,4L403,184.63l2,4,6.16,8.1L420,207.14l9.06,9.11,8.23,9.1,1.55,1.78,7.42,9.08,7.88,12.17,6.23,11.9,6.15,14.53,1.35,5,2.48,8.52L473.83,314,477,327.37l2.22,12.85.29,7.8.08,4.37.44,12.31,2,9.75.52,3.22.84,12.48-2.27,5.92-1.54,4-2.77,5.37-3.17,4-1.16,4.84-3.43,5,.88,8.39-1.25,3.24,2.48,3.63,3.28,3.07,5.66,6.66,5.67,6,3.51,3.4,8.27,11.45.85,2.36,4.63,15.44,1.39,11.05,2.28,13,2.76,13.3,2.26,6.31,2,7.4,3.85,10.44.92,3.73,4,13.72L526,575.12l1.51,9.21.64,3.83,2,12.86,1.32,6,2.31,7.43L537,628.09l-.37.95,1.05,11-.39,9-.08,3,.87,12.38,2.95,13.39.51,1.44,4.19,12.91,8.4,20.29,3.32,8.76,2.82,8.22,2.75,6.29,3.87,9.78,4.22,5.82,4.18,5.91,4.92,4,5.74,2.46,4.35,0,2-3,4.32-2.37,3.75-6.4,1.45-1,3.82-5,1.59-2.31.26-.67,4.88-6.91.88-2.29,4-5.6,2.18-3.85,2.81-4.24,4.87-9,3.21-6.52,2.5-11.38-2.18-13.27-7.57-13.6-2-2.41-6.88-7.74-6.38-6.3L599,642.14l-3.69-3.82-4.43-5.9-4.42-4.68L584,623.6l-2.46-11.29-.5-1.77.14-11,1.18-3.06,1.47-7.81,1.47-3.82,2.46-6.39,1.82-3.22,3.25-6.61,1-2.67,3-7.74.81-2.09,3.15-8.21,1.14-3L604.69,532l1-6,1.44-7.72,2.39-14.76.39-3.17.65-8.39.1-3.63.17-8.37-.37-12.17-.16-1.41-1.68-11.83-2.7-10.06-1.36-3.81L599,429.33,596.39,425l-5.3-8.17-5.74-8.58-9.06-14-9.15-14.05-7.65-13.07-4.2-7.69-5-13-2.52-8.09-2.14-6-1.08-8.81-.84-3.91v-3.34l-.09-8.61.7-3.36.46-7.92,1.45-6.83.5-4.34,2-9.15.66-1.72,2.65-10.87.4-1.05L556.87,242l1.1-2.86,2.82-7.35,1.17-3.05,3.39-7,1.31-1.89,5-8.18.84-2.2,4.33-6.7,4.6-6.47,1.78-2.79,3.53-4.6,5.18-7.67,4-6.41.77-2L601,163.6l4.22-11L609.26,142l3.3-8.59,3.26-10.61,3.25-10.61,1.47-3.81.58-7.31L623,96.32l2.13-5.53,1.53-6.13,1.72-4.48,1.55-7.68,1.21-3.15L632.63,58l-1.53-2.44-.22-10.43-3.33-13.32-6.81-14.94L612.93,3.3,610.87.41l-6.27-9-10-7-10.19-6.16-9.59-8L570-35.49l-3.85-4.33-2.55-3.76-5.25-8.92L551-66.76l-7.55-13.36-7.36-13.5-7.31-14.26-7.51-13.45-8.52-11.11-6.43-8-1.93-2.94-7.31-13-6.55-15.94-6.4-16.31-7.31-14.26-4.53-7.17L468.83-215l-8.71-10.64-7.46-7.76-2-.87L440-240.85l-7.58,1.08-4,5.84-1.5,1.47L423.68-224l-.51,1.34-4,10.4-3.66,9.54-4,10.31-5,9.73-3.67,9.55-.22.57Zm1.31.56,3.89-10.12,4.67-9.11,4.86-10.81,4-10.4,3.67-9.54.44-1.15,3.37-8.78,1.26-1.12,3.87-5.79,7.87-1,.91.39,9.52,5.76,1.81.78,7.47,7.76,8.53,10.45,3.46,5,4.56,7.07,7.11,14.17,6.84,17.62,6,14.82,7.62,13.16,2.06,2.89,6.5,8.13L519.93-122l7.6,13.49,7.21,14.22,7.43,13.64,7.55,13.36L557-53.07l5.35,9,2.45,3.72,4.11,4.55,4.74,5.7,9.69,8.06,1.11.47L594-15.93l3.26,2.51,6.58,5.16L612,3l7.35,14.16,6.92,15,3,12.4L630,55.19l-.48,1.24-.26.67L628,67.68l-1.21,3.15-1.5,7.58L623.5,83,622,89.12l-2.09,5.44-1.37,5.08L616.05,106l-1.5,3.92-5.7,18.79-4.21,11-4.07,10.59-3.93,10.21L593,170.06l-.77,2-4,6.31L583.08,186l-3.39,4.55-1.92,2.84L573.28,200l-4.38,6.79-1.76,2.47-6,9.44-4.9,10-.66,12.39-5,22.2L548,273.93l-.66,1.72-2,9.05-.49,4.35-1.45,6.82-.46,7.92-1.29,3.34.13,12.18.85,3.92,1.1,9,2.24,6.08,2.43,8,7.72,15.33,4.26,7.83,4.73,8.15,2.92,4.92,18.27,28.19,5.68,8.45,5.41,8.21,2.36,4.24,5.6,11.08,1.39,3.71,2.6,10,1.86,11.36.13,2.39.37,11.28-.2,11.81-.75,8.35-.52,4.11-1.65,10.41-.47,3.36-1.47,7.48-1,6.15L602.94,546l-1.14,3-2.51,8.37-.81,2.1-2.93,7.64-1,2.67-3.17,6.42-2,3.27-2.46,6.39-1.5,3.91L584,597.55l-1.13,3-.31,12.1.47,1.53,2.47,12.18,2.57,4.33,4.35,4.54,4.42,5.9,3.87,4,8.86,7.48,6.28,6.25,6.92,7.65,1.74,2.19,7.59,13.82,2.06,12.67-2.44,10.63-3.07,6.46-4.88,9-2.8,4.24-1.58,4.11-4,5.51-.88,2.29-5,7.19-.25.67-.92,2.39-3.95,5.08-1.46,1-3.61,6.34L595,762.39l-2,3-3.93-.14L584,763l-4.61-3.87-3.92-5.68-4.26-5.72-3.7-9.6-2.72-6.06L562,723.75l-3.42-8.81-8.34-20.14-4.74-13.94-.6-2.7-2.42-10.49-.77-12.34-.06-2.92.49-8.9L541.26,632l0-1.46-.44-1.3L538.11,617l-2.4-7.48-1.19-6.07-2-12.86-.67-3.73-1.51-9.21-3-12.4-4.56-15.3-.82-3.69-3.89-10.34-2-7.4L514,522.24l-2.84-13.67-2.38-12.14-1.39-11.05-.55-1.9-4.1-13.77L501.63,467l-8.3-11.68L489.68,452l-5.47-5.9-5.66-6.66-3.44-3.26L472.92,433l1.36-3.53-.79-8,3.36-4.78,1.16-4.84,3.2-4.07,2.81-5.47,1.57-4.1,2.5-6.49-.78-12.34-.52-3.23-2.14-9.7-.43-12.3,0-4.33L484,342l-2.25-13.08-3.23-13.28L474.85,290l-7.28-15.57-6.07-14.73-6.29-12L452.87,244l-5.64-8.54-7.49-9.22-1.41-1.83L437.12,223l-7.53-7.9-9.22-9.3-8.61-10.26-6-7.68-2.09-4-5.37-11.09L397,168.59c-1.2-3.3-2.12-6.69-3.22-9.94l-8.83-23.14-1.8-4.78-1.49-8.64-1.55-7.56-1.65-10.38-3.68-9-2.59-5.78L367.89,80l-3.2-6-2.26-12.75,1.84-10.89,4-10.4,4.37-9.24.44-1.15,3.06-9.8.74-1.91,1.35-9.31.08-6.64L378-12l.13-3.39.48-1.24.95-10.71,1.61-4.2V-38L383.14-43l1.95-5.06,2.62-3.76,3.75-5.5,7.87-6.74,6.14-5.59,3.85-3.91,1.85-3,3.66-6.77,1-2.67,2-8.26.17-12-1.32-7.25-1.43-6.05-4.35-11.88-1.22-2.64-5.4-13.43-.7-1.53-.88-3.82-2.51-9.64.84-10.76Z" transform="translate(340.79 396.35)" fill="#8733f3" fill-opacity="0.15"/><path d="M413.7-160.1l.22,5.21,3.51,14.07,3.6,9.88,5.54,18,1.67,11.83-.24,11L425.74-80l-4.27,9.29-4.75,6-2.66,2.64L411-58.66l-5.37,4.81-6.43,10-3.54,11-.54,12.1,1.27,9.22.4,3.84L398.61,5,399.5,17l-1.36,10.53-3.66,9.55-4,10.49-4,10.5L384.69,72l2.24,13.41,6,15,5.48,14.14,1.8,6,2.93,8.27,3.49,8.61,2.62,6L415.37,158l4.17,11.13,1,3.11,5.51,14.37,9.12,16.26,6.48,8.79,5.54,8.49,2.55,3.43,7,12.44L464,250.31l7.67,16.08,6.15,14.53L483,295l.76,3.22L487,308.66l2.2,8.62,1.76,5.2L494.27,335l.69,12-.42,6.27-.22,5.47.13,12.17,1.95,12.95,1.27,12.56-1.95,10.28-.32,4.2-1.85,7.54,2.78,12.32.69,2.18,7.14,12,2.46,4.28,4.67,9.23,1.59,5,2.42,12.94.4,2.62.35,9.48.44,7.09.32,5.58.89,5.94.59,6.71L520.6,527l1,3.2,1.72,9.86,3.26,13.52,3.79,13.64,1,3.77,3.32,10,1.7,9.62,1.35,3.81,2.33,9.22,1.86,6.14,7,14.13,2,12-1.65,4.3-.5,5.89-1.92,7.74-.24,3.68.77,12.67.36,1.49,2.59,9.45.66,3.17,5.37,14.43,6.15,14.53,2,5.2,5.19,10,2.31,5,5.51,5.81,4.26,4.17,7.75,1.22,6.68-.91,2.61-1.89.58-1.52,5.18-4,3.34-4.12L610.5,730l6.68-8.24,4.69-7,4.77-9.06,1.07-2.77,2.64-11.76L630,688.8l-3.16-10.69-3.56-6.31-8.84-10.91-14.12-12.41-5.68-3.55-8-6.56-2.22-1-6.08-4.94-2.3-2.88-4.88-11.1,1.45-10.5,2.66-10,.22-.57,3.85-10,4.87-9,.3-.76,4.59-7.37.8-2.1,3.6-6.9,1.28-3.34,2.71-7.07,1.29-3.34,2.31-8.45,2.84-12.9.65-3.83,1.66-10.41,1.17-9.17.91-11.84.46-12.48-1.15-12.28-2.15-13-5.33-14.52-1.32-2.68-8.47-14-12.16-17.23-12.23-18.26-7.39-11.3-11.11-19.33-3.72-8.05-4-7.37-2.42-8.05-1.72-5.29.29-4.44c-.41-2.29-.65-4.39-1-6.64l1.85-10.32.48-1.24.9-4.17,1.22-6.26.37-.95,2-10.28,1.06-2.77,1.72-8.15,1.69-4.39,1.37-6.31,1.59-6,1.1-5,1.94-7.5,1.14-3,3.28-10.38,4.67-9.11,3.52-5.49,2.42-3.85,2.72-3.72,3.72-5.41,12.47-16.88,5.32-7.72,2.24-3.71,2.06-5.34,2-5.15,7.88-20.52,4-10.4,3.65-10.44,3.1-10.79,5.87-21.38L625,78.52l1-2.67,1.5-8.48-.88-2.6.44-9.7-1-12.76-.32-1.92-4.29-13-2.11-4.57-5.7-11.12L612.1,8.83l-8.53-12-4.82-4-5-3.81-10.25-6.29L579-21l-5.37-3.75-8.27-9L562.52-38l-5.17-7.34-1.71-3.18L547-64.26l-4.63-8.1-4.12-7.89-3.68-5.7-4.33-9.19-2.83-5.78-5.2-9.68-2.29-4.1-5.83-7.73L511.24-126l-8.69-10.07-6.69-11-1.21-.52-6.4-13.86L481-177.9l-7.21-14.22-1.4-2.16L465-203.64l-9.63-9.14-1.11-.48-.6-.26-5.57-1.39L443-216.32l-1.57.44-7.31,3.75-2.52,3.81L428.58-205l-2.94,5.52-1.21,3.15-3.66,9.54-3.08,8-2.8,11.25ZM605.07,130.34l-4,10.3L599,146.08l-5.94,15.46-1.91,5-1.94,5.06-2.17,3.51-5.1,7.48-12.48,16.88-3.75,5.5-2.82,3.68-2.4,4.09-3.61,5.45-5.08,10.16-3.47,10.85-1.25,3.25-1.88,7.64-1.08,4.65-1.63,6.08L541.18,267l-1.72,4.48-1.62,7.87-1,2.67-1.95,10.28,0-.09-1.42,6.73-.94,4.59-.48,1.24L530.11,315l1,6.88-.36,5.51,2,5.76,2.55,8.32,4.16,7.79,3.62,8,11.3,19.75,8.13,12.72,11.55,17,12.06,17.18,8.28,13.57,1,2.08,5.28,14.05,2.07,12,1.17,11.62-.3,12.1-.94,11.6-1.28,9.12-1.65,10.41-3.35,16.35-2.2,8.17-1.25,3.25-2.6,6.77-1.21,3.15L585.45,565l-.77,2-4.7,7.66-.29.76-4.88,9-3.67,9.54-.33.86-2.89,10.87-1.6,12.43L572,630.78l2.88,3.79,7.51,6.12,2.11.9,7.31,6,5.51,3.37,13.5,11.91,8.41,10.18,3.1,5.66,3,9.77.43,2.85-2.35,10.1-.85,2.2-4.77,9.06-5.22,7.77-5.2,6.22L605,728.87,601.51,733l-5.35,4.15-.55,1.43-1.45,1-4.57.59-5.86-.95-3.17-3-5-5.36-1.82-4.12L568.7,717l-1.93-5.05-6.15-14.54-5.14-14.1-3.59-12.66L551,658.55l.15-2.82,2-7.84.47-5.8,2.65-4.75-2.4-13.93-7.11-14.17-1.63-5.82-2.3-9-1.33-3.57-1.69-9.62-3.19-10-5.44-19.13-2.63-11.47-1.73-9.86-1-3.3-2.36-12.8-.63-6.6-.68-5.86-.39-5.39-.52-6.89-.27-9.68-.5-3L518,464.06l-1.74-5.54-5-9.92L508.7,444l-6.58-11.27-.53-1.68-2.65-10.81,1.6-6.31.4-4.39L503,399.34l.48-1.24-1.26-13.21L500,372.84l-.11-11.95.15-5.27.55-6.32-.76-12.67L496.79,323l-2-5.29-2.1-8.58-3.28-10.41-1.27-4.32-5.93-15.11-6.18-14.45-7.8-16.35L461,234.2l-7.65-13.07-2.82-3.66L445.05,209l-6.31-8.6-8.92-14.95-5.55-14.28-1-3.11L419,156.71l-6.15-14.53-2.65-5.92-3.4-8.58-2.8-8-2-6.18L397.3,99.68l-6.15-14.54-2.27-12.09,1.25-10.58,3.67-9.55,4-10.49,3.9-11.67,1.75-11.59L403.22,15l-.6-8.82L400.7-6.59l-.17-3.52-1.25-8.65.46-11.59,3.67-9.54,5.78-8.64,5.06-4.61,3.16-3.64,2.76-2.6,5-6.3,5-10.53,2.55-11.24.49-12.25-1.61-12.92-5.79-18.83-3.47-9.6L419-154.28l-.14-4.84-.38-6.95,2-7.69.84-2.2,3-7.82,3.67-9.54,1.17-3.06,3.15-5.76,2.74-3.16,2.27-3.47,5.79-2.85,3.63,1.56,4.82,1.18,9.21,8.4,7.08,9.38,1,1.33,7,14.13,6.88,16.29L490-145.13l1,1.65,7.15,10.41,8.95,10.29,2.76,3.52,5.47,7.14,2.13,3.91,5.24,9.59,2.73,5.73,4.32,9.19,3.4,6.13,4,7.61,4.59,8.2L550.34-46l1.91,3.26,5.19,7.57,2.87,4.45,2.08,2.23,7.15,7.63,5.52,4.26,4.42,3.79,10.35,6.34,5.22,4.13,4.29,3.51L606.88,12l1.52,2.76,5.67,10.89L616,29.85,620.23,42l.24,1.22L621.94,55l-.63,9.28.07,2.26-1.52,8.24-1.1,2.86-5.53,21.09-3.05,10.69L607,120.06Z" transform="translate(340.79 396.35)" fill="#8733f3" fill-opacity="0.15"/><path d="M42.61,14.83,29.49,27.35,40.92,38.77,54.05,26.25Z" transform="translate(340.79 396.35)" fill="#ffb900"/><path d="M74.31,34.78l-6.76,6.36L73.36,47l6.75-6.35Z" transform="translate(340.79 396.35)" fill="#ffb900"/><path d="M-32.55-34.93l-7.65-3.29L-39-41.36l8.15,3.5-1.17,3Zm3.73,1.6,1.17-3.05,8,3.42-1.21,3.15-8.26-3.55ZM-43.43-39.6-46.75-41l1.13-3,3.23,1.39Zm26.09,11.21,1.17-3.06,3.22,1.39-1.13,2.95ZM-50-42.41l-8.16-3.51L-57-48.87l8.06,3.46ZM-10.8-25.58l1.18-3.06,8.16,3.51-1.18,3.05ZM.59-20.69l1.17-3.06L10-20.2,8.85-17.15Zm-62-26.65-7.9-4.18,1.21-3.14,7.77,4.22ZM12.07-15.76l1.21-3.15,3.22,1.38-1.14,3ZM18.51-13l1.21-3.15,8.16,3.5L26.71-9.58ZM-72.84-52.23l-3.22-1.39,1.21-3.15,3.22,1.39ZM29.9-8.1l1.17-3.06,8.16,3.51L38-4.5ZM-79.28-55a51.13,51.13,0,0,1-7.62-4.61l1.64-2.74,7.55,4.47ZM41.58-3.09l1.17-3L46-4.76,44.8-1.7ZM48.13-.27l1.21-3.15L57.49.08,56.36,3ZM59.8,3.85,61,.8l8.38,2.93L68.18,6.78ZM-90-60.48l-7.51-4.89L-95.63-68l7.34,4.71ZM71.4,8.17l1.17-3.06L75.8,6.5,74.62,9.55Zm6.45,2.77L79,7.88a42.48,42.48,0,0,0,8.38,2.93l-1.17,3.06Zm11.71,4,1.17-3.06c2.72,1.17,5.62,1.86,8.38,2.93L97.94,17.9ZM-100.6-66.71l-3-2,1.78-2.79,3,1.95ZM101.13,19.05l1.21-3.15,3.23,1.38-1.18,3.06Zm6.67,2.19,1.17-3L117.39,21l-1.21,3.15Zm-214.43-92.1-7.26-5.23,2-2.71c2.36,1.79,4.72,3.59,7.16,5.19Zm226.18,96,1.17-3.05L129,24.92l-1.17,3Zm11.74,3.93,1.18-3.05,3.22,1.38-1.17,3.06Zm6.67,2.2,1.17-3L147.49,31,146.31,34ZM-116.76-78.1l-7-5.48,2-2.56,6.94,5.43ZM149.61,35.2l1.17-3.05,8.35,2.69-1.14,3Zm11.82,3.74,1.17-3,3.33,1.43-1.21,3.15Zm6.7,2.11L169.3,38l8.36,2.7-1.18,3.05ZM-126.77-85.63l-2.69-2.15,2.14-2.53,2.79,2.2ZM181.44,40.31l1.17-3.05,8.49,2.64L189.93,43ZM-130.42-94.76l-6.77-5.9,2.24-2.49c2.16,2,4.44,4,6.67,5.87ZM193.29,44.29l1.13-3,3.23,1.39-1.14,3Zm6.7,2.1,1.17-3,8.43,2.5L208.38,49Zm11.89,3.55,1.18-3,8.42,2.51-1.17,3.05Zm11.76,3.61,1.21-3.15,3.22,1.38-1.13,3ZM-139.95-102.63l-6.56-6.15,2.31-2.34,6.45,6.1ZM230.38,55.55l1.17-3,8.55,1.89-1.18,3ZM242.21,59l1.17-3.06,8.47,2.42-1.18,3.05Zm11.87,3.32,1.17-3.06,3.23,1.39-1.18,3.05Zm-402.88-173-2.9-3.14,2.27-2.25,2.55,2.54Zm409.73,176,1.21-3.15,8.46,2.41L270,67.8a33,33,0,0,0-9.27-4Zm11.94,3.13,1.14-3,8.53,2.22-1.21,3.15ZM-154.08-115l-6.21-6.45,2.48-2.16,6.14,6.31ZM284.62,72l1.22-3.15,3.22,1.39-1.17,3Zm6.86,1.72,1.17-3.05,8.5,2.31-1.14,3Zm11.94,3.13,1.13-3c2.84.55,5.57,1.39,8.47,2.08l-.53,3.22ZM-162.69-124.07l-5.9-6.65,2.58-2.12,5.89,6.65ZM315.39,79.84l.53-3.22,3.48.72-1.2,3.15Zm6.85,1.72.57-3.31,8.47,2.08-.53,3.22Zm11.91,2.89.57-3.31,8.51,2-.57,3.31ZM-170.92-133.5l-2.27-2.64,2.64-2,2.17,2.6ZM346.14,87.16l.53-3.22,3.38.67L349.58,88Zm6.79,1.58.57-3.32L362,87.31l-.47,3.36ZM-175.53-138.92l-5.54-6.94,2.73-1.94,5.45,6.9ZM365,91.34l.57-3.31,8.54,1.89-.47,3.36ZM377,94l.47-3.36,3.48.72-.47,3.36Zm6.9,1.29L384.3,92l8.62,1.7-.43,3.26a16.71,16.71,0,0,0-8.79-3.1ZM-183.28-148.37l-5.3-7.28,2.77-1.7,5.27,7ZM395.89,97.85l.37-3.4L404.81,96l-.36,3.4Zm12,2.14.43-3.26,3.42.58-.33,3.3ZM-190.68-158.44l-2.06-2.88,2.91-1.76,2,2.84Zm605.33,260,.36-3.4,8.59,1.47-.26,3.44Zm12.14,2,.23-3.35,8.66,1.28-.23,3.35ZM-195-163.54l-4.82-7.3,2.86-1.66,4.83,7.3ZM438.72,105.8l.27-3.45a31.13,31.13,0,0,0,3.45.49l-.23,3.34Zm6.94.87.2-3.25c2.94.26,5.75.58,8.63,1l-.09,3.29c-2.64-2.91-5.51-3.37-8.43-3.73ZM-201.59-176.46l-4.64-7.45,3-1.61,4.8,7.06ZM458.16,105.59l.07-3.53c2.87.45,5.82.72,8.63,1l0,3.43Zm12.1,1.19.13-3.39,3.39.34v3.34ZM-208-186.9l-1.85-3.13,3-1.38,1.78,3ZM476.87,107.29l-.07-3.48,8.68.62v3.33Zm11.54.51v-3.34l8.66.38.1,3.38Zm-701-301.11-4.33-7.65,3-1.47,4.34,7.64ZM500.59,108.47l-.21-3.43,3.5.06.24,3.33Zm7,.11-.21-3.42h8.56l.35,3.37ZM-218.54-204.09l-4.17-7.8,3.1-1.34c1.32,2.68,2.71,5.17,4.06,7.75ZM519.72,108.46l-.45-3.42,8.61-.41.45,3.41ZM-224.32-215l-1.61-3.14,3.1-1.34,1.57,3.23ZM531.73,107.73l-.48-3.32,3.41-.32.58,3.37Zm-759-329-3.79-7.85,3.06-1.24,3.75,7.94Zm765.46,328.8-.58-3.37,8.29-1.11.82,3.36Zm12.35-1.59-.24-3.66,8.17-1.72,1.06,3.35a57.29,57.29,0,0,1-8,1.8ZM-232.65-231.83l-3.51-8L-233-241c1.08,2.69,2.3,5.32,3.51,8ZM562.17,103.35l-1.1-3.25,1.85-.54,1.34-.43,1.3,3.34-1.44.38ZM-237.6-243.07l-1.33-3.25,3.22-1.06,1.34,3.25ZM568.74,101.5l-1.23-3.2,8-2.69,1.33,3.24ZM-239.18-249.65c-1.14-2.82-2.26-5.41-3.3-8.2l3.19-1,3.34,8.1ZM581.05,97.56l-1.47-3.19c2.71-1,5.39-1.8,7.9-2.83L589,94.63c-2.65,1.09-5.26,2.08-7.94,2.93ZM-243.38-261c-1.08-2.69-2.16-5.38-3.1-8.11l3.29-.93,3,8.17ZM592.45,93.56l-1.51-3.09L594,89.22l1.51,3.1ZM-248-272.45c-.38-1.16-.79-2.23-1.06-3.35l3.25-.83,1.09,3.25ZM598,91l-1.62-3.13c2.51-1,5.06-2.17,7.54-3.44l1.61,3.14ZM-250.46-278.62c-.94-2.63-1.88-5.36-2.82-8.21l3.09-1.34,2.76,8.08ZM608.79,86.46l-1.69-2.95c2.52-1.36,5-2.53,7.29-4l2.08,3.12A61.39,61.39,0,0,0,609,86Zm-863-377c-.94-2.74-1.78-5.44-2.59-8.23l3.22-.73,2.72,8.17Zm873.62,371-2-3,2.87-1.65,2,3a24,24,0,0,0-2.87,1.66ZM-257.85-302.14l-1-3.2,3.25-.83,1.06,3.35Zm883,379.29L623,74.31c2.45-1.5,4.77-3,7-4.44L632,72.66ZM-259.9-308.69l-2.62-8.46,3.41-.65,2.32,8.34ZM634.82,70.63l-2.05-3.22c2.22-1.49,4.41-3.22,6.56-4.85l2.27,2.64A55.33,55.33,0,0,1,634.82,70.63Zm-898.1-391-2.31-8.33,3.28-.59,2.45,8.28ZM644,63.56l-2.27-2.65c.37-.95,1.6-1.42,2.47-2.16l2.41,2.59ZM-266.45-332l-.83-3.36,3.38-.54.83,3.35ZM649,59.14l-2.4-2.59c1.95-1.72,3.94-3.54,5.9-5.58L655,53.5A58.31,58.31,0,0,1,649,59.14Zm8.3-7.55-2.68-2.49c1.85-1.76,3.68-3.76,5.67-5.9L663,45.68c-1.75,1.81-3.64,3.67-5.43,5.57Zm7.92-8.39-2.62-2.35c.37-1,1.44-1.6,2.11-2.43l2.72,2.39c.08.71-1.19,1.27-2,2Zm4.45-4.87-2.72-2.39.41-1c1.51-1.8,3.08-3.45,4.56-5.15L674.65,32c-1.58,1.66-3.19,3.41-4.7,5.21Zm7.72-8.47-2.62-2.35c2.07-2.33,4-4.19,5.67-5.9L683,24.05c-1.46,1.38-3.35,3.23-5.39,5.47Zm7.89-7.73-2.4-2.59a24.69,24.69,0,0,1,2.37-2.2l2.41,2.59c-.21.24-1.25.8-2,1.58Zm4.91-4.22-2.27-2.65a66.62,66.62,0,0,1,6.8-4.86l2,2.75a28.15,28.15,0,0,0-6.17,4.13Zm9.36-6.33-1.93-2.93a62.1,62.1,0,0,1,7.65-3.72l1.58,3.23a47.16,47.16,0,0,0-7,2.8ZM709.84,7l-1.37-3.14a12.3,12.3,0,0,1,3.22-1.06L712.93,6a24.57,24.57,0,0,0-2.73.39Zm6.24-1.88-1-3.2A57.8,57.8,0,0,1,723.49.2l.68,3.41c-2.47.24-4.92.6-7.33,1.07Zm11.44-2-.59-3.36c2.73-.38,5.69-.45,8.58-.65L736,2.56a27.05,27.05,0,0,0-8.09,0Zm12-.63-.34-3.37c1.09-.09,2.2,0,3.5,0l.24,3.33Zm6.76.12-.11-3.38c2.79.08,5.67.21,8.72.52l-.09,3.3Zm11.5.61,0-3.44c2.71.28,5.76.59,8.64,1l-.09,3.3a30,30,0,0,0-7.81-1.36Zm11.93,1.34.23-3.35,3.55.53-.33,3.3Zm6.86,1.06.34-3.31c2.77.42,5.65.87,8.69,1.51l-.43,3.26Zm12,2.14L789,4.43l8.58,1.8L797,9.54Zm12,2.47.47-3.36a18.88,18.88,0,0,0,3.44.81L803.82,11Zm6.82,1.48.54-3.22,8.6,2-1.17,3.06Zm11.92,2.89,1.13-3,8.48,2.08-1.18,3Zm11.84,3.09,1.17-3,3.22,1.38-1.13,3Zm6.81,1.81,1.14-3,8.57,2.12L846.9,22Zm12,3,.53-3.22,8.61,2-.71,3.36Zm11.91,2.89,1.09-3.76,3.48.72-.57,3.31Zm6.89,1.62.57-3.31,8.54,1.89L877.18,29Zm11.92,2.57.57-3.32,8.44,1.85-.47,3.36Zm12,2.6.47-3.35,3.38.67L896,32.93Zm6.9,1.3.43-3.26,8.55,1.56-.37,3.4Zm12,2.28.43-3.26,8.55,1.56-.33,3.3Zm12.17,2.22.23-3.35,3.52.63-.37,3.39Zm6.93,1.2.23-3.35,8.69,1.51-.33,3.31Zm12,2L943,38l8.66,1.27-.37,3.4a35.72,35.72,0,0,0-7.86-1.82Zm12.08,1.86,1.09-3.76,3.45.48-.33,3.31Zm6.9,1,.19-3.25,8.7,1.18-.16,3.49ZM973.68,46l.37-3.4,8.56,1.24-.2,3.25a44.58,44.58,0,0,0-8-1.54Zm12.19,1.57.09-3.29,3.49.38L989.32,48Zm6.9,1,.13-3.4,8.74,1.09-.23,3.35Zm12.13,1.42.19-3.25,8.67.95-.23,3.34a33.8,33.8,0,0,0-7.95-1.3ZM1017,51.35l.09-3.29,3.49.38-.09,3.3Zm6.94.87.13-3.39,8.57.9-.09,3.3Zm12.1,1.19.13-3.39,8.57.91,0,3.43Zm12.1,1.2.09-3.3,3.42.25,0,3.43Zm6.87.73.13-3.39,8.75.75-.13,3.39Zm12.27,1V53.05c3,.26,5.76.58,8.64.71l0,3.43Zm12,1.06,0-3.43,3.49.38-.1,3.3Zm7,.54V54.64l8.68.62V58.6Zm12.1.86.1-3.29,8.58.57.11,3.38Zm12.21.91-.11-3.38,3.56.19,0,3.44Z" transform="translate(340.79 396.35)" fill="#ffb900" fill-opacity="0.15"/><path d="M220.69,237.26a4.9,4.9,0,1,0-4.75-4.64A4.7,4.7,0,0,0,220.69,237.26Z" transform="translate(340.79 396.35)" fill="#fff" stroke="#ffb900" stroke-width="6"/><path d="M260.28,380.64,326,456.36l29-98.1Z" transform="translate(340.79 396.35)" fill="#27c9bc" opacity="0.15" style="isolation:isolate"/><path d="M192.46,358.1,226,396.42l14.65-49.49Z" transform="translate(340.79 396.35)" fill="#27c9bc" opacity="0.15" style="isolation:isolate"/></g></g></svg>