<svg width="31" height="31" viewBox="0 0 31 31" fill="none" xmlns="http://www.w3.org/2000/svg">
<path d="M15.13 1.36914C15.0707 1.37511 15.0131 1.39207 14.96 1.41914L2.96002 8.71914C2.53002 8.98914 2.75002 9.57914 3.28002 9.57914H27.27C27.81 9.57914 28.03 8.98914 27.59 8.71914L15.63 1.41914C15.5772 1.40889 15.5229 1.40889 15.47 1.41914L15.13 1.36914Z" fill="#1E1E23"/>
<path d="M28.3702 27.5508H1.88018C1.63165 27.5508 1.43018 27.7523 1.43018 28.0008V28.9208C1.43018 29.1693 1.63165 29.3708 1.88018 29.3708H28.3702C28.6187 29.3708 28.8202 29.1693 28.8202 28.9208V28.0008C28.8202 27.7523 28.6187 27.5508 28.3702 27.5508Z" fill="#1E1E23"/>
<path d="M8.55998 10H3.55998C3.27355 10 2.99884 10.1138 2.79631 10.3163C2.59377 10.5189 2.47998 10.7936 2.47998 11.08C2.47998 11.3664 2.59377 11.6411 2.79631 11.8437C2.99884 12.0462 3.27355 12.16 3.55998 12.16C3.7386 12.1583 3.91463 12.1171 4.07542 12.0392C4.23622 11.9614 4.37779 11.849 4.48998 11.71H7.62998C7.74217 11.849 7.88374 11.9614 8.04454 12.0392C8.20533 12.1171 8.38136 12.1583 8.55998 12.16C8.84641 12.16 9.12112 12.0462 9.32366 11.8437C9.52619 11.6411 9.63998 11.3664 9.63998 11.08C9.63998 10.7936 9.52619 10.5189 9.32366 10.3163C9.12112 10.1138 8.84641 10 8.55998 10Z" fill="#1E1E23"/>
<path d="M8.56002 25.0606C8.38103 25.0601 8.20428 25.1004 8.04315 25.1784C7.88203 25.2563 7.74075 25.3699 7.63002 25.5105H4.53002C4.41929 25.3699 4.27801 25.2563 4.11689 25.1784C3.95576 25.1004 3.77901 25.0601 3.60002 25.0606C3.31359 25.0606 3.03888 25.1743 2.83634 25.3769C2.6338 25.5794 2.52002 25.8541 2.52002 26.1406C2.52002 26.427 2.6338 26.7017 2.83634 26.9042C3.03888 27.1068 3.31359 27.2206 3.60002 27.2206H8.60002C8.88645 27.2206 9.16116 27.1068 9.36369 26.9042C9.56623 26.7017 9.68002 26.427 9.68002 26.1406C9.68002 25.8541 9.56623 25.5794 9.36369 25.3769C9.16116 25.1743 8.88645 25.0606 8.60002 25.0606H8.56002Z" fill="#1E1E23"/>
<path d="M7.39008 12.2891H4.76008C4.38452 12.2891 4.08008 12.5935 4.08008 12.9691V24.2491C4.08008 24.6246 4.38452 24.9291 4.76008 24.9291H7.39008C7.76563 24.9291 8.07008 24.6246 8.07008 24.2491V12.9691C8.07008 12.5935 7.76563 12.2891 7.39008 12.2891Z" fill="#1E1E23"/>
<path d="M17.78 10H12.83C12.5436 10 12.2689 10.1138 12.0663 10.3163C11.8638 10.5189 11.75 10.7936 11.75 11.08C11.75 11.3664 11.8638 11.6411 12.0663 11.8437C12.2689 12.0462 12.5436 12.16 12.83 12.16C13.0072 12.1582 13.1817 12.1169 13.3409 12.039C13.5001 11.9612 13.6398 11.8488 13.75 11.71H16.86C16.9702 11.8488 17.1099 11.9612 17.2691 12.039C17.4283 12.1169 17.6028 12.1582 17.78 12.16C18.0664 12.16 18.3411 12.0462 18.5437 11.8437C18.7462 11.6411 18.86 11.3664 18.86 11.08C18.86 10.7936 18.7462 10.5189 18.5437 10.3163C18.3411 10.1138 18.0664 10 17.78 10Z" fill="#1E1E23"/>
<path d="M17.78 25.0605C17.6024 25.0601 17.4272 25.1005 17.2676 25.1785C17.1081 25.2565 16.9687 25.3701 16.86 25.5105H13.75C13.6413 25.3701 13.5019 25.2565 13.3424 25.1785C13.1828 25.1005 13.0076 25.0601 12.83 25.0605C12.5436 25.0605 12.2689 25.1743 12.0663 25.3769C11.8638 25.5794 11.75 25.8541 11.75 26.1405C11.75 26.427 11.8638 26.7017 12.0663 26.9042C12.2689 27.1068 12.5436 27.2205 12.83 27.2205H17.78C18.0664 27.2205 18.3411 27.1068 18.5437 26.9042C18.7462 26.7017 18.86 26.427 18.86 26.1405C18.86 25.8541 18.7462 25.5794 18.5437 25.3769C18.3411 25.1743 18.0664 25.0605 17.78 25.0605V25.0605Z" fill="#1E1E23"/>
<path d="M16.6201 12.2891H13.9901C13.6145 12.2891 13.3101 12.5935 13.3101 12.9691V24.2491C13.3101 24.6246 13.6145 24.9291 13.9901 24.9291H16.6201C16.9956 24.9291 17.3001 24.6246 17.3001 24.2491V12.9691C17.3001 12.5935 16.9956 12.2891 16.6201 12.2891Z" fill="#1E1E23"/>
<path d="M26.6799 10H21.7299C21.4435 10 21.1688 10.1138 20.9662 10.3163C20.7637 10.5189 20.6499 10.7936 20.6499 11.08C20.6499 11.3664 20.7637 11.6411 20.9662 11.8437C21.1688 12.0462 21.4435 12.16 21.7299 12.16C21.9072 12.1589 22.082 12.1179 22.2413 12.04C22.4005 11.9621 22.5402 11.8493 22.6499 11.71H25.7599C25.8701 11.8488 26.0098 11.9612 26.169 12.039C26.3282 12.1169 26.5027 12.1582 26.6799 12.16C26.9663 12.16 27.241 12.0462 27.4436 11.8437C27.6461 11.6411 27.7599 11.3664 27.7599 11.08C27.7599 10.7936 27.6461 10.5189 27.4436 10.3163C27.241 10.1138 26.9663 10 26.6799 10V10Z" fill="#1E1E23"/>
<path d="M26.6799 25.0606C26.5023 25.0602 26.3271 25.1005 26.1676 25.1785C26.008 25.2566 25.8686 25.3702 25.7599 25.5106H22.6499C22.5417 25.3696 22.4024 25.2556 22.2428 25.1775C22.0831 25.0994 21.9076 25.0594 21.7299 25.0606C21.4435 25.0606 21.1688 25.1744 20.9662 25.3769C20.7637 25.5794 20.6499 25.8541 20.6499 26.1406C20.6499 26.427 20.7637 26.7017 20.9662 26.9042C21.1688 27.1068 21.4435 27.2206 21.7299 27.2206H26.6799C26.9663 27.2206 27.241 27.1068 27.4436 26.9042C27.6461 26.7017 27.7599 26.427 27.7599 26.1406C27.7599 25.8541 27.6461 25.5794 27.4436 25.3769C27.241 25.1744 26.9663 25.0606 26.6799 25.0606V25.0606Z" fill="#1E1E23"/>
<path d="M25.52 12.2891H22.89C22.5144 12.2891 22.21 12.5935 22.21 12.9691V24.2491C22.21 24.6246 22.5144 24.9291 22.89 24.9291H25.52C25.8955 24.9291 26.2 24.6246 26.2 24.2491V12.9691C26.2 12.5935 25.8955 12.2891 25.52 12.2891Z" fill="#1E1E23"/>
</svg>
