<svg width="94" height="87" fill="none" xmlns="http://www.w3.org/2000/svg"><path
    d="M40.53 11.87c0-.15 2.16.05 2.83-.41.67-.46 2.71-2.82 2.94-2.82.23 0-1.21 2.8-.65 3.5.56.7 1.43 1.1 1.46 1.24.03.14-2 .13-2.61.56-.92.62-2 1.85-2.22 1.82-.22-.03.6-2 0-2.68-.6-.68-1.68-1.08-1.75-1.21Z"
    fill="#fff"
    fill-opacity="0.3"
  /><path
    d="M6.89 40.21s2.81-13.48 9.06-17.24c1.11-.67-.5 6.23 4 1.55 3.41-3.53 5-6.3 6.37-6.61 1.37-.31-5.5 11.59 2.19 6.89 8.92-5.44 10.81-8 12.93-7.22 2.12.78-2.14 6.15 4 3.85 9.46-3.58 10.02-9.15 12.16-9.95 1.38-.49 2.11 1.06 6.14.23 4.03-.83 4.65-1.56 7.51-.86 6.57 1.62 4.49 10.83 4.49 10.83s-4.35-10.2-13.35-7.4C49.6 18.21 51.82 25.86 41.78 26.95c-16.32 1.77-22.06.72-23.93.8-4.91.21-6.25 4.73-10.96 12.46Z"
    fill="#fff"
    fill-opacity="0.3"
  /><path
    d="m7.11 33.02.07-.16C10.86 24.57 17.9 15.48 19 16.73c1.57 1.79-2.13 6.22-.22 5.27 1.91-.95 9.69-15.84 13.45-13.49 1.89 1.19-4.88 7.91-3.18 9 1.7 1.09 6.06-1.07 8.13-3.4C42.7 7.86 44.44 4.92 51.6 3.78c9.5-1.51-7.32 10.78-2.59 12 4.73 1.22 5.82-9.95 14.07-9.5 2.65.13-8.13 6.68 2.82 3.18 3.29-1.05 6.88-1 8.62.55 3.06 2.73 4.72 9.13 2.91 12.36a14.43 14.43 0 0 1 10.85 1.5A43.57 43.57 0 0 0 57.65.65a52.08 52.08 0 0 0-16.54 0 43.53 43.53 0 0 0-34 32.37Zm9.2 17.06c-.77-.76-.23-2.74-2.82-2.42a6.299 6.299 0 0 0-4.67 3.52c1.13.71 2.31 1.41 3.55 2.11a.741.741 0 0 0-.14-.37 8.998 8.998 0 0 1-1.49-1.64c.07 0 1.95 1.74 3 1.69 1.05-.05.73-.09.81 0 .08.09-.09.1-.62.26a2.268 2.268 0 0 0-.88.49c.66.37 1.34.73 2 1.09a28.1 28.1 0 0 0 2.32-3c.01-.26.15-.53-1.06-1.73ZM13.6 51.7a1.17 1.17 0 1 1-.523-2.28 1.17 1.17 0 0 1 .523 2.28Zm1 7.1c1.07.77.88 1.08 1.35 1.41.47.33 1.32 1 1.2 1.43-.12.43-.87.63-.61 1.81.33 1.44-1.19 2.53-2.51.88-.05-.35-.05-1.67.24-1.92s.78-.55.72-.6c-.06-.05-.69.52-1.28.33-.59-.19-.94-.47-1-.44.314.232.615.482.9.75.21.24-.19 1.36-.08 1.73-.66-.73-1.9-.46-2.26-1.64-.3-2.11 1.67-3.86 2.14-4.25.04-.01.4-.08 1.19.51Zm-1.46 1.37a.89.89 0 0 0 .27 1.25.92.92 0 0 0 1.27-.2.93.93 0 0 0-.933-1.407.9.9 0 0 0-.577.357h-.03Zm74.77-25.3s-1.88-2.57-3-4c-1.12-1.43-2.24-3.35-2.31-3.32a4.288 4.288 0 0 0 .31 3.34 11.157 11.157 0 0 0 1.85 2.13 8.62 8.62 0 0 0 3.15 1.85Zm-.76 3.41a26.01 26.01 0 0 1-1.55-2.88 6.451 6.451 0 0 0-1.12-1.81c-.24-.3-1.62-1.83-1.61-1.85a3.81 3.81 0 0 0 .73 3.3 11.22 11.22 0 0 0 3.55 3.24Z"
    fill="#fff"
    fill-opacity="0.3"
  /><path
    d="M82.25 31.77a17.861 17.861 0 0 1-2.18-5.23c-.52-2.28-.14-2.53-.06-2.55a18.872 18.872 0 0 1 2 2.93c.16.61-.62 2.24.18 3.79.32.72.16.99.06 1.06Zm10.59 10.18a8.002 8.002 0 0 1-2.17-1.89c-.15-.21-3.34-2.65-3.33-2.69a10.27 10.27 0 0 0 2.83 3.91 13.69 13.69 0 0 0 3 1.83v-.91l-.33-.25Zm-2.11-2.45a10.573 10.573 0 0 0 2.42 2.07c0-.4 0-.8-.08-1.21-1.1-.4-2.35-.84-2.34-.86Zm-.44-2.51c-1.85-1-4.21-2.2-4.21-2.2s.41 1.28 2.75 3A10.371 10.371 0 0 0 93 39.57c0-.26-.05-.53-.08-.8a28.977 28.977 0 0 0-2.63-1.78ZM78.6 24.28a5.52 5.52 0 0 0-4.66 3.53 5.52 5.52 0 0 1-.52 2.27c-.43.84.11 1.35.9 1.73 1 .5.57 1.2 1.09 1.94.26.37 6.37 1.74 6.66 1.5.79-.74-2.89-3.36-3.47-10.97Zm-1.13 5.76a1.44 1.44 0 1 1 .37-2 1.42 1.42 0 0 1-.41 1.95l.04.05Zm-3.78-5.93a9.15 9.15 0 0 0-.28-.63c-3.27-6.94-12.09-5.35-16.29 3-1.91 3.81-4.59 9.25-4.23 9.11 4.93-1.93 12.7-2.11 13.13-2.16.21 0 2.62-2.93 4.34-2.2 1.44.62 2.76-2.87 2.78-4.82a4 4 0 0 0-2.88-3.9 12 12 0 0 0-4.47-.73 6.84 6.84 0 0 1 7.4 1.82l.5.51Zm-7.36 6.61a9.94 9.94 0 0 1-6.7.62c.79-.11 5.35-.05 5-1.56-.23-1.07-1.14-1.52-1-1.68.5-.61 1.54 1.48 3.72 1.29 2.18-.19-.04.89-1.02 1.33Zm3.13-4.94a2.059 2.059 0 1 1-2.48-1.5 2.07 2.07 0 0 1 2.48 1.5ZM38.48 37.1c-1.59-.62-4.54-5.81-10.51-.77-5.97 5.04.63 20.35 1.7 19.87.81-.37-4.34-10-.87-16.93-1.1 3.51-1.07 8.14.61 11.07.5.87.59-3.12 1.86-4.5 2-2.21 2.89.27 4-2.81 1.11-3.08 5.12-5.18 3.21-5.93Zm-4.53-.76a1.55 1.55 0 1 1 .72 3.014 1.55 1.55 0 0 1-.72-3.014Zm.4 4.78c-1.66.25-1.81 2.43-2.4 2.35-.21 0 1.21-2.45.36-3.08-.85-.63-1.32-1 .49-.33a5.83 5.83 0 0 0 3.19.15c.12.07-.59.75-1.64.91ZM72 46s.44 2.85 1.4 3.36c2.61 1.42 2.86 2.8 2.86 2.8s.26-3.3-.46-4A7.16 7.16 0 0 0 72 46Z"
    fill="#fff"
    fill-opacity="0.3"
  /><path
    fill-rule="evenodd"
    clip-rule="evenodd"
    d="M76.01 64.66a13.64 13.64 0 0 0 1.53.41c-1.75-1.1-3.07-4.64-1.6-6.18a10.771 10.771 0 0 0 2.08 2.5c.06-1.89 2.11-2.54 1.07-5.69 4.57 2.89 3 8.21.83 9.37a5.14 5.14 0 0 0 5.28-2.15c1.92-2.85-5.37-12.54-7.71-15.53-.44-.56-.57-.39-.42.37.42 2 1 5.86-.41 7.31.3-.31-1.59-3.44-3.37-4.46a2.32 2.32 0 0 0-.77-.3c.11.23.203.467.28.71 1.32 4.33-3.35 10.59-.33 12.18a17.892 17.892 0 0 0 3.54 1.46Z"
    fill="#fff"
    fill-opacity="0.3"
  /><path
    d="M63.05 51.95c.86-.61 4.13-1.65 4.94-1.21 3.13 1.75 2 2.74 2 2.74.18.19 1.5-.39 1-2.68a5 5 0 0 0-3.4-3.84c-3.25-1.38-8.06-1.37-9.58-.65 1.11 1.33 2.29 4.46 5.04 5.64Zm3.33-3.51a1.11 1.11 0 1 1-2.211.21 1.11 1.11 0 0 1 2.21-.21Z"
    fill="#fff"
    fill-opacity="0.3"
  /><path
    d="M61.6 52.11c-4.54-2.43-2.15-7.76-9.67-4.23-8 3.75-10.49 13.9-10.36 14 .13.1 3.54-3.51 6.76-5.53.21-.13 2.87-4 2.87-4s-.77 2-1.12 3a21.158 21.158 0 0 1 2.11-.88l.44-.67c.78-1.34 1.73-3.4 1.73-3.4s-1 3.71-.87 3.65c6.56-2.46 10.22-.83 8.11-1.94Zm7.47 10.95s-.52.92-1 .79a6.772 6.772 0 0 1 .4-2.53c.31-.16 1-.07 1 .41a2.89 2.89 0 0 1-.4 1.33Z"
    fill="#fff"
    fill-opacity="0.3"
  /><path
    d="M67.95 61.05c-.22-.75-2.63-2.58-5.21-3.78-2.17-1-1-3.55-3.25-3.3-1.26.13-3.22 2.61-4 5.16a3 3 0 0 1-3.05 2.09 11.26 11.26 0 0 0 2.35-2.1c.76-1 .81-2.18-.71-2a21.33 21.33 0 0 0-7.59 3c-4 2.58-5.37 3.35-5.17 3.44.2.09 7.7 0 12.85.43 5.15.43 7 .62 9 .43 1.06-.1 4.06-.32 4.06-.32s.95-2.31.72-3.05Zm-9.35-4.64c-.27 0 .25-1.52.91-1.63.66-.11 1 .65 1.1 1.2.1.55-1.73.47-2.01.43Zm4.42 3.69a1.52 1.52 0 1 1-1.52-1.52 1.52 1.52 0 0 1 1.53 1.52h-.01Zm8.82 12.46c-6.17-.36-7.48-.5-10.73-.68-3.56-.19-12.38-1.26-12.5-1-.12.26 4.53 1.84 7.09 3.49 3.06 2 6.55 4.51 11 3.35.21-.06-2.1-3.76 1.42-3.27.37.06-3.78 4.46 3.91 2.71 2.06-.47 3.76-2.8 4.69-1.93.64-.65-1.56-2.47-4.88-2.67Zm-.24 3.62a1.07 1.07 0 0 1-1.26-.81 1 1 0 0 1 .85-1.21 1.08 1.08 0 0 1 1.25.82 1 1 0 0 1-.84 1.2Z"
    fill="#fff"
    fill-opacity="0.3"
  /><path
    d="M74.28 77.6c-.32 0-1.27.86-1.81.74a1.2 1.2 0 0 1-.91-.57c-.15-.07-4.16 1.25-4.16 1.25a7.34 7.34 0 0 1-3.84.1c-3.22-1.14-5.08-2.09-5.09-1.68-.01.41 4.39 2.13 4 3.35-.64 1.85-1.61 3.24-.26 2.84 1.05-.32 4.48-3.22 5.9-4.45 1.31.309 2.659.413 4 .31 1.49-.21 2.49-1.9 2.17-1.89Zm-23.11 4.68a1.5 1.5 0 0 0-1.13 0c-.3.11-.71.63-.14 1.31a1.44 1.44 0 0 1 0 1.66c-.31.37-.83.77-.57.81a3.12 3.12 0 0 0 2.54-1.78 2.16 2.16 0 0 0-.7-2Zm1.72-.59c-.2.09-.63.33-.43.65.325.362.6.766.82 1.2a1.86 1.86 0 0 1-.17 1.8c-.26.35-.62.66-.37.66a2.6 2.6 0 0 0 .65-.31c1.36-.85 2-3 .48-4a1 1 0 0 0-.98 0Zm-4.36.71a1 1 0 0 0-1-.32c-.53 0-.69.5-.64.58a2.38 2.38 0 0 1-.59 2.72c-.23.142-.467.272-.71.39 0 .1.13.11.21.09a3.291 3.291 0 0 0 2.37-1.72c.52-.77.69-1.37.36-1.74Zm8.01-1.42a1.67 1.67 0 0 0-1.35-.18c-.54.16-1.05.61-.42.86a2.539 2.539 0 0 1 1.83 1.9c.2.56.11.92.25.9.14-.02.3-.28.45-.63a2.39 2.39 0 0 0-.76-2.85Zm-8.86-4.34c1.31 2.06-2.65 2.41-2.73 3.35-.08.94 1.94 1.33 5 1.2 3.06-.13 4.91-1.7 5-2.64 0-.51-2.64-1.87-4.81-2.54a7.05 7.05 0 0 1 3.46.37c-3.79-4.19-9.72-6.56-13-7.49-.38.14-.22 4.07-.13 4.38 0 0 .34-.4.71-.86.37-.46.81-.51.36 0-.9 1.14-.89 2.56-.57 2a8.253 8.253 0 0 1 1.37-1.49c-.187.35-.401.684-.64 1-.47.69-.87 2.57-.47 1.73.397-.634.856-1.227 1.37-1.77a11.753 11.753 0 0 0-.85 3.16c0 1.7.44-1.32 1.51-2.45.11.1-1.6 4-.14 5 1 .5 1.69-1 2.51-1.66a6.94 6.94 0 0 1 2.05-1.29Zm8.41-8.53c.19-2.08 3.1-1.73 6.63-1.55 3.23.17 27.08.52 28.53.62 1.86.14.47 4.4-2.41 4.35-7.41-.13-27.1-1.11-27.85-1.19-2.63-.26-5.06-.4-4.9-2.23ZM8.25 50.81c1.41-2.33 3.48-3.94 6.65-3.32a3.83 3.83 0 0 0-1.15-.62c-4.61-1-7.29.62-6.21 3.48l.71.46Zm11.68-13.09c-7.86-1.94-13 9.15-10.21 8a5.17 5.17 0 0 1 3.4-.15c1.4.13 2.77.31 2.93.1a9 9 0 0 1 4.35-3c.11-.22.26-.4-.27-2.13-.4-1.35.94-2.48-.2-2.82Zm-3.83 5.61a1.77 1.77 0 0 1-1.72-.8c-.51-.61-.6-1.08-.48-1.1a4.85 4.85 0 0 0 2.21 1.12c.75.118 1.51.171 2.27.16a5.69 5.69 0 0 1-2.28.62Zm1-1.29a1.38 1.38 0 1 1 1.143-1.008 1.382 1.382 0 0 1-1.173 1.008h.03Z"
    fill="#fff"
    fill-opacity="0.3"
  /><path
    d="M13.91 35.28C9.06 36.91 7.48 41.13 7 45.93c-.48 4.8.77.38.77.38a19 19 0 0 1 3.5-6.81.93.93 0 0 1-.23-.49 1.118 1.118 0 0 1 .8-1.37 1.91 1.91 0 0 1 1.34.19l.11-.08c3.94-2.42 6.9-1 6.9-1a6.27 6.27 0 0 0-6.28-1.47ZM7.44 54.96c.34 1.26.74 2.49 1.19 3.69 1.54-1.45 2.16-1.75.93-2.51-.36-.22-1.15-.66-2.12-1.18Zm1.77 4.6c-.05.084-.093.17-.13.26.43 1.06.91 2.1 1.41 3.12-.26-2.5.09-3.55.69-3.44.42.08.35.51.38.42a4 4 0 0 1 1.83-1.82s-2.94-.75-4.18 1.46Zm77.96-33.97c-3.79-1.83-4.92-1.86-6.15-1.71 0 0 3 3.64 6.11 8.14a20.418 20.418 0 0 0 5.28 4.75 43.97 43.97 0 0 0-.65-3.35 42.243 42.243 0 0 0-1.23-4.24 9.89 9.89 0 0 0-3.36-3.59Zm-37.4 1.59c-8.46 2-18.41.43-25.44 8.64-4.14 4.82-5.61 19.75-5.48 25.25.1 3.9-.29 5.44.24 5.51.53.07 1-4.87 1.31-4.81.31.06.64 3.36 1.11 5.06.29 1.07.51.72.59-2.64 0-1.27-.23-2.5.06-2.56.5-.09.28 0 1 1.8 1.16 2.87 2.29 4.49 1.22.07-.81-3.35-.66-3.69.61-1.46 2.82 5 2.8 3.38 1.75.6-1.14-3.09-1.37-6.23-.14-4.81 2.61 3.08 2.31 2-.7-3.92-2.81-5.49-3.37-17.85 4.78-20.63 5.11-1.77 10.22 1.95 12.75.73 3.78-1.87 6.6-6.89 6.34-6.83Z"
    fill="#fff"
    fill-opacity="0.3"
  /><path
    d="M58.72 17.67c-10.2 6.38-5 11.38-14.31 17.58-8.49 5.64-13.33 19-12.29 19.21 1.04.21 5.8-13.81 18.78-18.24a65.455 65.455 0 0 1 7.39-13.44c5.43-7.67 12.49-2.86 13.48-3.42 0 0-6.3-5.91-13.05-1.69ZM47.45 35.06c0 .07 0 .33-.57.8a5.44 5.44 0 0 1-1.68.81c-.787.207-1.559.467-2.31.78 1.17-1.36 4.53-2.39 4.56-2.39Zm-6.43 4.91a12.891 12.891 0 0 1 3.51-2.5 12.27 12.27 0 0 1 1.54-.19c-.05.06-2.47 1.35-5.05 2.69Zm8.45-4.83a5.24 5.24 0 0 1-2.7 1.81c.19-.293.404-.57.64-.83a3.79 3.79 0 0 1 1.28-1.47c.53-.33 1.57-1.16 1.56-1.08-.23.538-.49 1.062-.78 1.57Zm1.13-2.7c0 .06-.28.37-.37.47a5.123 5.123 0 0 1-.57.52c-.1.07-.57.34-.69.4l-1.85.84a11.414 11.414 0 0 1 2.19-2.11c.9-.54 1.78-2.37 1.94-2.52a11.21 11.21 0 0 1-.65 2.4ZM28.05 68.06c-.76 0-.12 3.39-.51 3.49-.66.16-.89-4.91-1.48-4.68-1 .36.61 5-.54 5.19-.49.08-.78-5.31-1.76-4.82-.61.3 1 5.18.1 5.29-1.25.15-.58-4.37-1.51-4.19-.93.18-.45 5.07-1.29 4.67-.84-.4-.13-5.23-.74-4.19a28.321 28.321 0 0 0-.83 3.29c-2-1.6-5.12-4.37-6.25-5a4 4 0 0 1 1.33.59c1.19.88 3.8 2.39 3.8 2.39s-2.14-3.59-3.36-4.52a13.12 13.12 0 0 0-3.86-1.36c.52 1 1.07 1.89 1.65 2.8.47.73.95 1.44 1.46 2.13a76.89 76.89 0 0 0 8.22 8.48c.63.5 1.27 1 1.93 1.44 1 .63 1.85.9 2.34.58 3.23-2.08 2.27-11.64 1.3-11.58Zm-9.98-10.55c-5.64-2.69-12.47-6.73-16.28-9.07-2.38-1.49-2.11.61-.78 1.47a173.46 173.46 0 0 0 16.77 9.44c.08-.59.19-1.28.29-1.84Zm19.66 4.67a24.38 24.38 0 0 1 6.38-11.53 29.74 29.74 0 0 1 20.31-8.37c18.67-.58 23.87 14.51 23 22.25a43.688 43.688 0 0 0 4-9.78c-3.24-7.11-10.68-16.23-27.7-15.06a32.25 32.25 0 0 0-21.27 10.1 30.301 30.301 0 0 0-7.4 11.9c.88.18 1.77.34 2.68.49Zm-.69 11.49a35.356 35.356 0 0 1-.1-6.55l-3.06-.75a31.002 31.002 0 0 0-.21 8.72 23 23 0 0 0 3.63 10.12 43.71 43.71 0 0 0 6.45 1.35 20.83 20.83 0 0 1-6.71-12.89Z"
    fill="#fff"
    fill-opacity="0.3"
  /><path
    d="M64.27 35.49a35.57 35.57 0 0 0-24 11.48 34.641 34.641 0 0 0-8.46 14c.71.18 1.44.34 2.18.5a32.31 32.31 0 0 1 8.16-13.53c4.45-4.37 12.45-10.13 23.53-10.4 15.25-.37 22.81 9 26.17 15.45a41.99 41.99 0 0 0 1-6.56c-3.51-5.86-11.25-11.9-28.58-10.94ZM32.85 74.51a34.104 34.104 0 0 1 .12-8.37l-2.27-.6a35.692 35.692 0 0 0-.27 10.29c.29 2.637.964 5.218 2 7.66 1.12.47 2.26.9 3.42 1.28a27.753 27.753 0 0 1-3-10.26Zm21.38-6.79a2.31 2.31 0 0 1 .31-1.24 99.997 99.997 0 0 1-18.48-2.73c-2.87-.74-5.58-1.58-8.14-2.47.3.74.6 1.65.81 2.33 2.09.73 4.27 1.42 6.56 2.07a107.919 107.919 0 0 0 19.65 3.45 1.8 1.8 0 0 1-.71-1.41ZM15.71 33.73c1.32-2.89 3.15-5 6.9-4.66a4.602 4.602 0 0 0-1.41-.55c-4.84-.28-8.19 2.21-9.36 6.2a9.912 9.912 0 0 1 3.87-.99Z"
    fill="#fff"
    fill-opacity="0.3"
  /><path
    d="M23.83 31.95c-.68-.67.19-2.45-2.11-2.17a6.38 6.38 0 0 0-5 4c1.199.23 2.384.523 3.55.88.19-.3-.23-.67-.44-.85-1.86-1.67-.42-.86.93-.07a3.23 3.23 0 0 0 2.11.1 3.26 3.26 0 0 1-1.67.55c-.44 0-.6 0-.85.28.62.18 1.18.33 2.18.55.53.11.76-.45 1.21-.89.62-.61 1.15-.88 1.15-1s.02-.31-1.06-1.38Zm-2 1.41a1.025 1.025 0 0 1-1.249-1.166 1.027 1.027 0 1 1 1.25 1.166Zm45.11 21.15c.095 1.221.36 2.423.79 3.57.21.58 1.92 1.2 2.29 1.21.62 0 .9-2.16.31-2.64a10.82 10.82 0 0 0-3.39-2.14Z"
    fill="#fff"
    fill-opacity="0.3"
  /></svg>
