<svg version="1.1" xmlns="http://www.w3.org/2000/svg" xmlns:xlink="http://www.w3.org/1999/xlink" x="0px" y="0px"
	 viewBox="0 0 381.39 111.55" style="enable-background:new 0 0 381.39 111.55;" xml:space="preserve">
<style type="text/css">
	.st0{fill:#FFFFFF;}
	.st1{fill-rule:evenodd;clip-rule:evenodd;fill:#FFFFFF;}
</style>
<g>
	<path class="st0" d="M120.7,45.43l-0.72-1.54h-4.1l-0.67,1.54h-3.76l6.17-12.06h0.63l6.16,12.06H120.7z M116.78,41.58h2.28
		l-1.12-2.58L116.78,41.58z"/>
	<path class="st0" d="M130.43,40.95c0-0.82-0.29-1.31-1.01-1.31c-1.04,0-1.16,1.42-1.16,2.26v3.53h-2.91v-7.96h2.91v1.39
		c0,0,0.65-1.54,2.39-1.54c1.71,0,2.72,0.95,2.72,3.36v4.75h-2.94V40.95z"/>
	<path class="st0" d="M136.7,36.13c-0.89,0-1.62-0.47-1.62-1.29c0-0.82,0.72-1.27,1.62-1.27c0.91,0,1.61,0.46,1.61,1.27
		C138.31,35.65,137.61,36.13,136.7,36.13z M135.25,37.47h2.93v7.96h-2.93V37.47z"/>
	<path class="st0" d="M143.33,39.35c-0.38,0-0.63,0.15-0.63,0.38c0,0.85,3.95,0.55,3.95,3.19c0,1.73-1.44,2.66-3.42,2.66
		c-1.22,0-2.77-0.53-3.8-1.22l1.29-1.82c0.72,0.57,1.71,0.89,2.41,0.89c0.42,0,0.67-0.19,0.67-0.46c0-0.93-3.91-0.55-3.91-3.21
		c0-1.54,1.16-2.43,3.27-2.43c0.99,0,2.2,0.25,3.08,0.65l-0.42,1.96C144.98,39.6,143.93,39.35,143.33,39.35z"/>
	<path class="st0" d="M153.09,42.07c0-1.37,0-2.43-1.01-2.43c-1.04,0-1.16,1.42-1.16,2.26v3.53h-2.91V34.07l2.91-0.59v5.38
		c0,0,0.65-1.54,2.39-1.54c2.17,0,2.72,1.25,2.72,4.54v3.57h-2.94V42.07z"/>
	<path class="st0" d="M159.27,36.13c-0.89,0-1.62-0.47-1.62-1.29c0-0.82,0.72-1.27,1.62-1.27c0.91,0,1.61,0.46,1.61,1.27
		C160.88,35.65,160.18,36.13,159.27,36.13z M157.82,37.47h2.93v7.96h-2.93V37.47z"/>
	<path class="st0" d="M167.76,40.95c0-0.82-0.29-1.31-1.01-1.31c-1.04,0-1.16,1.42-1.16,2.26v3.53h-2.91v-7.96h2.91v1.39
		c0,0,0.65-1.54,2.39-1.54c1.71,0,2.72,0.95,2.72,3.36v4.75h-2.94V40.95z"/>
	<path class="st0" d="M176.5,37.32c2.34,0,3.74,1.22,4.03,1.46v6.65h-2.89v-1.42c-0.02,0.08-0.47,1.58-2.22,1.58
		c-1.94,0-3.25-1.5-3.25-3.91C172.17,39.16,173.71,37.32,176.5,37.32z M176.31,43.29c0.82,0,1.33-0.84,1.33-2.7v-0.83
		c-0.23-0.11-0.57-0.23-1.03-0.23c-1.03,0-1.5,0.93-1.5,2.05C175.11,42.49,175.46,43.29,176.31,43.29z"/>
	<path class="st0" d="M186.42,37.32c2.34,0,3.74,1.22,4.03,1.46v6.65h-2.89v-1.42c-0.02,0.08-0.47,1.58-2.22,1.58
		c-1.94,0-3.25-1.5-3.25-3.91C182.09,39.16,183.62,37.32,186.42,37.32z M186.23,43.29c0.82,0,1.33-0.84,1.33-2.7v-0.83
		c-0.23-0.11-0.57-0.23-1.03-0.23c-1.03,0-1.5,0.93-1.5,2.05C185.03,42.49,185.37,43.29,186.23,43.29z"/>
	<path class="st0" d="M196.37,45.59c-2.34,0-3.74-1.22-4.03-1.46v-9.96l2.89-0.68v5.38c0.02-0.08,0.44-1.54,2.28-1.54
		c1.82,0,3.19,1.73,3.19,4.14C200.71,43.76,199.17,45.59,196.37,45.59z M196.56,39.55c-0.84,0-1.33,0.95-1.33,2.47v1.08
		c0.23,0.13,0.59,0.23,1.08,0.23c0.95,0,1.42-0.91,1.42-1.96S197.4,39.55,196.56,39.55z"/>
	<path class="st0" d="M206.59,43.36c0.78,0,1.33-0.13,2.09-0.68l1.18,1.94c-1.25,0.82-2.49,0.93-3.38,0.93
		c-2.79,0-4.56-1.6-4.56-4.12c0-2.47,1.77-4.12,4.1-4.12c2.17,0,3.89,1.42,3.89,3.86c0,0.55-0.08,1.03-0.08,1.03h-5.09
		C204.88,43,205.68,43.36,206.59,43.36z M204.75,40.25h2.75c-0.15-0.65-0.59-1.12-1.37-1.12C205.38,39.13,204.92,39.62,204.75,40.25
		z"/>
	<path class="st0" d="M221.7,45.57c-4.01,0-6.44-2.28-6.44-6.04c0-3.69,2.47-6,6.38-6c1.39,0,3.04,0.42,3.89,1.01l-0.25,2.7
		c-0.78-0.65-2.17-1.12-3.32-1.12c-1.96,0-3.29,1.37-3.29,3.38c0,2.05,1.29,3.46,3.21,3.46c0.4,0,0.82-0.06,1.16-0.15v-3.86h3.42
		v5.26C225.12,45.03,223.28,45.57,221.7,45.57z"/>
	<path class="st0" d="M229.98,36.13c-0.89,0-1.62-0.47-1.62-1.29c0-0.82,0.72-1.27,1.62-1.27c0.91,0,1.61,0.46,1.61,1.27
		C231.6,35.65,230.9,36.13,229.98,36.13z M228.54,37.47h2.93v7.96h-2.93V37.47z"/>
	<path class="st0" d="M233.4,45.43V34.07l2.91-0.59v11.95H233.4z M238.27,37.46h3.34l-2.07,3.4l2.79,4.58h-3.42l-2.45-4.6
		L238.27,37.46z"/>
	<path class="st0" d="M244.61,36.13c-0.89,0-1.62-0.47-1.62-1.29c0-0.82,0.72-1.27,1.62-1.27c0.91,0,1.61,0.46,1.61,1.27
		C246.23,35.65,245.53,36.13,244.61,36.13z M243.17,37.47h2.93v7.96h-2.93V37.47z"/>
	<path class="st0" d="M253.11,40.95c0-0.82-0.29-1.31-1.01-1.31c-1.04,0-1.16,1.42-1.16,2.26v3.53h-2.91v-7.96h2.91v1.39
		c0,0,0.65-1.54,2.39-1.54c1.71,0,2.72,0.95,2.72,3.36v4.75h-2.94V40.95z"/>
	<path class="st0" d="M261.9,45.55c-2.43,0-4.39-1.48-4.39-4.1c0-2.62,1.96-4.12,4.39-4.12s4.37,1.5,4.37,4.14
		C266.27,44.07,264.33,45.55,261.9,45.55z M261.88,39.53c-0.8,0-1.46,0.7-1.46,1.92c0,1.23,0.67,1.9,1.46,1.9
		c0.82,0,1.46-0.67,1.46-1.88C263.35,40.23,262.7,39.53,261.88,39.53z"/>
	<path class="st0" d="M271.88,45.55c-2.43,0-4.39-1.48-4.39-4.1c0-2.62,1.96-4.12,4.39-4.12s4.37,1.5,4.37,4.14
		C276.25,44.07,274.31,45.55,271.88,45.55z M271.86,39.53c-0.8,0-1.46,0.7-1.46,1.92c0,1.23,0.67,1.9,1.46,1.9
		c0.82,0,1.46-0.67,1.46-1.88C273.32,40.23,272.68,39.53,271.86,39.53z"/>
	<path class="st0" d="M277.33,38.84l1.14-5.19H282l-2.58,5.78L277.33,38.84z"/>
	<path class="st0" d="M287.42,37.32c2.34,0,3.74,1.22,4.03,1.46v6.65h-2.89v-1.42c-0.02,0.08-0.47,1.58-2.22,1.58
		c-1.94,0-3.25-1.5-3.25-3.91C283.09,39.16,284.63,37.32,287.42,37.32z M287.23,43.29c0.82,0,1.33-0.84,1.33-2.7v-0.83
		c-0.23-0.11-0.57-0.23-1.03-0.23c-1.03,0-1.5,0.93-1.5,2.05C286.03,42.49,286.37,43.29,287.23,43.29z"/>
	<path class="st0" d="M302.39,40.95c0-0.82-0.08-1.31-0.8-1.31c-0.72,0-0.8,0.74-0.8,2.26v3.53h-2.94v-4.48
		c0-0.82-0.08-1.31-0.8-1.31s-0.8,0.74-0.8,2.26v3.53h-2.91v-7.96h2.91v1.39c0.02-0.09,0.17-0.76,0.76-1.18
		c0.3-0.21,0.72-0.36,1.27-0.36c1.2,0,1.94,0.47,2.28,1.6c0.27-0.59,0.87-1.6,2.26-1.6c1.71,0,2.51,0.95,2.51,3.36v4.75h-2.95V40.95
		z"/>
	<path class="st0" d="M311.13,37.32c2.34,0,3.74,1.22,4.03,1.46v6.65h-2.89v-1.42c-0.02,0.08-0.47,1.58-2.22,1.58
		c-1.94,0-3.25-1.5-3.25-3.91C306.8,39.16,308.34,37.32,311.13,37.32z M310.94,43.29c0.82,0,1.33-0.84,1.33-2.7v-0.83
		c-0.23-0.11-0.57-0.23-1.03-0.23c-1.03,0-1.5,0.93-1.5,2.05C309.75,42.49,310.09,43.29,310.94,43.29z"/>
	<path class="st0" d="M321.05,37.32c2.34,0,3.74,1.22,4.03,1.46v6.65h-2.89v-1.42c-0.02,0.08-0.47,1.58-2.22,1.58
		c-1.94,0-3.25-1.5-3.25-3.91C316.72,39.16,318.26,37.32,321.05,37.32z M320.86,43.29c0.82,0,1.33-0.84,1.33-2.7v-0.83
		c-0.23-0.11-0.57-0.23-1.03-0.23c-1.03,0-1.5,0.93-1.5,2.05C319.66,42.49,320,43.29,320.86,43.29z"/>
	<path class="st0" d="M326.64,41.67c0-2.34,1.33-4.31,3.76-4.31c0.91,0,1.69,0.29,1.69,0.29v-3.53l2.91-0.63c0.02,0,0,3.91,0,11.95
		h-2.89v-1.39c-0.06,0.19-0.57,1.54-2.22,1.54C327.95,45.59,326.64,44.09,326.64,41.67z M330.78,43.29c0.82,0,1.33-0.84,1.33-2.7
		v-0.83c-0.23-0.11-0.57-0.23-1.03-0.23c-1.03,0-1.5,0.93-1.5,2.05C329.58,42.49,329.92,43.29,330.78,43.29z"/>
	<path class="st0" d="M338.43,36.13c-0.89,0-1.62-0.47-1.62-1.29c0-0.82,0.72-1.27,1.62-1.27c0.91,0,1.61,0.46,1.61,1.27
		C340.05,35.65,339.35,36.13,338.43,36.13z M336.99,37.47h2.93v7.96h-2.93V37.47z"/>
	<path class="st0" d="M346.91,37.47h0.8l1.62,3.38l1.35-3.38h3.15l-4.12,8.05h-0.78l-1.6-3.69l-1.61,3.69h-0.78l-4.12-8.05h3.13
		l1.35,3.38L346.91,37.47z"/>
	<path class="st0" d="M356.2,36.13c-0.89,0-1.62-0.47-1.62-1.29c0-0.82,0.72-1.27,1.62-1.27c0.91,0,1.61,0.46,1.61,1.27
		C357.81,35.65,357.11,36.13,356.2,36.13z M354.75,37.47h2.93v7.96h-2.93V37.47z"/>
	<path class="st0" d="M364.69,40.95c0-0.82-0.29-1.31-1.01-1.31c-1.04,0-1.16,1.42-1.16,2.26v3.53h-2.91v-7.96h2.91v1.39
		c0,0,0.65-1.54,2.39-1.54c1.71,0,2.72,0.95,2.72,3.36v4.75h-2.94V40.95z"/>
	<path class="st0" d="M112.68,53.36h3.42v11.78h-3.42V53.36z"/>
	<path class="st0" d="M126.3,62.85l-0.57,2.28h-8.11l3.84-5.7h-3.13l0.59-2.26h7.24l-3.86,5.68H126.3z"/>
	<path class="st0" d="M132.42,61.77c0-1.37,0-2.43-1.01-2.43c-1.04,0-1.16,1.42-1.16,2.26v3.53h-2.91V53.77l2.91-0.59v5.38
		c0,0,0.65-1.54,2.39-1.54c2.17,0,2.72,1.25,2.72,4.54v3.57h-2.94V61.77z"/>
	<path class="st0" d="M138.6,55.83c-0.89,0-1.62-0.47-1.62-1.29c0-0.82,0.72-1.27,1.62-1.27c0.91,0,1.61,0.46,1.61,1.27
		C140.21,55.35,139.51,55.83,138.6,55.83z M137.15,57.17h2.93v7.96h-2.93V57.17z"/>
	<path class="st0" d="M141.67,61.13c0-2.54,1.65-4.12,4.31-4.12c0.91,0,1.96,0.15,2.47,0.38l-0.13,2.18
		c-0.49-0.25-1.25-0.42-1.86-0.42c-1.16,0-1.92,0.78-1.92,1.94c0,1.14,0.76,1.92,1.88,1.92c0.59,0,1.29-0.25,1.67-0.57l1.06,1.9
		c-0.91,0.63-1.98,0.95-3.15,0.95C143.29,65.29,141.67,63.75,141.67,61.13z"/>
	<path class="st0" d="M155.37,61.77c0-1.37,0-2.43-1.01-2.43c-1.04,0-1.16,1.42-1.16,2.26v3.53h-2.91V53.77l2.91-0.59v5.38
		c0,0,0.65-1.54,2.39-1.54c2.17,0,2.72,1.25,2.72,4.54v3.57h-2.94V61.77z"/>
	<path class="st0" d="M161.55,55.83c-0.89,0-1.62-0.47-1.62-1.29c0-0.82,0.72-1.27,1.62-1.27c0.91,0,1.61,0.46,1.61,1.27
		C163.16,55.35,162.46,55.83,161.55,55.83z M160.1,57.17h2.93v7.96h-2.93V57.17z"/>
	<path class="st0" d="M165.02,66.88l1.41-1.92c0,0,1.03,0.93,2.13,0.93c0.68,0,1.54-0.4,1.54-1.56v-1.16
		c-0.02,0.06-0.47,1.39-2.38,1.39c-1.77,0-3.1-1.46-3.1-3.67c0-2.17,1.54-3.88,4.33-3.88c2.34,0,3.74,1.12,4.03,1.33v5.28
		c0,3.5-2.01,4.5-4.43,4.5C166.43,68.14,165.02,66.88,165.02,66.88z M168.77,62.47c0.82,0,1.33-0.82,1.33-2.15v-0.95
		c-0.23-0.1-0.63-0.21-1.08-0.21c-0.95,0-1.44,0.8-1.44,1.73C167.57,61.79,167.91,62.47,168.77,62.47z"/>
	<path class="st0" d="M179.22,63.06c0.78,0,1.33-0.13,2.09-0.68l1.18,1.94c-1.25,0.82-2.49,0.93-3.38,0.93
		c-2.79,0-4.56-1.6-4.56-4.12c0-2.47,1.77-4.12,4.1-4.12c2.17,0,3.89,1.42,3.89,3.86c0,0.55-0.08,1.03-0.08,1.03h-5.09
		C177.51,62.7,178.3,63.06,179.22,63.06z M177.37,59.95h2.75c-0.15-0.65-0.59-1.12-1.37-1.12C178,58.83,177.54,59.32,177.37,59.95z"
		/>
	<path class="st0" d="M188.85,57.17h0.8l1.62,3.38l1.35-3.38h3.15l-4.12,8.05h-0.78l-1.6-3.69l-1.61,3.69h-0.78l-4.12-8.05h3.13
		l1.35,3.38L188.85,57.17z"/>
	<path class="st0" d="M198.14,55.83c-0.89,0-1.62-0.47-1.62-1.29c0-0.82,0.72-1.27,1.62-1.27c0.91,0,1.61,0.46,1.61,1.27
		C199.75,55.35,199.05,55.83,198.14,55.83z M196.7,57.17h2.93v7.96h-2.93V57.17z"/>
	<path class="st0" d="M206.63,60.65c0-0.82-0.29-1.31-1.01-1.31c-1.04,0-1.16,1.42-1.16,2.26v3.53h-2.91v-7.96h2.91v1.39
		c0,0,0.65-1.54,2.39-1.54c1.71,0,2.72,0.95,2.72,3.36v4.75h-2.94V60.65z"/>
	<path class="st0" d="M219.53,65.25c-2.43,0-4.39-1.48-4.39-4.1c0-2.62,1.96-4.12,4.39-4.12s4.37,1.5,4.37,4.14
		C223.9,63.77,221.96,65.25,219.53,65.25z M219.51,59.23c-0.8,0-1.46,0.7-1.46,1.92c0,1.23,0.67,1.9,1.46,1.9
		c0.82,0,1.46-0.67,1.46-1.88C220.98,59.93,220.33,59.23,219.51,59.23z"/>
	<path class="st0" d="M225.52,66.88l1.41-1.92c0,0,1.03,0.93,2.13,0.93c0.68,0,1.54-0.4,1.54-1.56v-1.16
		c-0.02,0.06-0.47,1.39-2.38,1.39c-1.77,0-3.1-1.46-3.1-3.67c0-2.17,1.54-3.88,4.33-3.88c2.34,0,3.74,1.12,4.03,1.33v5.28
		c0,3.5-2.01,4.5-4.43,4.5C226.93,68.14,225.52,66.88,225.52,66.88z M229.26,62.47c0.82,0,1.33-0.82,1.33-2.15v-0.95
		c-0.23-0.1-0.63-0.21-1.08-0.21c-0.95,0-1.44,0.8-1.44,1.73C228.07,61.79,228.41,62.47,229.26,62.47z"/>
	<path class="st0" d="M239.43,65.25c-2.43,0-4.39-1.48-4.39-4.1c0-2.62,1.96-4.12,4.39-4.12s4.37,1.5,4.37,4.14
		C243.79,63.77,241.86,65.25,239.43,65.25z M239.41,59.23c-0.8,0-1.46,0.7-1.46,1.92c0,1.23,0.67,1.9,1.46,1.9
		c0.82,0,1.46-0.67,1.46-1.88C240.87,59.93,240.22,59.23,239.41,59.23z"/>
	<path class="st0" d="M250.14,57.17h0.8l1.62,3.38l1.35-3.38h3.15l-4.12,8.05h-0.78l-1.6-3.69l-1.61,3.69h-0.78l-4.12-8.05h3.13
		l1.35,3.38L250.14,57.17z"/>
	<path class="st0" d="M261.79,63.06c0.78,0,1.33-0.13,2.09-0.68l1.18,1.94c-1.25,0.82-2.49,0.93-3.38,0.93
		c-2.79,0-4.56-1.6-4.56-4.12c0-2.47,1.77-4.12,4.1-4.12c2.17,0,3.89,1.42,3.89,3.86c0,0.55-0.08,1.03-0.08,1.03h-5.09
		C260.08,62.7,260.88,63.06,261.79,63.06z M259.95,59.95h2.75c-0.15-0.65-0.59-1.12-1.37-1.12
		C260.57,58.83,260.12,59.32,259.95,59.95z"/>
	<path class="st0" d="M279.04,65.13l-0.72-1.54h-4.1l-0.67,1.54h-3.76l6.17-12.06h0.63l6.16,12.06H279.04z M275.13,61.28h2.28
		l-1.12-2.58L275.13,61.28z"/>
	<path class="st0" d="M288.77,60.65c0-0.82-0.29-1.31-1.01-1.31c-1.04,0-1.16,1.42-1.16,2.26v3.53h-2.91v-7.96h2.91v1.39
		c0,0,0.65-1.54,2.39-1.54c1.71,0,2.72,0.95,2.72,3.36v4.75h-2.94V60.65z"/>
	<path class="st0" d="M295.04,55.83c-0.89,0-1.62-0.47-1.62-1.29c0-0.82,0.72-1.27,1.62-1.27c0.91,0,1.61,0.46,1.61,1.27
		C296.65,55.35,295.95,55.83,295.04,55.83z M293.59,57.17h2.93v7.96h-2.93V57.17z"/>
	<path class="st0" d="M301.67,59.05c-0.38,0-0.63,0.15-0.63,0.38c0,0.85,3.95,0.55,3.95,3.19c0,1.73-1.44,2.66-3.42,2.66
		c-1.22,0-2.77-0.53-3.8-1.22l1.29-1.82c0.72,0.57,1.71,0.89,2.41,0.89c0.42,0,0.67-0.19,0.67-0.46c0-0.93-3.91-0.55-3.91-3.21
		c0-1.54,1.16-2.43,3.27-2.43c0.99,0,2.2,0.25,3.08,0.65l-0.42,1.96C303.32,59.3,302.28,59.05,301.67,59.05z"/>
	<path class="st0" d="M311.44,61.77c0-1.37,0-2.43-1.01-2.43c-1.04,0-1.16,1.42-1.16,2.26v3.53h-2.91V53.77l2.91-0.59v5.38
		c0,0,0.65-1.54,2.39-1.54c2.17,0,2.72,1.25,2.72,4.54v3.57h-2.94V61.77z"/>
	<path class="st0" d="M317.61,55.83c-0.89,0-1.62-0.47-1.62-1.29c0-0.82,0.72-1.27,1.62-1.27c0.91,0,1.61,0.46,1.61,1.27
		C319.22,55.35,318.52,55.83,317.61,55.83z M316.17,57.17h2.93v7.96h-2.93V57.17z"/>
	<path class="st0" d="M326.1,60.65c0-0.82-0.29-1.31-1.01-1.31c-1.04,0-1.16,1.42-1.16,2.26v3.53h-2.91v-7.96h2.91v1.39
		c0,0,0.65-1.54,2.39-1.54c1.71,0,2.72,0.95,2.72,3.36v4.75h-2.94V60.65z"/>
	<path class="st0" d="M334.84,57.02c2.34,0,3.74,1.22,4.03,1.46v6.65h-2.89v-1.42c-0.02,0.08-0.47,1.58-2.22,1.58
		c-1.94,0-3.25-1.5-3.25-3.91C330.51,58.86,332.05,57.02,334.84,57.02z M334.65,62.99c0.82,0,1.33-0.84,1.33-2.7v-0.83
		c-0.23-0.11-0.57-0.23-1.03-0.23c-1.03,0-1.5,0.93-1.5,2.05C333.46,62.19,333.8,62.99,334.65,62.99z"/>
	<path class="st0" d="M344.76,57.02c2.34,0,3.74,1.22,4.03,1.46v6.65h-2.89v-1.42c-0.02,0.08-0.47,1.58-2.22,1.58
		c-1.94,0-3.25-1.5-3.25-3.91C340.43,58.86,341.97,57.02,344.76,57.02z M344.57,62.99c0.82,0,1.33-0.84,1.33-2.7v-0.83
		c-0.23-0.11-0.57-0.23-1.03-0.23c-1.03,0-1.5,0.93-1.5,2.05C343.37,62.19,343.72,62.99,344.57,62.99z"/>
	<path class="st0" d="M354.72,65.29c-2.34,0-3.74-1.22-4.03-1.46v-9.96l2.89-0.68v5.38c0.02-0.08,0.44-1.54,2.28-1.54
		c1.82,0,3.19,1.73,3.19,4.14C359.05,63.46,357.51,65.29,354.72,65.29z M354.91,59.25c-0.84,0-1.33,0.95-1.33,2.47v1.08
		c0.23,0.13,0.59,0.23,1.08,0.23c0.95,0,1.42-0.91,1.42-1.96S355.74,59.25,354.91,59.25z"/>
	<path class="st0" d="M364.94,63.06c0.78,0,1.33-0.13,2.09-0.68l1.18,1.94c-1.25,0.82-2.49,0.93-3.38,0.93
		c-2.79,0-4.56-1.6-4.56-4.12c0-2.47,1.77-4.12,4.1-4.12c2.17,0,3.89,1.42,3.89,3.86c0,0.55-0.08,1.03-0.08,1.03h-5.09
		C363.23,62.7,364.03,63.06,364.94,63.06z M363.1,59.95h2.75c-0.15-0.65-0.59-1.12-1.37-1.12C363.72,58.83,363.27,59.32,363.1,59.95
		z"/>
	<path class="st0" d="M369.84,66.88l1.41-1.92c0,0,1.03,0.93,2.13,0.93c0.68,0,1.54-0.4,1.54-1.56v-1.16
		c-0.02,0.06-0.47,1.39-2.38,1.39c-1.77,0-3.1-1.46-3.1-3.67c0-2.17,1.54-3.88,4.33-3.88c2.34,0,3.74,1.12,4.03,1.33v5.28
		c0,3.5-2.01,4.5-4.43,4.5C371.25,68.14,369.84,66.88,369.84,66.88z M373.58,62.47c0.82,0,1.33-0.82,1.33-2.15v-0.95
		c-0.23-0.1-0.63-0.21-1.08-0.21c-0.95,0-1.44,0.8-1.44,1.73C372.39,61.79,372.73,62.47,373.58,62.47z"/>
</g>
<g>
	<g>
		<path class="st0" d="M46.77,18.54c-0.02-0.14,2.06,0.06,2.7-0.39c0.67-0.46,2.6-2.7,2.81-2.7c0.23-0.01-1.15,2.69-0.62,3.35
			c0.49,0.61,1.37,1.05,1.4,1.19c0.04,0.18-1.9,0.12-2.5,0.53c-0.88,0.6-1.89,1.77-2.12,1.75c-0.21-0.02,0.57-1.94,0.04-2.57
			C47.87,18.98,46.79,18.66,46.77,18.54z"/>
		<path class="st0" d="M14.58,45.66c0,0,2.69-12.9,8.67-16.5c1.06-0.64-0.48,5.96,3.83,1.49c3.27-3.39,4.82-6.03,6.1-6.33
			c1.28-0.3-5.27,11.09,2.1,6.6c8.53-5.2,10.35-7.64,12.37-6.91c2.08,0.75-2.05,5.89,3.79,3.68c9.09-3.43,9.63-8.8,11.7-9.52
			c1.33-0.47,2.02,1.02,5.88,0.22c3.86-0.8,4.45-1.5,7.18-0.82c6.29,1.55,4.3,10.36,4.3,10.36s-4.19-9.76-12.8-7.1
			c-12.26,3.78-10.12,11.11-19.73,12.15c-15.61,1.69-21.1,0.69-22.89,0.76C20.37,33.94,19.09,38.27,14.58,45.66z"/>
		<path class="st0" d="M14.79,38.78c0.02-0.05,0.04-0.1,0.07-0.15C18.38,30.7,25.11,22,26.16,23.19c1.5,1.71-2.04,5.95-0.21,5.04
			c1.83-0.91,9.27-15.16,12.86-12.9c1.81,1.13-4.66,7.57-3.04,8.59c1.62,1.02,5.8-1.02,7.78-3.26c5.28-5.96,6.95-8.78,13.75-9.86
			c9.09-1.45-7,10.32-2.48,11.48c4.52,1.16,5.62-9.52,13.52-9.13c2.53,0.13-7.78,6.39,2.69,3.05c3.15-1.01,6.59-0.95,8.25,0.53
			c2.93,2.6,4.52,8.74,2.79,11.83c-0.14,0.25,4.55-1.88,10.38,1.43C86.62,18.36,75.67,10.23,63.15,7.81
			c-4.8-0.77-10.1-0.89-15.83,0.02c-0.54,0.1-1.08,0.22-1.61,0.34C29.95,11.88,18.41,24.08,14.79,38.78z"/>
		<path class="st0" d="M23.59,55.11c-0.74-0.73-0.22-2.62-2.7-2.32c-1.87,0.21-3.61,1.62-4.47,3.37c1.08,0.68,2.21,1.36,3.39,2.02
			c-0.03-0.17-0.07-0.31-0.13-0.35c-0.4-0.3-1.51-1.58-1.43-1.61c0.07-0.03,1.87,1.66,2.84,1.62c0.97-0.04,0.7-0.09,0.77-0.04
			c0.08,0.05-0.09,0.1-0.59,0.25c-0.2,0.06-0.52,0.19-0.84,0.47c0.64,0.35,1.29,0.7,1.95,1.04c0.67-0.76,2.22-2.68,2.22-2.83
			C24.61,56.51,24.75,56.26,23.59,55.11z M20.98,56.65c-0.6,0.14-1.2-0.23-1.34-0.83c-0.14-0.6,0.23-1.2,0.83-1.34
			c0.6-0.14,1.2,0.23,1.34,0.83C21.95,55.91,21.58,56.51,20.98,56.65z"/>
		<path class="st0" d="M21.98,63.45c1.03,0.74,0.85,1.03,1.29,1.34c0.44,0.31,1.27,0.99,1.16,1.37c-0.1,0.34-0.84,0.61-0.59,1.73
			c0.31,1.38-1.14,2.42-2.4,0.84c-0.05-0.33-0.06-1.6,0.23-1.83c0.36-0.3,0.75-0.52,0.68-0.58c-0.07-0.05-0.66,0.49-1.22,0.32
			c-0.56-0.18-0.9-0.44-0.95-0.42c-0.05,0.02,0.54,0.35,0.86,0.72c0.2,0.23-0.18,1.31-0.08,1.65c-0.63-0.69-1.82-0.43-2.16-1.56
			c-0.29-2.02,1.6-3.69,2.05-4.07C20.86,62.96,21.2,62.89,21.98,63.45z M20.58,64.76c-0.26,0.38-0.15,0.92,0.26,1.2
			s0.95,0.19,1.21-0.19c0.26-0.38,0.15-0.92-0.26-1.2C21.39,64.29,20.85,64.37,20.58,64.76z"/>
		<g>
			<path class="st0" d="M92.1,40.55c0,0-1.79-2.46-2.85-3.83c-1.1-1.33-2.15-3.2-2.22-3.17c-0.07,0.02-0.55,1.92,0.3,3.19
				c0.84,1.28,1.5,1.73,1.77,2.04C90.12,39.9,92.1,40.55,92.1,40.55z"/>
			<path class="st0" d="M91.38,43.77c0,0-1.12-1.82-1.46-2.71c-0.44-1.07-0.86-1.43-1.07-1.73c-0.23-0.29-1.54-1.75-1.53-1.77
				c0.01-0.01-0.54,1.34,0.69,3.16C89.3,42.65,91.38,43.77,91.38,43.77z"/>
			<path class="st0" d="M86.69,37.59c-0.1,0.07-1.57-2.72-2.09-5.01c-0.49-2.17-0.13-2.41-0.05-2.44c0.07-0.01,1.66,2.24,1.86,2.8
				c0.16,0.58-0.59,2.14,0.18,3.63C86.94,37.26,86.79,37.52,86.69,37.59z"/>
			<path class="st0" d="M96.82,47.33c-0.91-0.52-1.97-1.57-2.08-1.81c-0.14-0.2-3.2-2.54-3.18-2.57c0.01-0.02,0.77,2.17,2.7,3.72
				c1,0.82,2.09,1.39,2.9,1.76c0-0.29-0.01-0.58-0.02-0.87C97.04,47.47,96.93,47.4,96.82,47.33z"/>
			<path class="st0" d="M94.8,44.98c0-0.01,0.86,1.08,2.32,1.98c-0.02-0.38-0.04-0.77-0.07-1.15C95.99,45.43,94.8,45,94.8,44.98z"/>
			<path class="st0" d="M94.39,42.58c-1.78-0.97-4.03-2.1-4.03-2.1s0.39,1.22,2.63,2.88c1.41,1.06,3,1.52,4,1.71
				c-0.02-0.26-0.05-0.51-0.08-0.77C96.22,43.78,95.3,43.12,94.39,42.58z"/>
		</g>
		<g>
			<path class="st0" d="M83.16,30.37c-2.7,0.07-4.39,2.78-4.45,3.38c-0.07,0.66-0.08,1.36-0.5,2.17c-0.42,0.8,0.1,1.29,0.85,1.66
				c0.97,0.47,0.55,1.14,1.05,1.85c0.25,0.35,6.1,1.67,6.37,1.44C87.27,40.21,83.75,37.7,83.16,30.37z M82.08,35.88
				c-0.61,0.41-1.46,0.23-1.88-0.4c-0.42-0.63-0.27-1.48,0.35-1.89c0.61-0.41,1.46-0.23,1.88,0.4
				C82.85,34.63,82.7,35.47,82.08,35.88z"/>
		</g>
		<path class="st0" d="M78.49,30.26c-0.08-0.21-0.17-0.41-0.26-0.6c-3.13-6.65-11.57-5.12-15.59,2.87c-1.83,3.64-4.4,8.85-4.05,8.71
			c4.72-1.84,12.15-2.01,12.57-2.07c0.2-0.02,2.51-2.81,4.15-2.11c1.38,0.59,2.64-2.74,2.66-4.62c0.02-1.98-1.19-3.1-2.76-3.73
			c-1.13-0.45-3.14-0.79-4.27-0.69c2.47-0.78,4.78-0.48,7.08,1.74C78.18,29.92,78.34,30.08,78.49,30.26z M71.46,36.58
			c-2.63,1.31-5.8,0.89-6.41,0.59c0.75-0.11,5.11-0.04,4.8-1.49c-0.22-1.02-1.09-1.46-0.96-1.61c0.47-0.58,1.47,1.42,3.55,1.23
			C74.52,35.12,72.39,36.12,71.46,36.58z M74.45,31.86c0.25,1.06-0.41,2.12-1.47,2.37c-1.06,0.25-2.12-0.41-2.37-1.47
			c-0.25-1.06,0.41-2.12,1.47-2.37C73.14,30.14,74.2,30.8,74.45,31.86z"/>
		<path class="st0" d="M44.8,42.68c-1.52-0.6-4.34-5.56-10.05-0.73c-5.61,4.74,0.63,19.47,1.62,19.01c0.78-0.36-4.15-9.55-0.83-16.2
			c-1.05,3.36-1.02,7.79,0.59,10.59c0.48,0.83,0.56-2.98,1.78-4.31c1.94-2.11,2.77,0.26,3.88-2.69
			C42.86,45.49,46.64,43.4,44.8,42.68z M40.47,41.96c0.8-0.19,1.59,0.31,1.78,1.1c0.19,0.8-0.31,1.59-1.1,1.78
			c-0.8,0.19-1.59-0.31-1.78-1.1C39.18,42.94,39.68,42.15,40.47,41.96z M40.85,46.53c-1.58,0.24-1.73,2.33-2.29,2.25
			c-0.21-0.03,1.15-2.34,0.34-2.94c-0.82-0.6-1.25-0.97,0.48-0.32c1.73,0.65,2.94,0.05,3.05,0.14
			C42.54,45.76,41.86,46.38,40.85,46.53z"/>
		<path class="st0" d="M76.88,51.2c0,0,0.42,2.73,1.34,3.22c2.5,1.35,2.74,2.67,2.74,2.67s0.25-3.15-0.44-3.86
			C78.8,51.46,76.88,51.2,76.88,51.2z"/>
		<path class="st1" d="M80.72,69.06c0.46,0.15,1.1,0.33,1.47,0.39c-1.68-1.06-2.94-4.44-1.53-5.92c0.17,0.5,1.65,2.19,1.99,2.39
			c0.05-1.8,2.02-2.42,1.02-5.44c4.37,2.76,2.91,7.85,0.8,8.96c0.03-0.02,3.15,0.77,5.05-2.05c1.84-2.73-5.13-12.01-7.38-14.86
			c-0.42-0.53-0.55-0.37-0.4,0.35c0.39,1.92,0.93,5.61-0.4,7c0.29-0.3-1.53-3.29-3.22-4.27c-0.25-0.15-0.5-0.25-0.74-0.29
			c0.11,0.22,0.2,0.44,0.27,0.68c1.27,4.15-3.21,10.14-0.32,11.65C79.13,68.6,79.64,68.7,80.72,69.06z"/>
		<path class="st0" d="M68.32,56.9c0.83-0.59,3.95-1.59,4.72-1.16c3,1.67,1.87,2.62,1.87,2.62c0.18,0.18,1.44-0.37,0.95-2.56
			c-0.29-1.27-0.89-2.67-3.26-3.68c-3.11-1.32-7.71-1.3-9.16-0.62C64.55,52.77,65.68,55.76,68.32,56.9z M71.5,53.54
			c0,0.58-0.47,1.06-1.06,1.06c-0.58,0-1.06-0.47-1.06-1.06c0-0.58,0.47-1.06,1.06-1.06C71.03,52.48,71.5,52.96,71.5,53.54z"/>
		<path class="st0" d="M66.97,57.05c-4.35-2.33-2.06-7.42-9.25-4.04c-7.63,3.59-10.04,13.3-9.91,13.4c0.12,0.1,3.38-3.36,6.46-5.29
			c0.21-0.13,2.74-3.81,2.74-3.81s-0.73,1.95-1.07,2.89c0.64-0.31,1.31-0.6,2.01-0.85c0.17-0.24,0.31-0.45,0.42-0.64
			c0.75-1.29,1.66-3.25,1.66-3.25s-0.97,3.55-0.83,3.49C65.45,56.55,68.95,58.11,66.97,57.05z"/>
		<path class="st0" d="M75.81,82.36"/>
		<path class="st0" d="M74.08,67.53c0,0-0.5,0.88-0.95,0.76c-0.21-0.05,0.28-2.37,0.39-2.43c0.29-0.15,0.91-0.06,0.98,0.4
			S74.08,67.53,74.08,67.53z"/>
		<path class="st0" d="M73.01,65.6c-0.22-0.71-2.52-2.46-4.98-3.61c-2.08-0.97-0.95-3.4-3.12-3.16c-1.2,0.13-3.07,2.5-3.84,4.94
			c-0.68,2.18-2.92,2.01-2.92,2.01s1.53-1.02,2.25-2.01c0.72-1,0.78-2.08-0.68-1.94c-1.46,0.15-4.67,1.2-7.26,2.86
			c-3.87,2.47-5.14,3.21-4.95,3.3c0.2,0.09,7.37-0.01,12.29,0.41c4.96,0.43,6.7,0.59,8.66,0.4c1.02-0.09,3.89-0.3,3.89-0.3
			S73.23,66.31,73.01,65.6z M64.07,61.17c-0.26-0.03,0.24-1.45,0.88-1.56c0.65-0.11,0.91,0.62,1.05,1.14
			C66.13,61.28,64.32,61.2,64.07,61.17z M68.3,64.7c0,0.8-0.65,1.45-1.45,1.45s-1.45-0.65-1.45-1.45c0-0.8,0.65-1.45,1.45-1.45
			S68.3,63.89,68.3,64.7z"/>
		<path class="st0" d="M76.72,76.62c-5.9-0.34-7.15-0.48-10.26-0.65c-3.41-0.19-11.85-1.21-11.97-0.98
			c-0.11,0.23,4.33,1.76,6.79,3.34c2.92,1.88,6.26,4.31,10.5,3.2c0.2-0.05-2.01-3.6,1.36-3.12c0.35,0.05-3.62,4.27,3.74,2.59
			c1.98-0.45,3.6-2.68,4.49-1.84C82.01,78.55,79.9,76.81,76.72,76.62z M76.47,80.09c-0.55,0.1-1.09-0.24-1.2-0.78
			c-0.11-0.53,0.25-1.05,0.81-1.15c0.55-0.1,1.09,0.24,1.2,0.78C77.38,79.46,77.02,79.98,76.47,80.09z"/>
		<path class="st0" d="M79.06,81.44c-0.31,0.01-1.22,0.82-1.73,0.71c-0.69-0.15-0.87-0.54-0.87-0.54c-0.14-0.07-3.99,1.19-3.99,1.19
			s0,0,0,0c-1.05,0.26-2.56,0.49-3.68,0.09c-3.08-1.08-4.86-2-4.88-1.6c-0.01,0.39,4.2,2.04,3.79,3.2c-0.61,1.77-1.54,3.1-0.25,2.72
			c1.01-0.3,4.29-3.08,5.65-4.26c0.88,0.19,2.5,0.47,3.86,0.3C78.37,83.07,79.37,81.43,79.06,81.44z"/>
		<g>
			<g>
				<path class="st0" d="M56.95,85.92c-0.22-0.12-0.64-0.15-1.08,0.01c-0.29,0.11-0.68,0.61-0.13,1.26
					c0.37,0.44,0.32,1.24,0.03,1.59c-0.3,0.35-0.79,0.73-0.54,0.77c0.54,0.1,2.17-0.76,2.4-1.68
					C57.73,87.44,57.58,86.27,56.95,85.92z"/>
				<path class="st0" d="M58.6,85.36c-0.19,0.08-0.61,0.31-0.42,0.62c0.1,0.16,0.61,0.65,0.78,1.15c0.14,0.4,0.31,1.09-0.16,1.72
					c-0.26,0.34-0.6,0.64-0.36,0.63c0.09-0.01,0.44-0.17,0.62-0.29c1.31-0.82,1.87-2.86,0.47-3.78
					C59.17,85.17,58.79,85.28,58.6,85.36z"/>
				<path class="st0" d="M54.43,86.04c-0.31-0.35-0.58-0.34-0.93-0.31c-0.5,0.04-0.65,0.48-0.61,0.55c0.4,0.71,0.19,2-0.56,2.61
					c-0.24,0.19-0.65,0.32-0.69,0.37c0,0.1,0.13,0.11,0.21,0.08c1.4-0.36,1.81-0.91,2.26-1.65C54.57,86.96,54.73,86.39,54.43,86.04z
					"/>
				<path class="st0" d="M62.09,84.68c-0.48-0.31-1-0.26-1.29-0.17c-0.52,0.15-1.01,0.58-0.41,0.82c1.27,0.49,1.47,1.06,1.74,1.82
					c0.19,0.53,0.1,0.88,0.24,0.86c0.09-0.02,0.29-0.27,0.43-0.6C63.35,86.08,62.55,84.97,62.09,84.68z"/>
			</g>
			<path class="st0" d="M53.61,80.52c0.01,0.02,0.02,0.03,0.03,0.05c1.25,1.96-2.54,2.3-2.62,3.2c-0.08,0.9,1.86,1.27,4.81,1.15
				c2.95-0.13,4.7-1.62,4.78-2.53c0.04-0.49-2.52-1.78-4.6-2.43c2.16-0.2,3.31,0.36,3.31,0.36c-3.63-4.01-9.31-6.28-12.41-7.17
				c-0.36,0.13-0.21,3.89-0.13,4.19c0.04-0.05,0.33-0.39,0.69-0.82c0.41-0.49,0.78-0.5,0.34,0.05c-0.87,1.09-0.86,2.45-0.55,1.89
				c0.31-0.56,1.31-1.42,1.31-1.42s-0.16,0.33-0.61,0.99s-0.84,2.46-0.45,1.65c0.39-0.81,1.23-1.8,1.23-1.8s-0.79,1.91-0.82,3.02
				c-0.03,1.63,0.42-1.26,1.45-2.34c0.1,0.1-1.54,3.8-0.14,4.74c0.96,0.48,1.62-0.91,2.4-1.59C52.2,81.22,52.86,80.82,53.61,80.52z"
				/>
		</g>
		<path class="st0" d="M61.66,72.36c0.18-1.99,2.96-1.66,6.34-1.48c3.09,0.16,25.92,0.49,27.3,0.6c1.78,0.13,0.45,4.21-2.3,4.16
			c-7.09-0.13-25.93-1.06-26.65-1.14C63.83,74.24,61.5,74.11,61.66,72.36z"/>
		<path class="st0" d="M15.88,55.81c1.34-2.23,3.32-3.78,6.36-3.19c-0.27-0.22-0.62-0.42-1.1-0.59c-4.42-1-6.98,0.59-5.94,3.33
			C15.43,55.51,15.65,55.66,15.88,55.81z"/>
		<g>
			<path class="st0" d="M27.06,43.28c-7.52-1.86-12.45,8.76-9.78,7.65c1.49-0.61,2.43-0.28,3.26-0.14c1.34,0.12,2.65,0.29,2.8,0.09
				c1.93-2.52,4.06-2.69,4.17-2.9c0.1-0.21,0.25-0.38-0.26-2.04C26.86,44.69,28.15,43.61,27.06,43.28z M23.39,48.65
				c-0.79,0.04-1.16-0.18-1.65-0.77c-0.48-0.59-0.57-1.04-0.46-1.05c0.11-0.01,0.68,0.79,2.11,1.07c1.43,0.28,2.08,0.06,2.18,0.15
				C25.67,48.15,24.18,48.61,23.39,48.65z M24.31,47.41c-0.72,0.09-1.39-0.41-1.48-1.14c-0.09-0.72,0.41-1.39,1.14-1.48
				c0.72-0.09,1.39,0.41,1.48,1.14C25.55,46.65,25.04,47.32,24.31,47.41z"/>
			<path class="st0" d="M21.3,40.92c-4.65,1.56-6.16,5.6-6.61,10.2c-0.46,4.6,0.73,0.36,0.73,0.36s0.98-3.82,3.35-6.51
				c-0.09-0.09-0.16-0.24-0.22-0.47c-0.14-0.59,0.2-1.18,0.77-1.31c0.38-0.09,0.93-0.04,1.28,0.18c0.04-0.02,0.07-0.05,0.11-0.07
				c3.77-2.32,6.6-0.99,6.6-0.99S24.83,39.73,21.3,40.92z"/>
		</g>
		<path class="st0" d="M15.1,59.77c0.33,1.2,0.71,2.38,1.14,3.53c1.48-1.39,2.07-1.68,0.9-2.41C16.79,60.69,16.03,60.27,15.1,59.77z
			"/>
		<path class="st0" d="M16.8,64.18c-0.04,0.08-0.08,0.16-0.12,0.25c0.41,1.02,0.87,2.01,1.35,2.99c-0.25-2.39,0.08-3.4,0.65-3.29
			c0.41,0.08,0.34,0.49,0.37,0.4c0.45-1.14,1.75-1.75,1.75-1.75S17.99,62.07,16.8,64.18z"/>
		<path class="st0" d="M91.4,31.67c-3.63-1.75-4.71-1.78-5.89-1.63c0,0,2.82,3.48,5.85,7.79c1.31,1.86,3.4,3.46,5.05,4.55
			c-0.17-1.07-0.37-2.14-0.63-3.21c-0.33-1.39-0.72-2.74-1.17-4.06C93.6,33.52,92.49,32.2,91.4,31.67z"/>
		<path class="st0" d="M55.61,33.19c-8.09,1.91-17.62,0.42-24.35,8.27c-3.95,4.61-5.37,18.91-5.23,24.17
			c0.09,3.73-0.28,5.2,0.23,5.27c0.46,0.06,0.98-4.66,1.25-4.6c0.41,0.09,0.61,3.21,1.06,4.84c0.28,1.03,0.49,0.69,0.57-2.53
			c0.03-1.21-0.22-2.39,0.06-2.44c0.48-0.09,0.27,0,0.96,1.72c1.11,2.75,2.19,4.3,1.17,0.07c-0.78-3.21-0.63-3.53,0.59-1.4
			c2.7,4.75,2.68,3.23,1.67,0.57c-1.12-2.96-1.32-5.96-0.17-4.61c2.5,2.94,2.21,1.95-0.67-3.75c-2.66-5.25-3.19-17.08,4.6-19.78
			c4.89-1.7,9.79,1.87,12.21,0.7C53.16,37.94,55.86,33.13,55.61,33.19z"/>
		<path class="st0" d="M64.17,24.09c-9.76,6.1-4.78,10.88-13.7,16.82c-8.12,5.4-12.75,18.15-11.75,18.39
			c1,0.23,5.55-13.22,17.97-17.45c0.1-0.03,1.95-5.63,7.07-12.86c5.2-7.34,11.95-2.74,12.91-3.27
			C76.67,25.71,70.63,20.06,64.17,24.09z M53.38,40.74c-0.03,0.07,0.02,0.31-0.54,0.76c-0.56,0.45-1.26,0.66-1.61,0.77
			c-0.6,0.2-1.09,0.26-2.21,0.75C50.14,41.72,53.36,40.74,53.38,40.74z M47.24,45.43c0.95-0.98,2.8-2.26,3.35-2.4
			c0.49-0.12,1.43-0.2,1.48-0.2C52.02,42.92,49.7,44.15,47.24,45.43z M55.32,40.81c-1.09,1.39-2.59,1.75-2.58,1.74
			c0.01-0.06,0.41-0.58,0.61-0.79c0.2-0.21,0.34-0.87,1.22-1.41c0.51-0.31,1.5-1.1,1.5-1.03C56.06,39.44,55.45,40.6,55.32,40.81z
			 M56.39,38.22c-0.04,0.06-0.27,0.36-0.35,0.45c-0.08,0.09-0.37,0.38-0.54,0.5c-0.1,0.07-0.55,0.33-0.66,0.38
			c-0.18,0.09-1.74,0.79-1.77,0.81c0.08-0.14,1.29-1.55,2.09-2.02c0.86-0.51,1.71-2.27,1.85-2.41C57,36.02,56.66,37.84,56.39,38.22z
			"/>
		<path class="st0" d="M34.83,72.32c-0.72,0.05-0.11,3.24-0.49,3.33c-0.63,0.16-0.85-4.69-1.41-4.48c-0.91,0.35,0.59,4.8-0.52,4.97
			c-0.47,0.07-0.75-5.08-1.69-4.61c-0.58,0.29,1,4.96,0.1,5.06c-1.2,0.14-0.55-4.18-1.45-4.01c-0.8,0.15-0.43,4.86-1.23,4.47
			c-0.8-0.39-0.13-5-0.71-4.01c-0.26,0.45-0.7,2.78-0.8,3.15c-1.89-1.53-4.9-4.18-5.99-4.81c0.49,0.13,0.93,0.31,1.28,0.56
			c1.14,0.84,3.63,2.28,3.63,2.28s-2.04-3.43-3.21-4.32c-0.71-0.54-2.44-1.01-3.7-1.3c0.5,0.92,1.03,1.81,1.59,2.68
			c0,0,0.01,0,0.01,0c0,0,0,0.01,0,0.01c0.45,0.69,0.91,1.37,1.4,2.03c1.55,1.86,4.99,5.73,7.86,8.12c0.6,0.47,1.22,0.93,1.85,1.37
			c0.97,0.6,1.77,0.86,2.23,0.56C36.67,81.4,35.75,72.25,34.83,72.32z"/>
		<path class="st0" d="M25.27,62.22c-5.4-2.57-11.98-6.44-15.57-8.68c-2.29-1.43-2.02,0.58-0.76,1.41
			c3.66,2.4,10.45,6.32,16.05,9.03C25.07,63.41,25.18,62.75,25.27,62.22z"/>
		<g>
			<path class="st0" d="M44.09,66.68c1.28-5.11,3.78-8.75,6.1-11.04c3.74-3.68,10.08-7.7,19.44-7.99
				C87.5,47.1,92.47,61.54,91.65,68.95c1.64-2.94,2.92-6.09,3.81-9.37c-3.1-6.8-10.21-15.53-26.5-14.41
				c-9.65,0.66-16.28,5.44-20.36,9.66c-2.61,2.54-5.41,6.42-7.08,11.39C42.36,66.39,43.22,66.54,44.09,66.68z"/>
			<path class="st0" d="M43.43,77.68c-0.24-2.25-0.25-4.34-0.1-6.27c-0.99-0.24-1.97-0.48-2.93-0.72c-0.43,2.58-0.54,5.36-0.2,8.35
				c0.44,3.84,1.72,7.03,3.48,9.69c2.01,0.58,4.07,1.02,6.17,1.29C46.38,86.66,43.94,82.6,43.43,77.68z"/>
		</g>
		<g>
			<path class="st0" d="M69.48,41.15c-10.9,0.6-18.35,6.17-22.95,10.98c-3.01,2.96-6.24,7.54-8.1,13.41
				c0.69,0.17,1.38,0.33,2.09,0.48c1.81-6,5.17-10.32,7.82-12.95c4.21-4.19,11.94-9.7,22.5-9.96c14.6-0.36,21.83,8.65,25.05,14.78
				c0.46-2.05,0.78-4.15,0.93-6.27C93.48,46.01,86.1,40.23,69.48,41.15z"/>
			<path class="st0" d="M39.42,78.49c-0.3-2.89-0.23-5.56,0.12-8.02c-0.74-0.19-1.46-0.38-2.17-0.57c-0.53,3.03-0.67,6.32-0.26,9.85
				c0.32,2.71,0.99,5.15,1.93,7.33c1.07,0.45,2.16,0.86,3.27,1.23C40.85,85.57,39.82,82.33,39.42,78.49z"/>
		</g>
		<g>
			<path class="st0" d="M59.88,71.99c-0.05-0.45,0.14-0.89,0.3-1.19c-5.87-0.39-11.88-1.11-17.68-2.62
				c-2.75-0.71-5.35-1.51-7.8-2.36c0.29,0.71,0.58,1.58,0.78,2.23c2,0.7,4.09,1.36,6.27,1.98c6.06,1.71,12.31,2.72,18.81,3.3
				C60.07,72.96,59.94,72.57,59.88,71.99z"/>
		</g>
		<g>
			<path class="st0" d="M23.02,39.46c1.26-2.77,3.01-4.74,6.6-4.46c-0.34-0.22-0.78-0.4-1.35-0.53c-4.64-0.27-7.84,2.12-8.95,5.94
				C20.24,39.87,22.74,39.32,23.02,39.46z"/>
			<path class="st0" d="M30.79,37.76c-0.65-0.65,0.17-2.35-2.02-2.08c-1.66,0.18-3.82,1.39-4.79,3.79c1.44,0.27,2.5,0.59,3.4,0.85
				c0.18-0.29-0.22-0.64-0.42-0.82c-1.78-1.6-0.4-0.82,0.89-0.07c0.87,0.51,1.97,0.04,2.02,0.1c0.05,0.06-1.06,0.57-1.6,0.53
				c-0.42-0.04-0.57-0.01-0.81,0.27c0.59,0.17,1.13,0.32,2.09,0.52c0.51,0.11,0.73-0.43,1.16-0.85c0.6-0.58,1.1-0.84,1.1-0.92
				C31.79,38.9,31.82,38.78,30.79,37.76z M28.85,39.11c-0.53,0.13-1.06-0.2-1.19-0.73c-0.13-0.53,0.2-1.06,0.73-1.19
				c0.53-0.13,1.06,0.2,1.19,0.73C29.71,38.45,29.38,38.98,28.85,39.11z"/>
		</g>
		<path class="st0" d="M72.04,59.34c0,0,0.07,1.55,0.76,3.42c0.2,0.56,1.84,1.15,2.19,1.16c0.59,0.01,0.86-2.06,0.29-2.53
			C73.13,59.63,72.04,59.34,72.04,59.34z"/>
	</g>
</g>
<g>
	<path class="st0" d="M115.2,85.08v3.08h-1.88v-6.51h0.31l3.74,3.13v-3.07h1.88v6.51h-0.31L115.2,85.08z"/>
	<path class="st0" d="M122.67,88.23c-1.33,0-2.41-0.81-2.41-2.25c0-1.44,1.07-2.26,2.41-2.26s2.4,0.82,2.4,2.27
		C125.07,87.42,124.01,88.23,122.67,88.23z M122.66,84.93c-0.44,0-0.8,0.38-0.8,1.05c0,0.68,0.37,1.04,0.8,1.04
		c0.45,0,0.8-0.36,0.8-1.03C123.47,85.31,123.11,84.93,122.66,84.93z"/>
	<path class="st0" d="M128.15,88.23c-1.33,0-2.41-0.81-2.41-2.25c0-1.44,1.07-2.26,2.41-2.26s2.4,0.82,2.4,2.27
		C130.54,87.42,129.48,88.23,128.15,88.23z M128.14,84.93c-0.44,0-0.8,0.38-0.8,1.05c0,0.68,0.37,1.04,0.8,1.04
		c0.45,0,0.8-0.36,0.8-1.03C128.94,85.31,128.59,84.93,128.14,84.93z"/>
	<path class="st0" d="M134.18,85.71c0-0.45-0.16-0.72-0.55-0.72c-0.57,0-0.64,0.78-0.64,1.24v1.94h-1.59V83.8H133v0.76
		c0,0,0.35-0.84,1.31-0.84c0.94,0,1.49,0.52,1.49,1.84v2.61h-1.62V85.71z"/>
	<path class="st0" d="M136.83,89.13l0.77-1.05c0,0,0.56,0.51,1.17,0.51c0.38,0,0.84-0.22,0.84-0.86V87.1
		c-0.01,0.03-0.26,0.76-1.3,0.76c-0.97,0-1.7-0.8-1.7-2.01c0-1.19,0.84-2.12,2.38-2.12c1.28,0,2.05,0.62,2.21,0.73v2.9
		c0,1.92-1.1,2.47-2.43,2.47C137.6,89.81,136.83,89.13,136.83,89.13z M138.88,86.71c0.45,0,0.73-0.45,0.73-1.18v-0.52
		c-0.12-0.05-0.34-0.11-0.59-0.11c-0.52,0-0.79,0.44-0.79,0.95C138.22,86.33,138.41,86.71,138.88,86.71z"/>
	<path class="st0" d="M144.46,88.23c-1.33,0-2.41-0.81-2.41-2.25c0-1.44,1.07-2.26,2.41-2.26s2.4,0.82,2.4,2.27
		C146.85,87.42,145.79,88.23,144.46,88.23z M144.45,84.93c-0.44,0-0.8,0.38-0.8,1.05c0,0.68,0.37,1.04,0.8,1.04
		c0.45,0,0.8-0.36,0.8-1.03C145.25,85.31,144.89,84.93,144.45,84.93z"/>
	<path class="st0" d="M152.67,85.71c0-0.45-0.04-0.72-0.44-0.72c-0.4,0-0.44,0.41-0.44,1.24v1.94h-1.62v-2.46
		c0-0.45-0.04-0.72-0.44-0.72c-0.4,0-0.44,0.41-0.44,1.24v1.94h-1.59V83.8h1.59v0.76c0.01-0.05,0.09-0.42,0.42-0.65
		c0.17-0.12,0.4-0.2,0.7-0.2c0.66,0,1.06,0.26,1.25,0.88c0.15-0.32,0.48-0.88,1.24-0.88c0.94,0,1.38,0.52,1.38,1.84v2.61h-1.62
		V85.71z"/>
	<path class="st0" d="M162.49,85.71c0-0.45-0.04-0.72-0.44-0.72c-0.4,0-0.44,0.41-0.44,1.24v1.94H160v-2.46
		c0-0.45-0.04-0.72-0.44-0.72c-0.4,0-0.44,0.41-0.44,1.24v1.94h-1.59V83.8h1.59v0.76c0.01-0.05,0.09-0.42,0.42-0.65
		c0.17-0.12,0.4-0.2,0.7-0.2c0.66,0,1.06,0.26,1.25,0.88c0.15-0.32,0.48-0.88,1.24-0.88c0.94,0,1.38,0.52,1.38,1.84v2.61h-1.62
		V85.71z"/>
	<path class="st0" d="M167.29,83.72c1.28,0,2.05,0.67,2.21,0.8v3.65h-1.58v-0.78c-0.01,0.04-0.26,0.87-1.22,0.87
		c-1.06,0-1.78-0.82-1.78-2.15C164.92,84.73,165.76,83.72,167.29,83.72z M167.19,86.99c0.45,0,0.73-0.46,0.73-1.48v-0.46
		c-0.12-0.06-0.31-0.12-0.56-0.12c-0.56,0-0.82,0.51-0.82,1.12C166.53,86.55,166.72,86.99,167.19,86.99z"/>
	<path class="st0" d="M172.74,83.72c1.28,0,2.05,0.67,2.21,0.8v3.65h-1.58v-0.78c-0.01,0.04-0.26,0.87-1.22,0.87
		c-1.06,0-1.78-0.82-1.78-2.15C170.36,84.73,171.2,83.72,172.74,83.72z M172.63,86.99c0.45,0,0.73-0.46,0.73-1.48v-0.46
		c-0.12-0.06-0.31-0.12-0.56-0.12c-0.56,0-0.82,0.51-0.82,1.12C171.98,86.55,172.16,86.99,172.63,86.99z"/>
	<path class="st0" d="M176.02,87.98v-4.19h1.59v4.11c0,1.32-0.51,1.84-2.16,1.79l-0.29-1.15C175.88,88.52,176.02,88.43,176.02,87.98
		z M176.81,83.06c-0.49,0-0.89-0.26-0.89-0.71c0-0.45,0.4-0.7,0.89-0.7c0.5,0,0.89,0.25,0.89,0.7
		C177.7,82.8,177.31,83.06,176.81,83.06z"/>
	<path class="st0" d="M179.52,83.06c-0.49,0-0.89-0.26-0.89-0.71c0-0.45,0.4-0.7,0.89-0.7c0.5,0,0.89,0.25,0.89,0.7
		C180.41,82.8,180.03,83.06,179.52,83.06z M178.73,83.8h1.61v4.37h-1.61V83.8z"/>
	<path class="st0" d="M183.46,88.22c-1.21,0-1.68-0.5-1.68-1.76v-1.48h-0.84l0.3-1.18h0.54v-0.97l1.6-0.33v1.3h0.98v1.18h-0.98v1.5
		c0,0.43,0.09,0.56,0.41,0.56c0.34,0,0.57-0.04,0.71-0.06l-0.29,1.19C184.02,88.2,183.78,88.22,183.46,88.22z"/>
	<path class="st0" d="M187.19,88.23c-1.33,0-2.41-0.81-2.41-2.25c0-1.44,1.07-2.26,2.41-2.26s2.4,0.82,2.4,2.27
		C189.58,87.42,188.52,88.23,187.19,88.23z M187.18,84.93c-0.44,0-0.8,0.38-0.8,1.05c0,0.68,0.37,1.04,0.8,1.04
		c0.45,0,0.8-0.36,0.8-1.03C187.98,85.31,187.63,84.93,187.18,84.93z"/>
	<path class="st0" d="M192.66,88.23c-1.33,0-2.41-0.81-2.41-2.25c0-1.44,1.07-2.26,2.41-2.26s2.4,0.82,2.4,2.27
		C195.06,87.42,194,88.23,192.66,88.23z M192.65,84.93c-0.44,0-0.8,0.38-0.8,1.05c0,0.68,0.37,1.04,0.8,1.04
		c0.45,0,0.8-0.36,0.8-1.03C193.46,85.31,193.1,84.93,192.65,84.93z"/>
	<path class="st0" d="M198.7,85.71c0-0.45-0.16-0.72-0.55-0.72c-0.57,0-0.64,0.78-0.64,1.24v1.94h-1.59V83.8h1.59v0.76
		c0,0,0.35-0.84,1.31-0.84c0.94,0,1.49,0.52,1.49,1.84v2.61h-1.62V85.71z"/>
	<path class="st0" d="M205.75,83.72c1.28,0,2.05,0.67,2.21,0.8v3.65h-1.58v-0.78c-0.01,0.04-0.26,0.87-1.22,0.87
		c-1.06,0-1.78-0.82-1.78-2.15C203.37,84.73,204.22,83.72,205.75,83.72z M205.65,86.99c0.45,0,0.73-0.46,0.73-1.48v-0.46
		c-0.12-0.06-0.31-0.12-0.56-0.12c-0.56,0-0.82,0.51-0.82,1.12C204.99,86.55,205.18,86.99,205.65,86.99z"/>
	<path class="st0" d="M211.19,83.72c1.28,0,2.05,0.67,2.21,0.8v3.65h-1.58v-0.78c-0.01,0.04-0.26,0.87-1.22,0.87
		c-1.06,0-1.78-0.82-1.78-2.15C208.82,84.73,209.66,83.72,211.19,83.72z M211.09,86.99c0.45,0,0.73-0.46,0.73-1.48v-0.46
		c-0.12-0.06-0.31-0.12-0.56-0.12c-0.56,0-0.82,0.51-0.82,1.12C210.43,86.55,210.62,86.99,211.09,86.99z"/>
	<path class="st0" d="M218.74,86.92l-0.31,1.25h-4.45l2.11-3.13h-1.72l0.32-1.24h3.97l-2.12,3.12H218.74z"/>
	<path class="st0" d="M222.1,86.32c0-0.75,0-1.33-0.55-1.33c-0.57,0-0.64,0.78-0.64,1.24v1.94h-1.59v-6.23l1.59-0.32v2.95
		c0,0,0.35-0.84,1.31-0.84c1.19,0,1.49,0.69,1.49,2.49v1.96h-1.62V86.32z"/>
	<path class="st0" d="M226.84,83.72c1.28,0,2.05,0.67,2.21,0.8v3.65h-1.58v-0.78c-0.01,0.04-0.26,0.87-1.22,0.87
		c-1.06,0-1.78-0.82-1.78-2.15C224.47,84.73,225.31,83.72,226.84,83.72z M226.74,86.99c0.45,0,0.73-0.46,0.73-1.48v-0.46
		c-0.12-0.06-0.31-0.12-0.56-0.12c-0.56,0-0.82,0.51-0.82,1.12C226.08,86.55,226.27,86.99,226.74,86.99z"/>
	<path class="st0" d="M232.77,83.8h0.44l0.89,1.86l0.74-1.86h1.73l-2.26,4.42h-0.43L233,86.2l-0.89,2.02h-0.43l-2.26-4.42h1.72
		l0.74,1.86L232.77,83.8z"/>
	<path class="st0" d="M238.91,83.72c1.28,0,2.05,0.67,2.21,0.8v3.65h-1.58v-0.78c-0.01,0.04-0.26,0.87-1.22,0.87
		c-1.06,0-1.78-0.82-1.78-2.15C236.53,84.73,237.38,83.72,238.91,83.72z M238.8,86.99c0.45,0,0.73-0.46,0.73-1.48v-0.46
		c-0.12-0.06-0.31-0.12-0.56-0.12c-0.56,0-0.82,0.51-0.82,1.12C238.15,86.55,238.34,86.99,238.8,86.99z"/>
	<path class="st0" d="M244.35,83.72c1.28,0,2.05,0.67,2.21,0.8v3.65h-1.58v-0.78c-0.01,0.04-0.26,0.87-1.22,0.87
		c-1.06,0-1.78-0.82-1.78-2.15C241.97,84.73,242.82,83.72,244.35,83.72z M244.25,86.99c0.45,0,0.73-0.46,0.73-1.48v-0.46
		c-0.12-0.06-0.31-0.12-0.56-0.12c-0.56,0-0.82,0.51-0.82,1.12C243.59,86.55,243.78,86.99,244.25,86.99z"/>
	<path class="st0" d="M249.66,88.22c-1.21,0-1.68-0.5-1.68-1.76v-1.48h-0.84l0.3-1.18h0.54v-0.97l1.6-0.33v1.3h0.98v1.18h-0.98v1.5
		c0,0.43,0.09,0.56,0.41,0.56c0.34,0,0.57-0.04,0.71-0.06l-0.29,1.19C250.22,88.2,249.98,88.22,249.66,88.22z"/>
	<path class="st0" d="M253.55,87.03c0.43,0,0.73-0.07,1.15-0.38l0.65,1.06c-0.69,0.45-1.37,0.51-1.85,0.51
		c-1.53,0-2.5-0.88-2.5-2.26c0-1.35,0.97-2.26,2.25-2.26c1.19,0,2.14,0.78,2.14,2.12c0,0.3-0.04,0.56-0.04,0.56h-2.79
		C252.61,86.83,253.05,87.03,253.55,87.03z M252.54,85.32h1.51c-0.08-0.36-0.32-0.62-0.75-0.62
		C252.88,84.71,252.63,84.98,252.54,85.32z"/>
	<path class="st0" d="M258.42,88.25c-1.28,0-2.05-0.67-2.21-0.8v-5.46l1.58-0.38v2.95c0.01-0.04,0.24-0.84,1.25-0.84
		c1,0,1.75,0.95,1.75,2.27C260.79,87.25,259.95,88.25,258.42,88.25z M258.52,84.94c-0.46,0-0.73,0.52-0.73,1.36v0.59
		c0.12,0.07,0.32,0.12,0.59,0.12c0.52,0,0.78-0.5,0.78-1.07C259.17,85.37,258.98,84.94,258.52,84.94z"/>
	<path class="st0" d="M262.49,83.06c-0.49,0-0.89-0.26-0.89-0.71c0-0.45,0.4-0.7,0.89-0.7c0.5,0,0.89,0.25,0.89,0.7
		C263.37,82.8,262.99,83.06,262.49,83.06z M261.69,83.8h1.61v4.37h-1.61V83.8z"/>
	<path class="st0" d="M265.2,83.06c-0.49,0-0.89-0.26-0.89-0.71c0-0.45,0.4-0.7,0.89-0.7c0.5,0,0.89,0.25,0.89,0.7
		C266.08,82.8,265.7,83.06,265.2,83.06z M264.4,83.8h1.61v4.37h-1.61V83.8z"/>
	<path class="st0" d="M267.02,84.55l0.63-2.85h1.94l-1.42,3.17L267.02,84.55z"/>
	<path class="st0" d="M271.2,83.06c-0.49,0-0.89-0.26-0.89-0.71c0-0.45,0.4-0.7,0.89-0.7c0.5,0,0.89,0.25,0.89,0.7
		C272.09,82.8,271.7,83.06,271.2,83.06z M270.41,83.8h1.61v4.37h-1.61V83.8z"/>
	<path class="st0" d="M273.11,89.13l0.77-1.05c0,0,0.56,0.51,1.17,0.51c0.38,0,0.84-0.22,0.84-0.86V87.1
		c-0.01,0.03-0.26,0.76-1.3,0.76c-0.97,0-1.7-0.8-1.7-2.01c0-1.19,0.84-2.12,2.38-2.12c1.28,0,2.05,0.62,2.21,0.73v2.9
		c0,1.92-1.1,2.47-2.43,2.47C273.88,89.81,273.11,89.13,273.11,89.13z M275.17,86.71c0.45,0,0.73-0.45,0.73-1.18v-0.52
		c-0.12-0.05-0.34-0.11-0.59-0.11c-0.52,0-0.79,0.44-0.79,0.95C274.51,86.33,274.7,86.71,275.17,86.71z"/>
	<path class="st0" d="M280.71,83.72c1.28,0,2.05,0.67,2.21,0.8v3.65h-1.58v-0.78c-0.01,0.04-0.26,0.87-1.22,0.87
		c-1.06,0-1.78-0.82-1.78-2.15C278.34,84.73,279.18,83.72,280.71,83.72z M280.61,86.99c0.45,0,0.73-0.46,0.73-1.48v-0.46
		c-0.12-0.06-0.31-0.12-0.56-0.12c-0.56,0-0.82,0.51-0.82,1.12C279.95,86.55,280.14,86.99,280.61,86.99z"/>
	<path class="st0" d="M286.75,85.71c0-0.45-0.16-0.72-0.55-0.72c-0.57,0-0.64,0.78-0.64,1.24v1.94h-1.59V83.8h1.59v0.76
		c0,0,0.35-0.84,1.31-0.84c0.94,0,1.49,0.52,1.49,1.84v2.61h-1.62V85.71z"/>
	<path class="st0" d="M291.58,88.23c-1.33,0-2.41-0.81-2.41-2.25c0-1.44,1.07-2.26,2.41-2.26s2.4,0.82,2.4,2.27
		C293.97,87.42,292.91,88.23,291.58,88.23z M291.57,84.93c-0.44,0-0.8,0.38-0.8,1.05c0,0.68,0.37,1.04,0.8,1.04
		c0.45,0,0.8-0.36,0.8-1.03C292.37,85.31,292.02,84.93,291.57,84.93z"/>
	<path class="st0" d="M294.57,84.96h2.95v1.26h-2.95V84.96z"/>
	<path class="st0" d="M300.49,83.72c1.28,0,2.05,0.67,2.21,0.8v3.65h-1.58v-0.78c-0.01,0.04-0.26,0.87-1.22,0.87
		c-1.06,0-1.78-0.82-1.78-2.15C298.12,84.73,298.96,83.72,300.49,83.72z M300.39,86.99c0.45,0,0.73-0.46,0.73-1.48v-0.46
		c-0.12-0.06-0.31-0.12-0.56-0.12c-0.56,0-0.82,0.51-0.82,1.12C299.73,86.55,299.92,86.99,300.39,86.99z"/>
	<path class="st0" d="M306.53,85.71c0-0.45-0.16-0.72-0.55-0.72c-0.57,0-0.64,0.78-0.64,1.24v1.94h-1.59V83.8h1.59v0.76
		c0,0,0.35-0.84,1.31-0.84c0.94,0,1.49,0.52,1.49,1.84v2.61h-1.62V85.71z"/>
	<path class="st0" d="M311.36,88.23c-1.33,0-2.41-0.81-2.41-2.25c0-1.44,1.07-2.26,2.41-2.26s2.4,0.82,2.4,2.27
		C313.75,87.42,312.69,88.23,311.36,88.23z M311.35,84.93c-0.44,0-0.8,0.38-0.8,1.05c0,0.68,0.37,1.04,0.8,1.04
		c0.45,0,0.8-0.36,0.8-1.03C312.15,85.31,311.8,84.93,311.35,84.93z"/>
	<path class="st0" d="M314.61,88.17v-6.23l1.59-0.32v6.55H314.61z M317.28,83.79h1.83l-1.14,1.87l1.53,2.51h-1.88l-1.34-2.52
		L317.28,83.79z"/>
	<path class="st0" d="M320.76,83.06c-0.49,0-0.89-0.26-0.89-0.71c0-0.45,0.4-0.7,0.89-0.7c0.5,0,0.89,0.25,0.89,0.7
		C321.65,82.8,321.27,83.06,320.76,83.06z M319.97,83.8h1.61v4.37h-1.61V83.8z"/>
	<path class="st0" d="M323.48,83.06c-0.49,0-0.89-0.26-0.89-0.71c0-0.45,0.4-0.7,0.89-0.7c0.5,0,0.89,0.25,0.89,0.7
		C324.36,82.8,323.98,83.06,323.48,83.06z M322.68,83.8h1.61v4.37h-1.61V83.8z"/>
	<path class="st0" d="M328.12,83.8h0.44l0.89,1.86l0.74-1.86h1.73l-2.26,4.42h-0.43l-0.88-2.02l-0.89,2.02h-0.43l-2.26-4.42h1.72
		l0.74,1.86L328.12,83.8z"/>
	<path class="st0" d="M333.23,83.06c-0.49,0-0.89-0.26-0.89-0.71c0-0.45,0.4-0.7,0.89-0.7c0.5,0,0.89,0.25,0.89,0.7
		C334.11,82.8,333.73,83.06,333.23,83.06z M332.43,83.8h1.61v4.37h-1.61V83.8z"/>
	<path class="st0" d="M337.89,85.71c0-0.45-0.16-0.72-0.55-0.72c-0.57,0-0.64,0.78-0.64,1.24v1.94h-1.59V83.8h1.59v0.76
		c0,0,0.35-0.84,1.31-0.84c0.94,0,1.49,0.52,1.49,1.84v2.61h-1.62V85.71z"/>
	<path class="st0" d="M341.33,83.06c-0.49,0-0.89-0.26-0.89-0.71c0-0.45,0.4-0.7,0.89-0.7c0.5,0,0.89,0.25,0.89,0.7
		C342.21,82.8,341.83,83.06,341.33,83.06z M340.54,83.8h1.61v4.37h-1.61V83.8z"/>
	<path class="st0" d="M345.99,85.71c0-0.45-0.16-0.72-0.55-0.72c-0.57,0-0.64,0.78-0.64,1.24v1.94h-1.59V83.8h1.59v0.76
		c0,0,0.35-0.84,1.31-0.84c0.94,0,1.49,0.52,1.49,1.84v2.61h-1.62V85.71z"/>
	<path class="st0" d="M348.63,89.13l0.77-1.05c0,0,0.56,0.51,1.17,0.51c0.38,0,0.84-0.22,0.84-0.86V87.1
		c-0.01,0.03-0.26,0.76-1.3,0.76c-0.97,0-1.7-0.8-1.7-2.01c0-1.19,0.84-2.12,2.38-2.12c1.28,0,2.05,0.62,2.21,0.73v2.9
		c0,1.92-1.1,2.47-2.43,2.47C349.4,89.81,348.63,89.13,348.63,89.13z M350.68,86.71c0.45,0,0.73-0.45,0.73-1.18v-0.52
		c-0.12-0.05-0.34-0.11-0.59-0.11c-0.52,0-0.79,0.44-0.79,0.95C350.02,86.33,350.21,86.71,350.68,86.71z"/>
</g>
</svg>
