<?xml version="1.0" encoding="utf-8"?>
<!-- Generator: Adobe Illustrator 25.3.1, SVG Export Plug-In . SVG Version: 6.00 Build 0)  -->
<svg version="1.1" id="Layer_1" focusable="false" xmlns="http://www.w3.org/2000/svg" xmlns:xlink="http://www.w3.org/1999/xlink"
	 x="0px" y="0px" viewBox="0 0 512 512" style="enable-background:new 0 0 512 512;" xml:space="preserve">
<style type="text/css">
	.st0{fill:#FFFFFF;}
</style>
<path class="st0" d="M374.4,129.3c-32.3-30.2-74.1-46.8-118.6-46.7c-80,0.1-149,54.9-168,130.9c-1.4,5.5-6.3,9.4-12,9.4H16.6
	c-7.7,0-13.6-7-12.2-14.6C26.8,89.7,130.9,0,256,0c68.6,0,130.9,27,176.8,70.9L469.7,34c15.6-15.6,42.3-4.6,42.3,17.5v138.4
	c0,13.7-11.1,24.8-24.8,24.8H348.8c-22.1,0-33.1-26.7-17.5-42.3L374.4,129.3z M24.8,297.3h138.4c22.1,0,33.1,26.7,17.5,42.3
	l-43.1,43.1c32.3,30.2,74.2,46.8,118.6,46.7c79.9-0.1,149-54.9,168-130.9c1.4-5.5,6.3-9.4,12-9.4h59.2c7.7,0,13.6,7,12.2,14.6
	C485.2,422.3,381.1,512,256,512c-68.6,0-130.9-27-176.8-70.9L42.3,478C26.7,493.6,0,482.5,0,460.4V322.1
	C0,308.4,11.1,297.3,24.8,297.3z"/>
</svg>
