<?xml version="1.0" encoding="utf-8"?>
<!-- Generator: Adobe Illustrator 25.3.1, SVG Export Plug-In . SVG Version: 6.00 Build 0)  -->
<svg version="1.1" id="Layer_1" focusable="false" xmlns="http://www.w3.org/2000/svg" xmlns:xlink="http://www.w3.org/1999/xlink"
	 x="0px" y="0px" viewBox="0 0 640 512" style="enable-background:new 0 0 640 512;" xml:space="preserve">
<style type="text/css">
	.st0{fill:#FFFFFF;}
</style>
<path class="st0" d="M488,192H336v56c0,39.7-32.3,72-72,72s-72-32.3-72-72V126.4l-64.9,39C107.8,176.9,96,197.8,96,220.2v47.3
	l-80,46.2c-15.3,8.8-20.6,28.4-11.7,43.7l80,138.6c8.8,15.3,28.4,20.5,43.7,11.7L231.4,448H368c35.3,0,64-28.7,64-64h16
	c17.7,0,32-14.3,32-32v-64h8c13.3,0,24-10.7,24-24v-48C512,202.7,501.3,192,488,192z M635.7,154.6L555.7,16
	C546.9,0.7,527.3-4.5,512,4.3L408.6,64H306.4c-12,0-23.7,3.4-33.9,9.7L239,94.6c-9.4,5.8-15,16.1-15,27.1V248c0,22.1,17.9,40,40,40
	s40-17.9,40-40v-88h184c30.9,0,56,25.1,56,56v28.5l80-46.2C639.3,189.4,644.5,169.9,635.7,154.6z"/>
</svg>
