<?xml version="1.0" encoding="utf-8"?>
<!-- Generator: Adobe Illustrator 25.3.1, SVG Export Plug-In . SVG Version: 6.00 Build 0)  -->
<svg version="1.1" id="Layer_1" focusable="false" xmlns="http://www.w3.org/2000/svg" xmlns:xlink="http://www.w3.org/1999/xlink"
	 x="0px" y="0px" viewBox="0 0 576 512" style="enable-background:new 0 0 576 512;" xml:space="preserve">
<style type="text/css">
	.st0{fill:#FFFFFF;}
</style>
<path class="st0" d="M546.2,9.7c-5.6-12.5-21.6-13-28.3-1.2C486.9,62.4,431.4,96,368,96h-80C182,96,96,182,96,288
	c0,7,0.8,13.7,1.5,20.5C161.3,262.8,253.4,224,384,224c8.8,0,16,7.2,16,16s-7.2,16-16,16C132.6,256,26,410.1,2.4,468
	c-6.6,16.3,1.2,34.9,17.5,41.6c16.4,6.8,35-1.1,41.8-17.3c1.5-3.6,20.9-47.9,71.9-90.6c32.4,43.9,94,85.8,174.9,77.2
	C465.5,467.5,576,326.7,576,154.3C576,104.1,565.2,52.1,546.2,9.7z"/>
</svg>
