<?xml version="1.0" encoding="utf-8"?>
<!-- Generator: Adobe Illustrator 25.3.1, SVG Export Plug-In . SVG Version: 6.00 Build 0)  -->
<svg version="1.1" id="Layer_1" focusable="false" xmlns="http://www.w3.org/2000/svg" xmlns:xlink="http://www.w3.org/1999/xlink"
	 x="0px" y="0px" viewBox="0 0 640 512" style="enable-background:new 0 0 640 512;" xml:space="preserve">
<style type="text/css">
	.st0{fill:#FFFFFF;}
</style>
<path class="st0" d="M224,256c70.7,0,128-57.3,128-128S294.7,0,224,0S96,57.3,96,128S153.3,256,224,256z M313.6,288h-16.7
	c-22.2,10.2-46.9,16-72.9,16s-50.6-5.8-72.9-16h-16.7C60.2,288,0,348.2,0,422.4V464c0,26.5,21.5,48,48,48h352c26.5,0,48-21.5,48-48
	v-41.6C448,348.2,387.8,288,313.6,288z M636.6,159.6l-27.8-28.1c-4.6-4.7-12.1-4.7-16.8-0.1l-104.8,104l-45.5-45.8
	c-4.6-4.7-12.1-4.7-16.8-0.1l-28.1,27.9c-4.7,4.6-4.7,12.1-0.1,16.8l81.7,82.3c4.6,4.7,12.1,4.7,16.8,0.1l141.3-140.2
	C641.1,171.7,641.2,164.2,636.6,159.6z"/>
</svg>
