<svg width="885" height="433" viewBox="0 0 885 433" fill="none" xmlns="http://www.w3.org/2000/svg">
<circle cx="442.343" cy="72.1296" r="72.1296" fill="#F9C160"/>
<path fill-rule="evenodd" clip-rule="evenodd" d="M589.455 288.463C627.968 286.965 658.731 255.269 658.731 216.389C658.731 176.553 626.438 144.259 586.602 144.259C547.721 144.259 516.026 175.022 514.528 213.536H514.417C514.454 214.482 514.472 215.433 514.472 216.389C514.472 256.225 482.179 288.518 442.343 288.518C441.387 288.518 440.436 288.5 439.49 288.463V288.574C400.976 290.072 370.213 321.767 370.213 360.648C370.213 400.484 402.507 432.777 442.343 432.777C481.223 432.777 512.919 402.014 514.417 363.501H514.528C514.491 362.554 514.472 361.603 514.472 360.648C514.472 320.812 546.766 288.518 586.602 288.518C587.557 288.518 588.508 288.537 589.455 288.574V288.463Z" fill="#F9C160"/>
<circle cx="668.297" cy="72.1296" r="72.1296" fill="#FBDCA5"/>
<path fill-rule="evenodd" clip-rule="evenodd" d="M815.409 288.463C853.922 286.965 884.685 255.269 884.685 216.389C884.685 176.553 852.392 144.259 812.556 144.259C773.675 144.259 741.98 175.022 740.482 213.536H740.371C740.408 214.482 740.426 215.433 740.426 216.389C740.426 256.225 708.133 288.518 668.297 288.518C667.341 288.518 666.39 288.5 665.443 288.463V288.574C626.93 290.072 596.167 321.767 596.167 360.648C596.167 400.484 628.46 432.777 668.297 432.777C707.177 432.777 738.873 402.014 740.371 363.501H740.482C740.445 362.554 740.426 361.603 740.426 360.648C740.426 320.812 772.72 288.518 812.556 288.518C813.511 288.518 814.462 288.537 815.409 288.574V288.463Z" fill="#FBDCA5"/>
<path fill-rule="evenodd" clip-rule="evenodd" d="M370.158 213.536C368.66 175.022 336.964 144.259 298.084 144.259C258.248 144.259 225.954 176.553 225.954 216.389C225.954 255.269 256.717 286.965 295.231 288.463L295.231 288.574C296.177 288.537 297.128 288.518 298.084 288.518C337.92 288.518 370.213 320.812 370.213 360.648C370.213 361.603 370.195 362.555 370.158 363.501L370.269 363.501C371.767 402.015 403.462 432.777 442.343 432.777C482.179 432.777 514.472 400.484 514.472 360.648C514.472 321.767 483.709 290.072 445.196 288.574L445.196 288.463C444.249 288.5 443.298 288.518 442.343 288.518C402.507 288.518 370.213 256.225 370.213 216.389C370.213 215.433 370.232 214.482 370.269 213.536L370.158 213.536Z" fill="#F9C160"/>
<circle cx="216.389" cy="72.1296" r="72.1296" fill="#F8A812"/>
<path fill-rule="evenodd" clip-rule="evenodd" d="M144.259 360.648C144.259 320.812 111.966 288.518 72.1295 288.518C71.1741 288.518 70.2229 288.537 69.2765 288.574L69.2765 288.463C30.7629 286.965 -7.75913e-06 255.269 -9.45865e-06 216.389C-1.11999e-05 176.553 32.2935 144.259 72.1295 144.259C111.01 144.259 142.706 175.022 144.204 213.536L144.315 213.536C144.278 214.482 144.259 215.433 144.259 216.389C144.259 256.225 176.553 288.518 216.389 288.518C217.344 288.518 218.295 288.5 219.242 288.463L219.242 288.574C257.755 290.072 288.518 321.767 288.518 360.648C288.518 400.484 256.225 432.777 216.389 432.777C177.508 432.777 145.813 402.015 144.315 363.501L144.204 363.501C144.241 362.555 144.259 361.603 144.259 360.648Z" fill="#F8A812"/>
</svg>
