<?xml version="1.0" encoding="utf-8"?>
<!-- Generator: Adobe Illustrator 25.4.1, SVG Export Plug-In . SVG Version: 6.00 Build 0)  -->
<svg version="1.1" id="Layer_1" xmlns="http://www.w3.org/2000/svg" xmlns:xlink="http://www.w3.org/1999/xlink" x="0px" y="0px"
	 viewBox="0 0 1678 558" style="enable-background:new 0 0 1678 558;" xml:space="preserve">
<style type="text/css">
	.st0{fill:#DABA27;}
	.st1{fill:#BF372D;}
	.st2{fill:#FAFAFA;}
	.st3{fill:#221F1F;}
</style>
<path class="st0" d="M-0.7,120.1c0,0,95.3-113.4,343.3-114.1c248-0.7,391.7,112.1,675.6,111.4c283.9-0.7,660-117.5,660-117.5
	l0.3,114.4c0,0-328.3,116.6-660,117.5C686.9,232.8,585,119.9,343,120.5C100.9,121.1-0.4,234.6-0.4,234.6L-0.7,120.1z"/>
<path class="st1" d="M-0.4,234.6c0,0,95.3-113.4,343.3-114.1s391.7,112.1,675.6,111.4c283.9-0.7,660-117.5,660-117.5l0.3,114.4
	c0,0-328.3,116.6-660,117.5c-331.7,0.9-433.6-112-675.6-111.4C101.2,235.6-0.1,349-0.1,349L-0.4,234.6z"/>
<path class="st2" d="M-0.1,342.7c0,0,95.3-113.4,343.3-114.1S735,340.8,1018.8,340c283.9-0.7,660-117.5,660-117.5l0.3,114.4
	c0,0-328.4,116.6-660,117.5c-331.7,0.9-433.6-112-675.6-111.4C101.5,343.7,0.2,457.1,0.2,457.1L-0.1,342.7z"/>
<path class="st3" d="M0.2,443.3c0,0,95.3-113.4,343.3-114.1c248-0.7,391.7,112.1,675.6,111.4c283.9-0.7,660-107.5,660-107.5
	l0.3,114.4c0,0-328.3,106.6-660,107.5c-331.7,0.9-433.6-112-675.6-111.4S0.5,557.7,0.5,557.7L0.2,443.3z"/>
</svg>
