<svg
  id="Layer_1"
  data-name="Layer 1"
  xmlns="http://www.w3.org/2000/svg"
  viewBox="0 0 307.57 82.83"
><defs><style>.cls-1{fill:#fff}</style></defs><path
    class="cls-1"
    d="M114.5 55.14c-.63 0-1 .31-1 1.14v.92h1.67V59h-1.67v6.23h-2.46V59h-1.5l.48-1.84h1v-.92c0-2.35 1.31-3.08 3-3.08a8.18 8.18 0 0 1 1.75.23l-.33 1.85a4 4 0 0 0-.94-.1ZM119.84 65.38a4.15 4.15 0 1 1 4.31-4.11 4 4 0 0 1-4.31 4.11Zm0-6.36a2 2 0 0 0-1.84 2.23c0 1.42.84 2.19 1.84 2.19a1.92 1.92 0 0 0 1.87-2.17c-.02-1.42-.85-2.27-1.89-2.27ZM128.14 62.69v2.58h-2.44v-8h2.44v1.32a2.5 2.5 0 0 1 2.67-1.46c-.05.23-.28 2-.32 2.25-1.79-.11-2.35 1.14-2.35 3.31ZM136.2 53.36h2.8v11.91h-2.8ZM146.53 60.89c0-1.17-.36-1.81-1.3-1.81s-1.54.92-1.54 2.42v3.77h-2.46v-8h2.46v1.32a2.84 2.84 0 0 1 2.4-1.46c2 0 2.94 1.16 2.94 3.63v4.56h-2.5ZM150.49 61.39c0-2.35 1.41-4.29 3.83-4.29a5 5 0 0 1 1.92.42V53.7l2.46-.52v12.09h-2.44v-1.41a2.6 2.6 0 0 1-2.37 1.54c-2.11 0-3.4-1.61-3.4-4.01Zm4 2c1 0 1.73-1 1.73-2.94v-1a2.55 2.55 0 0 0-1.44-.45c-1.21 0-1.85 1.08-1.85 2.33s.5 2.05 1.6 2.05ZM161.91 55.81c-.79 0-1.41-.44-1.41-1.17s.62-1.15 1.41-1.15 1.4.42 1.4 1.15a1.24 1.24 0 0 1-1.4 1.17Zm-1.23 1.41h2.48v8h-2.48ZM165.14 67.13l1.24-1.69a4.31 4.31 0 0 0 2.21.86 1.68 1.68 0 0 0 1.87-1.9v-1a2.71 2.71 0 0 1-2.37 1.23c-2 0-3.32-1.52-3.32-3.71s1.52-3.86 4.23-3.86a6.18 6.18 0 0 1 3.88 1.33v5.45c0 3.54-2 4.44-4.23 4.44a6.25 6.25 0 0 1-3.51-1.15Zm3.66-4.36c1 0 1.66-.9 1.66-2.4v-1.06a3.09 3.09 0 0 0-1.41-.31 1.78 1.78 0 0 0-1.78 2c0 1 .44 1.77 1.53 1.77ZM179 63.46a3.23 3.23 0 0 0 2.09-.71l1.06 1.69a5.44 5.44 0 0 1-3.23.94c-2.74 0-4.45-1.61-4.45-4.15a3.94 3.94 0 0 1 4-4.17 3.64 3.64 0 0 1 3.8 3.83c0 .48-.05.94-.05.94h-5.38c.09 1.11 1.02 1.63 2.16 1.63Zm-2.09-3.34h3.28a1.52 1.52 0 0 0-1.61-1.38 1.69 1.69 0 0 0-1.7 1.38ZM189.1 60.89c0-1.17-.37-1.81-1.31-1.81s-1.54.92-1.54 2.42v3.77h-2.46v-8h2.46v1.32a2.88 2.88 0 0 1 2.41-1.46c2 0 2.93 1.16 2.93 3.63v4.56h-2.49ZM197.38 65.38a4.15 4.15 0 1 1 4.3-4.11 4 4 0 0 1-4.3 4.11Zm0-6.36a2 2 0 0 0-1.84 2.23c0 1.42.84 2.19 1.84 2.19a1.91 1.91 0 0 0 1.86-2.17c-.02-1.42-.84-2.27-1.88-2.27ZM205.64 61.62c0 1.17.31 1.8 1.27 1.8s1.52-.9 1.52-2.42v-3.78h2.46v8h-2.46V64a2.73 2.73 0 0 1-2.38 1.44c-2.19 0-2.9-1.29-2.9-4.19v-4h2.49ZM215.71 58.91c-.42 0-.82.15-.82.54 0 1.11 4 .65 4 3.36 0 1.57-1.38 2.59-3.29 2.59a7.15 7.15 0 0 1-3.51-1.09l1.17-1.64a4.8 4.8 0 0 0 2.33.85c.57 0 .86-.29.86-.65 0-1.21-4-.68-4-3.42 0-1.5 1.18-2.37 3.1-2.37a5.7 5.7 0 0 1 2.82.71l-.36 1.79a5.1 5.1 0 0 0-2.3-.67ZM227.43 62v3.25h-2.84V53.36h2.88c3.92 0 5.8 1.76 5.8 4.3 0 2.77-1.94 4.34-5.84 4.34Zm.27-6.47h-.25v4.28h.46c1.5 0 2.58-.77 2.58-2.17s-1.17-2.09-2.79-2.09ZM238.69 63.46a3.26 3.26 0 0 0 2.1-.71l1.06 1.69a5.46 5.46 0 0 1-3.23.94c-2.75 0-4.46-1.61-4.46-4.15a4 4 0 0 1 4-4.17 3.64 3.64 0 0 1 3.8 3.83 8.27 8.27 0 0 1-.06.94h-5.38a1.88 1.88 0 0 0 2.17 1.63Zm-2.09-3.34h3.29a1.53 1.53 0 0 0-1.62-1.38 1.69 1.69 0 0 0-1.67 1.38ZM247.5 65.38a4.15 4.15 0 1 1 4.3-4.11 4 4 0 0 1-4.3 4.11Zm0-6.36a2 2 0 0 0-1.85 2.23 1.88 1.88 0 1 0 3.71 0c-.02-1.4-.85-2.25-1.88-2.25ZM261.56 61.1c0 2.34-1.36 4.26-3.78 4.26a5.53 5.53 0 0 1-2-.4v2.8l-2.44.52V57.22h2.42v1.4a2.55 2.55 0 0 1 2.34-1.54c2.19 0 3.46 1.62 3.46 4.02Zm-4.05-2c-1 0-1.71 1-1.71 2.92v1a3.07 3.07 0 0 0 1.48.42c1.21 0 1.8-1 1.8-2.3s-.44-2.04-1.57-2.04ZM263.12 53.68l2.46-.5v12.09h-2.46ZM271.67 63.46a3.23 3.23 0 0 0 2.09-.71l1.06 1.69a5.44 5.44 0 0 1-3.23.94c-2.74 0-4.45-1.61-4.45-4.15a4 4 0 0 1 4-4.17 3.64 3.64 0 0 1 3.8 3.83c0 .48-.05.94-.05.94h-5.38c.12 1.11 1.05 1.63 2.16 1.63Zm-2.09-3.34h3.28a1.52 1.52 0 0 0-1.61-1.38 1.69 1.69 0 0 0-1.67 1.38ZM279.41 58.91c-.42 0-.82.15-.82.54 0 1.11 4 .65 4 3.36 0 1.57-1.38 2.59-3.28 2.59a7.16 7.16 0 0 1-3.52-1.09l1.21-1.64a4.8 4.8 0 0 0 2.33.85c.57 0 .86-.29.86-.65 0-1.21-4-.68-4-3.42 0-1.5 1.17-2.37 3.09-2.37a5.7 5.7 0 0 1 2.82.71l-.36 1.79a5.1 5.1 0 0 0-2.33-.67ZM110.73 33.64h2.84v11.91h-2.84ZM120.7 45.55h-2.81v-9.72H115l.52-2.19h7.86v2.19h-2.68ZM137.47 45.55l-.9-1.92h-4.73l-.84 1.92h-3.09L134 33.33h.46l6.09 12.22Zm-4.82-3.94h3.11l-1.55-3.45ZM149.77 41.38c0 2.35-1.36 4.27-3.78 4.27a5.42 5.42 0 0 1-2-.41v2.81l-2.44.52V37.5H144v1.41a2.54 2.54 0 0 1 2.34-1.54c2.16 0 3.43 1.63 3.43 4.01Zm-4.05-2c-1 0-1.71 1-1.71 2.91v1a2.94 2.94 0 0 0 1.48.43c1.21 0 1.8-1.06 1.8-2.31s-.44-2.02-1.57-2.02ZM159.63 41.38c0 2.35-1.37 4.27-3.79 4.27a5.49 5.49 0 0 1-2-.41v2.81l-2.44.52V37.5h2.42v1.41a2.57 2.57 0 0 1 2.35-1.54c2.19 0 3.46 1.63 3.46 4.01Zm-4.06-2c-1 0-1.71 1-1.71 2.91v1a2.94 2.94 0 0 0 1.48.43c1.21 0 1.81-1.06 1.81-2.31s-.44-2.02-1.58-2.02ZM163.72 43v2.57h-2.44v-8h2.44v1.33a2.47 2.47 0 0 1 2.67-1.46c-.06.23-.29 2-.32 2.25-1.79-.13-2.35 1.12-2.35 3.31ZM171.27 43.75a3.26 3.26 0 0 0 2.1-.71l1 1.69a5.48 5.48 0 0 1-3.22.94c-2.75 0-4.46-1.62-4.46-4.15a3.94 3.94 0 0 1 4-4.17 3.63 3.63 0 0 1 3.81 3.82 8.27 8.27 0 0 1-.06.94h-5.38a1.88 1.88 0 0 0 2.21 1.64Zm-2.09-3.35h3.28a1.52 1.52 0 0 0-1.61-1.4 1.7 1.7 0 0 0-1.67 1.4ZM181.5 41.17c0-1.17-.37-1.8-1.31-1.8s-1.54.92-1.54 2.42v3.76h-2.46v-8h2.46v1.33a2.84 2.84 0 0 1 2.4-1.46c2 0 2.94 1.15 2.94 3.63v4.55h-2.49ZM189.07 45.65c-2.19 0-2.92-1-2.92-3.19v-3.07h-1.5l.48-1.89h1v-1.71l2.48-.52v2.23h1.88v1.89h-1.88v3.11c0 .84.15 1.15.69 1.23a8 8 0 0 0 1.4 0l-.46 1.9c-.1-.04-.42.02-1.17.02ZM193.35 36.1a1.24 1.24 0 0 1-1.4-1.17c0-.73.62-1.15 1.4-1.15s1.41.42 1.41 1.15-.62 1.17-1.41 1.17Zm-1.23 1.4h2.48v8h-2.48ZM196.31 41.52c0-2.73 1.85-4.17 4.31-4.17a5.69 5.69 0 0 1 2.59.56l-.21 1.94a4.17 4.17 0 0 0-2.08-.58 2.22 2.22 0 0 0 0 4.44 3.21 3.21 0 0 0 1.91-.67l1 1.71a5.45 5.45 0 0 1-3.12 1c-2.61-.04-4.4-1.52-4.4-4.23ZM209 43.75a3.26 3.26 0 0 0 2.1-.71l1 1.69a5.48 5.48 0 0 1-3.22.94c-2.75 0-4.46-1.62-4.46-4.15a3.94 3.94 0 0 1 4-4.17 3.63 3.63 0 0 1 3.81 3.82 8.27 8.27 0 0 1-.06.94h-5.38a1.88 1.88 0 0 0 2.21 1.64Zm-2.09-3.35h3.28a1.52 1.52 0 0 0-1.6-1.4 1.7 1.7 0 0 0-1.67 1.4ZM216.85 39.19c-.42 0-.82.16-.82.54 0 1.12 4 .65 4 3.36 0 1.58-1.38 2.6-3.28 2.6a7 7 0 0 1-3.52-1.1l1.2-1.59a4.92 4.92 0 0 0 2.33.84c.57 0 .86-.28.86-.65 0-1.21-4-.67-4-3.42 0-1.5 1.17-2.36 3.09-2.36a5.7 5.7 0 0 1 2.82.71l-.36 1.79a5.09 5.09 0 0 0-2.32-.72ZM226.79 41.83c0-1.52-.12-2.46-1.31-2.46S224 40.52 224 42.19v3.36h-2.46V34l2.46-.5v5.36a2.89 2.89 0 0 1 2.43-1.46c2.39 0 2.91 1.48 2.91 4.74v3.44h-2.5ZM232.44 36.1c-.79 0-1.4-.44-1.4-1.17s.61-1.15 1.4-1.15 1.4.42 1.4 1.15-.61 1.17-1.4 1.17Zm-1.23 1.4h2.48v8h-2.48ZM244 41.38c0 2.35-1.37 4.27-3.79 4.27a5.42 5.42 0 0 1-2-.41v2.81l-2.44.52V37.5h2.42v1.41a2.57 2.57 0 0 1 2.35-1.54c2.14 0 3.46 1.63 3.46 4.01Zm-4.06-2c-1 0-1.71 1-1.71 2.91v1a2.94 2.94 0 0 0 1.48.43c1.21 0 1.81-1.06 1.81-2.31s-.52-2.02-1.63-2.02ZM252.88 42.3v3.25H250V33.64h2.88c3.92 0 5.8 1.77 5.8 4.3.04 2.77-1.9 4.31-5.8 4.36Zm.27-6.47h-.25v4.29h.46c1.5 0 2.58-.77 2.58-2.18s-1.17-2.11-2.79-2.11ZM262.88 43v2.57h-2.44v-8h2.44v1.33a2.46 2.46 0 0 1 2.67-1.46c-.06.23-.29 2-.33 2.25-1.79-.13-2.34 1.12-2.34 3.31ZM270.22 45.67a4.15 4.15 0 1 1 4.3-4.11 4 4 0 0 1-4.3 4.11Zm0-6.36a2 2 0 0 0-1.85 2.23 1.88 1.88 0 1 0 3.71 0c-.02-1.4-.85-2.23-1.88-2.23ZM276.19 47.42l1.25-1.7a4.22 4.22 0 0 0 2.21.87 1.68 1.68 0 0 0 1.86-1.9v-1a2.67 2.67 0 0 1-2.36 1.23c-2 0-3.32-1.52-3.32-3.71s1.52-3.86 4.22-3.86a6.13 6.13 0 0 1 3.88 1.32v5.46c0 3.53-1.95 4.44-4.22 4.44a6.4 6.4 0 0 1-3.52-1.15Zm3.67-4.37c1 0 1.65-.9 1.65-2.4v-1a2.91 2.91 0 0 0-1.4-.31 1.78 1.78 0 0 0-1.79 2c0 .95.45 1.71 1.54 1.71ZM288.37 43v2.57h-2.43v-8h2.43v1.33a2.48 2.48 0 0 1 2.68-1.46c-.06.23-.29 2-.33 2.25-1.79-.13-2.35 1.12-2.35 3.31ZM295.66 37.37a5.94 5.94 0 0 1 4 1.42v6.76h-2.44v-1.42a2.6 2.6 0 0 1-2.35 1.56c-2.13 0-3.44-1.62-3.44-4a4 4 0 0 1 4.23-4.32Zm-.19 6.3c1 0 1.71-1 1.71-2.94v-1.06a2.72 2.72 0 0 0-1.43-.36c-1.24 0-1.86 1.07-1.86 2.32s.44 2.04 1.58 2.04ZM310.93 41c0-1-.27-1.61-1.07-1.61-1 0-1.12.92-1.12 2.53v3.65h-2.47V40.9c0-1-.31-1.53-1.1-1.53s-1.11.75-1.11 2.53v3.65h-2.44v-8h2.44v1.21a2.32 2.32 0 0 1 1.59-1.3 3.48 3.48 0 0 1 .79 0 2.09 2.09 0 0 1 1.94 1.44 2.53 2.53 0 0 1 2.3-1.5c1.71 0 2.75 1 2.75 3.44v4.76h-2.5ZM44.64 18.54c0-.14 2.06.06 2.7-.39s2.6-2.7 2.82-2.7-1.16 2.69-.62 3.35 1.37 1.05 1.4 1.19-1.9.12-2.5.53c-.89.6-1.9 1.77-2.13 1.75s.57-1.94 0-2.57-1.65-1.04-1.67-1.16Z"
    transform="translate(-5.86 -7.19)"
  /><path
    class="cls-1"
    d="M12.45 45.66s2.69-12.9 8.66-16.5c1.07-.64-.48 6 3.84 1.49 3.26-3.38 4.81-6 6.09-6.33s-5.27 11.09 2.1 6.6c8.53-5.2 10.34-7.64 12.37-6.91s-2 5.88 3.79 3.68c9.08-3.43 9.62-8.79 11.7-9.52 1.32-.47 2 1 5.88.22s4.45-1.49 7.18-.82c6.29 1.55 4.3 10.36 4.3 10.36s-4.19-9.76-12.8-7.1C53.3 24.61 55.44 31.94 45.83 33c-15.61 1.69-21.1.68-22.89.76-4.7.18-5.94 4.51-10.49 11.9Z"
    transform="translate(-5.86 -7.19)"
  /><path
    class="cls-1"
    d="m12.66 38.78.07-.15C16.25 30.7 23 22 24 23.19c1.51 1.72-2 5.95-.2 5s9.26-15.15 12.86-12.9c1.81 1.14-4.66 7.57-3 8.59s5.8-1 7.78-3.25c5.28-6 7-8.78 13.75-9.86 9.1-1.45-7 10.31-2.48 11.47s5.62-9.52 13.52-9.12c2.53.12-7.78 6.38 2.69 3 3.16-1 6.59-.95 8.25.53 2.93 2.6 4.52 8.74 2.79 11.83A13.74 13.74 0 0 1 90.33 30 41.72 41.72 0 0 0 61 7.81a50.25 50.25 0 0 0-15.83 0c-.54.11-1.08.22-1.62.35a41.65 41.65 0 0 0-30.89 30.62ZM21.46 55.11c-.73-.73-.22-2.62-2.7-2.32a6 6 0 0 0-4.46 3.37c1.07.68 2.21 1.35 3.39 2a.66.66 0 0 0-.13-.36 9.09 9.09 0 0 1-1.43-1.6c.07 0 1.87 1.66 2.83 1.61s.7-.08.78 0-.09.1-.6.25a2.26 2.26 0 0 0-.84.48c.64.35 1.29.69 1.95 1a28.64 28.64 0 0 0 2.23-2.82c0-.21.14-.46-1.02-1.61Zm-2.61 1.54a1.11 1.11 0 1 1 .83-1.34 1.11 1.11 0 0 1-.83 1.34ZM19.85 63.45c1 .74.85 1 1.29 1.35s1.27 1 1.16 1.37-.84.6-.59 1.73c.32 1.38-1.14 2.42-2.4.84 0-.33 0-1.6.23-1.83s.75-.53.68-.58-.66.5-1.22.32a8.67 8.67 0 0 1-.94-.43s.54.35.86.72-.18 1.31-.08 1.65c-.63-.68-1.82-.43-2.16-1.56-.29-2 1.59-3.69 2.05-4.07 0 .04.34-.07 1.12.49Zm-1.4 1.31a.9.9 0 1 0 1.22-.19.88.88 0 0 0-1.22.19ZM90 40.55s-1.79-2.46-2.85-3.83-2.15-3.2-2.25-3.17a4.09 4.09 0 0 0 .3 3.19 10.68 10.68 0 0 0 1.78 2A8.19 8.19 0 0 0 90 40.55ZM89.25 43.77a25.73 25.73 0 0 1-1.47-2.71 5.87 5.87 0 0 0-1.07-1.73c-.23-.29-1.54-1.76-1.53-1.77a3.6 3.6 0 0 0 .69 3.16 10.73 10.73 0 0 0 3.38 3.05Z"
    transform="translate(-5.86 -7.19)"
  /><path
    class="cls-1"
    d="M84.56 37.59a17 17 0 0 1-2.09-5c-.49-2.18-.13-2.42 0-2.44a18.7 18.7 0 0 1 1.86 2.8c.16.59-.59 2.15.17 3.63.31.68.16.94.06 1.01ZM94.69 47.33a7.94 7.94 0 0 1-2.08-1.81c-.13-.2-3.19-2.54-3.17-2.58a9.6 9.6 0 0 0 2.7 3.73A13 13 0 0 0 95 48.42v-.87ZM92.67 45A10.08 10.08 0 0 0 95 47c0-.38 0-.77-.07-1.15-1.07-.42-2.26-.85-2.26-.85ZM92.26 42.58c-1.78-1-4-2.1-4-2.1s.39 1.22 2.62 2.88a9.85 9.85 0 0 0 4 1.71c0-.25 0-.51-.08-.77a27.14 27.14 0 0 0-2.54-1.72ZM81 30.37a5.3 5.3 0 0 0-4.46 3.38 5.38 5.38 0 0 1-.49 2.17c-.42.8.1 1.29.85 1.66 1 .47.55 1.14 1 1.85.24.36 6.09 1.67 6.37 1.44.87-.66-2.65-3.17-3.27-10.5Zm-1 5.51a1.38 1.38 0 1 1 .3-1.88 1.37 1.37 0 0 1-.3 1.88ZM76.36 30.26a6.57 6.57 0 0 0-.26-.61C73 23 64.53 24.54 60.52 32.53c-1.83 3.64-4.4 8.85-4.05 8.71 4.72-1.84 12.15-2 12.56-2.06.2 0 2.51-2.81 4.16-2.11 1.37.59 2.63-2.75 2.65-4.62a3.83 3.83 0 0 0-2.75-3.73 11.67 11.67 0 0 0-4.28-.72 6.53 6.53 0 0 1 7.08 1.74 5.5 5.5 0 0 1 .47.52Zm-7 6.32a9.49 9.49 0 0 1-6.41.59c.75-.1 5.11 0 4.8-1.49-.22-1-1.09-1.46-1-1.61.47-.58 1.46 1.42 3.55 1.24s-.04.81-.97 1.27Zm3-4.72A2 2 0 1 1 70 30.39a2 2 0 0 1 2.32 1.47ZM42.67 42.68c-1.52-.59-4.34-5.55-10.05-.73s.63 19.47 1.62 19c.78-.36-4.15-9.55-.83-16.2-1 3.35-1 7.78.59 10.59.48.83.56-3 1.78-4.31 1.94-2.12 2.77.26 3.88-2.69s4.85-4.94 3.01-5.66ZM38.34 42a1.48 1.48 0 1 1-1.1 1.78 1.49 1.49 0 0 1 1.1-1.78Zm.38 4.57c-1.58.24-1.73 2.33-2.29 2.25-.21 0 1.15-2.34.34-2.94s-1.26-1 .47-.32a5.48 5.48 0 0 0 3 .14c.17.06-.51.68-1.52.83ZM74.75 51.2s.42 2.73 1.34 3.22c2.5 1.35 2.74 2.67 2.74 2.67s.25-3.15-.44-3.86a6.89 6.89 0 0 0-3.64-2.03Z"
    transform="translate(-5.86 -7.19)"
  /><path
    d="M78.59 69.06a11.58 11.58 0 0 0 1.47.39c-1.68-1.06-2.94-4.44-1.54-5.91a10 10 0 0 0 2 2.39c0-1.81 2-2.43 1-5.44 4.37 2.76 2.91 7.85.79 9a4.93 4.93 0 0 0 5-2c1.84-2.73-5.13-12-7.38-14.87-.41-.53-.54-.37-.39.35.39 1.92.93 5.61-.4 7 .29-.3-1.52-3.29-3.22-4.27a2.33 2.33 0 0 0-.74-.28 5.52 5.52 0 0 1 .27.67c1.26 4.15-3.21 10.14-.32 11.66a16.65 16.65 0 0 0 3.46 1.31Z"
    transform="translate(-5.86 -7.19)"
    style="fill-rule:evenodd;fill:#fff"
  /><path
    class="cls-1"
    d="M66.19 56.9c.82-.59 4-1.59 4.72-1.16 3 1.67 1.87 2.62 1.87 2.62.18.18 1.44-.37.94-2.56a4.82 4.82 0 0 0-3.26-3.68c-3.11-1.32-7.71-1.3-9.16-.62 1.12 1.27 2.26 4.26 4.89 5.4Zm3.18-3.36a1.06 1.06 0 1 1-1.06-1.06 1.05 1.05 0 0 1 1.06 1.06Z"
    transform="translate(-5.86 -7.19)"
  /><path
    class="cls-1"
    d="M64.84 57.05c-4.35-2.33-2.06-7.42-9.25-4C48 56.59 45.54 66.3 45.68 66.41s3.38-3.36 6.46-5.29c.2-.13 2.74-3.81 2.74-3.81s-.73 1.95-1.06 2.89a20.2 20.2 0 0 1 2-.85c.17-.23.31-.45.42-.63.75-1.29 1.66-3.25 1.66-3.25a34.43 34.43 0 0 0-.82 3.53c6.24-2.45 9.74-.89 7.76-1.95ZM72 67.53s-.5.87-1 .76a6.42 6.42 0 0 1 .39-2.43c.29-.15.91-.07 1 .39a2.73 2.73 0 0 1-.39 1.28Z"
    transform="translate(-5.86 -7.19)"
  /><path
    class="cls-1"
    d="M70.88 65.6c-.22-.71-2.52-2.46-5-3.61-2.09-1-1-3.4-3.12-3.16-1.21.13-3.08 2.49-3.84 4.93a2.89 2.89 0 0 1-2.92 2 10.61 10.61 0 0 0 2.25-2c.73-1 .78-2.08-.68-1.93a20.39 20.39 0 0 0-7.26 2.85c-3.87 2.48-5.14 3.21-4.94 3.3s7.37 0 12.29.41 6.7.59 8.66.41c1-.1 3.89-.3 3.89-.3s.89-2.19.67-2.9Zm-8.94-4.43c-.26 0 .24-1.46.87-1.56s.91.62 1 1.14-1.62.45-1.87.42Zm4.23 3.53a1.46 1.46 0 1 1-1.46-1.46 1.45 1.45 0 0 1 1.46 1.46ZM74.59 76.62c-5.89-.35-7.15-.48-10.26-.65-3.41-.19-11.85-1.21-12-1s4.33 1.76 6.79 3.35c2.92 1.88 6.26 4.31 10.5 3.19.21 0-2-3.59 1.36-3.12.35 0-3.62 4.27 3.74 2.59 2-.45 3.6-2.68 4.49-1.84.67-.59-1.44-2.33-4.62-2.52Zm-.25 3.47a1 1 0 0 1-1.2-.78 1 1 0 0 1 .8-1.16 1 1 0 0 1 1.2.78 1 1 0 0 1-.8 1.16Z"
    transform="translate(-5.86 -7.19)"
  /><path
    class="cls-1"
    d="M76.93 81.44c-.3 0-1.21.82-1.73.71a1.17 1.17 0 0 1-.87-.54c-.14-.07-4 1.19-4 1.19a6.91 6.91 0 0 1-3.67.09c-3.08-1.08-4.86-2-4.88-1.6s4.2 2 3.79 3.2c-.61 1.77-1.54 3.1-.25 2.72 1-.3 4.29-3.08 5.65-4.26a12 12 0 0 0 3.86.3c1.41-.18 2.41-1.82 2.1-1.81ZM54.82 85.92a1.42 1.42 0 0 0-1.08 0c-.29.11-.68.61-.13 1.25a1.4 1.4 0 0 1 0 1.6c-.29.35-.79.73-.54.77a3 3 0 0 0 2.4-1.68 2.08 2.08 0 0 0-.65-1.94ZM56.47 85.36c-.19.08-.61.31-.42.62a5 5 0 0 1 .79 1.15 1.78 1.78 0 0 1-.16 1.72c-.26.33-.6.63-.36.63a2.93 2.93 0 0 0 .62-.29c1.31-.82 1.87-2.86.47-3.78a1 1 0 0 0-.94-.05ZM52.3 86a.93.93 0 0 0-.93-.31c-.5 0-.65.47-.61.55a2.29 2.29 0 0 1-.56 2.61 6.7 6.7 0 0 1-.69.37c0 .1.13.11.21.08A3.15 3.15 0 0 0 52 87.7c.44-.7.61-1.31.3-1.7ZM60 84.68a1.61 1.61 0 0 0-1.29-.18c-.52.16-1 .58-.41.82a2.45 2.45 0 0 1 1.7 1.82c.18.54.1.88.24.87a1.29 1.29 0 0 0 .42-.6 2.28 2.28 0 0 0-.66-2.73ZM51.48 80.52c1.25 2-2.54 2.3-2.62 3.2s1.89 1.28 4.84 1.19 4.7-1.62 4.78-2.52c0-.49-2.53-1.79-4.61-2.43a6.72 6.72 0 0 1 3.31.36c-3.63-4-9.3-6.29-12.4-7.17-.37.13-.21 3.89-.13 4.19l.69-.82c.41-.49.78-.5.34 0-.86 1.09-.85 2.46-.54 1.89A7.75 7.75 0 0 1 46.45 77a9 9 0 0 1-.61 1c-.46.67-.84 2.46-.45 1.66a10.88 10.88 0 0 1 1.22-1.8 11.4 11.4 0 0 0-.81 3c0 1.63.42-1.26 1.44-2.34.1.09-1.53 3.8-.13 4.74 1 .48 1.62-.91 2.4-1.59a6.81 6.81 0 0 1 1.97-1.15ZM59.53 72.36c.18-2 3-1.66 6.34-1.48 3.09.16 25.92.49 27.3.59 1.78.14.45 4.21-2.3 4.17-7.09-.13-25.93-1.07-26.65-1.14-2.52-.26-4.85-.39-4.69-2.14ZM13.75 55.81c1.35-2.23 3.33-3.78 6.36-3.19A3.5 3.5 0 0 0 19 52c-4.41-1-7 .59-5.94 3.33ZM24.93 43.28c-7.53-1.85-12.45 8.72-9.78 7.66a4.89 4.89 0 0 1 3.26-.15c1.34.13 2.65.3 2.8.1A8.59 8.59 0 0 1 25.38 48c.1-.2.24-.37-.26-2-.38-1.31.88-2.39-.19-2.72Zm-3.67 5.37a1.7 1.7 0 0 1-1.64-.76c-.49-.59-.57-1-.46-1.06a4.61 4.61 0 0 0 2.11 1.08 16.06 16.06 0 0 0 2.18.15 5.77 5.77 0 0 1-2.19.59Zm.93-1.24a1.32 1.32 0 0 1-.35-2.62 1.33 1.33 0 0 1 1.48 1.14 1.31 1.31 0 0 1-1.13 1.48Z"
    transform="translate(-5.86 -7.19)"
  /><path
    class="cls-1"
    d="M19.17 40.92c-4.65 1.56-6.16 5.6-6.61 10.2s.73.36.73.36A18.09 18.09 0 0 1 16.63 45a.94.94 0 0 1-.21-.48 1.08 1.08 0 0 1 .76-1.31 1.84 1.84 0 0 1 1.28.18l.11-.07c3.77-2.32 6.6-1 6.6-1a6 6 0 0 0-6-1.4ZM13 59.77q.49 1.81 1.14 3.54c1.48-1.39 2.07-1.68.9-2.41-.38-.21-1.14-.63-2.04-1.13ZM14.67 64.18a1.83 1.83 0 0 0-.13.24c.42 1 .87 2 1.36 3-.26-2.39.08-3.4.65-3.29.41.08.34.49.37.41a3.81 3.81 0 0 1 1.75-1.75s-2.81-.72-4 1.39ZM89.27 31.67c-3.63-1.75-4.71-1.78-5.88-1.63 0 0 2.81 3.48 5.84 7.78a19.55 19.55 0 0 0 5 4.55c-.16-1.07-.37-2.14-.62-3.21-.33-1.38-.72-2.74-1.17-4a9.57 9.57 0 0 0-3.17-3.49ZM53.48 33.19c-8.09 1.91-17.62.42-24.35 8.27-3.95 4.61-5.36 18.9-5.23 24.16.09 3.74-.29 5.21.22 5.28s1-4.66 1.26-4.6.61 3.21 1.05 4.83c.28 1 .5.7.57-2.52 0-1.21-.22-2.4.06-2.45.48-.08.27 0 1 1.72 1.11 2.75 2.19 4.3 1.17.07-.78-3.21-.62-3.53.59-1.4 2.69 4.76 2.68 3.24 1.67.58-1.12-3-1.32-6-.17-4.61 2.5 2.95 2.21 1.95-.67-3.75C28 53.52 27.41 41.7 35.21 39c4.89-1.7 9.78 1.87 12.2.7 3.59-1.76 6.32-6.57 6.07-6.51Z"
    transform="translate(-5.86 -7.19)"
  /><path
    class="cls-1"
    d="M62 24.09C52.28 30.2 57.26 35 48.35 40.91 40.23 46.32 35.6 59.07 36.59 59.3s5.55-13.22 18-17.45A62 62 0 0 1 61.63 29c5.2-7.34 11.95-2.73 12.91-3.27 0-.02-6.04-5.67-12.54-1.64ZM51.26 40.74c0 .07 0 .31-.54.76a5.17 5.17 0 0 1-1.61.77 16.31 16.31 0 0 0-2.21.73c1.1-1.28 4.33-2.26 4.36-2.26Zm-6.15 4.69A12.1 12.1 0 0 1 48.46 43a11 11 0 0 1 1.48-.21c-.05.13-2.37 1.36-4.83 2.64Zm8.08-4.62a5.15 5.15 0 0 1-2.58 1.74 6 6 0 0 1 .61-.8 3.65 3.65 0 0 1 1.22-1.41c.51-.31 1.51-1.11 1.5-1a13.07 13.07 0 0 1-.75 1.47Zm1.07-2.59a3.72 3.72 0 0 1-.35.45 3.87 3.87 0 0 1-.54.5c-.1.07-.55.33-.66.39l-1.77.8a10.64 10.64 0 0 1 2.09-2c.86-.52 1.7-2.27 1.85-2.41a10.61 10.61 0 0 1-.62 2.27ZM32.7 72.32c-.73 0-.12 3.24-.5 3.33-.62.15-.84-4.7-1.41-4.48-.91.35.59 4.8-.52 5-.46.07-.74-5.08-1.68-4.61-.59.29 1 5 .1 5.06-1.2.15-.56-4.18-1.45-4S26.81 77.43 26 77s-.13-5-.71-4a28.57 28.57 0 0 0-.8 3.15c-1.88-1.53-4.9-4.17-6-4.8a3.74 3.74 0 0 1 1.28.56c1.13.84 3.63 2.28 3.63 2.28s-2-3.43-3.21-4.32a12.53 12.53 0 0 0-3.7-1.3c.5.92 1 1.81 1.59 2.68.45.69.91 1.37 1.4 2a72.94 72.94 0 0 0 7.86 8.13c.61.47 1.22.93 1.85 1.37 1 .6 1.77.86 2.24.56 3.11-1.91 2.19-11.06 1.27-10.99ZM23.14 62.22c-5.39-2.57-12-6.44-15.57-8.68-2.28-1.43-2 .58-.75 1.41a165.3 165.3 0 0 0 16.05 9c.07-.54.18-1.2.27-1.73ZM42 66.68a23.27 23.27 0 0 1 6.11-11 28.39 28.39 0 0 1 19.43-8c17.87-.56 22.84 13.88 22 21.29a41.79 41.79 0 0 0 3.81-9.37c-3.1-6.8-10.21-15.52-26.5-14.4a30.89 30.89 0 0 0-20.36 9.65 29.17 29.17 0 0 0-7.08 11.39c.83.15 1.68.3 2.59.44ZM41.3 77.68a34 34 0 0 1-.1-6.26l-2.93-.73a29.94 29.94 0 0 0-.2 8.35 22 22 0 0 0 3.48 9.68A40 40 0 0 0 47.72 90a19.85 19.85 0 0 1-6.42-12.32Z"
    transform="translate(-5.86 -7.19)"
  /><path
    class="cls-1"
    d="M67.35 41.15a34 34 0 0 0-22.95 11 33.14 33.14 0 0 0-8.1 13.41c.68.17 1.38.33 2.08.48a31.05 31.05 0 0 1 7.82-12.97 33.42 33.42 0 0 1 22.5-10c14.6-.35 21.83 8.65 25 14.78a41 41 0 0 0 .93-6.27C91.35 46 84 40.23 67.35 41.15ZM37.29 78.49a32.25 32.25 0 0 1 .12-8l-2.18-.57a34.47 34.47 0 0 0-.23 9.83 25.77 25.77 0 0 0 1.93 7.32q1.61.69 3.27 1.23a26.37 26.37 0 0 1-2.91-9.81ZM57.75 72a2.07 2.07 0 0 1 .3-1.18 97.39 97.39 0 0 1-17.69-2.62c-2.75-.71-5.34-1.51-7.79-2.36.29.7.58 1.58.77 2.22q3 1 6.28 2a101.62 101.62 0 0 0 18.81 3.3 1.69 1.69 0 0 1-.68-1.36ZM20.89 39.46c1.26-2.76 3-4.74 6.6-4.45a4.2 4.2 0 0 0-1.35-.54c-4.63-.26-7.84 2.13-8.95 5.94a9.6 9.6 0 0 1 3.7-.95Z"
    transform="translate(-5.86 -7.19)"
  /><path
    class="cls-1"
    d="M28.66 37.76c-.65-.65.18-2.35-2-2.08a6.1 6.1 0 0 0-4.79 3.8 32.41 32.41 0 0 1 3.39.85c.18-.3-.22-.64-.42-.82-1.78-1.6-.4-.82.89-.07a3.1 3.1 0 0 0 2 .1 3.29 3.29 0 0 1-1.6.53c-.42 0-.57 0-.81.27.59.16 1.12.31 2.08.52.51.11.73-.43 1.16-.85.6-.58 1.1-.84 1.1-.92s.03-.31-1-1.33Zm-1.94 1.35a1 1 0 0 1-.45-1.93 1 1 0 0 1 .45 1.93ZM69.91 59.34a12.73 12.73 0 0 0 .75 3.42c.21.56 1.84 1.15 2.2 1.16.59 0 .86-2.06.29-2.53a10.4 10.4 0 0 0-3.24-2.05Z"
    transform="translate(-5.86 -7.19)"
  /></svg>
