<svg width="634" height="171" fill="none" xmlns="http://www.w3.org/2000/svg"><path d="M223.942 98.992c-1.299 0-2.061.64-2.061 2.353v1.899h3.442v3.716h-3.442v12.862h-5.071V106.96h-3.092l.989-3.798h2.062v-1.9c0-4.851 2.7-6.358 6.183-6.358 1.216.027 2.426.187 3.608.475l-.68 3.819a8.233 8.233 0 0 0-1.938-.206ZM234.949 120.132a8.554 8.554 0 0 1-7.671-5.531 8.578 8.578 0 0 1 2.098-9.231 8.544 8.544 0 0 1 13.075 1.531 8.577 8.577 0 0 1 1.382 4.746 8.25 8.25 0 0 1-2.551 6.228 8.232 8.232 0 0 1-6.333 2.257Zm0-13.13a4.114 4.114 0 0 0-3.654 2.953 4.144 4.144 0 0 0-.139 1.65c0 2.932 1.732 4.522 3.793 4.522a3.96 3.96 0 0 0 3.855-4.48c-.042-2.932-1.753-4.687-3.896-4.687l.041.042ZM252.058 114.578v5.326h-5.03v-16.515h5.03v2.725a5.158 5.158 0 0 1 2.241-2.443 5.141 5.141 0 0 1 3.263-.571c-.103.474-.577 4.129-.66 4.645-3.69-.227-4.844 2.353-4.844 6.833ZM268.672 95.316h5.772v24.588h-5.772V95.316ZM289.966 110.862c0-2.415-.742-3.737-2.68-3.737-1.937 0-3.174 1.9-3.174 4.996v7.783h-5.071v-16.515h5.071v2.725a5.847 5.847 0 0 1 4.947-3.014c4.123 0 6.06 2.394 6.06 7.494v9.414h-5.153v-9.146ZM298.128 111.894c0-4.851 2.907-8.856 7.895-8.856 1.364.023 2.709.318 3.958.867v-7.887l5.071-1.073v24.959h-5.03v-2.911a5.363 5.363 0 0 1-4.885 3.18c-4.349 0-7.009-3.324-7.009-8.279Zm8.246 4.129c2.061 0 3.566-2.064 3.566-6.069v-2.065a5.256 5.256 0 0 0-2.969-.929c-2.494 0-3.813 2.23-3.813 4.81 0 2.581 1.031 4.232 3.298 4.232l-.082.021ZM321.669 100.375c-1.629 0-2.907-.909-2.907-2.416s1.278-2.374 2.907-2.374c1.628 0 2.886.867 2.886 2.374a2.556 2.556 0 0 1-2.886 2.416Zm-2.536 2.91h5.112v16.516h-5.112v-16.516ZM328.327 123.744l2.556-3.489a8.88 8.88 0 0 0 4.556 1.776 3.463 3.463 0 0 0 3.854-3.923v-2.064a5.584 5.584 0 0 1-4.885 2.539c-4.123 0-6.844-3.138-6.844-7.659s3.134-7.969 8.72-7.969c2.9-.023 5.722.945 7.998 2.746v11.251c0 7.308-4.123 9.166-8.72 9.166a12.864 12.864 0 0 1-7.235-2.374Zm7.545-9.001c2.061 0 3.421-1.858 3.421-4.955V107.6a6.365 6.365 0 0 0-2.906-.64 3.666 3.666 0 0 0-3.532 2.583 3.678 3.678 0 0 0-.137 1.546c0 2.064.907 3.654 3.154 3.654ZM356.897 116.168a6.655 6.655 0 0 0 4.308-1.466l2.185 3.489a11.202 11.202 0 0 1-6.658 1.94c-5.648 0-9.173-3.323-9.173-8.567a8.125 8.125 0 0 1 .487-3.288 8.125 8.125 0 0 1 7.758-5.321 7.493 7.493 0 0 1 5.667 2.214 7.511 7.511 0 0 1 2.166 5.693c0 .991-.103 1.941-.103 1.941h-11.09c.186 2.291 2.103 3.365 4.453 3.365Zm-4.309-6.896h6.762a3.133 3.133 0 0 0-3.319-2.849 3.483 3.483 0 0 0-3.504 2.849h.061ZM377.716 110.862c0-2.415-.763-3.737-2.7-3.737-1.938 0-3.175 1.9-3.175 4.996v7.783h-5.07v-16.515h5.07v2.725a5.932 5.932 0 0 1 4.968-3.014c4.123 0 6.04 2.394 6.04 7.494v9.414h-5.133v-9.146ZM394.784 120.131a8.541 8.541 0 0 1-4.674-1.598 8.565 8.565 0 0 1-3.36-8.853 8.57 8.57 0 0 1 2.433-4.304 8.55 8.55 0 0 1 9.309-1.669 8.56 8.56 0 0 1 5.156 7.939 8.257 8.257 0 0 1-5.464 8.026 8.226 8.226 0 0 1-3.4.459Zm0-13.13a4.13 4.13 0 0 0-2.879 1.491 4.126 4.126 0 0 0-.914 3.113c0 2.932 1.732 4.521 3.793 4.521a3.93 3.93 0 0 0 2.923-1.376 3.947 3.947 0 0 0 .911-3.104c-.041-2.931-1.731-4.686-3.875-4.686l.041.041ZM411.81 112.369c0 2.415.639 3.716 2.618 3.716 1.979 0 3.133-1.858 3.133-4.996v-7.804h5.071v16.516h-5.071v-2.519a5.623 5.623 0 0 1-4.905 2.973c-4.515 0-5.978-2.663-5.978-8.65v-8.258h5.132v9.022ZM432.568 106.774c-.866 0-1.69.31-1.69 1.115 0 2.292 8.245 1.342 8.245 6.937 0 3.241-2.845 5.347-6.782 5.347a14.723 14.723 0 0 1-7.235-2.251l2.412-3.385a9.894 9.894 0 0 0 4.803 1.755c1.175 0 1.772-.599 1.772-1.342 0-2.498-8.245-1.404-8.245-7.061 0-3.097 2.432-4.893 6.39-4.893a11.73 11.73 0 0 1 5.813 1.466l-.742 3.696a10.5 10.5 0 0 0-4.741-1.384ZM456.727 113.153v6.71h-5.854V95.316h5.936c8.081 0 11.956 3.634 11.956 8.878 0 5.718-3.999 8.959-12.038 8.959Zm.556-13.357h-.515v8.836h.948c3.092 0 5.318-1.589 5.318-4.48 0-2.89-2.411-4.314-5.751-4.314v-.042ZM479.937 116.168a6.719 6.719 0 0 0 4.329-1.466l2.185 3.489a11.246 11.246 0 0 1-6.658 1.94c-5.669 0-9.194-3.323-9.194-8.567a8.276 8.276 0 0 1 2.288-6.068 8.248 8.248 0 0 1 5.958-2.541 7.491 7.491 0 0 1 5.666 2.214 7.538 7.538 0 0 1 2.167 5.693 17.247 17.247 0 0 1-.124 1.941h-11.09a3.894 3.894 0 0 0 1.52 2.638 3.881 3.881 0 0 0 2.953.727Zm-4.308-6.896h6.782a3.16 3.16 0 0 0-3.34-2.849 3.48 3.48 0 0 0-3.442 2.849ZM498.097 120.131a8.54 8.54 0 0 1-4.673-1.598 8.577 8.577 0 0 1-.928-13.157 8.544 8.544 0 0 1 13.082 1.522 8.579 8.579 0 0 1 1.383 4.748 8.264 8.264 0 0 1-5.463 8.026 8.23 8.23 0 0 1-3.401.459Zm0-13.13a4.133 4.133 0 0 0-2.892 1.484 4.13 4.13 0 0 0-.921 3.12 3.893 3.893 0 0 0 .869 3.143 3.876 3.876 0 0 0 5.909 0 3.884 3.884 0 0 0 .87-3.143c-.042-2.89-1.753-4.645-3.876-4.645l.041.041ZM527.079 111.296c0 4.831-2.803 8.794-7.791 8.794a11.382 11.382 0 0 1-4.123-.825v5.78l-5.03 1.074v-22.833h4.989v2.89a5.256 5.256 0 0 1 4.823-3.179c4.515 0 7.132 3.344 7.132 8.299Zm-8.348-4.129c-2.061 0-3.525 2.064-3.525 6.028v2.065a6.329 6.329 0 0 0 3.051.867c2.494 0 3.71-2.065 3.71-4.749 0-2.683-.907-4.211-3.236-4.211ZM530.295 95.977l5.071-1.032v24.959h-5.071V95.977ZM547.919 116.168a6.655 6.655 0 0 0 4.309-1.466l2.184 3.489a11.197 11.197 0 0 1-6.658 1.94c-5.648 0-9.172-3.323-9.172-8.567a8.258 8.258 0 0 1 8.245-8.609 7.491 7.491 0 0 1 5.667 2.214 7.511 7.511 0 0 1 2.166 5.693c0 .991-.103 1.941-.103 1.941h-11.09c.247 2.291 2.164 3.365 4.452 3.365Zm-4.308-6.896h6.761a3.134 3.134 0 0 0-3.318-2.849 3.491 3.491 0 0 0-3.443 2.849ZM563.874 106.774c-.866 0-1.69.31-1.69 1.115 0 2.292 8.245 1.342 8.245 6.937 0 3.241-2.845 5.347-6.761 5.347a14.734 14.734 0 0 1-7.256-2.251l2.494-3.385a9.894 9.894 0 0 0 4.803 1.755c1.175 0 1.773-.599 1.773-1.342 0-2.498-8.245-1.404-8.245-7.061 0-3.097 2.411-4.893 6.369-4.893a11.733 11.733 0 0 1 5.813 1.466l-.742 3.696a10.506 10.506 0 0 0-4.803-1.384ZM216.17 54.605h5.855v24.588h-5.855V54.605ZM236.722 79.193h-5.793V59.126h-5.957l1.072-4.521h16.202v4.521h-5.524v20.067ZM271.29 79.193l-1.855-3.964h-9.75l-1.732 3.964h-6.369l12.553-25.228h.949l12.553 25.228h-6.349Zm-9.935-8.134h6.41l-3.195-7.122-3.215 7.122ZM296.644 70.584c0 4.852-2.803 8.816-7.792 8.816a11.157 11.157 0 0 1-4.122-.847v5.801l-5.03 1.074V62.574h5.05v2.911a5.23 5.23 0 0 1 4.824-3.18c4.452 0 7.07 3.366 7.07 8.28Zm-8.348-4.129c-2.061 0-3.525 2.065-3.525 6.008v2.064c.92.563 1.973.87 3.051.888 2.494 0 3.71-2.188 3.71-4.769 0-2.58-.907-4.17-3.236-4.17v-.02ZM316.969 70.584c0 4.852-2.824 8.816-7.812 8.816a11.303 11.303 0 0 1-4.123-.847v5.801l-5.03 1.074V62.574h4.989v2.911a5.298 5.298 0 0 1 4.844-3.18c4.514 0 7.132 3.366 7.132 8.28Zm-8.369-4.129c-2.061 0-3.525 2.065-3.525 6.008v2.064c.92.563 1.973.87 3.051.888 2.494 0 3.731-2.188 3.731-4.769 0-2.58-.907-4.17-3.257-4.17v-.02ZM325.4 73.929v5.305h-5.03V62.72h5.03v2.745a5.094 5.094 0 0 1 5.503-3.014c-.123.475-.597 4.13-.659 4.645-3.69-.268-4.844 2.312-4.844 6.834ZM340.963 75.477a6.711 6.711 0 0 0 4.328-1.466l2.062 3.489a11.285 11.285 0 0 1-6.638 1.94c-5.668 0-9.193-3.344-9.193-8.567a8.128 8.128 0 0 1 .487-3.288 8.126 8.126 0 0 1 7.758-5.32 7.468 7.468 0 0 1 5.68 2.191 7.509 7.509 0 0 1 2.174 5.694 17.244 17.244 0 0 1-.124 1.941h-11.09a3.89 3.89 0 0 0 1.542 2.686 3.872 3.872 0 0 0 3.014.7Zm-4.309-6.916h6.762a3.131 3.131 0 0 0-3.319-2.89 3.504 3.504 0 0 0-3.443 2.89ZM362.05 70.15c0-2.415-.763-3.716-2.7-3.716-1.938 0-3.175 1.9-3.175 4.996v7.763h-5.071V62.677h5.071v2.746a5.857 5.857 0 0 1 4.948-3.014c4.122 0 6.06 2.374 6.06 7.494v9.393h-5.133V70.15ZM377.655 79.4c-4.515 0-6.02-2.065-6.02-6.586v-6.338h-3.092l.99-3.902h2.061v-3.53l5.112-1.074v4.604h3.876v3.902h-3.876v6.42c0 1.734.309 2.374 1.423 2.54.96.084 1.925.084 2.885 0l-.948 3.922c-.206-.083-.866.041-2.411.041ZM386.477 59.684a2.55 2.55 0 0 1-2.622-1.4 2.568 2.568 0 0 1-.264-1.016c0-1.507 1.278-2.374 2.886-2.374s2.906.867 2.906 2.374c0 1.507-1.278 2.416-2.906 2.416Zm-2.536 2.89h5.112V79.09h-5.112V62.574ZM392.578 70.873c0-5.636 3.814-8.608 8.884-8.608 1.846-.041 3.675.355 5.339 1.156l-.433 4.005a8.582 8.582 0 0 0-4.287-1.198 4.572 4.572 0 0 0-3.236 1.343 4.587 4.587 0 0 0 0 6.481 4.572 4.572 0 0 0 3.236 1.343 6.61 6.61 0 0 0 3.937-1.384l2.061 3.53a11.22 11.22 0 0 1-6.431 2.065c-5.38-.082-9.07-3.138-9.07-8.733ZM418.737 75.477a6.711 6.711 0 0 0 4.328-1.466l2.062 3.489a11.285 11.285 0 0 1-6.638 1.94c-5.668 0-9.193-3.344-9.193-8.567a8.128 8.128 0 0 1 .487-3.288 8.126 8.126 0 0 1 7.758-5.32 7.468 7.468 0 0 1 5.68 2.191 7.509 7.509 0 0 1 2.174 5.694 17.244 17.244 0 0 1-.124 1.941h-11.09a3.872 3.872 0 0 0 1.542 2.686 3.872 3.872 0 0 0 3.014.7Zm-4.309-6.916h6.762a3.132 3.132 0 0 0-3.299-2.89 3.5 3.5 0 0 0-2.244.82 3.512 3.512 0 0 0-1.198 2.07h-.021ZM434.918 66.063c-.866 0-1.691.33-1.691 1.115 0 2.312 8.246 1.342 8.246 6.937 0 3.261-2.845 5.367-6.762 5.367a14.412 14.412 0 0 1-7.255-2.27l2.473-3.283a10.133 10.133 0 0 0 4.803 1.734c1.175 0 1.773-.578 1.773-1.342 0-2.498-8.246-1.383-8.246-7.06 0-3.097 2.412-4.873 6.37-4.873a11.737 11.737 0 0 1 5.813 1.466l-.742 3.696a10.483 10.483 0 0 0-4.782-1.487ZM455.407 71.513c0-3.138-.247-5.078-2.7-5.078-2.453 0-3.051 2.374-3.051 5.822v6.936h-5.071V55.35l5.071-1.033v11.066a5.964 5.964 0 0 1 5.009-3.014c4.927 0 5.999 3.055 5.999 9.785v7.102h-5.154l-.103-7.742ZM467.054 59.684c-1.629 0-2.886-.909-2.886-2.416s1.257-2.374 2.886-2.374c1.628 0 2.886.867 2.886 2.374 0 1.507-1.258 2.416-2.886 2.416Zm-2.536 2.89h5.112V79.09h-5.112V62.574ZM490.883 70.584c0 4.852-2.824 8.816-7.813 8.816a11.157 11.157 0 0 1-4.122-.847v5.801l-5.03 1.074V62.574h4.988v2.911a5.292 5.292 0 0 1 4.844-3.18c4.412 0 7.133 3.366 7.133 8.28Zm-8.369-4.129c-2.062 0-3.525 2.065-3.525 6.008v2.064c.92.563 1.973.87 3.051.888 2.494 0 3.731-2.188 3.731-4.769 0-2.58-1.072-4.17-3.36-4.17l.103-.02ZM509.187 72.483v6.71h-5.937V54.605h5.937c8.08 0 11.956 3.654 11.956 8.877.082 5.719-3.917 8.898-11.956 9.001Zm.557-13.357h-.516v8.857h.949c3.091 0 5.318-1.59 5.318-4.5 0-2.912-2.412-4.357-5.751-4.357ZM529.8 73.928v5.306h-5.029V62.72h5.029v2.745a5.079 5.079 0 0 1 2.231-2.461 5.064 5.064 0 0 1 3.273-.553c-.124.475-.598 4.129-.68 4.645-3.69-.268-4.824 2.312-4.824 6.834ZM544.93 79.441a8.545 8.545 0 0 1-4.673-1.598 8.569 8.569 0 0 1-3.361-8.853 8.57 8.57 0 0 1 2.433-4.304 8.552 8.552 0 0 1 9.309-1.67 8.555 8.555 0 0 1 3.773 3.192 8.578 8.578 0 0 1 1.383 4.748 8.26 8.26 0 0 1-5.463 8.026 8.24 8.24 0 0 1-3.401.459Zm0-13.13a4.123 4.123 0 0 0-3.813 4.604 3.894 3.894 0 0 0 .869 3.142 3.882 3.882 0 0 0 2.955 1.37 3.875 3.875 0 0 0 3.823-4.512c-.041-2.89-1.752-4.604-3.875-4.604h.041ZM557.236 83.053l2.577-3.51a8.692 8.692 0 0 0 4.555 1.797 3.46 3.46 0 0 0 3.694-2.36 3.48 3.48 0 0 0 .14-1.563v-2.064a5.506 5.506 0 0 1-4.864 2.54c-4.123 0-6.844-3.139-6.844-7.66 0-4.521 3.133-7.969 8.699-7.969a12.625 12.625 0 0 1 7.998 2.725v11.272c0 7.288-4.02 9.167-8.699 9.167a13.18 13.18 0 0 1-7.256-2.374Zm7.565-9.021c2.062 0 3.401-1.858 3.401-4.955v-2.064a5.988 5.988 0 0 0-2.885-.64 3.663 3.663 0 0 0-2.783 1.223 3.665 3.665 0 0 0-.907 2.905c0 1.962.927 3.53 3.174 3.53ZM582.343 73.928v5.306h-5.009V62.718h5.009v2.746a5.12 5.12 0 0 1 2.245-2.459 5.105 5.105 0 0 1 3.28-.555c-.124.475-.598 4.129-.68 4.645-3.69-.268-4.845 2.312-4.845 6.834ZM597.371 62.306c3.015-.073 5.951.97 8.245 2.931v13.956h-5.03v-2.931a5.364 5.364 0 0 1-4.844 3.22c-4.39 0-7.091-3.344-7.091-8.258a8.271 8.271 0 0 1 2.326-6.453 8.246 8.246 0 0 1 6.394-2.465Zm-.392 13.006c2.061 0 3.525-2.064 3.525-6.07v-2.188a5.603 5.603 0 0 0-2.948-.743c-2.556 0-3.834 2.209-3.834 4.79 0 2.58.907 4.211 3.257 4.211ZM628.847 69.8c0-2.065-.557-3.324-2.206-3.324-2.061 0-2.309 1.9-2.309 5.223v7.535h-5.091v-9.64c0-2.065-.639-3.16-2.268-3.16-1.628 0-2.288 1.549-2.288 5.224v7.535h-5.029V62.677h5.029v2.498a4.794 4.794 0 0 1 3.278-2.683 7.16 7.16 0 0 1 1.628 0 4.303 4.303 0 0 1 3.999 2.972 5.223 5.223 0 0 1 4.741-3.096c3.525 0 5.669 2.064 5.669 7.101v9.827h-5.153V69.8ZM79.938 23.432c0-.29 4.246.124 5.566-.805 1.319-.93 5.359-5.574 5.813-5.574.453 0-2.392 5.553-1.278 6.916 1.113 1.362 2.823 2.167 2.885 2.456.062.29-3.916.248-5.153 1.095-1.835 1.238-3.916 3.654-4.39 3.612-.475-.04 1.174-4.005 0-5.305-1.176-1.3-3.402-2.147-3.443-2.395Z" fill="#fff"/><path d="M13.584 79.42s5.545-26.632 17.851-34.064c2.206-1.321-.99 12.387 7.915 3.076 6.72-6.977 9.915-12.387 12.554-13.068 2.638-.681-10.863 22.895 4.329 13.626C73.816 38.254 77.547 33.217 81.73 34.724c4.185 1.507-4.122 12.14 7.813 7.598 18.716-7.082 19.829-18.147 24.117-19.654 2.721-.97 4.123 2.064 12.121.454s9.172-3.076 14.8-1.693c12.966 3.2 8.864 21.388 8.864 21.388s-8.637-20.15-26.385-14.658c-25.272 7.804-20.861 22.937-40.67 25.125-32.177 3.489-43.494 1.404-47.184 1.569-9.688.371-12.244 9.31-21.623 24.567Z" fill="#fff"/><path d="m14.017 65.216.144-.31c7.256-16.37 21.17-34.331 23.231-31.875 3.113 3.551-4.122 12.284-.412 10.323 3.71-1.962 19.088-31.277 26.509-26.632 3.73 2.354-9.606 15.628-6.184 17.734 3.422 2.106 11.955-2.065 16.037-6.71C84.226 15.36 87.772 9.62 101.685 7.391c18.758-2.994-14.43 21.284-5.112 23.68 9.317 2.394 11.585-19.655 27.869-18.829 5.215.248-16.037 13.171 5.545 6.194 6.514-2.065 13.584-1.962 17.006 1.094 6.039 5.367 9.317 18.043 5.751 24.422a28.286 28.286 0 0 1 21.376 3.138 86.11 86.11 0 0 0-24.917-29.937A85.936 85.936 0 0 0 113.661 1.28a103.424 103.424 0 0 0-32.63 0 85.818 85.818 0 0 0-44.07 23.344 86.018 86.018 0 0 0-22.944 40.593ZM32.157 98.93c-1.505-1.508-.454-5.41-5.566-4.79a12.358 12.358 0 0 0-5.455 2.34 12.382 12.382 0 0 0-3.738 4.617 130.167 130.167 0 0 0 6.987 4.129 1.363 1.363 0 0 0-.268-.743 18.793 18.793 0 0 1-2.947-3.303c.144 0 3.854 3.427 5.833 3.323 1.98-.103 1.443-.165 1.608 0 .165.166-.186.207-1.237.517a4.66 4.66 0 0 0-1.731.99c1.319.723 2.659 1.425 4.02 2.065a59.091 59.091 0 0 0 4.596-5.822c0-.433.289-.95-2.102-3.324Zm-5.38 3.179a2.29 2.29 0 1 1 1.041-3.913 2.293 2.293 0 0 1-1.042 3.913ZM28.838 116.147c2.061 1.528 1.752 2.064 2.659 2.787.907.722 2.618 2.064 2.391 2.828-.227.764-1.731 1.239-1.216 3.572.66 2.849-2.35 4.996-4.947 1.734 0-.681 0-3.303.474-3.778.474-.475 1.546-1.094 1.402-1.197-.145-.104-1.36 1.032-2.515.66a17.703 17.703 0 0 1-1.938-.888s1.113.723 1.773 1.487c.66.764-.371 2.704-.165 3.406-1.299-1.404-3.752-.888-4.453-3.22-.597-4.129 3.278-7.618 4.226-8.403 0 .083.701-.144 2.309 1.012Zm-2.886 2.704a1.861 1.861 0 0 0 .672 2.82 1.856 1.856 0 0 0 2.52-2.357 1.858 1.858 0 0 0-.677-.855 1.815 1.815 0 0 0-2.515.392ZM173.44 68.87s-3.69-5.078-5.875-7.906c-2.185-2.829-4.432-6.607-4.638-6.545a8.458 8.458 0 0 0 .618 6.586 22.067 22.067 0 0 0 3.669 4.129 16.88 16.88 0 0 0 6.226 3.737ZM171.893 75.518a53.388 53.388 0 0 1-3.03-5.595 12.12 12.12 0 0 0-2.205-3.571c-.474-.599-3.175-3.634-3.154-3.654a7.435 7.435 0 0 0 1.422 6.524 22.134 22.134 0 0 0 6.967 6.296Z" fill="#fff"/><path d="M162.226 62.76a35.13 35.13 0 0 1-4.308-10.322c-1.01-4.5-.268-4.996 0-5.038a38.572 38.572 0 0 1 3.834 5.78c.33 1.219-1.216 4.44.35 7.495.639 1.404.33 1.94.124 2.085ZM183.107 82.868a16.379 16.379 0 0 1-4.288-3.737c-.268-.413-6.575-5.244-6.534-5.326a19.822 19.822 0 0 0 5.565 7.7 26.805 26.805 0 0 0 5.896 3.613v-1.796l-.639-.454ZM178.943 78.058a20.79 20.79 0 0 0 4.803 4.129c0-.785 0-1.59-.144-2.375-2.206-.867-4.659-1.754-4.659-1.754ZM178.098 73.061c-3.669-2.064-8.245-4.335-8.245-4.335s.803 2.519 5.4 5.946a20.295 20.295 0 0 0 8.245 3.53c0-.516 0-1.053-.164-1.59a55.905 55.905 0 0 0-5.236-3.55ZM154.887 47.855a10.918 10.918 0 0 0-5.591 2.174 10.946 10.946 0 0 0-3.602 4.803 11.109 11.109 0 0 1-1.01 4.48c-.866 1.652.206 2.663 1.752 3.427 2.061.97 1.134 2.354 2.061 3.82.495.743 12.554 3.447 13.131 2.972 1.793-1.362-5.463-6.544-6.741-21.677Zm-2.061 11.375a2.841 2.841 0 0 1-4.302-1.06 2.854 2.854 0 0 1 1.95-3.984 2.84 2.84 0 0 1 2.971 1.163 2.83 2.83 0 0 1-.619 3.88ZM145.323 47.627a13.38 13.38 0 0 0-.536-1.26c-6.39-13.728-23.849-10.549-32.115 5.947-3.772 7.514-9.07 18.27-8.349 17.981 9.73-3.799 25.045-4.129 25.891-4.253.412 0 5.173-5.8 8.575-4.356 2.824 1.218 5.421-5.677 5.462-9.538a7.918 7.918 0 0 0-1.539-4.806 7.896 7.896 0 0 0-4.129-2.894 24.028 24.028 0 0 0-8.823-1.486 13.44 13.44 0 0 1 14.594 3.592c.346.337.669.695.969 1.073Zm-14.429 13.048a19.534 19.534 0 0 1-13.213 1.218c1.546-.207 10.533 0 9.894-3.076-.453-2.065-2.247-3.014-2.061-3.324.969-1.198 3.009 2.931 7.317 2.56 4.309-.372-.082 1.672-1.999 2.622h.062Zm6.184-9.745a4.128 4.128 0 0 1-3.85 5.128 4.118 4.118 0 0 1-3.913-2.44 4.139 4.139 0 0 1 .792-4.548 4.124 4.124 0 0 1 2.106-1.174 4.12 4.12 0 0 1 4.782 3.034h.083ZM75.877 73.268C72.744 72.05 66.93 61.81 55.16 71.761c-11.77 9.95 1.298 40.195 3.339 39.225 1.608-.743-8.554-19.716-1.71-33.444-2.062 6.915-2.062 16.061 1.215 21.862.99 1.714 1.155-6.193 3.67-8.898 3.998-4.376 5.71.537 7.997-5.553 2.288-6.09 9.998-10.199 6.205-11.685Zm-8.926-1.404a3.046 3.046 0 0 1 3.177 1.187 3.059 3.059 0 0 1-1.208 4.566 3.047 3.047 0 0 1-3.855-4.381 3.071 3.071 0 0 1 1.886-1.372Zm.784 9.435c-3.257.495-3.566 4.81-4.72 4.645-.434 0 2.37-4.83.7-6.07-1.67-1.238-2.597-2.064.969-.66a11.28 11.28 0 0 0 6.184.289c.35.124-1.051 1.404-3.133 1.713v.083ZM142.004 90.857s.866 5.636 2.763 6.648c5.153 2.787 5.648 5.512 5.648 5.512s.515-6.503-.907-7.969a14.203 14.203 0 0 0-7.504-4.19Z" fill="#fff"/><path fill-rule="evenodd" clip-rule="evenodd" d="M149.92 127.729c.991.334 2.003.603 3.03.805-3.463-2.188-6.061-9.166-3.175-12.201a20.67 20.67 0 0 0 4.123 4.934c0-3.737 4.123-5.017 2.061-11.231 9.008 5.698 5.999 16.206 1.629 18.581a10.157 10.157 0 0 0 10.306-4.129c3.793-5.636-10.574-24.774-15.212-30.699-.845-1.094-1.113-.764-.804.723.804 3.963 1.917 11.581-.825 14.451.598-.619-3.133-6.792-6.637-8.815a4.791 4.791 0 0 0-1.526-.578c.216.448.402.91.557 1.383 2.597 8.567-6.617 20.933-.66 24.071a34.273 34.273 0 0 0 7.133 2.705Z" fill="#fff"/><path d="M124.359 102.625c1.69-1.218 8.245-3.283 9.73-2.395 6.184 3.448 3.854 5.409 3.854 5.409.371.371 2.969-.764 1.938-5.285a9.956 9.956 0 0 0-2.32-4.721 9.936 9.936 0 0 0-4.4-2.876c-6.411-2.726-15.893-2.684-18.882-1.28 2.309 2.621 4.659 8.794 10.08 11.148Zm6.555-6.937a2.19 2.19 0 0 1-1.349 2.022 2.18 2.18 0 0 1-2.381-.475 2.191 2.191 0 0 1 .331-3.367c.36-.24.782-.368 1.214-.368a2.167 2.167 0 0 1 2.185 2.188Z" fill="#fff"/><path d="M121.577 102.934c-8.967-4.81-4.247-15.318-19.067-8.257-15.646 7.308-20.717 27.354-20.428 27.581.289.227 6.967-6.937 13.316-10.921.412-.269 5.648-7.866 5.648-7.866s-1.505 4.026-2.185 5.966a41.633 41.633 0 0 1 4.123-1.754c.35-.475.639-.929.865-1.301 1.546-2.663 3.422-6.71 3.422-6.71a71.027 71.027 0 0 0-1.69 7.288c12.863-5.058 20.077-1.837 15.996-4.026ZM136.335 124.57s-1.03 1.796-2.061 1.569a13.29 13.29 0 0 1 .804-5.016c.598-.31 1.876-.145 2.061.805a5.636 5.636 0 0 1-.804 2.642Z" fill="#fff"/><path d="M134.027 120.586c-.454-1.466-5.195-5.079-10.307-7.453-4.308-2.064-2.061-7.019-6.431-6.524-2.494.269-6.349 5.141-7.915 10.178a5.97 5.97 0 0 1-2.305 3.095 5.949 5.949 0 0 1-3.714 1.034 21.891 21.891 0 0 0 4.638-4.129c1.504-2.064 1.607-4.294-1.402-3.984a41.988 41.988 0 0 0-14.965 5.883c-7.978 5.12-10.596 6.627-10.183 6.813.412.186 15.192 0 25.333.847 10.142.846 13.811 1.218 17.851.846 2.062-.206 8.019-.619 8.019-.619s1.834-4.521 1.381-5.987Zm-18.428-9.146c-.536 0 .495-3.014 1.793-3.22 1.299-.207 1.876 1.28 2.061 2.353.186 1.074-3.339.929-3.854.867Zm8.719 7.288a3.012 3.012 0 0 1-3.596 2.956 3.014 3.014 0 0 1 .587-5.97 2.991 2.991 0 0 1 2.134.876 2.998 2.998 0 0 1 .875 2.138ZM141.674 143.336c-12.141-.723-14.738-.991-21.149-1.342-7.029-.392-24.427-2.498-24.736-2.064-.309.433 8.926 3.633 13.997 6.916 6.019 3.881 12.904 8.897 21.644 6.585.432 0-4.123-7.411 2.803-6.441.721 0-7.462 8.815 7.709 5.347 4.123-.929 7.421-5.533 9.256-3.799 1.381-1.218-2.969-4.81-9.524-5.202Zm-.515 7.164a2.057 2.057 0 0 1-1.576-.284 2.059 2.059 0 0 1-.898-1.327 2.066 2.066 0 0 1 1.649-2.394 2.044 2.044 0 0 1 1.576.283 2.066 2.066 0 0 1 .898 1.327 2.065 2.065 0 0 1-1.649 2.395Z" fill="#fff"/><path d="M146.498 153.287c-.618 0-2.494 1.693-3.566 1.466a2.42 2.42 0 0 1-1.793-1.115c-.289-.145-8.246 2.457-8.246 2.457a14.215 14.215 0 0 1-7.565.185c-6.348-2.229-10.018-4.129-10.059-3.303-.041.826 8.658 4.129 7.813 6.607-1.258 3.654-3.175 6.399-.516 5.615 2.062-.619 8.843-6.359 11.647-8.795 2.601.637 5.288.846 7.956.62 2.907-.372 4.968-3.758 4.329-3.737ZM100.922 162.536a2.92 2.92 0 0 0-2.226 0c-.598.227-1.402 1.259-.268 2.58a2.895 2.895 0 0 1 0 3.303c-.598.723-1.629 1.507-1.113 1.59a6.178 6.178 0 0 0 4.947-3.468 4.294 4.294 0 0 0-1.34-4.005ZM104.324 161.379c-.392.166-1.258.64-.866 1.28a10.322 10.322 0 0 1 1.628 2.375 3.67 3.67 0 0 1-.33 3.55c-.536.682-1.236 1.301-.742 1.301a6.03 6.03 0 0 0 1.278-.599c2.701-1.692 3.855-5.904.969-7.803a2.063 2.063 0 0 0-1.937-.104ZM95.728 162.701a1.917 1.917 0 0 0-1.917-.64c-1.031 0-1.34.97-1.258 1.135a4.735 4.735 0 0 1-1.154 5.389c-.459.282-.934.537-1.422.763 0 .207.267.228.432.166a6.499 6.499 0 0 0 4.7-3.304c.907-1.445 1.258-2.704.619-3.509ZM111.6 159.976a3.32 3.32 0 0 0-2.659-.372c-1.072.33-2.062 1.197-.846 1.693a5.044 5.044 0 0 1 3.505 3.757c.371 1.115.206 1.817.494 1.796.402-.32.703-.75.866-1.238a4.711 4.711 0 0 0-1.36-5.636ZM94.037 151.387c2.577 4.129-5.236 4.749-5.4 6.607-.165 1.858 3.895 2.642 9.976 2.457 6.081-.186 9.689-3.345 9.853-5.203 0-1.012-5.215-3.695-9.502-5.017a13.84 13.84 0 0 1 6.823.744c-7.483-8.258-19.17-12.986-25.56-14.803-.763.269-.434 8.031-.269 8.65l1.423-1.692c.845-1.012 1.608-1.033.7 0-1.772 2.25-1.752 5.078-1.113 3.901a16.01 16.01 0 0 1 2.7-2.91 18.662 18.662 0 0 1-1.257 2.064c-.948 1.383-1.731 5.079-.927 3.427a22.424 22.424 0 0 1 2.515-3.716 23.557 23.557 0 0 0-1.67 6.193c0 3.366.866-2.601 2.968-4.83.206.185-3.154 7.845-.268 9.785 2.062.991 3.34-1.879 4.947-3.282a14.042 14.042 0 0 1 4.061-2.375ZM110.631 134.541c.371-4.128 6.184-3.427 13.069-3.055 6.369.33 53.429 1.012 56.274 1.218 3.669.289.927 8.691-4.741 8.609-14.615-.268-53.45-2.209-54.935-2.354-5.194-.536-9.997-.805-9.667-4.418ZM16.264 100.374c2.783-4.603 6.864-7.803 13.11-6.585a7.212 7.212 0 0 0-2.288-1.28c-9.09-2.065-14.43 1.218-12.244 6.874l1.422.991ZM39.31 74.507c-15.522-3.82-25.664 18.002-20.16 15.814 2.138-.871 4.51-.98 6.72-.31 2.762.269 5.462.62 5.771.207 2.2-2.81 5.196-4.89 8.596-5.967.206-.413.495-.764-.536-4.129-.783-2.704 1.814-4.934-.392-5.615Zm-7.566 11.086a3.5 3.5 0 0 1-3.38-1.569c-1.01-1.218-1.175-2.064-.948-2.188a9.497 9.497 0 0 0 4.349 2.23c1.489.205 2.99.308 4.494.31a11.88 11.88 0 0 1-4.515 1.217Zm1.917-2.56a2.721 2.721 0 0 1-3.06-2.343 2.73 2.73 0 0 1 2.339-3.066 2.738 2.738 0 0 1 3.05 2.354 2.709 2.709 0 0 1-1.324 2.715c-.31.179-.65.294-1.005.34Z" fill="#fff"/><path d="M27.436 69.635c-9.585 3.22-12.697 11.56-13.625 21.057-.928 9.497 1.505.744 1.505.744A37.366 37.366 0 0 1 22.2 78.058a1.942 1.942 0 0 1-.433-.991 2.233 2.233 0 0 1 1.566-2.705 3.788 3.788 0 0 1 2.639.372l.227-.145c7.77-4.79 13.604-2.064 13.604-2.064a12.363 12.363 0 0 0-12.368-2.89ZM14.718 108.55a80.843 80.843 0 0 0 2.35 7.308c3.05-2.87 4.267-3.468 1.855-4.975-.783-.434-2.35-1.301-4.205-2.333ZM18.16 117.654a3.738 3.738 0 0 0-.268.496 117.117 117.117 0 0 0 2.803 6.193c-.535-4.934.165-7.019 1.34-6.792.846.165.701 1.012.763.846a7.858 7.858 0 0 1 3.607-3.612s-5.792-1.487-8.245 2.869ZM171.935 50.538c-7.483-3.612-9.709-3.674-12.121-3.365 0 0 5.792 7.185 12.038 16.062a40.329 40.329 0 0 0 10.307 9.393 83.618 83.618 0 0 0-1.278-6.627c-.681-2.849-1.484-5.656-2.412-8.258a19.745 19.745 0 0 0-6.534-7.205ZM98.16 53.676c-16.676 3.943-36.32.867-50.193 17.073-8.142 9.517-11.049 39.019-10.78 49.878.185 7.721-.599 10.756.453 10.9 1.05.145 2.06-9.62 2.597-9.496.536.123 1.257 6.626 2.164 9.971.577 2.064 1.03 1.445 1.175-5.203 0-2.498-.453-4.954.124-5.057.99-.166.556 0 2.061 3.55 2.288 5.678 4.514 8.878 2.412.145-1.608-6.627-1.278-7.288 1.216-2.89 5.545 9.827 5.524 6.689 3.442 1.197-2.308-6.193-2.72-12.387-.35-9.517 5.153 6.09 4.556 4.026-1.381-7.742-5.462-10.838-6.679-35.24 9.4-40.814 10.08-3.51 20.16 3.86 25.148 1.445 7.4-3.634 13.027-13.564 12.512-13.44Z" fill="#fff"/><path d="M115.723 34.89c-20.036 12.613-9.771 22.523-28.137 34.724-16.738 11.169-26.282 37.491-24.242 37.965 2.041.475 11.44-27.292 37.104-36.025a128.054 128.054 0 0 1 14.512-26.528c10.719-15.153 24.633-5.636 26.612-6.75 0-.042-12.451-11.706-25.849-3.387ZM93.584 69.262c0 .144 0 .64-1.113 1.569a10.65 10.65 0 0 1-3.319 1.59 33.582 33.582 0 0 0-4.555 1.507c2.267-2.643 8.925-4.666 8.987-4.666Zm-12.677 9.682a24.942 24.942 0 0 1 6.905-5.016 22.638 22.638 0 0 1 3.051-.434c-.103.268-4.885 2.808-9.956 5.45Zm16.655-9.538A10.616 10.616 0 0 1 92.244 73c.372-.585.793-1.138 1.258-1.652a7.532 7.532 0 0 1 2.514-2.91c1.052-.64 3.113-2.293 3.092-2.065a27.012 27.012 0 0 1-1.546 3.034Zm2.206-5.347a7.671 7.671 0 0 1-.722.93c-.337.378-.71.724-1.113 1.032-.206.144-1.133.68-1.36.805l-3.649 1.651a21.945 21.945 0 0 1 4.309-4.129c1.772-1.073 3.504-4.686 3.813-4.975a21.93 21.93 0 0 1-1.278 4.686ZM55.326 134.459c-1.505 0-.248 6.689-1.031 6.875-1.278.309-1.732-9.703-2.907-9.249-1.875.722 1.217 9.909-1.071 10.322-.949.145-1.526-10.487-3.463-9.517-1.217.599 2.06 10.322.206 10.446-2.474.31-1.155-8.629-2.99-8.258-1.834.372-.886 9.93-2.555 9.043-1.67-.888-.268-10.323-1.464-8.258a59.038 59.038 0 0 0-1.649 6.503c-3.875-3.159-10.1-8.609-12.368-9.909.945.215 1.84.608 2.639 1.156 2.329 1.734 7.482 4.707 7.482 4.707s-4.122-7.082-6.617-8.919a25.799 25.799 0 0 0-7.626-2.684c1.03 1.9 2.06 3.737 3.277 5.533.928 1.425 1.876 2.828 2.886 4.129a150.46 150.46 0 0 0 16.202 16.784 101 101 0 0 0 3.813 2.828c2.062 1.239 3.649 1.776 4.618 1.157 6.41-3.944 4.514-22.833 2.618-22.689ZM35.62 113.608c-11.11-5.306-24.736-13.295-32.095-17.92-4.7-2.952-4.123 1.198-1.546 2.911a340.518 340.518 0 0 0 33.084 18.58c.145-1.114.371-2.477.557-3.571ZM74.496 122.815a48.064 48.064 0 0 1 12.595-22.709 58.476 58.476 0 0 1 40.051-16.515c36.836-1.157 47.081 28.654 45.349 43.952a86.352 86.352 0 0 0 7.854-19.344c-6.39-14.038-21.046-32.04-54.625-29.728a63.634 63.634 0 0 0-41.969 19.922 60.231 60.231 0 0 0-14.594 23.514c1.711.31 3.463.619 5.339.908ZM73.053 145.524a70.295 70.295 0 0 1-.206-12.923l-6.04-1.507a61.898 61.898 0 0 0-.412 17.238 45.458 45.458 0 0 0 7.174 19.984 82.333 82.333 0 0 0 12.718 2.643 41.002 41.002 0 0 1-13.234-25.435Z" fill="#fff"/><path d="M126.751 70.11a70.043 70.043 0 0 0-47.308 22.709 68.437 68.437 0 0 0-16.696 27.684c1.401.351 2.844.681 4.287.991a64.122 64.122 0 0 1 16.12-26.776 68.84 68.84 0 0 1 46.379-20.645c30.096-.722 44.999 17.858 51.533 30.513a84.649 84.649 0 0 0 1.917-12.944c-6.761-11.52-21.911-23.432-56.232-21.532ZM64.787 147.197a66.687 66.687 0 0 1 .247-16.516l-4.493-1.177a71.272 71.272 0 0 0-.474 20.294 53.267 53.267 0 0 0 3.978 15.112c2.212.95 4.46 1.796 6.74 2.539a54.498 54.498 0 0 1-5.998-20.252ZM106.962 133.798a4.276 4.276 0 0 1 .618-2.436 200.472 200.472 0 0 1-36.465-5.409 205.774 205.774 0 0 1-16.057-4.872c.597 1.445 1.195 3.262 1.587 4.583a526.242 526.242 0 0 0 12.945 4.129 209.182 209.182 0 0 0 38.773 6.813 3.496 3.496 0 0 1-1.401-2.808ZM30.982 66.62c2.597-5.698 6.184-9.785 13.605-9.187a8.653 8.653 0 0 0-2.783-1.114c-9.544-.537-16.161 4.397-18.449 12.263a19.765 19.765 0 0 1 7.627-1.962Z" fill="#fff"/><path d="M46.998 63.11c-1.34-1.341.371-4.85-4.122-4.293a12.564 12.564 0 0 0-5.99 2.594 12.59 12.59 0 0 0-3.884 5.25 66.71 66.71 0 0 1 6.988 1.756c.37-.62-.454-1.322-.866-1.693-3.67-3.303-.825-1.693 1.835-.145a6.381 6.381 0 0 0 4.122.207 6.775 6.775 0 0 1-3.298 1.094c-.866 0-1.175 0-1.67.557 1.217.33 2.31.64 4.288 1.074 1.051.227 1.505-.888 2.391-1.755 1.237-1.197 2.268-1.734 2.268-1.9 0-.164.061-.64-2.062-2.745ZM43 65.899a2.059 2.059 0 0 1-2.2-1.587 2.067 2.067 0 0 1 1.273-2.398 2.06 2.06 0 0 1 2.2 1.587A2.067 2.067 0 0 1 43 65.898ZM132.027 107.662a26.37 26.37 0 0 0 1.546 7.061c.433 1.156 3.793 2.374 4.535 2.394 1.216 0 1.773-4.252.598-5.223a21.433 21.433 0 0 0-6.679-4.232ZM224.272 160l-.632-2.408h-4.175l-.651 2.408H215l4.192-12.902h4.632L228.069 160h-3.797Zm-1.353-5.256-.554-2.109a131.637 131.637 0 0 1-.589-2.294 44.085 44.085 0 0 1-.246-1.125c-.052.293-.129.656-.228 1.09-.094.427-.194.852-.299 1.274-.1.422-.188.774-.264 1.055l-.553 2.109h2.733ZM234.807 149.866c1.101 0 1.965.443 2.592 1.327.627.879.941 2.148.941 3.806 0 1.131-.158 2.083-.475 2.856-.316.768-.75 1.348-1.301 1.741a3.142 3.142 0 0 1-1.863.58c-.469 0-.867-.059-1.195-.176a2.806 2.806 0 0 1-.809-.439 3.877 3.877 0 0 1-.536-.537h-.105c.029.229.052.475.07.739.023.263.035.571.035.923v3.638h-3.436v-14.282h2.795l.483 1.266h.158c.164-.258.363-.496.598-.712a2.55 2.55 0 0 1 .852-.528c.34-.134.739-.202 1.196-.202Zm-1.292 2.698c-.334 0-.598.08-.791.238-.194.158-.334.398-.422.72a5.373 5.373 0 0 0-.141 1.187v.272c0 .528.041.973.123 1.336.082.358.223.63.422.818.199.181.475.272.826.272.287 0 .528-.082.721-.246.193-.164.34-.425.439-.782.1-.358.15-.829.15-1.415 0-.873-.114-1.491-.343-1.855-.223-.363-.551-.545-.984-.545ZM245.851 149.866c1.101 0 1.965.443 2.592 1.327.627.879.941 2.148.941 3.806 0 1.131-.158 2.083-.475 2.856-.316.768-.75 1.348-1.301 1.741a3.142 3.142 0 0 1-1.863.58c-.469 0-.867-.059-1.195-.176a2.806 2.806 0 0 1-.809-.439 3.877 3.877 0 0 1-.536-.537h-.105c.029.229.052.475.07.739.023.263.035.571.035.923v3.638h-3.436v-14.282h2.795l.483 1.266h.158c.164-.258.363-.496.598-.712a2.55 2.55 0 0 1 .852-.528c.34-.134.739-.202 1.196-.202Zm-1.292 2.698c-.334 0-.598.08-.791.238-.194.158-.334.398-.422.72a5.373 5.373 0 0 0-.141 1.187v.272c0 .528.041.973.123 1.336.082.358.223.63.422.818.199.181.475.272.826.272.287 0 .528-.082.721-.246.193-.164.34-.425.439-.782.1-.358.15-.829.15-1.415 0-.873-.114-1.491-.343-1.855-.223-.363-.551-.545-.984-.545ZM254.249 160h-3.436v-13.676h3.436V160ZM254.887 150.042h3.621l1.687 5.713a5.765 5.765 0 0 1 .167 1.081h.071a8.44 8.44 0 0 1 .096-.624c.041-.182.08-.328.115-.44l1.731-5.73h3.507l-3.938 10.591c-.304.808-.659 1.485-1.063 2.03a3.778 3.778 0 0 1-1.485 1.239c-.586.282-1.316.422-2.189.422-.316 0-.589-.017-.817-.053a8.185 8.185 0 0 1-.589-.096v-2.698c.129.023.287.046.475.07.187.023.383.035.588.035.381 0 .689-.076.923-.228a1.82 1.82 0 0 0 .589-.607c.152-.246.284-.513.396-.8l.035-.088-3.92-9.817ZM275.551 157.46c.311 0 .595-.032.853-.097a8.66 8.66 0 0 0 .808-.246v2.505a7.006 7.006 0 0 1-1.195.396c-.416.105-.949.158-1.6.158-.644 0-1.213-.1-1.705-.299-.492-.205-.876-.557-1.151-1.055-.27-.504-.405-1.204-.405-2.1v-4.105h-1.204v-1.397l1.53-1.081.887-2.092h2.25v1.995h2.444v2.575h-2.444v3.876c0 .322.082.566.246.73.165.158.393.237.686.237ZM287.922 154.999c0 .832-.114 1.57-.343 2.215a4.339 4.339 0 0 1-.993 1.626 4.268 4.268 0 0 1-1.573 1.002c-.615.222-1.31.334-2.083.334a5.708 5.708 0 0 1-1.986-.334 4.487 4.487 0 0 1-1.565-1.002 4.517 4.517 0 0 1-1.037-1.626c-.24-.645-.36-1.383-.36-2.215 0-1.102.199-2.033.597-2.795a4.115 4.115 0 0 1 1.723-1.74c.75-.399 1.644-.598 2.681-.598.955 0 1.804.199 2.549.598a4.273 4.273 0 0 1 1.749 1.74c.427.762.641 1.693.641 2.795Zm-6.451 0c0 .568.05 1.049.149 1.441.1.387.258.683.475.888.223.199.513.299.87.299.358 0 .642-.1.853-.299.211-.205.363-.501.457-.888.099-.392.149-.873.149-1.441 0-.568-.05-1.043-.149-1.424-.094-.381-.249-.668-.466-.861-.211-.193-.498-.29-.861-.29-.522 0-.9.217-1.134.65-.229.434-.343 1.075-.343 1.925ZM292.445 160.176c-1.026 0-1.869-.437-2.532-1.31-.662-.873-.993-2.15-.993-3.832 0-1.699.34-2.985 1.02-3.858.679-.873 1.558-1.31 2.636-1.31.446 0 .83.065 1.152.194.322.128.6.304.835.527.24.217.448.463.624.738h.07a13.446 13.446 0 0 1-.114-1.037 16.608 16.608 0 0 1-.053-1.301v-2.663h3.463V160h-2.593l-.738-1.257h-.132a3.153 3.153 0 0 1-.597.721c-.235.217-.522.39-.862.518-.334.129-.729.194-1.186.194Zm1.406-2.716c.551 0 .937-.173 1.16-.519.229-.351.352-.884.369-1.599v-.273c0-.785-.111-1.385-.334-1.801-.217-.422-.627-.633-1.23-.633-.41 0-.75.199-1.02.597-.269.399-.404 1.017-.404 1.855 0 .826.135 1.43.404 1.81.276.375.627.563 1.055.563ZM305.255 149.866c1.26 0 2.244.314 2.953.941.709.621 1.064 1.508 1.064 2.663V160h-2.382l-.659-1.318h-.07a4.863 4.863 0 0 1-.871.861 2.923 2.923 0 0 1-1.01.475c-.381.105-.847.158-1.398.158-.574 0-1.09-.117-1.547-.352a2.557 2.557 0 0 1-1.081-1.063c-.263-.475-.395-1.075-.395-1.802 0-1.066.369-1.857 1.107-2.373.738-.516 1.808-.806 3.208-.87l1.661-.053v-.141c0-.445-.111-.761-.334-.949-.216-.187-.509-.281-.879-.281-.392 0-.832.07-1.318.211-.48.135-.964.31-1.45.527l-.993-2.267a7.772 7.772 0 0 1 1.951-.668 11.895 11.895 0 0 1 2.443-.229Zm.598 5.687-.791.035c-.633.023-1.078.135-1.336.334-.252.193-.378.472-.378.835 0 .34.091.592.272.756.182.158.422.237.721.237.416 0 .771-.132 1.064-.396.298-.263.448-.606.448-1.028v-.773ZM309.866 150.042h3.621l1.687 5.713c.024.082.047.184.071.307.023.118.043.244.061.378.018.135.029.267.035.396h.071a8.44 8.44 0 0 1 .096-.624c.041-.182.079-.328.114-.44l1.732-5.73h3.507l-3.938 10.591c-.304.808-.659 1.485-1.063 2.03a3.78 3.78 0 0 1-1.486 1.239c-.586.282-1.315.422-2.188.422-.316 0-.589-.017-.817-.053a8.185 8.185 0 0 1-.589-.096v-2.698c.129.023.287.046.474.07.188.023.384.035.589.035.381 0 .689-.076.923-.228a1.83 1.83 0 0 0 .589-.607c.152-.246.284-.513.395-.8l.036-.088-3.92-9.817ZM330.53 157.46c.31 0 .594-.032.852-.097.258-.064.528-.146.809-.246v2.505a7.036 7.036 0 0 1-1.195.396c-.416.105-.95.158-1.6.158-.645 0-1.213-.1-1.705-.299-.492-.205-.876-.557-1.151-1.055-.27-.504-.405-1.204-.405-2.1v-4.105h-1.204v-1.397l1.529-1.081.888-2.092h2.25v1.995h2.443v2.575h-2.443v3.876c0 .322.082.566.246.73.164.158.393.237.686.237ZM342.901 154.999c0 .832-.114 1.57-.343 2.215a4.339 4.339 0 0 1-.993 1.626 4.276 4.276 0 0 1-1.573 1.002c-.616.222-1.31.334-2.083.334a5.718 5.718 0 0 1-1.987-.334 4.492 4.492 0 0 1-1.564-1.002 4.517 4.517 0 0 1-1.037-1.626c-.24-.645-.361-1.383-.361-2.215 0-1.102.2-2.033.598-2.795a4.11 4.11 0 0 1 1.723-1.74c.75-.399 1.643-.598 2.68-.598.956 0 1.805.199 2.549.598a4.273 4.273 0 0 1 1.749 1.74c.428.762.642 1.693.642 2.795Zm-6.451 0c0 .568.05 1.049.149 1.441.1.387.258.683.475.888.222.199.512.299.87.299.357 0 .641-.1.852-.299.211-.205.364-.501.457-.888.1-.392.15-.873.15-1.441 0-.568-.05-1.043-.15-1.424-.093-.381-.249-.668-.465-.861-.211-.193-.498-.29-.862-.29-.521 0-.899.217-1.133.65-.229.434-.343 1.075-.343 1.925ZM351.867 164.324c-1.412 0-2.502-.237-3.27-.712-.761-.468-1.142-1.145-1.142-2.03 0-.592.184-1.081.553-1.468.37-.386.923-.665 1.662-.835a2.026 2.026 0 0 1-.8-.624c-.223-.287-.334-.571-.334-.852 0-.311.085-.583.255-.818.17-.24.524-.524 1.063-.852a2.682 2.682 0 0 1-1.222-1.072c-.293-.487-.439-1.079-.439-1.776 0-.721.164-1.336.492-1.846.334-.509.818-.899 1.45-1.168.639-.27 1.415-.405 2.329-.405.123 0 .311.012.563.035.252.018.507.041.765.071.257.023.457.047.597.07h3.472v1.661l-1.362.501c.093.17.164.355.211.554.046.199.07.41.07.633 0 1.072-.378 1.904-1.134 2.496-.75.592-1.872.887-3.366.887a4.34 4.34 0 0 1-.879-.07 1.288 1.288 0 0 0-.097.229.855.855 0 0 0-.026.202c0 .135.079.243.237.325.164.076.361.129.589.158.234.029.457.044.668.044h1.652c1.12 0 1.957.234 2.514.703.557.469.835 1.175.835 2.118 0 1.213-.519 2.157-1.556 2.83-1.031.674-2.481 1.011-4.35 1.011Zm.167-2.144a6.99 6.99 0 0 0 1.257-.115c.421-.07.776-.187 1.063-.351.287-.164.431-.381.431-.651a.512.512 0 0 0-.255-.465c-.17-.1-.39-.167-.659-.202a6.457 6.457 0 0 0-.853-.053h-1.336a1.94 1.94 0 0 0-.677.114c-.199.082-.357.19-.474.325a.68.68 0 0 0-.176.457c0 .282.152.507.457.677.305.176.712.264 1.222.264Zm.466-7.348c.328 0 .58-.126.755-.378.182-.252.273-.63.273-1.134 0-.515-.085-.902-.255-1.16-.17-.258-.428-.387-.773-.387-.358 0-.624.129-.8.387-.176.252-.264.633-.264 1.143 0 .509.088.893.264 1.151.176.252.442.378.8.378ZM363.324 149.866c.967 0 1.802.17 2.505.51a3.597 3.597 0 0 1 1.626 1.512c.381.674.571 1.517.571 2.531v1.529h-6.144c.03.522.223.949.581 1.283.363.334.896.501 1.599.501.621 0 1.19-.061 1.705-.184a8.348 8.348 0 0 0 1.609-.571v2.469a5.956 5.956 0 0 1-1.574.554c-.568.117-1.286.176-2.153.176-1.002 0-1.898-.179-2.689-.536a4.151 4.151 0 0 1-1.872-1.661c-.452-.75-.677-1.714-.677-2.892 0-1.195.205-2.177.615-2.944.41-.774.984-1.345 1.723-1.714.738-.375 1.596-.563 2.575-.563Zm.123 2.338c-.404 0-.744.129-1.02.387-.269.252-.427.65-.474 1.195h2.953a1.987 1.987 0 0 0-.176-.8 1.334 1.334 0 0 0-.492-.571c-.211-.141-.475-.211-.791-.211ZM374.306 157.46c.311 0 .595-.032.853-.097a8.57 8.57 0 0 0 .808-.246v2.505a7.006 7.006 0 0 1-1.195.396c-.416.105-.949.158-1.599.158-.645 0-1.213-.1-1.706-.299-.492-.205-.876-.557-1.151-1.055-.269-.504-.404-1.204-.404-2.1v-4.105h-1.204v-1.397l1.529-1.081.888-2.092h2.25v1.995h2.443v2.575h-2.443v3.876c0 .322.082.566.246.73.164.158.392.237.685.237ZM388.704 156.941c0 .633-.141 1.193-.422 1.679s-.732.867-1.354 1.143c-.615.275-1.426.413-2.434.413-.709 0-1.345-.038-1.907-.114a7.84 7.84 0 0 1-1.697-.44v-2.751a8.63 8.63 0 0 0 1.916.624c.651.123 1.163.185 1.538.185.387 0 .668-.041.844-.123.182-.088.273-.217.273-.387a.456.456 0 0 0-.185-.369c-.117-.106-.331-.226-.641-.361a59.585 59.585 0 0 0-1.292-.544 6.683 6.683 0 0 1-1.38-.748 2.613 2.613 0 0 1-.818-.966c-.181-.375-.272-.835-.272-1.38 0-.973.375-1.705 1.125-2.198.75-.492 1.743-.738 2.979-.738.657 0 1.275.073 1.855.22.58.141 1.18.349 1.802.624l-.941 2.215a9.578 9.578 0 0 0-1.494-.536c-.504-.135-.905-.202-1.204-.202-.27 0-.478.035-.624.105-.147.07-.22.173-.22.308 0 .123.05.231.15.325.105.094.301.202.588.325.288.123.706.296 1.257.519.58.234 1.058.486 1.433.755.381.264.662.586.844.967.187.381.281.864.281 1.45ZM394.958 157.46c.31 0 .595-.032.852-.097.258-.064.528-.146.809-.246v2.505a7.006 7.006 0 0 1-1.195.396c-.416.105-.95.158-1.6.158-.645 0-1.213-.1-1.705-.299-.492-.205-.876-.557-1.151-1.055-.27-.504-.405-1.204-.405-2.1v-4.105h-1.204v-1.397l1.529-1.081.888-2.092h2.25v1.995h2.444v2.575h-2.444v3.876c0 .322.082.566.246.73.164.158.393.237.686.237ZM402.68 149.866c1.259 0 2.244.314 2.953.941.709.621 1.063 1.508 1.063 2.663V160h-2.382l-.659-1.318h-.07a4.827 4.827 0 0 1-.87.861c-.293.217-.63.375-1.011.475-.381.105-.847.158-1.398.158a3.33 3.33 0 0 1-1.546-.352 2.552 2.552 0 0 1-1.081-1.063c-.264-.475-.396-1.075-.396-1.802 0-1.066.369-1.857 1.107-2.373.739-.516 1.808-.806 3.208-.87l1.662-.053v-.141c0-.445-.112-.761-.334-.949-.217-.187-.51-.281-.879-.281-.393 0-.832.07-1.319.211-.48.135-.964.31-1.45.527l-.993-2.267a7.786 7.786 0 0 1 1.951-.668 11.905 11.905 0 0 1 2.444-.229Zm.597 5.687-.791.035c-.633.023-1.078.135-1.336.334-.252.193-.378.472-.378.835 0 .34.091.592.273.756.181.158.422.237.72.237.416 0 .771-.132 1.064-.396.299-.263.448-.606.448-1.028v-.773ZM414.506 149.866c.187 0 .384.015.589.044.205.024.357.044.457.062l-.308 3.243a2.826 2.826 0 0 0-.431-.07 5.788 5.788 0 0 0-.738-.036c-.217 0-.448.021-.694.062a1.967 1.967 0 0 0-.703.264 1.45 1.45 0 0 0-.537.597c-.14.264-.21.621-.21 1.072V160h-3.437v-9.958h2.558l.536 1.591h.167a3.604 3.604 0 0 1 1.652-1.529 2.68 2.68 0 0 1 1.099-.238ZM421.287 157.46c.311 0 .595-.032.853-.097a8.66 8.66 0 0 0 .808-.246v2.505a7.006 7.006 0 0 1-1.195.396c-.416.105-.949.158-1.6.158-.644 0-1.213-.1-1.705-.299-.492-.205-.876-.557-1.151-1.055-.27-.504-.404-1.204-.404-2.1v-4.105h-1.205v-1.397l1.53-1.081.887-2.092h2.25v1.995h2.444v2.575h-2.444v3.876c0 .322.082.566.246.73.165.158.393.237.686.237ZM428.631 149.866c.967 0 1.802.17 2.505.51a3.597 3.597 0 0 1 1.626 1.512c.381.674.571 1.517.571 2.531v1.529h-6.144c.03.522.223.949.58 1.283.364.334.897.501 1.6.501.621 0 1.19-.061 1.705-.184a8.348 8.348 0 0 0 1.609-.571v2.469a5.956 5.956 0 0 1-1.574.554c-.568.117-1.286.176-2.153.176-1.002 0-1.898-.179-2.689-.536a4.159 4.159 0 0 1-1.873-1.661c-.451-.75-.676-1.714-.676-2.892 0-1.195.205-2.177.615-2.944.41-.774.984-1.345 1.723-1.714.738-.375 1.596-.563 2.575-.563Zm.123 2.338c-.404 0-.744.129-1.02.387-.269.252-.427.65-.474 1.195h2.953a1.987 1.987 0 0 0-.176-.8 1.334 1.334 0 0 0-.492-.571c-.211-.141-.475-.211-.791-.211ZM437.829 160.176c-1.025 0-1.869-.437-2.531-1.31-.662-.873-.993-2.15-.993-3.832 0-1.699.34-2.985 1.019-3.858.68-.873 1.559-1.31 2.637-1.31.445 0 .829.065 1.151.194.323.128.601.304.835.527.241.217.449.463.624.738h.071a16.598 16.598 0 0 1-.167-2.338v-2.663h3.463V160h-2.593l-.739-1.257h-.131a3.184 3.184 0 0 1-.598.721c-.234.217-.522.39-.861.518-.334.129-.73.194-1.187.194Zm1.406-2.716c.551 0 .938-.173 1.161-.519.228-.351.351-.884.369-1.599v-.273c0-.785-.112-1.385-.334-1.801-.217-.422-.627-.633-1.231-.633-.41 0-.75.199-1.019.597-.27.399-.405 1.017-.405 1.855 0 .826.135 1.43.405 1.81.275.375.627.563 1.054.563ZM459.425 154.999c0 .832-.114 1.57-.343 2.215a4.339 4.339 0 0 1-.993 1.626 4.276 4.276 0 0 1-1.573 1.002c-.616.222-1.31.334-2.083.334a5.718 5.718 0 0 1-1.987-.334 4.492 4.492 0 0 1-1.564-1.002 4.517 4.517 0 0 1-1.037-1.626c-.24-.645-.361-1.383-.361-2.215 0-1.102.2-2.033.598-2.795a4.11 4.11 0 0 1 1.723-1.74c.75-.399 1.643-.598 2.68-.598.956 0 1.805.199 2.549.598a4.273 4.273 0 0 1 1.749 1.74c.428.762.642 1.693.642 2.795Zm-6.451 0c0 .568.05 1.049.149 1.441.1.387.258.683.475.888.222.199.512.299.87.299.357 0 .641-.1.852-.299.211-.205.364-.501.457-.888.1-.392.15-.873.15-1.441 0-.568-.05-1.043-.15-1.424-.093-.381-.249-.668-.465-.861-.211-.193-.498-.29-.862-.29-.521 0-.899.217-1.134.65-.228.434-.342 1.075-.342 1.925ZM467.085 149.866c1.025 0 1.863.29 2.514.87.65.58.975 1.509.975 2.786V160h-3.436v-5.432c0-.662-.097-1.16-.29-1.494-.188-.34-.492-.51-.914-.51-.651 0-1.087.267-1.31.8-.223.528-.334 1.286-.334 2.277V160h-3.436v-9.958h2.592l.466 1.318h.132a3.207 3.207 0 0 1 1.767-1.318 4.326 4.326 0 0 1 1.274-.176ZM475.304 150.042h3.621l1.687 5.713a5.765 5.765 0 0 1 .167 1.081h.071a8.44 8.44 0 0 1 .096-.624c.041-.182.08-.328.115-.44l1.731-5.73h3.507l-3.937 10.591c-.305.808-.66 1.485-1.064 2.03a3.778 3.778 0 0 1-1.485 1.239c-.586.282-1.316.422-2.189.422-.316 0-.589-.017-.817-.053a8.185 8.185 0 0 1-.589-.096v-2.698c.129.023.287.046.475.07.187.023.383.035.588.035.381 0 .689-.076.923-.228a1.82 1.82 0 0 0 .589-.607c.152-.246.284-.513.396-.8l.035-.088-3.92-9.817ZM496.464 154.999c0 .832-.114 1.57-.343 2.215a4.339 4.339 0 0 1-.993 1.626 4.268 4.268 0 0 1-1.573 1.002c-.615.222-1.31.334-2.083.334a5.708 5.708 0 0 1-1.986-.334 4.487 4.487 0 0 1-1.565-1.002 4.517 4.517 0 0 1-1.037-1.626c-.24-.645-.36-1.383-.36-2.215 0-1.102.199-2.033.597-2.795a4.115 4.115 0 0 1 1.723-1.74c.75-.399 1.644-.598 2.681-.598.955 0 1.804.199 2.548.598a4.269 4.269 0 0 1 1.75 1.74c.427.762.641 1.693.641 2.795Zm-6.451 0c0 .568.05 1.049.149 1.441.1.387.258.683.475.888.223.199.513.299.87.299.358 0 .642-.1.853-.299.211-.205.363-.501.457-.888.099-.392.149-.873.149-1.441 0-.568-.05-1.043-.149-1.424-.094-.381-.249-.668-.466-.861-.211-.193-.498-.29-.861-.29-.522 0-.9.217-1.134.65-.229.434-.343 1.075-.343 1.925ZM507.578 150.042V160h-2.592l-.431-1.239h-.202a2.611 2.611 0 0 1-.782.817 3.287 3.287 0 0 1-1.038.448c-.38.1-.776.15-1.186.15a4.05 4.05 0 0 1-1.767-.378c-.521-.252-.937-.648-1.248-1.187-.304-.539-.457-1.233-.457-2.083v-6.486h3.437v5.44c0 .645.091 1.137.272 1.477.188.334.492.501.914.501.434 0 .768-.117 1.002-.352.241-.234.408-.58.501-1.037.094-.457.141-1.013.141-1.67v-4.359h3.436ZM515.423 149.866c.188 0 .384.015.589.044.205.024.357.044.457.062l-.308 3.243a2.81 2.81 0 0 0-.43-.07 5.806 5.806 0 0 0-.739-.036c-.216 0-.448.021-.694.062-.246.041-.48.129-.703.264-.217.128-.395.328-.536.597-.141.264-.211.621-.211 1.072V160h-3.437v-9.958h2.558l.536 1.591h.167a3.608 3.608 0 0 1 1.653-1.529 2.672 2.672 0 0 1 1.098-.238ZM521.664 160v-12.85h3.49V160h-3.49ZM533.069 160h-3.472v-10.011h-3.138v-2.839h9.739v2.839h-3.129V160ZM545.963 160.176c-1.007 0-1.883-.179-2.628-.536a3.879 3.879 0 0 1-1.731-1.67c-.404-.756-.606-1.723-.606-2.901 0-1.207.225-2.194.676-2.962a4.16 4.16 0 0 1 1.872-1.696c.791-.363 1.688-.545 2.69-.545a7.314 7.314 0 0 1 3.261.756l-1.011 2.54a9.564 9.564 0 0 0-1.151-.431 3.631 3.631 0 0 0-1.099-.167c-.346 0-.651.091-.914.273-.264.182-.469.457-.615.826-.147.363-.22.826-.22 1.389 0 .574.073 1.037.22 1.388.152.352.36.607.624.765.269.158.577.237.922.237.498 0 .994-.076 1.486-.228.498-.158.97-.375 1.415-.651v2.734c-.41.269-.873.483-1.389.641-.515.159-1.116.238-1.802.238ZM555.452 149.866c1.259 0 2.244.314 2.953.941.709.621 1.063 1.508 1.063 2.663V160h-2.382l-.659-1.318h-.07a4.827 4.827 0 0 1-.87.861c-.293.217-.63.375-1.011.475-.381.105-.847.158-1.397.158-.575 0-1.09-.117-1.547-.352a2.552 2.552 0 0 1-1.081-1.063c-.264-.475-.396-1.075-.396-1.802 0-1.066.369-1.857 1.108-2.373.738-.516 1.807-.806 3.208-.87l1.661-.053v-.141c0-.445-.112-.761-.334-.949-.217-.187-.51-.281-.879-.281-.393 0-.832.07-1.318.211a10.6 10.6 0 0 0-1.451.527l-.993-2.267a7.786 7.786 0 0 1 1.951-.668 11.905 11.905 0 0 1 2.444-.229Zm.597 5.687-.791.035c-.632.023-1.078.135-1.336.334-.252.193-.378.472-.378.835 0 .34.091.592.273.756.182.158.422.237.721.237.416 0 .77-.132 1.063-.396.299-.263.448-.606.448-1.028v-.773ZM567.278 149.866c.187 0 .384.015.589.044.205.024.357.044.457.062l-.308 3.243a2.832 2.832 0 0 0-.43-.07 5.806 5.806 0 0 0-.739-.036c-.217 0-.448.021-.694.062a1.967 1.967 0 0 0-.703.264 1.441 1.441 0 0 0-.536.597c-.141.264-.211.621-.211 1.072V160h-3.437v-9.958h2.558l.536 1.591h.167c.182-.328.413-.624.694-.888.287-.269.607-.483.958-.641a2.68 2.68 0 0 1 1.099-.238ZM573.664 149.866c.966 0 1.801.17 2.505.51a3.597 3.597 0 0 1 1.626 1.512c.38.674.571 1.517.571 2.531v1.529h-6.144c.03.522.223.949.58 1.283.364.334.897.501 1.6.501.621 0 1.189-.061 1.705-.184a8.316 8.316 0 0 0 1.608-.571v2.469a5.936 5.936 0 0 1-1.573.554c-.568.117-1.286.176-2.153.176-1.002 0-1.899-.179-2.69-.536a4.151 4.151 0 0 1-1.872-1.661c-.451-.75-.676-1.714-.676-2.892 0-1.195.205-2.177.615-2.944.41-.774.984-1.345 1.723-1.714.738-.375 1.596-.563 2.575-.563Zm.123 2.338c-.405 0-.744.129-1.02.387-.269.252-.428.65-.474 1.195h2.953a1.987 1.987 0 0 0-.176-.8 1.334 1.334 0 0 0-.492-.571c-.211-.141-.475-.211-.791-.211ZM584.251 149.866c.966 0 1.801.17 2.505.51a3.597 3.597 0 0 1 1.626 1.512c.38.674.571 1.517.571 2.531v1.529h-6.144c.03.522.223.949.58 1.283.364.334.897.501 1.6.501.621 0 1.189-.061 1.705-.184a8.316 8.316 0 0 0 1.608-.571v2.469a5.936 5.936 0 0 1-1.573.554c-.568.117-1.286.176-2.153.176-1.002 0-1.899-.179-2.69-.536a4.151 4.151 0 0 1-1.872-1.661c-.451-.75-.676-1.714-.676-2.892 0-1.195.205-2.177.615-2.944.41-.774.984-1.345 1.722-1.714.739-.375 1.597-.563 2.576-.563Zm.123 2.338c-.405 0-.744.129-1.02.387-.269.252-.428.65-.474 1.195h2.953a1.987 1.987 0 0 0-.176-.8 1.334 1.334 0 0 0-.492-.571c-.211-.141-.475-.211-.791-.211ZM596.367 149.866c.187 0 .384.015.589.044.205.024.357.044.457.062l-.308 3.243a2.832 2.832 0 0 0-.43-.07 5.806 5.806 0 0 0-.739-.036c-.217 0-.448.021-.694.062a1.967 1.967 0 0 0-.703.264 1.441 1.441 0 0 0-.536.597c-.141.264-.211.621-.211 1.072V160h-3.437v-9.958h2.558l.536 1.591h.167c.182-.328.413-.624.694-.888.287-.269.607-.483.958-.641a2.68 2.68 0 0 1 1.099-.238ZM602.151 164.324c-.275 0-.592-.023-.949-.07a7.028 7.028 0 0 1-.897-.15v-2.68a4.11 4.11 0 0 0 1.055.158c.281 0 .525-.1.73-.299.211-.193.316-.592.316-1.195v-10.046h3.437v10.767c0 .597-.118 1.163-.352 1.696-.234.539-.621.975-1.16 1.309-.539.34-1.266.51-2.18.51Zm.167-16.761c0-.609.176-1.016.528-1.221.357-.205.788-.308 1.292-.308.492 0 .919.103 1.283.308.369.205.553.612.553 1.221 0 .592-.184.994-.553 1.205-.364.205-.791.307-1.283.307-.504 0-.935-.102-1.292-.307-.352-.211-.528-.613-.528-1.205ZM617.212 154.999c0 .832-.114 1.57-.343 2.215a4.364 4.364 0 0 1-.993 1.626 4.276 4.276 0 0 1-1.573 1.002c-.616.222-1.31.334-2.083.334a5.718 5.718 0 0 1-1.987-.334 4.492 4.492 0 0 1-1.564-1.002 4.504 4.504 0 0 1-1.037-1.626c-.241-.645-.361-1.383-.361-2.215 0-1.102.2-2.033.598-2.795a4.11 4.11 0 0 1 1.723-1.74c.75-.399 1.643-.598 2.68-.598.955 0 1.805.199 2.549.598a4.273 4.273 0 0 1 1.749 1.74c.428.762.642 1.693.642 2.795Zm-6.451 0c0 .568.049 1.049.149 1.441.1.387.258.683.475.888.222.199.512.299.87.299.357 0 .641-.1.852-.299.211-.205.364-.501.457-.888.1-.392.15-.873.15-1.441 0-.568-.05-1.043-.15-1.424-.093-.381-.249-.668-.466-.861-.21-.193-.498-.29-.861-.29-.521 0-.899.217-1.134.65-.228.434-.342 1.075-.342 1.925ZM628.326 150.042V160h-2.593l-.43-1.239h-.203a2.6 2.6 0 0 1-.782.817c-.31.205-.656.355-1.037.448-.381.1-.776.15-1.186.15-.651 0-1.24-.126-1.767-.378-.521-.252-.937-.648-1.248-1.187-.305-.539-.457-1.233-.457-2.083v-6.486h3.436v5.44c0 .645.091 1.137.273 1.477.187.334.492.501.914.501.434 0 .768-.117 1.002-.352.24-.234.407-.58.501-1.037.094-.457.141-1.013.141-1.67v-4.359h3.436ZM636.171 149.866c.187 0 .384.015.589.044.205.024.357.044.457.062l-.308 3.243a2.826 2.826 0 0 0-.431-.07 5.777 5.777 0 0 0-.738-.036c-.217 0-.448.021-.694.062a1.967 1.967 0 0 0-.703.264 1.441 1.441 0 0 0-.536.597c-.141.264-.211.621-.211 1.072V160h-3.437v-9.958h2.558l.536 1.591h.167a3.604 3.604 0 0 1 1.652-1.529 2.68 2.68 0 0 1 1.099-.238ZM644.306 149.866c1.025 0 1.863.29 2.513.87.651.58.976 1.509.976 2.786V160h-3.437v-5.432c0-.662-.096-1.16-.29-1.494-.187-.34-.492-.51-.914-.51-.65 0-1.087.267-1.309.8-.223.528-.334 1.286-.334 2.277V160h-3.437v-9.958h2.593l.466 1.318h.132c.211-.316.463-.586.755-.808.293-.223.63-.393 1.011-.51a4.333 4.333 0 0 1 1.275-.176ZM654.075 149.866c.967 0 1.802.17 2.505.51a3.597 3.597 0 0 1 1.626 1.512c.381.674.571 1.517.571 2.531v1.529h-6.143c.029.522.222.949.58 1.283.363.334.896.501 1.599.501.622 0 1.19-.061 1.706-.184a8.363 8.363 0 0 0 1.608-.571v2.469a5.962 5.962 0 0 1-1.573.554c-.569.117-1.286.176-2.154.176-1.002 0-1.898-.179-2.689-.536a4.151 4.151 0 0 1-1.872-1.661c-.451-.75-.677-1.714-.677-2.892 0-1.195.205-2.177.615-2.944.411-.774.985-1.345 1.723-1.714.738-.375 1.597-.563 2.575-.563Zm.123 2.338c-.404 0-.744.129-1.019.387-.27.252-.428.65-.475 1.195h2.953a1.97 1.97 0 0 0-.176-.8 1.334 1.334 0 0 0-.492-.571c-.211-.141-.474-.211-.791-.211ZM658.976 150.042h3.621l1.687 5.713c.024.082.047.184.071.307.023.118.043.244.061.378.018.135.029.267.035.396h.071a8.44 8.44 0 0 1 .096-.624c.041-.182.079-.328.114-.44l1.732-5.73h3.507l-3.938 10.591c-.304.808-.659 1.485-1.063 2.03a3.78 3.78 0 0 1-1.486 1.239c-.586.282-1.315.422-2.188.422-.316 0-.589-.017-.817-.053a8.185 8.185 0 0 1-.589-.096v-2.698c.129.023.287.046.474.07.188.023.384.035.589.035.381 0 .689-.076.923-.228a1.83 1.83 0 0 0 .589-.607c.152-.246.284-.513.395-.8l.036-.088-3.92-9.817ZM670.195 158.541c0-.621.182-1.058.545-1.31.369-.252.812-.377 1.327-.377.487 0 .909.125 1.266.377.358.252.536.689.536 1.31 0 .592-.178 1.02-.536 1.283-.357.264-.779.396-1.266.396-.515 0-.958-.132-1.327-.396-.363-.263-.545-.691-.545-1.283Z" fill="#fff"/></svg>
